<?xml version="1.0" encoding="UTF-8"?>
<!DOCTYPE svg PUBLIC "-//W3C//DTD SVG 1.1//EN" "http://www.w3.org/Graphics/SVG/1.1/DTD/svg11.dtd">
<svg xmlns="http://www.w3.org/2000/svg" xmlns:xlink="http://www.w3.org/1999/xlink" version="1.1" width="1326px" height="939px" viewBox="-0.5 -0.5 1326 939" style="background-color: rgb(255, 255, 255);"><defs/><g><path d="M 444 931 Q 514 795 513 773 Q 512 751 527.5 722.5 Q 543 694 529.5 679 Q 516 664 480 684.5 Q 444 705 412 777.5 Q 380 850 382 767.5 Q 384 685 415 609 Q 446 533 498 487 Q 550 441 531 417.5 Q 512 394 469.5 418.5 Q 427 443 352 564 Q 277 685 319 559 Q 361 433 390 402 Q 419 371 412 347 Q 405 323 379.5 325 Q 354 327 315.5 382 Q 277 437 222 569 Q 167 701 200.5 571 Q 234 441 250.5 376.5 Q 267 312 237.5 316 Q 208 320 166.5 400 Q 125 480 107.5 609 Q 90 738 85.5 657 Q 81 576 107.5 512.5 Q 134 449 113.5 443 Q 93 437 72 454.5 Q 51 472 20.5 539 Q -10 606 13.5 685.5 Q 37 765 18 922" fill="none" stroke="#808080" stroke-width="7" stroke-miterlimit="10" pointer-events="stroke"/><path d="M 311 723 L 428.48 732.57" fill="none" stroke="#ff0000" stroke-width="7" stroke-miterlimit="10" pointer-events="stroke"/><path d="M 438.2 733.36 L 424.71 738.79 L 428.48 732.57 L 425.77 725.83 Z" fill="#ff0000" stroke="#ff0000" stroke-width="7" stroke-miterlimit="10" pointer-events="all"/><path d="M 315 721 L 300.81 633.35" fill="none" stroke="#33ff33" stroke-width="7" stroke-miterlimit="10" pointer-events="stroke"/><path d="M 299.25 623.73 L 307.74 635.52 L 300.81 633.35 L 294.91 637.6 Z" fill="#33ff33" stroke="#33ff33" stroke-width="7" stroke-miterlimit="10" pointer-events="all"/><path d="M 314 724 L 278.42 814.64" fill="none" stroke="#0000ff" stroke-width="7" stroke-miterlimit="10" pointer-events="stroke"/><path d="M 274.86 823.72 L 273.56 809.24 L 278.42 814.64 L 285.66 813.99 Z" fill="#0000ff" stroke="#0000ff" stroke-width="7" stroke-miterlimit="10" pointer-events="all"/><path d="M 321 715.93 L 524 145" fill="none" stroke="#b8b8b8" stroke-width="10" stroke-miterlimit="10" stroke-dasharray="10 10" pointer-events="stroke"/><path d="M 1304 935 Q 1299 774 1313 710 Q 1327 646 1319 538 Q 1311 430 1276 422.5 Q 1241 415 1241 468 Q 1241 521 1244.5 564 Q 1248 607 1235 647 Q 1222 687 1216.5 665 Q 1211 643 1196.5 583 Q 1182 523 1161.5 457.5 Q 1141 392 1114.5 348 Q 1088 304 1059.5 311.5 Q 1031 319 1071.5 416 Q 1112 513 1142.5 644.5 Q 1173 776 1129.5 599 Q 1086 422 1070 381.5 Q 1054 341 1027.5 314.5 Q 1001 288 972 300 Q 943 312 983 416 Q 1023 520 1036.5 619 Q 1050 718 992 600.5 Q 934 483 907.5 444 Q 881 405 843.5 395.5 Q 806 386 788 410 Q 770 434 812 463 Q 854 492 887.5 593 Q 921 694 919.5 760.5 Q 918 827 900.5 804.5 Q 883 782 865.5 764.5 Q 848 747 837 720.5 Q 826 694 798 680.5 Q 770 667 749.5 670 Q 729 673 746 701.5 Q 763 730 764.5 761.5 Q 766 793 858 933" fill="none" stroke="#808080" stroke-width="7" stroke-miterlimit="10" pointer-events="stroke"/><path d="M 990 736 L 1108.47 727.29" fill="none" stroke="#ff0000" stroke-width="7" stroke-miterlimit="10" pointer-events="stroke"/><path d="M 1118.2 726.57 L 1105.71 734.01 L 1108.47 727.29 L 1104.75 721.04 Z" fill="#ff0000" stroke="#ff0000" stroke-width="7" stroke-miterlimit="10" pointer-events="all"/><path d="M 994 734 L 1004.96 640.46" fill="none" stroke="#33ff33" stroke-width="7" stroke-miterlimit="10" pointer-events="stroke"/><path d="M 1006.09 630.77 L 1011.03 644.44 L 1004.96 640.46 L 998.12 642.93 Z" fill="#33ff33" stroke="#33ff33" stroke-width="7" stroke-miterlimit="10" pointer-events="all"/><path d="M 993 737 L 1028.08 818.85" fill="none" stroke="#0000ff" stroke-width="7" stroke-miterlimit="10" pointer-events="stroke"/><path d="M 1031.92 827.81 L 1020.82 818.42 L 1028.08 818.85 L 1032.77 813.3 Z" fill="#0000ff" stroke="#0000ff" stroke-width="7" stroke-miterlimit="10" pointer-events="all"/><path d="M 993 736 L 676 5" fill="none" stroke="#b5b5b5" stroke-width="10" stroke-miterlimit="10" stroke-dasharray="10 10" pointer-events="stroke"/><path d="M 406 471 L 556 58" fill="none" stroke="#4d4d4d" stroke-width="10" stroke-miterlimit="10" stroke-dasharray="10 10" pointer-events="stroke"/><path d="M 850 400 L 681 16" fill="none" stroke="#4d4d4d" stroke-width="10" stroke-miterlimit="10" stroke-dasharray="10 10" pointer-events="stroke"/></g></svg>
