<svg viewBox="0 0 7 7" xmlns="http://www.w3.org/2000/svg" shape-rendering="crispEdges" width="100mm" height="100mm"><rect x="0" y="0" width="7" height="7" fill="black"></rect><rect width="1.5" height="1" x="2" y="1" fill="white"></rect><rect width="1" height="1" x="3" y="1" fill="white"></rect><rect width="1" height="1.5" x="3" y="1" fill="white"></rect><rect width="1.5" height="1" x="3" y="2" fill="white"></rect><rect width="1" height="1" x="4" y="2" fill="white"></rect><rect width="1" height="1.5" x="4" y="2" fill="white"></rect><rect width="1" height="1" x="4" y="3" fill="white"></rect><rect width="1" height="1.5" x="4" y="3" fill="white"></rect><rect width="1.5" height="1" x="2" y="4" fill="white"></rect><rect width="1" height="1.5" x="2" y="4" fill="white"></rect><rect width="1.5" height="1" x="3" y="4" fill="white"></rect><rect width="1" height="1" x="4" y="4" fill="white"></rect><rect width="1.5" height="1" x="1" y="5" fill="white"></rect><rect width="1" height="1" x="2" y="5" fill="white"></rect><rect width="1" height="1" x="5" y="5" fill="white"></rect></svg>
