<svg xmlns="http://www.w3.org/2000/svg" width="468.16" height="478.72"><defs><clipPath id="a"><path d="M0 0h1462.5v1489.5H0z" clip-rule="evenodd"/></clipPath></defs><g clip-path="url(#a)" transform="scale(.32)"><path fill="#fff" d="M648.829 424.061h305.684q2.656 0 5.262.519a26.9 26.9 0 0 1 9.723 4.027 27 27 0 0 1 4.087 3.354 27 27 0 0 1 3.354 4.088 27 27 0 0 1 2.493 4.663 26.9 26.9 0 0 1 2.053 10.321v125.87a26.9 26.9 0 0 1-2.053 10.322 26.9 26.9 0 0 1-5.847 8.75 27 27 0 0 1-4.087 3.354 26.9 26.9 0 0 1-14.985 4.546H648.829a26.9 26.9 0 0 1-10.322-2.053 26.9 26.9 0 0 1-8.75-5.847 26.9 26.9 0 0 1-5.847-8.75 26.9 26.9 0 0 1-2.053-10.322v-125.87q0-2.656.518-5.262a26.9 26.9 0 0 1 7.382-13.81 26.9 26.9 0 0 1 8.75-5.847 26.9 26.9 0 0 1 10.322-2.053"/><path fill="none" stroke="#000" stroke-miterlimit="10" stroke-width="2.997" d="M648.829 424.061h305.684q2.656 0 5.262.519a26.9 26.9 0 0 1 9.723 4.027 27 27 0 0 1 4.087 3.354 27 27 0 0 1 3.354 4.088 27 27 0 0 1 2.493 4.663 26.9 26.9 0 0 1 2.053 10.321v125.87a26.9 26.9 0 0 1-2.053 10.322 26.9 26.9 0 0 1-5.847 8.75 27 27 0 0 1-4.087 3.354 26.9 26.9 0 0 1-14.985 4.546H648.829a26.9 26.9 0 0 1-10.322-2.053 26.9 26.9 0 0 1-8.75-5.847 26.9 26.9 0 0 1-5.847-8.75 26.9 26.9 0 0 1-2.053-10.322v-125.87q0-2.656.518-5.262a26.9 26.9 0 0 1 7.382-13.81 26.9 26.9 0 0 1 8.75-5.847 26.9 26.9 0 0 1 10.322-2.053z"/><text xml:space="preserve" font-family="sans-serif" font-size="12" transform="translate(718.261 524.475)scale(2.997)"><tspan x="0 8.0039062 16.007812 24.673828 33.339844 36.673828 45.339844" y="0">PENDING</tspan></text><path fill="#fff" d="M921.547 124.371a119.8 119.8 0 0 1-5.162 34.799 120 120 0 0 1-8.993 21.711 119.9 119.9 0 0 1-29.673 36.157 120 120 0 0 1-19.54 13.056 120 120 0 0 1-21.71 8.993 120 120 0 0 1-23.05 4.585 119.8 119.8 0 0 1-35.136-1.727 120 120 0 0 1-22.488-6.821 119.8 119.8 0 0 1-38.891-25.986 119.8 119.8 0 0 1-20.957-28.257 119.8 119.8 0 0 1-13.577-44.76 119.8 119.8 0 0 1 4.584-46.548 119.8 119.8 0 0 1 22.05-41.251 119.8 119.8 0 0 1 26.066-23.625 119.8 119.8 0 0 1 43.213-17.9 119.8 119.8 0 0 1 35.137-1.726 119.8 119.8 0 0 1 34.125 8.548 119.84 119.84 0 0 1 46.791 34.703 120 120 0 0 1 13.056 19.54 119.85 119.85 0 0 1 14.155 56.51z"/><path fill="none" stroke="#000" stroke-miterlimit="10" stroke-width="2.997" d="M921.547 124.371a119.8 119.8 0 0 1-5.162 34.799 120 120 0 0 1-8.993 21.711 119.9 119.9 0 0 1-29.673 36.157 120 120 0 0 1-19.54 13.056 120 120 0 0 1-21.71 8.993 120 120 0 0 1-23.05 4.585 119.8 119.8 0 0 1-35.136-1.727 120 120 0 0 1-22.488-6.821 119.8 119.8 0 0 1-38.891-25.986 119.8 119.8 0 0 1-20.957-28.257 119.8 119.8 0 0 1-13.577-44.76 119.8 119.8 0 0 1 4.584-46.548 119.8 119.8 0 0 1 22.05-41.251 119.8 119.8 0 0 1 26.066-23.625 119.8 119.8 0 0 1 43.213-17.9 119.8 119.8 0 0 1 35.137-1.726 119.8 119.8 0 0 1 34.125 8.548 119.84 119.84 0 0 1 46.791 34.703 120 120 0 0 1 13.056 19.54 119.85 119.85 0 0 1 14.155 56.51z"/><path fill="#fff" d="M891.578 124.371a89.91 89.91 0 0 1-32.871 69.5 89.9 89.9 0 0 1-22.631 13.564 89.8 89.8 0 0 1-25.594 6.411 89.9 89.9 0 0 1-26.353-1.294 89.8 89.8 0 0 1-24.842-8.89 90 90 0 0 1-14.654-9.791 89.9 89.9 0 0 1-17.719-19.55 89.9 89.9 0 0 1-15.152-49.95 89.9 89.9 0 0 1 15.152-49.95 89.9 89.9 0 0 1 17.719-19.549 89.906 89.906 0 0 1 146.944 69.5z"/><path fill="none" stroke="#000" stroke-miterlimit="10" stroke-width="2.997" d="M891.578 124.371a89.91 89.91 0 0 1-32.871 69.5 89.9 89.9 0 0 1-22.631 13.564 89.8 89.8 0 0 1-25.594 6.411 89.9 89.9 0 0 1-26.353-1.294 89.8 89.8 0 0 1-24.842-8.89 90 90 0 0 1-14.654-9.791 89.9 89.9 0 0 1-17.719-19.55 89.9 89.9 0 0 1-15.152-49.95 89.9 89.9 0 0 1 15.152-49.95 89.9 89.9 0 0 1 17.719-19.549 89.906 89.906 0 0 1 146.944 69.5zM801.67 244.247v160.724"/><path d="m801.67 420.705-10.488-20.978 10.489 5.244 10.489-5.244z"/><path fill="none" stroke="#000" stroke-miterlimit="10" stroke-width="2.997" d="m801.67 420.705-10.488-20.978 10.489 5.244 10.489-5.244z"/><path fill="#fff" d="M713.286 299.7h176.823v38.961H713.286z"/><text xml:space="preserve" font-family="sans-serif" font-size="11" transform="translate(714.695 329.67)scale(2.997)"><tspan x="0 5.5 9.1630859 15.882324 22 28.117676 35.45459 40.95459 46.45459 52.572266" y="0">xrFooAsync</tspan></text><path fill="#fff" d="M187.306 1143.317H492.99a26.9 26.9 0 0 1 10.322 2.053 26.9 26.9 0 0 1 8.75 5.847 27 27 0 0 1 3.354 4.088q1.476 2.208 2.493 4.663c1.017 2.455 1.19 3.323 1.535 5.06q.518 2.605.518 5.262v125.87a26.9 26.9 0 0 1-2.053 10.321 26.93 26.93 0 0 1-9.934 12.105 26.9 26.9 0 0 1-9.723 4.027 27 27 0 0 1-5.262.519H187.306a26.9 26.9 0 0 1-10.321-2.054 26.9 26.9 0 0 1-8.75-5.846 26.9 26.9 0 0 1-5.848-8.75 26.9 26.9 0 0 1-2.053-10.322v-125.87a26.9 26.9 0 0 1 2.053-10.322 26.9 26.9 0 0 1 5.847-8.75 26.9 26.9 0 0 1 8.75-5.847 26.9 26.9 0 0 1 10.322-2.054"/><path fill="none" stroke="#000" stroke-miterlimit="10" stroke-width="2.997" d="M187.306 1143.317H492.99a26.9 26.9 0 0 1 10.322 2.053 26.9 26.9 0 0 1 8.75 5.847 27 27 0 0 1 3.354 4.088q1.476 2.208 2.493 4.663c1.017 2.455 1.19 3.323 1.535 5.06q.518 2.605.518 5.262v125.87a26.9 26.9 0 0 1-2.053 10.321 26.93 26.93 0 0 1-9.934 12.105 26.9 26.9 0 0 1-9.723 4.027 27 27 0 0 1-5.262.519H187.306a26.9 26.9 0 0 1-10.321-2.054 26.9 26.9 0 0 1-8.75-5.846 26.9 26.9 0 0 1-5.848-8.75 26.9 26.9 0 0 1-2.053-10.322v-125.87a26.9 26.9 0 0 1 2.053-10.322 26.9 26.9 0 0 1 5.847-8.75 26.9 26.9 0 0 1 8.75-5.847 26.9 26.9 0 0 1 10.322-2.054z"/><text xml:space="preserve" font-family="sans-serif" font-size="12" transform="translate(276.707 1243.755)scale(2.997)"><tspan x="0 8.6660156 16.669922 24.673828 33.339844" y="0">READY</tspan></text><path fill="none" stroke="#000" stroke-miterlimit="10" stroke-width="2.997" d="m801.67 603.875-449.115 524.967"/><path d="m342.336 1140.77 5.664-22.746 4.555 10.818 11.389 2.817z"/><path fill="none" stroke="#000" stroke-miterlimit="10" stroke-width="2.997" d="m342.336 1140.77 5.664-22.746 4.555 10.818 11.389 2.817z"/><path fill="#fff" d="M413.586 857.142h398.601v38.961H413.586z"/><text xml:space="preserve" font-family="sans-serif" font-size="11" transform="translate(414.995 887.112)scale(2.997)"><tspan x="0 7.3369141 12.836914 18.336914 24.45459 29.95459 33.010742 39.128418 45.246094 51.36377 55.026855 61.144531 64.200684 66.644531 72.762207 78.879883 81.936035 87.436035 93.553711 102.7168 108.83447 111.27832 117.396 120.45215 126.56982" y="0">Async operation completes</tspan></text><path fill="none" stroke="#000" stroke-miterlimit="10" stroke-width="2.997" d="m801.67 603.875 383.304 502.7"/><path d="m1194.534 1119.072-21.068-10.309 11.508-2.188 5.155-10.519z"/><path fill="none" stroke="#000" stroke-miterlimit="10" stroke-width="2.997" d="m1194.534 1119.072-21.068-10.309 11.508-2.188 5.155-10.519z"/><path fill="#fff" d="M893.106 842.157h290.709v38.961H893.106z"/><text xml:space="preserve" font-family="sans-serif" font-size="11" transform="translate(893.705 872.127)scale(2.997)"><tspan x="0 5.5 9.1630859 17.106934 23.224609 29.342285 34.842285 40.959961 43.403809 50.123047 56.240723 59.296875 65.414551 69.077637 75.195312 82.532227 89.869141" y="0">xrCancelFutureEXT</tspan></text><path fill="none" stroke="#000" stroke-miterlimit="10" stroke-width="2.997" d="M519.962 1233.224h580.32"/><path d="m1116.016 1233.224-20.979 10.49 5.245-10.49-5.245-10.489z"/><path fill="none" stroke="#000" stroke-miterlimit="10" stroke-width="2.997" d="m1116.016 1233.224-20.979 10.49 5.245-10.49-5.245-10.489z"/><path fill="#fff" d="M719.28 1243.755h224.775v38.961H719.28z"/><text xml:space="preserve" font-family="sans-serif" font-size="11" transform="translate(719.01 1273.725)scale(2.997)"><tspan x="0 5.5 9.1630859 15.882324 22 28.117676 36.061523 42.179199 51.342285 57.459961 59.903809 66.021484 69.077637" y="0">xrFooComplete</tspan></text><path fill="none" stroke="#000" stroke-miterlimit="10" stroke-width="2.997" d="M340.148 1323.131q479.52 269.751 864.546 48.61"/><path d="m1218.33 1363.89-12.947 19.539-.689-11.688-9.77-6.503z"/><path fill="none" stroke="#000" stroke-miterlimit="10" stroke-width="2.997" d="m1218.33 1363.89-12.947 19.539-.689-11.688-9.77-6.503z"/><path fill="#fff" d="M632.367 1444.554h290.709v38.961H632.367z"/><text xml:space="preserve" font-family="sans-serif" font-size="11" transform="translate(632.966 1474.524)scale(2.997)"><tspan x="0 5.5 9.1630859 17.106934 23.224609 29.342285 34.842285 40.959961 43.403809 50.123047 56.240723 59.296875 65.414551 69.077637 75.195312 82.532227 89.869141" y="0">xrCancelFutureEXT</tspan></text><path fill="none" stroke="#000" stroke-miterlimit="10" stroke-width="2.997" d="M981.485 513.968q527.484 239.752 332.116 597.043"/><path d="m1306.05 1124.797.868-23.436 6.683 9.65 11.718.42z"/><path fill="none" stroke="#000" stroke-miterlimit="10" stroke-width="2.997" d="m1306.05 1124.797.868-23.436 6.683 9.65 11.718.42z"/><path fill="#fff" d="M1030.968 707.292h428.571v38.961h-428.571z"/><text xml:space="preserve" font-family="sans-serif" font-size="11" transform="translate(1030.878 737.262)scale(2.997)"><tspan x="0 5.5 9.1630859 17.106934 23.224609 28.724609 31.780762 35.443848 41.561523 47.061523 51.342285 54.398438 60.516113 66.016113 71.516113 77.633789 83.133789 85.577637 91.695312 94.751465 100.86914 106.98682 110.04297 116.16064 122.27832 128.396 134.51367 136.95752" y="0">xrDestroy* associated handle</tspan></text><path d="M802.42 245.54a2927 2927 0 0 0-21.111 12.585l-1.546-2.568q10.463-6.297 21.133-12.598zm-41.81 25.164a2693 2693 0 0 0-20.286 12.573l-1.59-2.54q10.042-6.286 20.309-12.587zm-40.161 25.14a2457 2457 0 0 0-20.183 13.03l-1.638-2.51a2472 2472 0 0 1 20.207-13.046zM679.922 322.3q-10.045 6.706-19.871 13.419l-1.69-2.474q9.837-6.721 19.897-13.438zm-39.269 26.83a2020 2020 0 0 0-19.425 13.762l-1.747-2.435q9.608-6.893 19.454-13.782zm-39.183 28.13a1811 1811 0 0 0-19.218 14.359l-1.81-2.39q9.485-7.185 19.25-14.381zm-37.893 28.708a1617 1617 0 0 0-18.773 14.855l-1.877-2.336q9.255-7.439 18.808-14.883zm-37.638 30.262a1439 1439 0 0 0-18.238 15.396l-1.952-2.274a1438 1438 0 0 1 18.276-15.428zm-35.849 30.782a1266 1266 0 0 0-18.087 16.393l-2.034-2.2a1272 1272 0 0 1 18.13-16.433zm-35.63 32.939a1110 1110 0 0 0-16.816 16.532l-2.124-2.114q8.25-8.286 16.861-16.577zm-33.517 33.697a965 965 0 0 0-16.494 17.79l-2.223-2.01a966 966 0 0 1 16.544-17.845zM388.8 569.214a836 836 0 0 0-15.228 18.286l-2.33-1.885a839 839 0 0 1 15.282-18.351zm-30.194 37.392a718 718 0 0 0-13.987 19.088l-2.447-1.73a722 722 0 0 1 14.046-19.168zm-27.443 38.843a617 617 0 0 0-12.83 20.441l-2.57-1.543a620 620 0 0 1 12.893-20.54zm-24.534 40.86a532 532 0 0 0-11.094 21.457l-2.693-1.315q5.266-10.785 11.157-21.578zm-21.062 43.167a463 463 0 0 0-8.801 21.987l-2.81-1.042a467 467 0 0 1 8.858-22.129zm-16.554 44.8a412 412 0 0 0-6.337 22.79l-2.91-.72q2.837-11.473 6.384-22.954zm-11.389 46.258a379 379 0 0 0-3.561 23.562l-2.976-.354a383 383 0 0 1 3.59-23.749zm-5.615 47.294q-.645 11.944-.508 23.877l-2.997.034q-.138-12.03.512-24.073zm.547 47.69a369 369 0 0 0 2.598 23.67l-2.967.423a372 372 0 0 1-2.62-23.863zm6.741 47.32a392 392 0 0 0 5.52 23.008l-2.893.786a395 395 0 0 1-5.56-23.183zm12.494 45.964a433 433 0 0 0 8.196 22.335l-2.784 1.108a436 436 0 0 1-8.253-22.49zm17.583 44.225q4.995 10.875 10.65 21.739l-2.658 1.383a495 495 0 0 1-10.715-21.87zm21.969 42.34a569 569 0 0 0 12.504 20.588l-2.528 1.609a572 572 0 0 1-12.57-20.696zm26.947 45.163-20.349-11.628 11.628-1.438 5.814-10.19z"/><path fill="none" stroke="#000" stroke-miterlimit="10" stroke-width="2.997" d="m338.29 1140.53-20.349-11.628 11.628-1.438 5.814-10.19z"/><path fill="#fff" d="M2.997 704.295h614.385v38.961H2.997z"/><text xml:space="preserve" font-family="sans-serif" font-size="11" transform="translate(3.278 734.265)scale(2.997)"><tspan x="0 7.3369141 12.836914 18.336914 24.45459 29.95459 33.010742 39.128418 45.246094 51.36377 55.026855 61.144531 64.200684 66.644531 72.762207 78.879883 81.936035 84.379883 89.879883 92.936035 98.436035 104.55371 113.7168 119.83447 122.27832 128.396 131.45215 137.56982 143.06982 146.12598 148.56982 157.73291 166.896 173.01367 179.13135 181.5752 187.69287 190.74902 196.8667 199.31055" y="0">Async operation is completes immediately</tspan></text><path fill="#fff" d="M1359.094 1233.224a119.8 119.8 0 0 1-5.162 34.799 120 120 0 0 1-8.993 21.711 119.89 119.89 0 0 1-82.335 61.064 120 120 0 0 1-23.387 2.304 119.8 119.8 0 0 1-34.798-5.162 120 120 0 0 1-21.711-8.993 119.9 119.9 0 0 1-36.157-29.673 119.86 119.86 0 0 1-26.634-64.299 119.8 119.8 0 0 1 1.726-35.137 119.8 119.8 0 0 1 11.852-33.123 119.7 119.7 0 0 1 13.056-19.54 119.8 119.8 0 0 1 26.066-23.624 120 120 0 0 1 20.726-11.078 119.87 119.87 0 0 1 69.262-6.822 119.8 119.8 0 0 1 33.123 11.852 119.7 119.7 0 0 1 19.539 13.056 119.8 119.8 0 0 1 23.625 26.066 120 120 0 0 1 11.078 20.725 120 120 0 0 1 6.821 22.488 120 120 0 0 1 2.304 23.387z"/><path d="M1359.244 1251.296a122 122 0 0 1-1.694 8.958l-2.922-.667q.99-4.337 1.652-8.737zm-4.045 17.728q-1.365 4.42-3.062 8.729l-2.788-1.099q1.656-4.202 2.987-8.514zm-6.683 17a121 121 0 0 1-4.281 8.072l-2.593-1.503a118 118 0 0 0 4.175-7.872zm-9.176 15.828a121 121 0 0 1-5.422 7.308l-2.338-1.875a118 118 0 0 0 5.288-7.127zm-11.401 14.216a121 121 0 0 1-6.49 6.447l-2.031-2.204q3.285-3.025 6.33-6.288zm-13.438 12.378a121 121 0 0 1-7.34 5.37l-1.677-2.483a118 118 0 0 0 7.158-5.237zm-15.137 10.218a122 122 0 0 1-8.093 4.222l-1.285-2.708a118 118 0 0 0 7.893-4.117zm-16.408 7.796a121 121 0 0 1-8.737 2.997l-.864-2.87a118 118 0 0 0 8.52-2.923zm-17.506 5.285q-4.47.99-8.998 1.639l-.425-2.967q4.415-.633 8.775-1.598zm-18.112 2.597q-4.053.27-8.119.271l-.786-.002.01-2.997.775.003q3.966 0 7.919-.265zm-17.86-.12a121 121 0 0 1-9.143-1.087l.467-2.96q4.438.7 8.917 1.06zm-18.061-2.836q-4.43-1.043-8.77-2.413l.903-2.858q4.235 1.338 8.553 2.354zm-17.466-5.53a121 121 0 0 1-8.25-3.679l1.32-2.69a118 118 0 0 0 8.047 3.588zm-16.302-8.018a121 121 0 0 1-7.714-4.942l1.71-2.46q3.669 2.55 7.524 4.82zm-14.989-10.415a121 121 0 0 1-6.87-6.027l2.06-2.177a118 118 0 0 0 6.7 5.878zm-13.272-12.561a121 121 0 0 1-5.882-6.985l2.363-1.843a118 118 0 0 0 5.737 6.812zm-11.2-14.357q-2.55-3.828-4.8-7.838l2.612-1.468a118 118 0 0 0 4.682 7.645zm-8.963-15.95a121 121 0 0 1-3.526-8.36l2.803-1.06a118 118 0 0 0 3.439 8.152zm-6.46-17.103a121 121 0 0 1-2.224-8.768l2.93-.628q.924 4.312 2.17 8.552zm-3.808-17.804q-.618-4.53-.893-9.1l2.991-.18q.27 4.455.872 8.874zm-1.104-17.993q.06-4.492.45-8.97l2.985.26q-.381 4.366-.438 8.749zm1.601-18.128q.736-4.471 1.804-8.878l2.913.706q-1.041 4.296-1.76 8.659zm4.281-17.646a121 121 0 0 1 3.169-8.657l2.773 1.136a119 119 0 0 0-3.09 8.443zm6.907-16.893q2.046-4.095 4.397-8.03l2.573 1.538a118 118 0 0 0-4.29 7.831zm9.386-15.701a121 121 0 0 1 5.524-7.241l2.313 1.906a118 118 0 0 0-5.388 7.062zm11.599-14.071a121 121 0 0 1 6.577-6.359l2 2.232a118 118 0 0 0-6.414 6.202zm13.6-12.192a121 121 0 0 1 7.403-5.265l1.644 2.506a118 118 0 0 0-7.22 5.135zm15.282-10.018q3.99-2.205 8.132-4.104l1.248 2.725a118 118 0 0 0-7.93 4.002zm16.534-7.58a121 121 0 0 1 8.748-2.87l.826 2.88q-4.32 1.239-8.532 2.8zm17.516-5.032q4.506-.936 9.074-1.527l.385 2.972q-4.455.577-8.85 1.49zm18.156-2.357a121 121 0 0 1 8.883-.15l-.059 2.996a119 119 0 0 0-8.664.146zm17.872.359q4.606.433 9.171 1.217l-.507 2.953q-4.453-.764-8.944-1.187zm18.007 3.075q4.433 1.105 8.767 2.54l-.942 2.845a118 118 0 0 0-8.55-2.478zm17.385 5.76a122 122 0 0 1 8.22 3.798l-1.357 2.671q-3.941-2.002-8.018-3.704zm16.227 8.254a122 122 0 0 1 7.63 5.034l-1.745 2.437q-3.63-2.595-7.44-4.91zm14.836 10.61a121 121 0 0 1 6.79 6.121l-2.09 2.15a118 118 0 0 0-6.622-5.972zm13.103 12.74a121 121 0 0 1 5.784 7.06l-2.388 1.81a118 118 0 0 0-5.641-6.884zm11.003 14.505a121 121 0 0 1 4.698 7.908l-2.633 1.432a118 118 0 0 0-4.582-7.713zm8.742 16.058a121 121 0 0 1 3.428 8.446l-2.817 1.022a118 118 0 0 0-3.343-8.238zm6.233 17.199a121 121 0 0 1 2.1 8.765l-2.938.59a118 118 0 0 0-2.048-8.55zm3.57 17.876q.555 4.519.768 9.065l-2.994.141q-.208-4.436-.748-8.841zm.902 14.765q0 4.468-.329 8.929l-2.989-.221q.321-4.35.321-8.708z"/><text xml:space="preserve" font-family="sans-serif" font-size="12" transform="translate(1185.793 1243.755)scale(2.997)"><tspan x="0 3.3339844 10.007812 16.007812 22.681641 25.347656 28.013672" y="0">Invalid</tspan></text></g></svg>
