<?xml version="1.0" encoding="utf-8"?>
<!-- Generator: Adobe Illustrator 26.0.2, SVG Export Plug-In . SVG Version: 6.00 Build 0)  -->
<svg version="1.1" id="Layer_1" xmlns="http://www.w3.org/2000/svg" xmlns:xlink="http://www.w3.org/1999/xlink" x="0px" y="0px"
	 viewBox="0 0 778.7 337" style="enable-background:new 0 0 778.7 337;" xml:space="preserve">
<style type="text/css">
	.st0{enable-background:new    ;}
	.st1{fill:none;stroke:#000000;stroke-miterlimit:10;}
	.st2{fill:none;stroke:#000000;stroke-width:0.198;stroke-linecap:round;stroke-linejoin:round;stroke-miterlimit:28.3465;}
	.st3{fill:url(#SVGID_1_);stroke:#000000;stroke-width:0.5;stroke-linecap:round;stroke-linejoin:round;stroke-miterlimit:28.3465;}
	.st4{fill:none;stroke:#000000;stroke-width:0.25;stroke-linecap:round;stroke-linejoin:round;stroke-miterlimit:28.3465;}

		.st5{display:none;fill:url(#path1072_00000020396131046343099510000004864412217880824249_);stroke:#000000;stroke-width:0.25;stroke-linecap:round;stroke-linejoin:round;stroke-miterlimit:28.3465;}

		.st6{display:none;fill:none;stroke:#000000;stroke-width:0.25;stroke-linecap:round;stroke-linejoin:round;stroke-miterlimit:28.3465;}

		.st7{fill:url(#SVGID_00000080918873621630420350000003676320376575386011_);stroke:#000000;stroke-width:0.25;stroke-linecap:round;stroke-linejoin:round;stroke-miterlimit:28.3465;}
	.st8{opacity:0.5;fill:#419B74;enable-background:new    ;}
	.st9{opacity:0.5;fill:#875D9B;enable-background:new    ;}
	.st10{opacity:0.5;fill:#E77474;enable-background:new    ;}
	.st11{opacity:0.5;fill:#5D7FE7;enable-background:new    ;}
	.st12{display:none;}

		.st13{display:inline;opacity:0.5;fill:#419B74;stroke:#000000;stroke-width:0.25;stroke-linecap:round;stroke-linejoin:round;stroke-miterlimit:28.3465;enable-background:new    ;}

		.st14{display:inline;opacity:0.5;fill:#E77474;stroke:#000000;stroke-width:0.25;stroke-linecap:round;stroke-linejoin:round;stroke-miterlimit:28.3465;enable-background:new    ;}

		.st15{display:inline;opacity:0.5;fill:#5D7FE7;stroke:#000000;stroke-width:0.25;stroke-linecap:round;stroke-linejoin:round;stroke-miterlimit:28.3465;enable-background:new    ;}

		.st16{display:inline;opacity:0.5;fill:#875D9B;stroke:#000000;stroke-width:0.25;stroke-linecap:round;stroke-linejoin:round;stroke-miterlimit:28.3465;enable-background:new    ;}
	.st17{fill:url(#SVGID_00000140698161533226789070000013709344265841330855_);}
	.st18{fill:url(#SVGID_00000116956901429438745480000003800054918914630301_);}
	.st19{fill:url(#SVGID_00000059299542130338183690000001394251809259918995_);}
	.st20{fill:url(#SVGID_00000111909667009603435020000013867349068139638413_);}
	.st21{display:inline;fill:url(#SVGID_00000129919545956862948980000004808526904899916710_);}
	.st22{display:inline;fill:url(#SVGID_00000167356543678985973630000001127222155532297660_);}
	.st23{display:inline;fill:url(#SVGID_00000085934339564539221820000008666513599103738527_);}
	.st24{display:inline;fill:url(#SVGID_00000022550340514663609360000003465107152178434694_);}
	.st25{display:inline;fill:url(#SVGID_00000150786989512840912850000008912890897716120764_);}
	.st26{display:inline;fill:url(#SVGID_00000112593532686904052590000017555448087665382316_);}
	.st27{display:inline;fill:url(#SVGID_00000062885475237288025690000011477572583587099826_);}
	.st28{display:inline;fill:url(#SVGID_00000130610248573504332690000017662646822358520761_);}
	.st29{display:inline;fill:url(#SVGID_00000020362827153087136310000014793142855386208653_);}
	.st30{display:inline;fill:url(#SVGID_00000002360639687673582610000007247690081836997778_);}
	.st31{display:inline;fill:url(#SVGID_00000047034249808992474990000004170554049441312396_);}
	.st32{display:inline;fill:url(#SVGID_00000132792823607889235830000001607658665807494034_);}
</style>
<g id="Layer_2_00000158743397532760134660000014569554583464718014_">
	<g class="st0">
		<path d="M578.9,16.2c1.2,0,1.9,0.8,1.9,2.7c0,1.3-0.7,4.5-3,4.5c-1.5,0-2-1.2-2-2.7C575.8,19.1,576.7,16.2,578.9,16.2z
			 M577.9,22.7c1.6,0,2.1-2.9,2.1-3.5c0-0.8,0.1-2.2-1.1-2.2c-1.5,0-2.1,2.8-2.1,3.8C576.7,22,577,22.7,577.9,22.7z"/>
		<path d="M581.5,22.2h1.1c-0.3,1.1-0.3,2.5-1.7,2.6l0.1-0.5c0.5-0.1,0.7-0.5,0.8-1h-0.6L581.5,22.2z"/>
		<path d="M586.7,23.3h-0.9l1.1-5.4c-0.6,0.1-1.2,0.2-1.8,0.2l0.1-0.7c0.8,0,1.9-0.4,2.3-1.2h0.7L586.7,23.3z"/>
	</g>
	<g class="st0">
		<path d="M729.1,174.4h-0.8l0.2-0.7h0c-0.5,0.7-1,0.9-1.7,0.9c-1.3,0-2-0.9-2-2.1c0-1.6,1.1-3.3,2.9-3.3c0.6,0,1.4,0.2,1.6,0.9h0
			l0.5-2.8h0.8L729.1,174.4z M726.9,173.8c1.3,0,2-1.5,2-2.6c0-0.8-0.5-1.3-1.3-1.3c-1.3,0-2,1.4-2,2.5
			C725.6,173.3,726,173.8,726.9,173.8z"/>
		<path d="M731.5,169.3h0.8l-0.2,0.7h0c0.5-0.7,1-0.9,1.7-0.9c1.3,0,2,0.9,2,2.1c0,1.6-1.1,3.3-2.9,3.3c-0.6,0-1.4-0.2-1.6-0.9h0
			l-0.5,2.8H730L731.5,169.3z M733.7,169.9c-1.3,0-2,1.5-2,2.6c0,0.8,0.5,1.3,1.3,1.3c1.3,0,2-1.4,2-2.5
			C735,170.4,734.6,169.9,733.7,169.9z"/>
		<path d="M737,170.8c0.2-1.1,1.1-1.7,2.2-1.7c1,0,1.9,0.3,1.9,1.3c0,0.3-0.1,0.7-0.2,0.9l-0.3,1.4c0,0.2-0.1,0.5-0.1,0.7
			c0,0.2,0.1,0.3,0.2,0.3c0.1,0,0.2,0,0.3-0.1l-0.1,0.6c-0.1,0.1-0.4,0.1-0.5,0.1c-0.5,0-0.7-0.3-0.7-0.7l0,0
			c-0.4,0.5-0.9,0.8-1.7,0.8c-0.9,0-1.6-0.4-1.6-1.5c0-1.5,1.5-1.6,2.6-1.7c0.9-0.1,1.3-0.1,1.3-0.8c0-0.6-0.6-0.7-1-0.7
			c-0.6,0-1.3,0.3-1.4,0.9H737z M738.1,173.8c0.7,0,1.1-0.2,1.4-0.7c0.3-0.4,0.3-0.8,0.4-1.3h0c-0.4,0.2-1,0.3-1.7,0.3
			c-0.6,0.1-1.1,0.3-1.1,0.9C737.2,173.6,737.6,173.8,738.1,173.8z"/>
		<path d="M746.2,174.4h-0.8l0.2-0.7h0c-0.5,0.7-1,0.9-1.7,0.9c-1.3,0-2-0.9-2-2.1c0-1.6,1.1-3.3,2.9-3.3c0.6,0,1.4,0.2,1.6,0.9h0
			l0.5-2.8h0.8L746.2,174.4z M744,173.8c1.3,0,2-1.5,2-2.6c0-0.8-0.5-1.3-1.3-1.3c-1.3,0-2,1.4-2,2.5
			C742.6,173.3,743,173.8,744,173.8z"/>
		<path d="M747.5,175.2h5v0.5h-5V175.2z"/>
		<path d="M753.6,169.3h0.8l-0.2,1.1h0c0.4-0.7,1-1.2,1.9-1.2c0.1,0,0.2,0,0.3,0l-0.2,0.9c-0.1,0-0.2,0-0.2,0c-0.2,0-0.3,0-0.5,0
			c-0.5,0.1-0.8,0.4-1.1,0.8c-0.2,0.3-0.3,0.8-0.4,1.2l-0.5,2.3h-0.8L753.6,169.3z"/>
		<path d="M756.9,169.3h0.8l-1.1,5.2h-0.8L756.9,169.3z M758,168.3h-0.9l0.2-1h0.9L758,168.3z"/>
		<path d="M762.7,173.7c-0.1,0.5-0.2,1-0.4,1.4c-0.4,1-1.2,1.4-2.3,1.4c-1,0-2-0.4-2.1-1.6h0.8c0,0.7,0.6,0.8,1.3,0.8
			c1.3,0,1.6-1,1.8-2.1l0,0c-0.4,0.5-1,0.8-1.6,0.8c-1.3,0-1.9-0.9-1.9-2.1c0-1.5,1-3.2,2.7-3.2c0.7,0,1.5,0.4,1.6,1v0h0l0.2-0.9
			h0.8L762.7,173.7z M760.4,173.7c1.3,0,1.9-1.4,1.9-2.5c0-0.8-0.4-1.3-1.3-1.3c-1.2,0-1.8,1.5-1.8,2.4
			C759.2,173.1,759.6,173.7,760.4,173.7z"/>
		<path d="M765.3,167.3h0.8l-0.6,2.7l0,0c0.4-0.6,1.1-0.9,1.8-0.9c1,0,1.4,0.4,1.4,1.3c0,0.2-0.1,0.6-0.1,1l-0.6,2.9h-0.8l0.7-3
			c0-0.2,0.1-0.6,0.1-0.8c0-0.5-0.4-0.7-0.9-0.7c-0.5,0-1,0.3-1.3,0.6c-0.3,0.3-0.5,0.7-0.6,1.1l-0.6,2.9h-0.8L765.3,167.3z"/>
		<path d="M771.6,169.3h1l-0.2,0.7h-1l-0.6,3c0,0.1,0,0.2,0,0.3c0,0.3,0.2,0.3,0.5,0.3c0.2,0,0.3,0,0.5-0.1l-0.2,0.8
			c-0.2,0-0.4,0.1-0.6,0.1c-0.6,0-1.2-0.2-1.2-0.8c0-0.2,0-0.3,0-0.4l0.7-3.2h-0.9l0.2-0.7h0.9l0.3-1.5h0.8L771.6,169.3z"/>
	</g>
	<g class="st0">
		<path d="M401.9,176.5h-0.8l0.2-0.7h0c-0.5,0.7-1,0.9-1.7,0.9c-1.3,0-2-0.9-2-2.1c0-1.6,1.1-3.3,2.9-3.3c0.6,0,1.4,0.2,1.6,0.9h0
			l0.5-2.8h0.8L401.9,176.5z M399.7,175.9c1.3,0,2-1.5,2-2.6c0-0.8-0.5-1.3-1.3-1.3c-1.3,0-2,1.4-2,2.5
			C398.4,175.4,398.8,175.9,399.7,175.9z"/>
		<path d="M404.3,171.4h0.8l-0.2,0.7h0c0.5-0.7,1-0.9,1.7-0.9c1.3,0,2,0.9,2,2.1c0,1.6-1.1,3.3-2.9,3.3c-0.6,0-1.4-0.2-1.6-0.9h0
			l-0.5,2.8h-0.8L404.3,171.4z M406.5,172c-1.3,0-2,1.5-2,2.6c0,0.8,0.5,1.3,1.3,1.3c1.3,0,2-1.4,2-2.5
			C407.9,172.5,407.5,172,406.5,172z"/>
		<path d="M409.8,172.9c0.2-1.1,1.1-1.7,2.2-1.7c1,0,1.9,0.3,1.9,1.3c0,0.3-0.1,0.7-0.2,0.9l-0.3,1.4c0,0.2-0.1,0.5-0.1,0.7
			c0,0.2,0.1,0.3,0.2,0.3c0.1,0,0.2,0,0.3-0.1l-0.1,0.6c-0.1,0.1-0.4,0.1-0.5,0.1c-0.5,0-0.7-0.3-0.7-0.7l0,0
			c-0.4,0.5-0.9,0.8-1.7,0.8c-0.9,0-1.6-0.4-1.6-1.5c0-1.5,1.5-1.6,2.6-1.7c0.9-0.1,1.3-0.1,1.3-0.8c0-0.6-0.6-0.7-1-0.7
			c-0.6,0-1.3,0.3-1.4,0.9H409.8z M410.9,175.9c0.7,0,1.1-0.2,1.4-0.7c0.3-0.4,0.3-0.8,0.4-1.3h0c-0.4,0.2-1,0.3-1.7,0.3
			c-0.6,0.1-1.1,0.3-1.1,0.9C410,175.7,410.5,175.9,410.9,175.9z"/>
		<path d="M419,176.5h-0.8l0.2-0.7h0c-0.5,0.7-1,0.9-1.7,0.9c-1.3,0-2-0.9-2-2.1c0-1.6,1.1-3.3,2.9-3.3c0.6,0,1.4,0.2,1.6,0.9h0
			l0.5-2.8h0.8L419,176.5z M416.8,175.9c1.3,0,2-1.5,2-2.6c0-0.8-0.5-1.3-1.3-1.3c-1.3,0-2,1.4-2,2.5
			C415.5,175.4,415.9,175.9,416.8,175.9z"/>
		<path d="M420.4,177.3h5v0.5h-5V177.3z"/>
		<path d="M426.8,169.4h0.8l-1.5,7.1h-0.8L426.8,169.4z"/>
		<path d="M428.6,174.2c0,0.2,0,0.3,0,0.5c0,0.8,0.6,1.2,1.3,1.2c0.7,0,1.2-0.3,1.5-1h0.8c-0.3,1.1-1.2,1.7-2.3,1.7
			c-1.7,0-2.2-1.2-2.2-2.1c0-2,1.2-3.3,2.7-3.3c1.5,0,2.2,0.8,2.2,2.3c0,0.3,0,0.5-0.1,0.7H428.6z M431.7,173.5
			c0.1-0.7-0.3-1.5-1.2-1.5c-1,0-1.5,0.7-1.8,1.5H431.7z"/>
		<path d="M434.2,172.1h-0.9l0.2-0.7h0.9c0.3-1,0.3-2,1.7-2c0.2,0,0.5,0,0.7,0.1l-0.1,0.7c-0.1,0-0.3-0.1-0.4-0.1
			c-0.8,0-0.8,0.7-1,1.3h1l-0.1,0.7h-1l-0.9,4.4h-0.8L434.2,172.1z"/>
		<path d="M438.1,171.4h1l-0.2,0.7h-1l-0.6,3c0,0.1,0,0.2,0,0.3c0,0.3,0.2,0.3,0.5,0.3c0.2,0,0.3,0,0.5-0.1l-0.2,0.8
			c-0.2,0-0.4,0.1-0.6,0.1c-0.6,0-1.2-0.2-1.2-0.8c0-0.2,0-0.3,0-0.4l0.7-3.2h-0.9l0.2-0.7h0.9l0.3-1.5h0.8L438.1,171.4z"/>
	</g>
	<g class="st0">
		<path d="M568.1,12.2h-0.8l0.2-0.7h0c-0.5,0.7-1,0.9-1.7,0.9c-1.3,0-2-0.9-2-2.1c0-1.6,1.1-3.3,2.9-3.3c0.6,0,1.4,0.2,1.6,0.9h0
			l0.5-2.8h0.8L568.1,12.2z M565.9,11.6c1.3,0,2-1.5,2-2.6c0-0.8-0.5-1.3-1.3-1.3c-1.3,0-2,1.4-2,2.5C564.6,11,565,11.6,565.9,11.6z
			"/>
		<path d="M570.5,7h0.8l-0.2,0.7h0c0.5-0.7,1-0.9,1.7-0.9c1.3,0,2,0.9,2,2.1c0,1.6-1.1,3.3-2.9,3.3c-0.6,0-1.4-0.2-1.6-0.9h0
			l-0.5,2.8H569L570.5,7z M572.7,7.6c-1.3,0-2,1.5-2,2.6c0,0.8,0.5,1.3,1.3,1.3c1.3,0,2-1.4,2-2.5C574,8.2,573.6,7.6,572.7,7.6z"/>
		<path d="M575.9,8.6c0.2-1.1,1.1-1.7,2.2-1.7c1,0,1.9,0.3,1.9,1.3c0,0.3-0.1,0.7-0.2,0.9l-0.3,1.4c0,0.2-0.1,0.5-0.1,0.7
			c0,0.2,0.1,0.3,0.2,0.3c0.1,0,0.2,0,0.3-0.1l-0.1,0.6c-0.1,0.1-0.4,0.1-0.5,0.1c-0.5,0-0.7-0.3-0.7-0.7l0,0
			c-0.4,0.5-0.9,0.8-1.7,0.8c-0.9,0-1.6-0.4-1.6-1.5c0-1.5,1.5-1.6,2.6-1.7c0.9-0.1,1.3-0.1,1.3-0.8c0-0.6-0.6-0.7-1-0.7
			c-0.7,0-1.3,0.3-1.4,0.9H575.9z M577.1,11.6c0.7,0,1.1-0.2,1.4-0.7c0.3-0.4,0.3-0.8,0.5-1.3h0c-0.4,0.2-1,0.3-1.7,0.3
			c-0.6,0.1-1.1,0.3-1.1,0.9C576.2,11.3,576.6,11.6,577.1,11.6z"/>
		<path d="M585.2,12.2h-0.8l0.2-0.7h0c-0.5,0.7-1,0.9-1.7,0.9c-1.3,0-2-0.9-2-2.1c0-1.6,1.1-3.3,2.9-3.3c0.6,0,1.4,0.2,1.6,0.9h0
			l0.5-2.8h0.8L585.2,12.2z M583,11.6c1.3,0,2-1.5,2-2.6c0-0.8-0.5-1.3-1.3-1.3c-1.3,0-2,1.4-2,2.5C581.6,11,582,11.6,583,11.6z"/>
		<path d="M586.5,12.9h5v0.5h-5V12.9z"/>
		<path d="M595.6,12.2h-0.8l0.2-0.8h0c-0.4,0.6-1.1,0.9-1.8,0.9c-1,0-1.4-0.4-1.4-1.3c0-0.2,0.1-0.6,0.1-1l0.6-2.9h0.8l-0.7,3
			c0,0.2-0.1,0.6-0.1,0.8c0,0.5,0.4,0.7,0.9,0.7c0.9,0,1.7-0.8,1.8-1.7l0.6-2.9h0.8L595.6,12.2z"/>
		<path d="M598.1,7h0.8l-0.2,0.7h0c0.5-0.7,1-0.9,1.7-0.9c1.3,0,2,0.9,2,2.1c0,1.6-1.1,3.3-2.9,3.3c-0.6,0-1.4-0.2-1.6-0.9h0
			l-0.5,2.8h-0.8L598.1,7z M600.3,7.6c-1.3,0-2,1.5-2,2.6c0,0.8,0.5,1.3,1.3,1.3c1.3,0,2-1.4,2-2.5C601.6,8.2,601.2,7.6,600.3,7.6z"
			/>
	</g>
	<g class="st0">
		<path d="M560.9,333.3h-0.8l0.2-0.7h0c-0.5,0.7-1,0.9-1.7,0.9c-1.3,0-2-0.9-2-2.1c0-1.6,1.1-3.3,2.9-3.3c0.6,0,1.4,0.2,1.6,0.9h0
			l0.5-2.8h0.8L560.9,333.3z M558.7,332.7c1.3,0,2-1.5,2-2.6c0-0.8-0.5-1.3-1.3-1.3c-1.3,0-2,1.4-2,2.5
			C557.4,332.2,557.8,332.7,558.7,332.7z"/>
		<path d="M563.3,328.2h0.8l-0.2,0.7h0c0.5-0.7,1-0.9,1.7-0.9c1.3,0,2,0.9,2,2.1c0,1.6-1.1,3.3-2.9,3.3c-0.6,0-1.4-0.2-1.6-0.9h0
			l-0.5,2.8h-0.8L563.3,328.2z M565.5,328.8c-1.3,0-2,1.5-2,2.6c0,0.8,0.5,1.3,1.3,1.3c1.3,0,2-1.4,2-2.5
			C566.9,329.3,566.5,328.8,565.5,328.8z"/>
		<path d="M568.8,329.7c0.2-1.1,1.1-1.7,2.2-1.7c1,0,1.9,0.3,1.9,1.3c0,0.3-0.1,0.7-0.2,0.9l-0.3,1.4c0,0.2-0.1,0.5-0.1,0.7
			c0,0.2,0.1,0.3,0.2,0.3c0.1,0,0.2,0,0.3-0.1l-0.1,0.6c-0.1,0.1-0.4,0.1-0.5,0.1c-0.5,0-0.7-0.3-0.7-0.7l0,0
			c-0.4,0.5-0.9,0.8-1.7,0.8c-0.9,0-1.6-0.4-1.6-1.5c0-1.5,1.5-1.6,2.6-1.7c0.9-0.1,1.3-0.1,1.3-0.8c0-0.6-0.6-0.7-1-0.7
			c-0.7,0-1.3,0.3-1.4,0.9H568.8z M569.9,332.7c0.7,0,1.1-0.2,1.4-0.7c0.3-0.4,0.3-0.8,0.5-1.3h0c-0.4,0.2-1,0.3-1.7,0.3
			c-0.6,0.1-1.1,0.3-1.1,0.9C569,332.5,569.4,332.7,569.9,332.7z"/>
		<path d="M578,333.3h-0.8l0.2-0.7h0c-0.5,0.7-1,0.9-1.7,0.9c-1.3,0-2-0.9-2-2.1c0-1.6,1.1-3.3,2.9-3.3c0.6,0,1.4,0.2,1.6,0.9h0
			l0.5-2.8h0.8L578,333.3z M575.8,332.7c1.3,0,2-1.5,2-2.6c0-0.8-0.5-1.3-1.3-1.3c-1.3,0-2,1.4-2,2.5
			C574.5,332.2,574.9,332.7,575.8,332.7z"/>
		<path d="M579.4,334.1h5v0.5h-5V334.1z"/>
		<path d="M588.9,333.3h-0.8l0.2-0.7h0c-0.5,0.7-1,0.9-1.7,0.9c-1.3,0-2-0.9-2-2.1c0-1.6,1.1-3.3,2.9-3.3c0.6,0,1.4,0.2,1.6,0.9h0
			l0.5-2.8h0.8L588.9,333.3z M586.7,332.7c1.3,0,2-1.5,2-2.6c0-0.8-0.5-1.3-1.3-1.3c-1.3,0-2,1.4-2,2.5
			C585.4,332.2,585.8,332.7,586.7,332.7z"/>
		<path d="M593.4,328c1.4,0,2.1,0.8,2.1,2.1c0,1.7-1,3.3-2.9,3.3c-1.4,0-2.2-0.9-2.2-2.2C590.5,329.6,591.5,328,593.4,328z
			 M592.7,332.7c1.2,0,1.9-1.4,1.9-2.4c0-0.8-0.4-1.5-1.4-1.5c-1.3,0-2,1.4-2,2.5C591.3,332.1,591.8,332.7,592.7,332.7z"/>
		<path d="M601,333.3h-0.9l-0.3-4h0l-1.8,4h-0.9l-0.6-5.2h0.9l0.3,4.1h0l1.9-4.1h1l0.2,4.1h0l2-4.1h0.9L601,333.3z"/>
		<path d="M604.7,328.2h0.8l-0.2,0.8h0c0.4-0.6,1.1-0.9,1.8-0.9c1,0,1.4,0.4,1.4,1.3c0,0.2-0.1,0.6-0.1,1l-0.6,2.9H607l0.7-3
			c0-0.2,0.1-0.6,0.1-0.8c0-0.5-0.4-0.7-0.9-0.7c-0.5,0-1,0.3-1.3,0.6c-0.3,0.3-0.5,0.7-0.6,1.1l-0.6,2.9h-0.8L604.7,328.2z"/>
	</g>
	<g class="st0">
		<path d="M576.6,312.3c1.2,0,1.9,0.8,1.9,2.7c0,1.3-0.7,4.5-3,4.5c-1.5,0-2-1.2-2-2.7C573.5,315.1,574.4,312.3,576.6,312.3z
			 M575.6,318.7c1.6,0,2.1-2.9,2.1-3.5c0-0.8,0.1-2.2-1.1-2.2c-1.5,0-2.1,2.8-2.1,3.8C574.4,318,574.7,318.7,575.6,318.7z"/>
		<path d="M579.2,318.3h1.1c-0.3,1.1-0.3,2.5-1.7,2.6l0.1-0.5c0.5-0.1,0.6-0.5,0.8-1H579L579.2,318.3z"/>
		<path d="M582,316.2h2.9l-0.2,0.8h-2.9L582,316.2z"/>
		<path d="M588.3,319.4h-0.9l1.1-5.4c-0.6,0.1-1.2,0.2-1.8,0.2l0.1-0.7c0.8,0,1.9-0.4,2.3-1.2h0.7L588.3,319.4z"/>
	</g>
	<g class="st0">
		<path d="M726.1,161.8h-0.9l1.1-5.4c-0.6,0.1-1.2,0.2-1.8,0.2l0.1-0.7c0.8,0,1.9-0.4,2.3-1.2h0.7L726.1,161.8z"/>
		<path d="M729.3,160.7h1.1c-0.3,1.1-0.3,2.5-1.7,2.6l0.1-0.5c0.5-0.1,0.6-0.5,0.8-1H729L729.3,160.7z"/>
		<path d="M735,154.8c1.2,0,1.9,0.8,1.9,2.7c0,1.3-0.7,4.5-3,4.5c-1.5,0-2-1.2-2-2.7C731.9,157.6,732.8,154.8,735,154.8z M734,161.2
			c1.6,0,2.1-2.9,2.1-3.5c0-0.8,0.1-2.2-1.1-2.2c-1.5,0-2.1,2.8-2.1,3.8C732.8,160.5,733.1,161.2,734,161.2z"/>
	</g>
	<g class="st0">
		<path d="M421.8,158.7h2.9l-0.2,0.8h-2.9L421.8,158.7z"/>
		<path d="M428.1,161.8h-0.9l1.1-5.4c-0.6,0.1-1.2,0.2-1.8,0.2l0.1-0.7c0.8,0,1.9-0.4,2.3-1.2h0.7L428.1,161.8z"/>
		<path d="M431.2,160.7h1.1c-0.3,1.1-0.3,2.5-1.7,2.6l0.1-0.5c0.5-0.1,0.7-0.5,0.8-1H431L431.2,160.7z"/>
		<path d="M437,154.8c1.2,0,1.9,0.8,1.9,2.7c0,1.3-0.7,4.5-3,4.5c-1.5,0-2-1.2-2-2.7C433.9,157.6,434.8,154.8,437,154.8z
			 M435.9,161.2c1.6,0,2.1-2.9,2.1-3.5c0-0.8,0.1-2.2-1.1-2.2c-1.5,0-2.1,2.8-2.1,3.8C434.8,160.5,435.1,161.2,435.9,161.2z"/>
	</g>
	<circle class="st1" cx="582.2" cy="168.6" r="138"/>
	<path id="path1072_00000075858389089761284560000013575201275133409155_" class="st2" d="M582.2,306.6v-276"/>
	<path id="path1072_00000047751349304003007530000007990828946612333970_" class="st2" d="M444.2,166.8h276"/>
	<radialGradient id="SVGID_1_" cx="582.3" cy="166.8" r="58" gradientUnits="userSpaceOnUse">
		<stop  offset="0" style="stop-color:#000000;stop-opacity:0.5"/>
		<stop  offset="0.8587" style="stop-color:#000000;stop-opacity:7.066998e-02"/>
		<stop  offset="1" style="stop-color:#000000;stop-opacity:0"/>
	</radialGradient>
	<circle class="st3" cx="582.3" cy="166.8" r="58"/>
	<g class="st0">
		<path d="M557.7,159.8c0-0.6-0.4-1-1.1-1c-1.3,0-2,1.3-2,2.4c0,0.8,0.3,1.5,1.3,1.5c0.7,0,1.3-0.4,1.5-1.1h0.8
			c-0.3,1.1-1.2,1.8-2.4,1.8c-1.4,0-2.1-0.8-2.1-2.2c0-1.6,1-3.2,2.9-3.2c1.2,0,1.9,0.6,1.9,1.8H557.7z"/>
		<path d="M559.9,161c0,0.2,0,0.3,0,0.5c0,0.8,0.6,1.2,1.3,1.2c0.7,0,1.2-0.3,1.5-1h0.8c-0.3,1.1-1.2,1.7-2.3,1.7
			c-1.7,0-2.2-1.2-2.2-2.1c0-2,1.2-3.3,2.7-3.3c1.5,0,2.2,0.8,2.2,2.3c0,0.3,0,0.5-0.1,0.7H559.9z M563,160.2
			c0.1-0.7-0.3-1.5-1.2-1.5c-1,0-1.5,0.7-1.8,1.5H563z"/>
		<path d="M565.3,158.2h0.8l-0.2,0.8h0c0.4-0.6,1.1-0.9,1.8-0.9c1,0,1.4,0.4,1.4,1.3c0,0.2-0.1,0.6-0.2,1l-0.6,2.9h-0.8l0.7-3
			c0-0.2,0.1-0.6,0.1-0.8c0-0.5-0.4-0.7-0.9-0.7c-0.5,0-1,0.3-1.3,0.6c-0.3,0.3-0.5,0.7-0.6,1.1l-0.6,2.9h-0.8L565.3,158.2z"/>
		<path d="M572,158.2h1l-0.2,0.7h-1l-0.6,3c0,0.1,0,0.2,0,0.3c0,0.3,0.2,0.3,0.5,0.3c0.2,0,0.3,0,0.5-0.1l-0.1,0.8
			c-0.2,0-0.4,0.1-0.6,0.1c-0.6,0-1.2-0.2-1.2-0.8c0-0.2,0-0.3,0-0.4l0.7-3.2h-0.9l0.2-0.7h0.9l0.3-1.5h0.8L572,158.2z"/>
		<path d="M574,161c0,0.2,0,0.3,0,0.5c0,0.8,0.6,1.2,1.3,1.2c0.7,0,1.2-0.3,1.5-1h0.8c-0.3,1.1-1.2,1.7-2.3,1.7
			c-1.7,0-2.2-1.2-2.2-2.1c0-2,1.2-3.3,2.7-3.3c1.5,0,2.2,0.8,2.2,2.3c0,0.3,0,0.5-0.1,0.7H574z M577.1,160.2
			c0.1-0.7-0.3-1.5-1.2-1.5c-1,0-1.5,0.7-1.8,1.5H577.1z"/>
		<path d="M579.4,158.2h0.8l-0.2,1.1h0c0.4-0.7,1-1.2,1.9-1.2c0.1,0,0.2,0,0.3,0l-0.2,0.9c-0.1,0-0.2,0-0.2,0c-0.2,0-0.3,0-0.5,0
			c-0.5,0.1-0.8,0.4-1.1,0.8c-0.2,0.3-0.4,0.8-0.4,1.2l-0.5,2.3h-0.8L579.4,158.2z"/>
		<path d="M583.3,156.2h2.7c1.2,0,2.3,0.4,2.3,1.8c0,1-0.7,1.8-1.6,1.9v0c0.6,0.2,0.8,0.8,0.7,1.5c0,0.6-0.3,1.3,0,1.8h-1
			c-0.1-0.3-0.1-0.8,0-1.5c0.3-1.7-0.7-1.5-1.1-1.5h-2.1l-0.6,3h-0.9L583.3,156.2z M583.5,159.5h2.1c1.5,0,1.8-0.9,1.8-1.4
			c0-0.9-0.7-1.1-1.4-1.1h-2L583.5,159.5z"/>
		<path d="M589.5,161c0,0.2,0,0.3,0,0.5c0,0.8,0.6,1.2,1.3,1.2c0.7,0,1.2-0.3,1.5-1h0.8c-0.3,1.1-1.2,1.7-2.3,1.7
			c-1.7,0-2.2-1.2-2.2-2.1c0-2,1.2-3.3,2.7-3.3c1.5,0,2.2,0.8,2.2,2.3c0,0.3,0,0.5-0.1,0.7H589.5z M592.6,160.2
			c0.1-0.7-0.3-1.5-1.2-1.5c-1,0-1.5,0.7-1.8,1.5H592.6z"/>
		<path d="M598.5,162.6c-0.1,0.5-0.2,1-0.4,1.4c-0.4,1-1.2,1.4-2.3,1.4c-1,0-2-0.4-2.1-1.6h0.8c0,0.7,0.6,0.8,1.3,0.8
			c1.3,0,1.6-1,1.8-2.1l0,0c-0.4,0.5-1,0.8-1.6,0.8c-1.3,0-1.9-0.9-1.9-2.1c0-1.5,1-3.2,2.7-3.2c0.8,0,1.5,0.4,1.6,1v0h0l0.2-0.9
			h0.8L598.5,162.6z M596.2,162.6c1.3,0,1.9-1.4,1.9-2.5c0-0.8-0.4-1.3-1.3-1.3c-1.2,0-1.8,1.5-1.8,2.4
			C595,162,595.4,162.6,596.2,162.6z"/>
		<path d="M600.7,158.2h0.8l-1.1,5.2h-0.8L600.7,158.2z M601.7,157.2h-0.9l0.2-1h0.9L601.7,157.2z"/>
		<path d="M604.9,158c1.4,0,2.1,0.8,2.1,2.1c0,1.7-1,3.3-2.9,3.3c-1.4,0-2.2-0.9-2.2-2.2C602,159.6,603.1,158,604.9,158z
			 M604.3,162.7c1.2,0,1.9-1.4,1.9-2.4c0-0.8-0.4-1.5-1.4-1.5c-1.3,0-2,1.4-2,2.5C602.9,162.1,603.4,162.7,604.3,162.7z"/>
		<path d="M608.6,158.2h0.8l-0.2,0.8h0c0.4-0.6,1.1-0.9,1.8-0.9c1,0,1.4,0.4,1.4,1.3c0,0.2-0.1,0.6-0.1,1l-0.6,2.9H611l0.7-3
			c0-0.2,0.1-0.6,0.1-0.8c0-0.5-0.4-0.7-0.9-0.7c-0.5,0-1,0.3-1.3,0.6c-0.3,0.3-0.5,0.7-0.6,1.1l-0.6,2.9h-0.8L608.6,158.2z"/>
	</g>
</g>
<g id="Layer_3">
	<circle class="st1" cx="87.3" cy="180.5" r="68.6"/>
	<circle class="st1" cx="87.3" cy="180.5" r="68.6"/>
	<path id="path1072_00000183214510339894210100000013884875747019743391_" class="st4" d="M135.9,229l-97.1-97"/>
	<path id="path1072_00000180326303450595837530000014706765396021347262_" class="st4" d="M38.2,228.4l97.1-97.1"/>
	<g class="st0">
		<path d="M43,91.3h-1l-0.3-4.6h0l-2.1,4.6h-1l-0.7-5.9h1l0.4,4.7h0l2.1-4.7h1.1l0.3,4.7h0l2.2-4.7h1L43,91.3z"/>
		<path d="M47.1,88.6c0,0.2,0,0.3,0,0.5c0,0.9,0.7,1.4,1.5,1.4c0.8,0,1.4-0.4,1.7-1.1h1c-0.3,1.3-1.4,2-2.7,2
			c-1.9,0-2.5-1.3-2.5-2.4c0-2.2,1.4-3.8,3-3.8c1.7,0,2.5,0.9,2.5,2.6c0,0.3-0.1,0.6-0.1,0.8H47.1z M50.7,87.8
			c0.1-0.8-0.3-1.7-1.4-1.7c-1.1,0-1.7,0.8-2,1.7H50.7z"/>
		<path d="M57.3,91.3h-0.9l0.2-0.8h0c-0.6,0.8-1.2,1-1.9,1c-1.5,0-2.3-1-2.3-2.4c0-1.8,1.2-3.7,3.3-3.7c0.7,0,1.6,0.2,1.8,1h0
			l0.6-3.1h1L57.3,91.3z M54.8,90.6c1.5,0,2.3-1.7,2.3-2.9c0-0.9-0.5-1.5-1.5-1.5c-1.5,0-2.3,1.6-2.3,2.9
			C53.3,90,53.7,90.6,54.8,90.6z"/>
		<path d="M64.1,90.4c-0.1,0.6-0.3,1.2-0.5,1.6c-0.5,1.2-1.4,1.6-2.7,1.6c-1.2,0-2.3-0.5-2.3-1.8h1c0.1,0.8,0.7,1,1.5,1
			c1.5,0,1.8-1.2,2.1-2.4l0,0c-0.4,0.6-1.1,0.9-1.8,0.9c-1.5,0-2.2-1-2.2-2.4c0-1.7,1.1-3.6,3.1-3.6c0.9,0,1.7,0.5,1.9,1.2v0h0
			l0.2-1.1h0.9L64.1,90.4z M61.5,90.5c1.5,0,2.1-1.6,2.1-2.8c0-0.9-0.5-1.5-1.5-1.5c-1.4,0-2.1,1.7-2.1,2.8
			C60.1,89.7,60.5,90.5,61.5,90.5z"/>
		<path d="M66.5,88.6c0,0.2,0,0.3,0,0.5c0,0.9,0.7,1.4,1.5,1.4c0.8,0,1.4-0.4,1.7-1.1h1c-0.3,1.3-1.4,2-2.7,2
			c-1.9,0-2.5-1.3-2.5-2.4c0-2.2,1.4-3.8,3-3.8c1.7,0,2.5,0.9,2.5,2.6c0,0.3-0.1,0.6-0.1,0.8H66.5z M70,87.8
			c0.1-0.8-0.3-1.7-1.4-1.7c-1.1,0-1.7,0.8-2,1.7H70z"/>
		<path d="M75.7,83.2h1.2l1.5,8.1h-1.1l-0.4-2.4h-3.4L72,91.3h-1.2L75.7,83.2z M74,87.9h2.8l-0.6-3.8h0L74,87.9z"/>
		<path d="M80.2,85.4h0.9L81,86.3h0c0.5-0.7,1.3-1,2.1-1c1.1,0,1.6,0.5,1.6,1.5c0,0.2-0.1,0.7-0.2,1.1l-0.7,3.3h-1l0.7-3.4
			c0-0.2,0.1-0.7,0.1-0.9c0-0.6-0.5-0.8-1-0.8c-0.5,0-1.1,0.3-1.5,0.7c-0.3,0.3-0.5,0.8-0.6,1.2l-0.7,3.2h-1L80.2,85.4z"/>
		<path d="M90.6,90.4c-0.1,0.6-0.3,1.2-0.5,1.6c-0.5,1.2-1.4,1.6-2.7,1.6c-1.2,0-2.3-0.5-2.3-1.8h1c0.1,0.8,0.7,1,1.5,1
			c1.5,0,1.8-1.2,2.1-2.4l0,0c-0.4,0.6-1.1,0.9-1.8,0.9c-1.5,0-2.2-1-2.2-2.4c0-1.7,1.1-3.6,3.1-3.6c0.9,0,1.7,0.5,1.9,1.2v0h0
			l0.2-1.1h0.9L90.6,90.4z M88,90.5c1.5,0,2.1-1.6,2.1-2.8c0-0.9-0.5-1.5-1.5-1.5c-1.4,0-2.1,1.7-2.1,2.8C86.6,89.7,87,90.5,88,90.5
			z"/>
		<path d="M93.5,83.2h1l-1.7,8.1h-1L93.5,83.2z"/>
		<path d="M95.5,88.6c0,0.2,0,0.3,0,0.5c0,0.9,0.7,1.4,1.5,1.4c0.8,0,1.4-0.4,1.7-1.1h1c-0.3,1.3-1.4,2-2.7,2
			c-1.9,0-2.5-1.3-2.5-2.4c0-2.2,1.4-3.8,3-3.8c1.7,0,2.5,0.9,2.5,2.6c0,0.3-0.1,0.6-0.1,0.8H95.5z M99.1,87.8
			c0.1-0.8-0.3-1.7-1.4-1.7c-1.1,0-1.7,0.8-2,1.7H99.1z"/>
		<path d="M109.9,87.6h-5.7v-0.8h5.7V87.6z M104.2,89.2h5.7v0.8h-5.7V89.2z"/>
		<path d="M115.4,83.2h3.2c1.6,0,2.4,0.8,2.4,2.2c0,1-0.7,2.6-3.1,2.6h-2.4l-0.7,3.3h-1.1L115.4,83.2z M115.7,87h2.4
			c1.2,0,1.8-0.7,1.8-1.6c0-1-0.6-1.3-1.3-1.3h-2.3L115.7,87z"/>
		<path d="M122.8,83.2h1.1l-1.7,8.1h-1.1L122.8,83.2z"/>
		<path d="M130.2,83h0.8l-3.4,8.5h-0.8L130.2,83z"/>
		<path d="M134.8,86c0.2-1.7,1.2-2.7,2.9-2.7c1.3,0,2.3,0.8,2.3,2.1c0,2-2.2,2.8-3.6,3.7c-0.5,0.3-1.1,0.8-1.3,1.4h4.2l-0.2,0.9H134
			c0.2-2.4,2.3-3,3.9-4.1c0.6-0.4,1-0.9,1-1.7c0-0.8-0.5-1.4-1.4-1.4c-1.1,0-1.7,0.9-1.8,1.9H134.8z"/>
	</g>
	<circle class="st1" cx="279.5" cy="170.2" r="75"/>
	<circle class="st1" cx="279.5" cy="170.2" r="75"/>
	<g class="st0">
		<path d="M228.4,70.1h-1.1l-0.3-5h0l-2.3,5h-1.1l-0.8-6.4h1.1l0.4,5.1h0l2.3-5.1h1.2l0.3,5.1h0l2.4-5.1h1.1L228.4,70.1z"/>
		<path d="M232.9,67.2c0,0.2,0,0.4,0,0.6c0,1,0.8,1.6,1.7,1.6c0.9,0,1.6-0.4,1.9-1.2h1.1c-0.3,1.4-1.5,2.2-2.9,2.2
			c-2.1,0-2.7-1.5-2.7-2.6c0-2.5,1.5-4.1,3.3-4.1c1.9,0,2.7,1,2.7,2.8c0,0.3-0.1,0.7-0.1,0.8H232.9z M236.8,66.2
			c0.1-0.9-0.3-1.8-1.5-1.8c-1.2,0-1.9,0.8-2.2,1.8H236.8z"/>
		<path d="M244,70.1h-1l0.2-0.9h0c-0.6,0.8-1.3,1.1-2.1,1.1c-1.6,0-2.5-1.1-2.5-2.6c0-2,1.3-4.1,3.6-4.1c0.8,0,1.8,0.3,2,1.1h0
			l0.7-3.4h1L244,70.1z M241.3,69.3c1.6,0,2.5-1.9,2.5-3.2c0-1-0.6-1.7-1.6-1.7c-1.7,0-2.5,1.7-2.5,3.2
			C239.6,68.6,240.1,69.3,241.3,69.3z"/>
		<path d="M251.4,69.1c-0.1,0.7-0.3,1.3-0.5,1.8c-0.5,1.3-1.6,1.8-2.9,1.8c-1.3,0-2.5-0.6-2.6-2h1.1c0.1,0.9,0.8,1.1,1.6,1.1
			c1.6,0,2-1.3,2.3-2.6l0,0c-0.5,0.7-1.2,1-2,1c-1.6,0-2.4-1.1-2.4-2.7c0-1.9,1.3-4,3.3-4c0.9,0,1.9,0.5,2,1.3v0h0l0.2-1.2h1
			L251.4,69.1z M248.6,69.2c1.6,0,2.3-1.8,2.3-3.1c0-1-0.5-1.7-1.6-1.7c-1.5,0-2.3,1.9-2.3,3C247,68.4,247.5,69.2,248.6,69.2z"/>
		<path d="M254.1,67.2c0,0.2,0,0.4,0,0.6c0,1,0.8,1.6,1.7,1.6c0.9,0,1.6-0.4,1.9-1.2h1.1c-0.3,1.4-1.5,2.2-2.9,2.2
			c-2.1,0-2.7-1.5-2.7-2.6c0-2.5,1.5-4.1,3.3-4.1c1.9,0,2.7,1,2.7,2.8c0,0.3-0.1,0.7-0.1,0.8H254.1z M257.9,66.2
			c0.1-0.9-0.3-1.8-1.5-1.8c-1.2,0-1.9,0.8-2.2,1.8H257.9z"/>
		<path d="M264.2,61.2h1.3l1.6,8.9h-1.2l-0.4-2.7h-3.7l-1.6,2.7h-1.3L264.2,61.2z M262.2,66.4h3.1l-0.7-4.2h0L262.2,66.4z"/>
		<path d="M269.1,63.6h1l-0.2,1h0c0.5-0.7,1.4-1.1,2.3-1.1c1.2,0,1.8,0.5,1.8,1.7c0,0.3-0.1,0.8-0.2,1.3l-0.8,3.7H272l0.8-3.8
			c0-0.2,0.1-0.8,0.1-1c0-0.6-0.5-0.9-1.1-0.9c-0.6,0-1.2,0.3-1.6,0.7c-0.4,0.3-0.6,0.8-0.7,1.3l-0.7,3.6h-1.1L269.1,63.6z"/>
		<path d="M280.4,69.1c-0.1,0.7-0.3,1.3-0.5,1.8c-0.5,1.3-1.6,1.8-2.9,1.8c-1.3,0-2.5-0.6-2.6-2h1.1c0.1,0.9,0.8,1.1,1.6,1.1
			c1.6,0,2-1.3,2.3-2.6l0,0c-0.5,0.7-1.2,1-2,1c-1.6,0-2.4-1.1-2.4-2.7c0-1.9,1.3-4,3.3-4c0.9,0,1.9,0.5,2,1.3v0h0l0.2-1.2h1
			L280.4,69.1z M277.6,69.2c1.6,0,2.3-1.8,2.3-3.1c0-1-0.5-1.7-1.6-1.7c-1.5,0-2.3,1.9-2.3,3C276,68.4,276.5,69.2,277.6,69.2z"/>
		<path d="M283.6,61.2h1.1l-1.9,8.9h-1.1L283.6,61.2z"/>
		<path d="M285.8,67.2c0,0.2,0,0.4,0,0.6c0,1,0.8,1.6,1.7,1.6c0.9,0,1.6-0.4,1.9-1.2h1.1c-0.3,1.4-1.5,2.2-2.9,2.2
			c-2.1,0-2.7-1.5-2.7-2.6c0-2.5,1.5-4.1,3.3-4.1c1.9,0,2.7,1,2.7,2.8c0,0.3-0.1,0.7-0.1,0.8H285.8z M289.7,66.2
			c0.1-0.9-0.3-1.8-1.5-1.8c-1.2,0-1.9,0.8-2.2,1.8H289.7z"/>
		<path d="M301.5,66.1h-6.3v-0.8h6.3V66.1z M295.3,67.8h6.3v0.8h-6.3V67.8z"/>
		<path d="M308.4,65c1.1,0,2.4-0.1,2.4-1.6c0-1-0.8-1.2-1.5-1.2c-1,0-1.6,0.6-1.8,1.8h-1.1c0.2-1.5,1.1-2.7,3-2.7
			c1.6,0,2.5,0.7,2.5,2.2c0,1-0.8,1.8-1.6,2c0.9,0.4,1.1,1.1,1.1,1.8c0,1.2-1,2.9-3.2,2.9c-1.7,0-2.8-0.9-2.8-2.9h1.1
			c0,1,0.3,1.9,1.7,1.9c1.2,0,2-0.7,2-1.9c0-1.3-1.1-1.5-2.2-1.5L308.4,65z"/>
		<path d="M315.5,62.6l1.4-0.1l0.1,0.6l-1.3,0.2l0.6,1.2l-0.6,0.3l-0.6-1.3l-1,1.1l-0.5-0.5l1-1l-1.2-0.6l0.3-0.6l1.2,0.6l0.3-1.3
			h0.7L315.5,62.6z"/>
		<path d="M318.8,61.2h3.5c1.7,0,2.6,0.8,2.6,2.4c0,1.1-0.8,2.8-3.4,2.8h-2.6l-0.8,3.6h-1.2L318.8,61.2z M319.1,65.4h2.7
			c1.3,0,2-0.7,2-1.8c0-1.1-0.7-1.5-1.5-1.5h-2.5L319.1,65.4z"/>
		<path d="M326.8,61.2h1.2l-1.9,8.9H325L326.8,61.2z"/>
		<path d="M331.6,61h0.9l-3.7,9.3h-0.9L331.6,61z"/>
		<path d="M336.1,68h-3.9l0.2-1l5.2-5.7h0.9l-1.2,5.8h1.2l-0.2,0.9h-1.2l-0.4,2.1h-1.1L336.1,68z M333.4,67.1h2.8l0.8-4h0
			L333.4,67.1z"/>
	</g>

		<linearGradient id="path1072_00000031891933379741512970000012916434199046728615_" gradientUnits="userSpaceOnUse" x1="210.3" y1="167.8" x2="348.7" y2="167.8" gradientTransform="matrix(1 0 0 -1 0 338)">
		<stop  offset="0" style="stop-color:#595959"/>
		<stop  offset="1" style="stop-color:#000000"/>
	</linearGradient>

		<path id="path1072_00000176040346342604096960000014760129993313455501_" style="display:none;fill:url(#path1072_00000031891933379741512970000012916434199046728615_);stroke:#000000;stroke-width:0.25;stroke-linecap:round;stroke-linejoin:round;stroke-miterlimit:28.3465;" d="
		M348.7,199.1c-22.7-9.5-45.5-19-68.2-28.5c-23.4-9.8-46.8-19.5-70.2-29.3"/>
	<path id="path1072_00000122680072145742402480000005595403942887505086_" class="st6" d="M210.1,198.8l138.7-57.2"/>
	<path id="path1072_00000088850477614525635890000010104133241492838585_" class="st6" d="M308.3,101l-57.8,138.5"/>
	<path id="path1072_00000052804267685390093240000000814064566771473300_" class="st6" d="M308.1,239.5l-57.2-138.7"/>

		<linearGradient id="SVGID_00000065047945235173139240000001473306286361232780_" gradientUnits="userSpaceOnUse" x1="210.2" y1="196.7" x2="210.2" y2="196.7" gradientTransform="matrix(1 0 0 -1 0 338)">
		<stop  offset="0" style="stop-color:#595959"/>
		<stop  offset="1" style="stop-color:#000000"/>
	</linearGradient>

		<path style="fill:url(#SVGID_00000065047945235173139240000001473306286361232780_);stroke:#000000;stroke-width:0.25;stroke-linecap:round;stroke-linejoin:round;stroke-miterlimit:28.3465;" d="
		M210.2,141.3"/>
	<path class="st4" d="M348.8,141.6"/>
</g>
<g id="Layer_9">
	<path class="st8" d="M38.8,132c32.3,32.4,48.5,48.5,48.5,48.5s-0.2-0.2-0.6-0.6c8.6-8.5,17.2-17.1,25.8-25.7
		c7.6-7.6,15.2-15.2,22.7-22.8c0,0-0.1-0.1-0.2-0.1c-7.5-5.9-15-10.9-18.2-12.7c-11.6-6.5-28.4-6.7-29.5-6.7
		C61.3,111.9,43.3,127.8,38.8,132z"/>
	<path class="st9" d="M135.2,131.3c-16.2,16.2-32.4,32.4-48.5,48.5l0,0c8,8.2,16.2,16.5,24.6,24.9c8.2,8.2,16.4,16.2,24.6,24
		c0,0,0.1-0.1,0.1-0.2c2.9-3.7,5.4-6.2,5.8-6.7c3.4-3.6,7.2-11.3,7.5-12c5.8-11.9,6-24.1,6-29.1c0-5.3,0-14.4-4.1-25.3
		C146.8,143.6,139.7,135.7,135.2,131.3z"/>
	<path class="st10" d="M135.9,228.7c-7.9-7.7-15.8-15.4-23.7-23.3c-8.6-8.6-17.1-17.1-25.5-25.6c-8.3,8.3-16.6,16.5-24.9,24.8
		c-7.9,7.9-15.8,15.8-23.7,23.7l0,0c0,0,11.2,9.3,19.2,13.9c12.5,7.1,25.2,7.3,29.6,7.4C113.4,250,131.7,232.9,135.9,228.7z"/>
	<path class="st11" d="M38.2,228.4c8.1-8.2,16.3-16.3,24.4-24.4c8-8,16.1-16.1,24.1-24.1c-7.7-7.8-15.5-15.5-23.2-23.3
		c-8.2-8.2-16.5-16.4-24.7-24.6l0,0c-6.7,8.7-8.1,10.8-8.1,10.8s-3.3,5-5.9,10.5c-5.7,12.1-6.1,24.5-6.1,27.4
		C18.4,205.9,35.3,225.2,38.2,228.4z"/>
</g>
<g id="Layer_5" class="st12">
	<path class="st13" d="M201,56l4.9,2.3l0,0l45.4,20.6l0,0c0,0,2.5,2.6,5,3c3.6,0.6,7.6-3.5,7.6-3.5l0,0l41.5-19.2l0,0l6.3-2.9l0,0
		c2.1,4.2-4.1-8.5-6.2-12.7c-5-10.1-16.1-19-26.1-23.7c-22.4-10.5-42.7-1.6-45.9-0.1c-1.9,0.9-19,9-26.1,23.3
		C206.5,44.6,201,56,201,56L201,56z"/>
	<path class="st14" d="M311.9,109.3l-4.9-2.4l0,0l-45.4-21.7l0,0c0,0-2.5-2.8-5-3.2c-3.6-0.6-7.6,3.7-7.6,3.7l0,0L207.5,106l0,0
		l-6.3,3.1l0,0c-2.1-4.5,4.1,9,6.2,13.4c5,10.7,16.1,20,26.1,25c22.4,11.1,42.7,1.7,45.9,0.1c1.9-0.9,19-9.5,26.1-24.6
		C306.4,121.3,311.9,109.3,311.9,109.3L311.9,109.3z"/>
	<path class="st15" d="M233.4,137.3c7.8-18.3,15.5-36.6,23.3-54.9c-7.7-18.6-15.5-37.2-23.2-55.8c-3.3,2-29.6,11.1-40.7,29
		c-9.3,15.1-7.7,36.4,0.7,52.3C206.1,131.3,230.1,136.6,233.4,137.3z"/>
	<path class="st16" d="M283.2,26.3l-2.4,4.9l0,0l-21.1,45.4l0,0c0,0-2.7,2.5-3.1,5c-0.6,3.6,3.6,7.6,3.6,7.6l0,0l19.7,41.5l0,0
		l3,6.3l0,0c-4.4,2.1,8.7-4.1,13.1-6.2c10.4-5,19.5-16.1,24.3-26.1c10.8-22.4,1.6-42.7,0.1-45.9c-0.9-1.9-9.2-19-23.9-26.1
		C294.9,31.8,283.2,26.3,283.2,26.3L283.2,26.3z"/>
</g>
<g id="Layer_6">

		<linearGradient id="SVGID_00000065074610844876541610000001466239528879446682_" gradientUnits="userSpaceOnUse" x1="279.2916" y1="172.463" x2="279.0553" y2="253.1973" gradientTransform="matrix(1 0 0 -1 0 338)">
		<stop  offset="0" style="stop-color:#419B74;stop-opacity:0.1"/>
		<stop  offset="1" style="stop-color:#339966"/>
	</linearGradient>
	<path style="fill:url(#SVGID_00000065074610844876541610000001466239528879446682_);" d="M196.8,133.4
		c15.8,7.9,32.8,15.8,50.8,23.4c11.1,4.7,22,9,32.6,13c14-5.6,28.2-11.4,42.7-17.6c13.2-5.6,26.1-11.3,38.7-17.1
		c-3.2-7.7-10.5-22.2-25.5-34.7c-3.1-2.6-25.2-20.5-55.9-20.8C246.5,79.5,214.4,100.6,196.8,133.4z"/>

		<linearGradient id="SVGID_00000044885787479975378890000006923265183431994263_" gradientUnits="userSpaceOnUse" x1="279.5" y1="166.2" x2="363.3" y2="166.2" gradientTransform="matrix(1 0 0 -1 0 338)">
		<stop  offset="0" style="stop-color:#875D9B;stop-opacity:0.1"/>
		<stop  offset="1" style="stop-color:#875D9B"/>
	</linearGradient>
	<path style="fill:url(#SVGID_00000044885787479975378890000006923265183431994263_);" d="M310.6,94.3
		c-5.6,11.8-11.1,24.3-16.6,37.5c-5.4,13.3-10.2,26.1-14.5,38.4c3.8,10.6,7.8,21.4,12.1,32.4c6.3,16.2,12.7,31.7,19.2,46.7
		c11-7.4,18.1-12.1,18.1-12.1l0,0c0,0,16.8-13.5,25.8-29.6c8.5-15.3,8.6-30.4,8.6-36.7c0-5.6-0.7-19.9-8.3-35.6
		C342,108.5,317.9,97.4,310.6,94.3z"/>

		<linearGradient id="SVGID_00000034786375276380403830000012871457524184420532_" gradientUnits="userSpaceOnUse" x1="279.75" y1="80.5454" x2="279.75" y2="162.1781" gradientTransform="matrix(1 0 0 -1 0 338)">
		<stop  offset="0" style="stop-color:#E77474"/>
		<stop  offset="1" style="stop-color:#E77474;stop-opacity:0.1"/>
	</linearGradient>
	<path style="fill:url(#SVGID_00000034786375276380403830000012871457524184420532_);" d="M365.7,200.1
		c-16.1-5.9-32.7-11.8-49.6-17.6c-12.2-4.2-24.4-8.2-36.3-12.1c-12.3,3.9-24.6,7.8-37.1,11.9c-16.6,5.4-32.9,11-48.9,16.5
		c2.6,8.3,9.9,27.6,29,43.3c7.2,5.9,28.1,21.1,57.8,20.4c25.1-0.6,42.4-12.2,49.2-16.9C352.4,230.1,362.1,209.1,365.7,200.1z"/>

		<linearGradient id="SVGID_00000017476170274872753460000014299460684445273230_" gradientUnits="userSpaceOnUse" x1="196.2" y1="166.5" x2="280.2" y2="166.5" gradientTransform="matrix(1 0 0 -1 0 338)">
		<stop  offset="0" style="stop-color:#6666FF"/>
		<stop  offset="1" style="stop-color:#5D7FE7;stop-opacity:0.1"/>
	</linearGradient>
	<path style="fill:url(#SVGID_00000017476170274872753460000014299460684445273230_);" d="M249.3,249.3
		c5.5-13.2,10.9-26.7,16.2-40.5c5.1-13.1,10-26,14.7-38.7c-4.2-11-8.5-22.1-12.7-33.4c-5.4-14.5-10.6-28.8-15.6-43
		c-6.6,2-28,9.6-42.7,31.7c-12.8,19.2-13,38.2-13,44.7c0,29.5,15.7,49.6,21.3,56.1C229,239.3,241.8,246.1,249.3,249.3z"/>
</g>
<g id="Layer_4" class="st12">

		<linearGradient id="SVGID_00000177473549278751353910000009568510129702939801_" gradientUnits="userSpaceOnUse" x1="677.6813" y1="449.3345" x2="677.4711" y2="432.9325" gradientTransform="matrix(-1.0507 -2.4004 -0.9161 0.401 1348.4272 1508.7174)">
		<stop  offset="0" style="stop-color:#595959;stop-opacity:0"/>
		<stop  offset="1" style="stop-color:#000000"/>
	</linearGradient>
	<path style="display:inline;fill:url(#SVGID_00000177473549278751353910000009568510129702939801_);" d="M244.9,54.2L257,81.6
		c0,0,0,0-0.1,0c-13.9,6.1-30.8-1.3-37.4-16.3s-0.6-32.5,13.4-38.6L244.9,54.2z"/>

		<linearGradient id="SVGID_00000094593641370194585880000017325085818875527081_" gradientUnits="userSpaceOnUse" x1="556.5283" y1="565.4169" x2="556.318" y2="549.015" gradientTransform="matrix(1.0201 -2.4135 -0.9211 -0.3893 178.6611 1663.7981)">
		<stop  offset="0" style="stop-color:#595959;stop-opacity:0"/>
		<stop  offset="1" style="stop-color:#000000"/>
	</linearGradient>
	<path style="display:inline;fill:url(#SVGID_00000094593641370194585880000017325085818875527081_);" d="M245.3,109.6l-11.6,27.6
		c0,0,0,0-0.1,0c-14-5.9-20.3-23.2-13.9-38.4c6.4-15.1,23.2-22.7,37.2-16.8L245.3,109.6z"/>

		<linearGradient id="SVGID_00000068639872827837447740000003559332602130634898_" gradientUnits="userSpaceOnUse" x1="493.4288" y1="440.2497" x2="493.2185" y2="423.8477" gradientTransform="matrix(2.4004 -1.0507 -0.401 -0.9161 -731.7899 973.487)">
		<stop  offset="0" style="stop-color:#595959;stop-opacity:0"/>
		<stop  offset="1" style="stop-color:#000000"/>
	</linearGradient>
	<path style="display:inline;fill:url(#SVGID_00000068639872827837447740000003559332602130634898_);" d="M284.2,71.9L256.7,84
		c0,0,0,0,0-0.1C250.6,70,258,53.1,273,46.5s32.5-0.6,38.6,13.4L284.2,71.9z"/>

		<linearGradient id="SVGID_00000062181482915312003660000005352799991874132622_" gradientUnits="userSpaceOnUse" x1="432.3221" y1="208.6997" x2="432.1119" y2="192.2978" gradientTransform="matrix(2.4135 1.0201 0.3893 -0.9211 -886.8705 -196.2791)">
		<stop  offset="0" style="stop-color:#353535;stop-opacity:0"/>
		<stop  offset="1" style="stop-color:#020202"/>
	</linearGradient>
	<path style="display:inline;fill:url(#SVGID_00000062181482915312003660000005352799991874132622_);" d="M228.7,72.2l-27.6-11.6
		c0,0,0,0,0-0.1c5.9-14,23.2-20.3,38.4-13.9s22.7,23.2,16.8,37.2L228.7,72.2z"/>

		<linearGradient id="SVGID_00000151502972582837113230000007787979565023910079_" gradientUnits="userSpaceOnUse" x1="446.6354" y1="45.8049" x2="446.4252" y2="29.4029" gradientTransform="matrix(1.0507 2.4004 0.9161 -0.401 -223.6386 -951.0526)">
		<stop  offset="0" style="stop-color:#595959;stop-opacity:0"/>
		<stop  offset="1" style="stop-color:#000000"/>
	</linearGradient>
	<path style="display:inline;fill:url(#SVGID_00000151502972582837113230000007787979565023910079_);" d="M267.4,110.7l-12.1-27.4
		c0,0,0,0,0.1,0c13.9-6.1,30.8,1.3,37.4,16.3s0.6,32.5-13.4,38.6L267.4,110.7z"/>

		<linearGradient id="SVGID_00000054223532352842760230000002580617772168646325_" gradientUnits="userSpaceOnUse" x1="509.4422" y1="-151.6237" x2="509.232" y2="-168.0256" gradientTransform="matrix(-1.0201 2.4135 0.9211 0.3893 946.1275 -1106.1333)">
		<stop  offset="0" style="stop-color:#595959;stop-opacity:0"/>
		<stop  offset="1" style="stop-color:#000000"/>
	</linearGradient>
	<path style="display:inline;fill:url(#SVGID_00000054223532352842760230000002580617772168646325_);" d="M267.1,55.3l11.6-27.6
		c0,0,0,0,0.1,0c14,5.9,20.3,23.2,13.9,38.4c-6.4,15.1-23.2,22.7-37.2,16.8L267.1,55.3z"/>

		<linearGradient id="SVGID_00000147926280453754514930000017689661832208063412_" gradientUnits="userSpaceOnUse" x1="650.1933" y1="72.1961" x2="649.9831" y2="55.7941" gradientTransform="matrix(-2.4004 1.0507 0.401 0.9161 1767.3599 -636.1693)">
		<stop  offset="0" style="stop-color:#595959;stop-opacity:0"/>
		<stop  offset="1" style="stop-color:#000000"/>
	</linearGradient>
	<path style="display:inline;fill:url(#SVGID_00000147926280453754514930000017689661832208063412_);" d="M227.5,93L255,80.9
		c0,0,0,0,0,0.1c6.1,13.9-1.3,30.8-16.3,37.4c-15.1,6.6-32.5,0.6-38.6-13.4L227.5,93z"/>

		<linearGradient id="SVGID_00000163041283548201979600000006203544181102097807_" gradientUnits="userSpaceOnUse" x1="642.1151" y1="253.7871" x2="641.9048" y2="237.3852" gradientTransform="matrix(-2.4135 -1.0201 -0.3893 0.9211 1922.4406 533.5969)">
		<stop  offset="0" style="stop-color:#595959;stop-opacity:0"/>
		<stop  offset="1" style="stop-color:#000000"/>
	</linearGradient>
	<path style="display:inline;fill:url(#SVGID_00000163041283548201979600000006203544181102097807_);" d="M283,92.6l27.6,11.6
		c0,0,0,0,0,0.1c-5.9,14-23.2,20.3-38.4,13.9c-15.1-6.4-22.7-23.2-16.8-37.2L283,92.6z"/>
</g>
<g id="Layer_2" class="st12">

		<linearGradient id="SVGID_00000137098309467807726570000001654119560275433862_" gradientUnits="userSpaceOnUse" x1="556.5597" y1="267.65" x2="606.4815" y2="267.65" gradientTransform="matrix(1 0 0 -1 0 338)">
		<stop  offset="0" style="stop-color:#419B74;stop-opacity:0.1"/>
		<stop  offset="0.5" style="stop-color:#339966"/>
		<stop  offset="1" style="stop-color:#339966;stop-opacity:0"/>
	</linearGradient>

		<rect x="556.6" y="31.9" style="display:inline;fill:url(#SVGID_00000137098309467807726570000001654119560275433862_);" width="49.9" height="76.9"/>

		<linearGradient id="SVGID_00000147197047950978561600000004230327445102765479_" gradientUnits="userSpaceOnUse" x1="556.5597" y1="72.8827" x2="606.4815" y2="72.8827" gradientTransform="matrix(1 0 0 -1 0 338)">
		<stop  offset="0" style="stop-color:#E77474;stop-opacity:0"/>
		<stop  offset="0.5" style="stop-color:#E77474"/>
		<stop  offset="1" style="stop-color:#E77474;stop-opacity:0.1"/>
	</linearGradient>

		<rect x="556.6" y="224.8" style="display:inline;fill:url(#SVGID_00000147197047950978561600000004230327445102765479_);" width="49.9" height="80.6"/>

		<linearGradient id="SVGID_00000027584410918604270910000008019295078734294701_" gradientUnits="userSpaceOnUse" x1="556.5597" y1="266.3267" x2="606.4815" y2="266.3267" gradientTransform="matrix(-1.836970e-16 -1 -1 1.836970e-16 750.8533 750.1879)">
		<stop  offset="0" style="stop-color:#6666FF;stop-opacity:0"/>
		<stop  offset="0.5" style="stop-color:#6666FF"/>
		<stop  offset="1" style="stop-color:#5D7FE7;stop-opacity:0.1"/>
	</linearGradient>

		<rect x="444.8" y="143.7" style="display:inline;fill:url(#SVGID_00000027584410918604270910000008019295078734294701_);" width="79.5" height="49.9"/>

		<linearGradient id="SVGID_00000066493299691644470580000012943666139577524127_" gradientUnits="userSpaceOnUse" x1="556.5597" y1="71.6166" x2="606.4814" y2="71.6166" gradientTransform="matrix(-1.836970e-16 -1 -1 1.836970e-16 750.8533 750.1879)">
		<stop  offset="0" style="stop-color:#875D9B;stop-opacity:0"/>
		<stop  offset="0.5" style="stop-color:#875D9B"/>
		<stop  offset="0.9637" style="stop-color:#875D9B;stop-opacity:0"/>
		<stop  offset="1" style="stop-color:#875D9B;stop-opacity:0.1"/>
	</linearGradient>

		<rect x="640.2" y="143.7" style="display:inline;fill:url(#SVGID_00000066493299691644470580000012943666139577524127_);" width="78.1" height="49.9"/>
</g>
</svg>
