<?xml version="1.0" encoding="UTF-8" standalone="no"?>
<svg
   xmlns:dc="http://purl.org/dc/elements/1.1/"
   xmlns:cc="http://creativecommons.org/ns#"
   xmlns:rdf="http://www.w3.org/1999/02/22-rdf-syntax-ns#"
   xmlns:svg="http://www.w3.org/2000/svg"
   xmlns="http://www.w3.org/2000/svg"
   xmlns:sodipodi="http://sodipodi.sourceforge.net/DTD/sodipodi-0.dtd"
   xmlns:inkscape="http://www.inkscape.org/namespaces/inkscape"
   version="1.1"
   id="Layer_1"
   x="0px"
   y="0px"
   width="100mm"
   height="104mm"
   viewBox="0 0 377.95276 393.07088"
   enable-background="new 0 0 600 600"
   xml:space="preserve"
   sodipodi:docname="ext_marker_tracking_qr.svg"
   inkscape:version="0.92.5 (2060ec1f9f, 2020-04-08)"><metadata
   id="metadata3555"><rdf:RDF><cc:Work
       rdf:about=""><dc:format>image/svg+xml</dc:format><dc:type
         rdf:resource="http://purl.org/dc/dcmitype/StillImage" /><dc:title></dc:title></cc:Work></rdf:RDF></metadata><defs
   id="defs3553" /><sodipodi:namedview
   pagecolor="#ffffff"
   bordercolor="#666666"
   borderopacity="1"
   objecttolerance="10"
   gridtolerance="10"
   guidetolerance="10"
   inkscape:pageopacity="0"
   inkscape:pageshadow="2"
   inkscape:window-width="3840"
   inkscape:window-height="2013"
   id="namedview3551"
   showgrid="false"
   units="mm"
   inkscape:zoom="2.8284271"
   inkscape:cx="381.62491"
   inkscape:cy="106.84228"
   inkscape:window-x="3840"
   inkscape:window-y="0"
   inkscape:window-maximized="1"
   inkscape:current-layer="Layer_1" />
<g
   transform="matrix(0.74875261,0,0,0.74875261,0.65213017,9.0370171)"
   id="g3548"><g
     transform="matrix(0.24,0,0,0.24,240,0)"
     id="g2790"><g
       style="fill:#000000"
       id="g2788">
<rect
   width="100"
   height="100"
   id="rect2786"
   x="0"
   y="0" />
</g></g><g
     transform="matrix(0.24,0,0,0.24,264,0)"
     id="g2796"><g
       style="fill:#000000"
       id="g2794">
<rect
   width="100"
   height="100"
   id="rect2792"
   x="0"
   y="0" />
</g></g><g
     transform="matrix(0.24,0,0,0.24,192,24)"
     id="g2802"><g
       style="fill:#000000"
       id="g2800">
<rect
   width="100"
   height="100"
   id="rect2798"
   x="0"
   y="0" />
</g></g><g
     transform="matrix(0.24,0,0,0.24,216,24)"
     id="g2808"><g
       style="fill:#000000"
       id="g2806">
<rect
   width="100"
   height="100"
   id="rect2804"
   x="0"
   y="0" />
</g></g><g
     transform="matrix(0.24,0,0,0.24,264,24)"
     id="g2814"><g
       style="fill:#000000"
       id="g2812">
<rect
   width="100"
   height="100"
   id="rect2810"
   x="0"
   y="0" />
</g></g><g
     transform="matrix(0.24,0,0,0.24,288,24)"
     id="g2820"><g
       style="fill:#000000"
       id="g2818">
<rect
   width="100"
   height="100"
   id="rect2816"
   x="0"
   y="0" />
</g></g><g
     transform="matrix(0.24,0,0,0.24,192,48)"
     id="g2826"><g
       style="fill:#000000"
       id="g2824">
<rect
   width="100"
   height="100"
   id="rect2822"
   x="0"
   y="0" />
</g></g><g
     transform="matrix(0.24,0,0,0.24,240,48)"
     id="g2832"><g
       style="fill:#000000"
       id="g2830">
<rect
   width="100"
   height="100"
   id="rect2828"
   x="0"
   y="0" />
</g></g><g
     transform="matrix(0.24,0,0,0.24,192,72)"
     id="g2838"><g
       style="fill:#000000"
       id="g2836">
<rect
   width="100"
   height="100"
   id="rect2834"
   x="0"
   y="0" />
</g></g><g
     transform="matrix(0.24,0,0,0.24,216,72)"
     id="g2844"><g
       style="fill:#000000"
       id="g2842">
<rect
   width="100"
   height="100"
   id="rect2840"
   x="0"
   y="0" />
</g></g><g
     transform="matrix(0.24,0,0,0.24,240,72)"
     id="g2850"><g
       style="fill:#000000"
       id="g2848">
<rect
   width="100"
   height="100"
   id="rect2846"
   x="0"
   y="0" />
</g></g><g
     transform="matrix(0.24,0,0,0.24,264,72)"
     id="g2856"><g
       style="fill:#000000"
       id="g2854">
<rect
   width="100"
   height="100"
   id="rect2852"
   x="0"
   y="0" />
</g></g><g
     transform="matrix(0.24,0,0,0.24,288,72)"
     id="g2862"><g
       style="fill:#000000"
       id="g2860">
<rect
   width="100"
   height="100"
   id="rect2858"
   x="0"
   y="0" />
</g></g><g
     transform="matrix(0.24,0,0,0.24,216,96)"
     id="g2868"><g
       style="fill:#000000"
       id="g2866">
<rect
   width="100"
   height="100"
   id="rect2864"
   x="0"
   y="0" />
</g></g><g
     transform="matrix(0.24,0,0,0.24,264,96)"
     id="g2874"><g
       style="fill:#000000"
       id="g2872">
<rect
   width="100"
   height="100"
   id="rect2870"
   x="0"
   y="0" />
</g></g><g
     transform="matrix(0.24,0,0,0.24,288,96)"
     id="g2880"><g
       style="fill:#000000"
       id="g2878">
<rect
   width="100"
   height="100"
   id="rect2876"
   x="0"
   y="0" />
</g></g><g
     transform="matrix(0.24,0,0,0.24,216,120)"
     id="g2886"><g
       style="fill:#000000"
       id="g2884">
<rect
   width="100"
   height="100"
   id="rect2882"
   x="0"
   y="0" />
</g></g><g
     transform="matrix(0.24,0,0,0.24,288,120)"
     id="g2892"><g
       style="fill:#000000"
       id="g2890">
<rect
   width="100"
   height="100"
   id="rect2888"
   x="0"
   y="0" />
</g></g><g
     transform="matrix(0.24,0,0,0.24,192,144)"
     id="g2898"><g
       style="fill:#000000"
       id="g2896">
<rect
   width="100"
   height="100"
   id="rect2894"
   x="0"
   y="0" />
</g></g><g
     transform="matrix(0.24,0,0,0.24,240,144)"
     id="g2904"><g
       style="fill:#000000"
       id="g2902">
<rect
   width="100"
   height="100"
   id="rect2900"
   x="0"
   y="0" />
</g></g><g
     transform="matrix(0.24,0,0,0.24,288,144)"
     id="g2910"><g
       style="fill:#000000"
       id="g2908">
<rect
   width="100"
   height="100"
   id="rect2906"
   x="0"
   y="0" />
</g></g><g
     transform="matrix(0.24,0,0,0.24,192,168)"
     id="g2916"><g
       style="fill:#000000"
       id="g2914">
<rect
   width="100"
   height="100"
   id="rect2912"
   x="0"
   y="0" />
</g></g><g
     transform="matrix(0.24,0,0,0.24,264,168)"
     id="g2922"><g
       style="fill:#000000"
       id="g2920">
<rect
   width="100"
   height="100"
   id="rect2918"
   x="0"
   y="0" />
</g></g><g
     transform="matrix(0.24,0,0,0.24,288,168)"
     id="g2928"><g
       style="fill:#000000"
       id="g2926">
<rect
   width="100"
   height="100"
   id="rect2924"
   x="0"
   y="0" />
</g></g><g
     transform="matrix(0.24,0,0,0.24,0,192)"
     id="g2934"><g
       style="fill:#000000"
       id="g2932">
<rect
   width="100"
   height="100"
   id="rect2930"
   x="0"
   y="0" />
</g></g><g
     transform="matrix(0.24,0,0,0.24,144,192)"
     id="g2940"><g
       style="fill:#000000"
       id="g2938">
<rect
   width="100"
   height="100"
   id="rect2936"
   x="0"
   y="0" />
</g></g><g
     transform="matrix(0.24,0,0,0.24,192,192)"
     id="g2946"><g
       style="fill:#000000"
       id="g2944">
<rect
   width="100"
   height="100"
   id="rect2942"
   x="0"
   y="0" />
</g></g><g
     transform="matrix(0.24,0,0,0.24,240,192)"
     id="g2952"><g
       style="fill:#000000"
       id="g2950">
<rect
   width="100"
   height="100"
   id="rect2948"
   x="0"
   y="0" />
</g></g><g
     transform="matrix(0.24,0,0,0.24,288,192)"
     id="g2958"><g
       style="fill:#000000"
       id="g2956">
<rect
   width="100"
   height="100"
   id="rect2954"
   x="0"
   y="0" />
</g></g><g
     transform="matrix(0.24,0,0,0.24,312,192)"
     id="g2964"><g
       style="fill:#000000"
       id="g2962">
<rect
   width="100"
   height="100"
   id="rect2960"
   x="0"
   y="0" />
</g></g><g
     transform="matrix(0.24,0,0,0.24,336,192)"
     id="g2970"><g
       style="fill:#000000"
       id="g2968">
<rect
   width="100"
   height="100"
   id="rect2966"
   x="0"
   y="0" />
</g></g><g
     transform="matrix(0.24,0,0,0.24,408,192)"
     id="g2976"><g
       style="fill:#000000"
       id="g2974">
<rect
   width="100"
   height="100"
   id="rect2972"
   x="0"
   y="0" />
</g></g><g
     transform="matrix(0.24,0,0,0.24,432,192)"
     id="g2982"><g
       style="fill:#000000"
       id="g2980">
<rect
   width="100"
   height="100"
   id="rect2978"
   x="0"
   y="0" />
</g></g><g
     transform="matrix(0.24,0,0,0.24,456,192)"
     id="g2988"><g
       style="fill:#000000"
       id="g2986">
<rect
   width="100"
   height="100"
   id="rect2984"
   x="0"
   y="0" />
</g></g><g
     transform="matrix(0.24,0,0,0.24,96,216)"
     id="g2994"><g
       style="fill:#000000"
       id="g2992">
<rect
   width="100"
   height="100"
   id="rect2990"
   x="0"
   y="0" />
</g></g><g
     transform="matrix(0.24,0,0,0.24,120,216)"
     id="g3000"><g
       style="fill:#000000"
       id="g2998">
<rect
   width="100"
   height="100"
   id="rect2996"
   x="0"
   y="0" />
</g></g><g
     transform="matrix(0.24,0,0,0.24,168,216)"
     id="g3006"><g
       style="fill:#000000"
       id="g3004">
<rect
   width="100"
   height="100"
   id="rect3002"
   x="0"
   y="0" />
</g></g><g
     transform="matrix(0.24,0,0,0.24,192,216)"
     id="g3012"><g
       style="fill:#000000"
       id="g3010">
<rect
   width="100"
   height="100"
   id="rect3008"
   x="0"
   y="0" />
</g></g><g
     transform="matrix(0.24,0,0,0.24,216,216)"
     id="g3018"><g
       style="fill:#000000"
       id="g3016">
<rect
   width="100"
   height="100"
   id="rect3014"
   x="0"
   y="0" />
</g></g><g
     transform="matrix(0.24,0,0,0.24,240,216)"
     id="g3024"><g
       style="fill:#000000"
       id="g3022">
<rect
   width="100"
   height="100"
   id="rect3020"
   x="0"
   y="0" />
</g></g><g
     transform="matrix(0.24,0,0,0.24,288,216)"
     id="g3030"><g
       style="fill:#000000"
       id="g3028">
<rect
   width="100"
   height="100"
   id="rect3026"
   x="0"
   y="0" />
</g></g><g
     transform="matrix(0.24,0,0,0.24,336,216)"
     id="g3036"><g
       style="fill:#000000"
       id="g3034">
<rect
   width="100"
   height="100"
   id="rect3032"
   x="0"
   y="0" />
</g></g><g
     transform="matrix(0.24,0,0,0.24,384,216)"
     id="g3042"><g
       style="fill:#000000"
       id="g3040">
<rect
   width="100"
   height="100"
   id="rect3038"
   x="0"
   y="0" />
</g></g><g
     transform="matrix(0.24,0,0,0.24,432,216)"
     id="g3048"><g
       style="fill:#000000"
       id="g3046">
<rect
   width="100"
   height="100"
   id="rect3044"
   x="0"
   y="0" />
</g></g><g
     transform="matrix(0.24,0,0,0.24,456,216)"
     id="g3054"><g
       style="fill:#000000"
       id="g3052">
<rect
   width="100"
   height="100"
   id="rect3050"
   x="0"
   y="0" />
</g></g><g
     transform="matrix(0.24,0,0,0.24,24,240)"
     id="g3060"><g
       style="fill:#000000"
       id="g3058">
<rect
   width="100"
   height="100"
   id="rect3056"
   x="0"
   y="0" />
</g></g><g
     transform="matrix(0.24,0,0,0.24,72,240)"
     id="g3066"><g
       style="fill:#000000"
       id="g3064">
<rect
   width="100"
   height="100"
   id="rect3062"
   x="0"
   y="0" />
</g></g><g
     transform="matrix(0.24,0,0,0.24,144,240)"
     id="g3072"><g
       style="fill:#000000"
       id="g3070">
<rect
   width="100"
   height="100"
   id="rect3068"
   x="0"
   y="0" />
</g></g><g
     transform="matrix(0.24,0,0,0.24,192,240)"
     id="g3078"><g
       style="fill:#000000"
       id="g3076">
<rect
   width="100"
   height="100"
   id="rect3074"
   x="0"
   y="0" />
</g></g><g
     transform="matrix(0.24,0,0,0.24,240,240)"
     id="g3084"><g
       style="fill:#000000"
       id="g3082">
<rect
   width="100"
   height="100"
   id="rect3080"
   x="0"
   y="0" />
</g></g><g
     transform="matrix(0.24,0,0,0.24,264,240)"
     id="g3090"><g
       style="fill:#000000"
       id="g3088">
<rect
   width="100"
   height="100"
   id="rect3086"
   x="0"
   y="0" />
</g></g><g
     transform="matrix(0.24,0,0,0.24,312,240)"
     id="g3096"><g
       style="fill:#000000"
       id="g3094">
<rect
   width="100"
   height="100"
   id="rect3092"
   x="0"
   y="0" />
</g></g><g
     transform="matrix(0.24,0,0,0.24,384,240)"
     id="g3102"><g
       style="fill:#000000"
       id="g3100">
<rect
   width="100"
   height="100"
   id="rect3098"
   x="0"
   y="0" />
</g></g><g
     transform="matrix(0.24,0,0,0.24,432,240)"
     id="g3108"><g
       style="fill:#000000"
       id="g3106">
<rect
   width="100"
   height="100"
   id="rect3104"
   x="0"
   y="0" />
</g></g><g
     transform="matrix(0.24,0,0,0.24,456,240)"
     id="g3114"><g
       style="fill:#000000"
       id="g3112">
<rect
   width="100"
   height="100"
   id="rect3110"
   x="0"
   y="0" />
</g></g><g
     transform="matrix(0.24,0,0,0.24,24,264)"
     id="g3120"><g
       style="fill:#000000"
       id="g3118">
<rect
   width="100"
   height="100"
   id="rect3116"
   x="0"
   y="0" />
</g></g><g
     transform="matrix(0.24,0,0,0.24,96,264)"
     id="g3126"><g
       style="fill:#000000"
       id="g3124">
<rect
   width="100"
   height="100"
   id="rect3122"
   x="0"
   y="0" />
</g></g><g
     transform="matrix(0.24,0,0,0.24,120,264)"
     id="g3132"><g
       style="fill:#000000"
       id="g3130">
<rect
   width="100"
   height="100"
   id="rect3128"
   x="0"
   y="0" />
</g></g><g
     transform="matrix(0.24,0,0,0.24,168,264)"
     id="g3138"><g
       style="fill:#000000"
       id="g3136">
<rect
   width="100"
   height="100"
   id="rect3134"
   x="0"
   y="0" />
</g></g><g
     transform="matrix(0.24,0,0,0.24,192,264)"
     id="g3144"><g
       style="fill:#000000"
       id="g3142">
<rect
   width="100"
   height="100"
   id="rect3140"
   x="0"
   y="0" />
</g></g><g
     transform="matrix(0.24,0,0,0.24,240,264)"
     id="g3150"><g
       style="fill:#000000"
       id="g3148">
<rect
   width="100"
   height="100"
   id="rect3146"
   x="0"
   y="0" />
</g></g><g
     transform="matrix(0.24,0,0,0.24,384,264)"
     id="g3156"><g
       style="fill:#000000"
       id="g3154">
<rect
   width="100"
   height="100"
   id="rect3152"
   x="0"
   y="0" />
</g></g><g
     transform="matrix(0.24,0,0,0.24,408,264)"
     id="g3162"><g
       style="fill:#000000"
       id="g3160">
<rect
   width="100"
   height="100"
   id="rect3158"
   x="0"
   y="0" />
</g></g><g
     transform="matrix(0.24,0,0,0.24,432,264)"
     id="g3168"><g
       style="fill:#000000"
       id="g3166">
<rect
   width="100"
   height="100"
   id="rect3164"
   x="0"
   y="0" />
</g></g><g
     transform="matrix(0.24,0,0,0.24,456,264)"
     id="g3174"><g
       style="fill:#000000"
       id="g3172">
<rect
   width="100"
   height="100"
   id="rect3170"
   x="0"
   y="0" />
</g></g><g
     transform="matrix(0.24,0,0,0.24,480,264)"
     id="g3180"><g
       style="fill:#000000"
       id="g3178">
<rect
   width="100"
   height="100"
   id="rect3176"
   x="0"
   y="0" />
</g></g><g
     transform="matrix(0.24,0,0,0.24,24,288)"
     id="g3186"><g
       style="fill:#000000"
       id="g3184">
<rect
   width="100"
   height="100"
   id="rect3182"
   x="0"
   y="0" />
</g></g><g
     transform="matrix(0.24,0,0,0.24,120,288)"
     id="g3192"><g
       style="fill:#000000"
       id="g3190">
<rect
   width="100"
   height="100"
   id="rect3188"
   x="0"
   y="0" />
</g></g><g
     transform="matrix(0.24,0,0,0.24,144,288)"
     id="g3198"><g
       style="fill:#000000"
       id="g3196">
<rect
   width="100"
   height="100"
   id="rect3194"
   x="0"
   y="0" />
</g></g><g
     transform="matrix(0.24,0,0,0.24,216,288)"
     id="g3204"><g
       style="fill:#000000"
       id="g3202">
<rect
   width="100"
   height="100"
   id="rect3200"
   x="0"
   y="0" />
</g></g><g
     transform="matrix(0.24,0,0,0.24,240,288)"
     id="g3210"><g
       style="fill:#000000"
       id="g3208">
<rect
   width="100"
   height="100"
   id="rect3206"
   x="0"
   y="0" />
</g></g><g
     transform="matrix(0.24,0,0,0.24,336,288)"
     id="g3216"><g
       style="fill:#000000"
       id="g3214">
<rect
   width="100"
   height="100"
   id="rect3212"
   x="0"
   y="0" />
</g></g><g
     transform="matrix(0.24,0,0,0.24,408,288)"
     id="g3222"><g
       style="fill:#000000"
       id="g3220">
<rect
   width="100"
   height="100"
   id="rect3218"
   x="0"
   y="0" />
</g></g><g
     transform="matrix(0.24,0,0,0.24,192,312)"
     id="g3228"><g
       style="fill:#000000"
       id="g3226">
<rect
   width="100"
   height="100"
   id="rect3224"
   x="0"
   y="0" />
</g></g><g
     transform="matrix(0.24,0,0,0.24,264,312)"
     id="g3234"><g
       style="fill:#000000"
       id="g3232">
<rect
   width="100"
   height="100"
   id="rect3230"
   x="0"
   y="0" />
</g></g><g
     transform="matrix(0.24,0,0,0.24,288,312)"
     id="g3240"><g
       style="fill:#000000"
       id="g3238">
<rect
   width="100"
   height="100"
   id="rect3236"
   x="0"
   y="0" />
</g></g><g
     transform="matrix(0.24,0,0,0.24,312,312)"
     id="g3246"><g
       style="fill:#000000"
       id="g3244">
<rect
   width="100"
   height="100"
   id="rect3242"
   x="0"
   y="0" />
</g></g><g
     transform="matrix(0.24,0,0,0.24,336,312)"
     id="g3252"><g
       style="fill:#000000"
       id="g3250">
<rect
   width="100"
   height="100"
   id="rect3248"
   x="0"
   y="0" />
</g></g><g
     transform="matrix(0.24,0,0,0.24,408,312)"
     id="g3258"><g
       style="fill:#000000"
       id="g3256">
<rect
   width="100"
   height="100"
   id="rect3254"
   x="0"
   y="0" />
</g></g><g
     transform="matrix(0.24,0,0,0.24,432,312)"
     id="g3264"><g
       style="fill:#000000"
       id="g3262">
<rect
   width="100"
   height="100"
   id="rect3260"
   x="0"
   y="0" />
</g></g><g
     transform="matrix(0.24,0,0,0.24,240,336)"
     id="g3270"><g
       style="fill:#000000"
       id="g3268">
<rect
   width="100"
   height="100"
   id="rect3266"
   x="0"
   y="0" />
</g></g><g
     transform="matrix(0.24,0,0,0.24,288,336)"
     id="g3276"><g
       style="fill:#000000"
       id="g3274">
<rect
   width="100"
   height="100"
   id="rect3272"
   x="0"
   y="0" />
</g></g><g
     transform="matrix(0.24,0,0,0.24,336,336)"
     id="g3282"><g
       style="fill:#000000"
       id="g3280">
<rect
   width="100"
   height="100"
   id="rect3278"
   x="0"
   y="0" />
</g></g><g
     transform="matrix(0.24,0,0,0.24,360,336)"
     id="g3288"><g
       style="fill:#000000"
       id="g3286">
<rect
   width="100"
   height="100"
   id="rect3284"
   x="0"
   y="0" />
</g></g><g
     transform="matrix(0.24,0,0,0.24,408,336)"
     id="g3294"><g
       style="fill:#000000"
       id="g3292">
<rect
   width="100"
   height="100"
   id="rect3290"
   x="0"
   y="0" />
</g></g><g
     transform="matrix(0.24,0,0,0.24,432,336)"
     id="g3300"><g
       style="fill:#000000"
       id="g3298">
<rect
   width="100"
   height="100"
   id="rect3296"
   x="0"
   y="0" />
</g></g><g
     transform="matrix(0.24,0,0,0.24,456,336)"
     id="g3306"><g
       style="fill:#000000"
       id="g3304">
<rect
   width="100"
   height="100"
   id="rect3302"
   x="0"
   y="0" />
</g></g><g
     transform="matrix(0.24,0,0,0.24,216,360)"
     id="g3312"><g
       style="fill:#000000"
       id="g3310">
<rect
   width="100"
   height="100"
   id="rect3308"
   x="0"
   y="0" />
</g></g><g
     transform="matrix(0.24,0,0,0.24,264,360)"
     id="g3318"><g
       style="fill:#000000"
       id="g3316">
<rect
   width="100"
   height="100"
   id="rect3314"
   x="0"
   y="0" />
</g></g><g
     transform="matrix(0.24,0,0,0.24,288,360)"
     id="g3324"><g
       style="fill:#000000"
       id="g3322">
<rect
   width="100"
   height="100"
   id="rect3320"
   x="0"
   y="0" />
</g></g><g
     transform="matrix(0.24,0,0,0.24,312,360)"
     id="g3330"><g
       style="fill:#000000"
       id="g3328">
<rect
   width="100"
   height="100"
   id="rect3326"
   x="0"
   y="0" />
</g></g><g
     transform="matrix(0.24,0,0,0.24,408,360)"
     id="g3336"><g
       style="fill:#000000"
       id="g3334">
<rect
   width="100"
   height="100"
   id="rect3332"
   x="0"
   y="0" />
</g></g><g
     transform="matrix(0.24,0,0,0.24,432,360)"
     id="g3342"><g
       style="fill:#000000"
       id="g3340">
<rect
   width="100"
   height="100"
   id="rect3338"
   x="0"
   y="0" />
</g></g><g
     transform="matrix(0.24,0,0,0.24,216,384)"
     id="g3348"><g
       style="fill:#000000"
       id="g3346">
<rect
   width="100"
   height="100"
   id="rect3344"
   x="0"
   y="0" />
</g></g><g
     transform="matrix(0.24,0,0,0.24,288,384)"
     id="g3354"><g
       style="fill:#000000"
       id="g3352">
<rect
   width="100"
   height="100"
   id="rect3350"
   x="0"
   y="0" />
</g></g><g
     transform="matrix(0.24,0,0,0.24,360,384)"
     id="g3360"><g
       style="fill:#000000"
       id="g3358">
<rect
   width="100"
   height="100"
   id="rect3356"
   x="0"
   y="0" />
</g></g><g
     transform="matrix(0.24,0,0,0.24,456,384)"
     id="g3366"><g
       style="fill:#000000"
       id="g3364">
<rect
   width="100"
   height="100"
   id="rect3362"
   x="0"
   y="0" />
</g></g><g
     transform="matrix(0.24,0,0,0.24,216,408)"
     id="g3372"><g
       style="fill:#000000"
       id="g3370">
<rect
   width="100"
   height="100"
   id="rect3368"
   x="0"
   y="0" />
</g></g><g
     transform="matrix(0.24,0,0,0.24,288,408)"
     id="g3378"><g
       style="fill:#000000"
       id="g3376">
<rect
   width="100"
   height="100"
   id="rect3374"
   x="0"
   y="0" />
</g></g><g
     transform="matrix(0.24,0,0,0.24,360,408)"
     id="g3384"><g
       style="fill:#000000"
       id="g3382">
<rect
   width="100"
   height="100"
   id="rect3380"
   x="0"
   y="0" />
</g></g><g
     transform="matrix(0.24,0,0,0.24,408,408)"
     id="g3390"><g
       style="fill:#000000"
       id="g3388">
<rect
   width="100"
   height="100"
   id="rect3386"
   x="0"
   y="0" />
</g></g><g
     transform="matrix(0.24,0,0,0.24,216,432)"
     id="g3396"><g
       style="fill:#000000"
       id="g3394">
<rect
   width="100"
   height="100"
   id="rect3392"
   x="0"
   y="0" />
</g></g><g
     transform="matrix(0.24,0,0,0.24,336,432)"
     id="g3402"><g
       style="fill:#000000"
       id="g3400">
<rect
   width="100"
   height="100"
   id="rect3398"
   x="0"
   y="0" />
</g></g><g
     transform="matrix(0.24,0,0,0.24,384,432)"
     id="g3408"><g
       style="fill:#000000"
       id="g3406">
<rect
   width="100"
   height="100"
   id="rect3404"
   x="0"
   y="0" />
</g></g><g
     transform="matrix(0.24,0,0,0.24,408,432)"
     id="g3414"><g
       style="fill:#000000"
       id="g3412">
<rect
   width="100"
   height="100"
   id="rect3410"
   x="0"
   y="0" />
</g></g><g
     transform="matrix(0.24,0,0,0.24,456,432)"
     id="g3420"><g
       style="fill:#000000"
       id="g3418">
<rect
   width="100"
   height="100"
   id="rect3416"
   x="0"
   y="0" />
</g></g><g
     transform="matrix(0.24,0,0,0.24,480,432)"
     id="g3426"><g
       style="fill:#000000"
       id="g3424">
<rect
   width="100"
   height="100"
   id="rect3422"
   x="0"
   y="0" />
</g></g><g
     transform="matrix(0.24,0,0,0.24,216,456)"
     id="g3432"><g
       style="fill:#000000"
       id="g3430">
<rect
   width="100"
   height="100"
   id="rect3428"
   x="0"
   y="0" />
</g></g><g
     transform="matrix(0.24,0,0,0.24,408,456)"
     id="g3438"><g
       style="fill:#000000"
       id="g3436">
<rect
   width="100"
   height="100"
   id="rect3434"
   x="0"
   y="0" />
</g></g><g
     transform="matrix(0.24,0,0,0.24,432,456)"
     id="g3444"><g
       style="fill:#000000"
       id="g3442">
<rect
   width="100"
   height="100"
   id="rect3440"
   x="0"
   y="0" />
</g></g><g
     transform="matrix(0.24,0,0,0.24,192,480)"
     id="g3450"><g
       style="fill:#000000"
       id="g3448">
<rect
   width="100"
   height="100"
   id="rect3446"
   x="0"
   y="0" />
</g></g><g
     transform="matrix(0.24,0,0,0.24,240,480)"
     id="g3456"><g
       style="fill:#000000"
       id="g3454">
<rect
   width="100"
   height="100"
   id="rect3452"
   x="0"
   y="0" />
</g></g><g
     transform="matrix(0.24,0,0,0.24,264,480)"
     id="g3462"><g
       style="fill:#000000"
       id="g3460">
<rect
   width="100"
   height="100"
   id="rect3458"
   x="0"
   y="0" />
</g></g><g
     transform="matrix(0.24,0,0,0.24,312,480)"
     id="g3468"><g
       style="fill:#000000"
       id="g3466">
<rect
   width="100"
   height="100"
   id="rect3464"
   x="0"
   y="0" />
</g></g><g
     transform="matrix(0.24,0,0,0.24,360,480)"
     id="g3474"><g
       style="fill:#000000"
       id="g3472">
<rect
   width="100"
   height="100"
   id="rect3470"
   x="0"
   y="0" />
</g></g><g
     transform="matrix(0.24,0,0,0.24,384,480)"
     id="g3480"><g
       style="fill:#000000"
       id="g3478">
<rect
   width="100"
   height="100"
   id="rect3476"
   x="0"
   y="0" />
</g></g><g
     transform="matrix(0.24,0,0,0.24,408,480)"
     id="g3486"><g
       style="fill:#000000"
       id="g3484">
<rect
   width="100"
   height="100"
   id="rect3482"
   x="0"
   y="0" />
</g></g><g
     transform="matrix(0.24,0,0,0.24,432,480)"
     id="g3492"><g
       style="fill:#000000"
       id="g3490">
<rect
   width="100"
   height="100"
   id="rect3488"
   x="0"
   y="0" />
</g></g><g
     transform="matrix(0.24,0,0,0.24,456,480)"
     id="g3498"><g
       style="fill:#000000"
       id="g3496">
<rect
   width="100"
   height="100"
   id="rect3494"
   x="0"
   y="0" />
</g></g><g
     transform="scale(1.68)"
     id="g3508"><g
       style="fill:#000000"
       id="g3506">
<g
   id="g3504">
	<rect
   x="15"
   y="15"
   style="fill:none"
   width="70"
   height="70"
   id="rect3500" />
	<path
   d="M 85,0 H 15 0 v 15 70 15 h 15 70 15 V 85 15 0 Z m 0,85 H 15 V 15 h 70 z"
   id="path3502"
   inkscape:connector-curvature="0" />
</g>
</g></g><g
     transform="matrix(1.68,0,0,1.68,336,0)"
     id="g3518"><g
       style="fill:#000000"
       id="g3516">
<g
   id="g3514">
	<rect
   x="15"
   y="15"
   style="fill:none"
   width="70"
   height="70"
   id="rect3510" />
	<path
   d="M 85,0 H 15 0 v 15 70 15 h 15 70 15 V 85 15 0 Z m 0,85 H 15 V 15 h 70 z"
   id="path3512"
   inkscape:connector-curvature="0" />
</g>
</g></g><g
     transform="matrix(1.68,0,0,1.68,0,336)"
     id="g3528"><g
       style="fill:#000000"
       id="g3526">
<g
   id="g3524">
	<rect
   x="15"
   y="15"
   style="fill:none"
   width="70"
   height="70"
   id="rect3520" />
	<path
   d="M 85,0 H 15 0 v 15 70 15 h 15 70 15 V 85 15 0 Z m 0,85 H 15 V 15 h 70 z"
   id="path3522"
   inkscape:connector-curvature="0" />
</g>
</g></g><g
     transform="matrix(0.72,0,0,0.72,48,48)"
     id="g3534"><g
       style="fill:#000000"
       id="g3532">
<rect
   width="100"
   height="100"
   id="rect3530"
   x="0"
   y="0" />
</g></g><g
     transform="matrix(0.72,0,0,0.72,384,48)"
     id="g3540"><g
       style="fill:#000000"
       id="g3538">
<rect
   width="100"
   height="100"
   id="rect3536"
   x="0"
   y="0" />
</g></g><g
     transform="matrix(0.72,0,0,0.72,48,384)"
     id="g3546"><g
       style="fill:#000000"
       id="g3544">
<rect
   width="100"
   height="100"
   id="rect3542"
   x="0"
   y="0" />
</g></g></g></svg>
