<svg xmlns="http://www.w3.org/2000/svg" xml:space="preserve" viewBox="0 0 778.7 337"><style>.st0{enable-background:new}.st1{fill:none;stroke:#000;stroke-miterlimit:10}</style><g class="st0"><path d="M578.9 16.2c1.2 0 1.9.8 1.9 2.7 0 1.3-.7 4.5-3 4.5-1.5 0-2-1.2-2-2.7 0-1.6.9-4.5 3.1-4.5m-1 6.5c1.6 0 2.1-2.9 2.1-3.5 0-.8.1-2.2-1.1-2.2-1.5 0-2.1 2.8-2.1 3.8-.1 1.2.2 1.9 1.1 1.9m3.6-.5h1.1c-.3 1.1-.3 2.5-1.7 2.6l.1-.5c.5-.1.7-.5.8-1h-.6zm5.2 1.1h-.9l1.1-5.4c-.6.1-1.2.2-1.8.2l.1-.7c.8 0 1.9-.4 2.3-1.2h.7zm142.4 151.1h-.8l.2-.7c-.5.7-1 .9-1.7.9-1.3 0-2-.9-2-2.1 0-1.6 1.1-3.3 2.9-3.3.6 0 1.4.2 1.6.9l.5-2.8h.8zm-2.2-.6c1.3 0 2-1.5 2-2.6 0-.8-.5-1.3-1.3-1.3-1.3 0-2 1.4-2 2.5 0 .9.4 1.4 1.3 1.4m4.6-4.5h.8l-.2.7c.5-.7 1-.9 1.7-.9 1.3 0 2 .9 2 2.1 0 1.6-1.1 3.3-2.9 3.3-.6 0-1.4-.2-1.6-.9l-.5 2.8h-.8zm2.2.6c-1.3 0-2 1.5-2 2.6 0 .8.5 1.3 1.3 1.3 1.3 0 2-1.4 2-2.5 0-.9-.4-1.4-1.3-1.4m3.3.9c.2-1.1 1.1-1.7 2.2-1.7 1 0 1.9.3 1.9 1.3 0 .3-.1.7-.2.9l-.3 1.4c0 .2-.1.5-.1.7s.1.3.2.3.2 0 .3-.1l-.1.6c-.1.1-.4.1-.5.1-.5 0-.7-.3-.7-.7-.4.5-.9.8-1.7.8-.9 0-1.6-.4-1.6-1.5 0-1.5 1.5-1.6 2.6-1.7.9-.1 1.3-.1 1.3-.8 0-.6-.6-.7-1-.7-.6 0-1.3.3-1.4.9h-.9zm1.1 3c.7 0 1.1-.2 1.4-.7.3-.4.3-.8.4-1.3-.4.2-1 .3-1.7.3-.6.1-1.1.3-1.1.9.1.6.5.8 1 .8m8.1.6h-.8l.2-.7c-.5.7-1 .9-1.7.9-1.3 0-2-.9-2-2.1 0-1.6 1.1-3.3 2.9-3.3.6 0 1.4.2 1.6.9l.5-2.8h.8zm-2.2-.6c1.3 0 2-1.5 2-2.6 0-.8-.5-1.3-1.3-1.3-1.3 0-2 1.4-2 2.5-.1.9.3 1.4 1.3 1.4m3.5 1.4h5v.5h-5zm6.1-5.9h.8l-.2 1.1c.4-.7 1-1.2 1.9-1.2h.3l-.2.9h-.7c-.5.1-.8.4-1.1.8-.2.3-.3.8-.4 1.2l-.5 2.3h-.8zm3.3 0h.8l-1.1 5.2h-.8zm1.1-1h-.9l.2-1h.9zm4.7 5.4c-.1.5-.2 1-.4 1.4-.4 1-1.2 1.4-2.3 1.4-1 0-2-.4-2.1-1.6h.8c0 .7.6.8 1.3.8 1.3 0 1.6-1 1.8-2.1-.4.5-1 .8-1.6.8-1.3 0-1.9-.9-1.9-2.1 0-1.5 1-3.2 2.7-3.2.7 0 1.5.4 1.6 1l.2-.9h.8zm-2.3 0c1.3 0 1.9-1.4 1.9-2.5 0-.8-.4-1.3-1.3-1.3-1.2 0-1.8 1.5-1.8 2.4 0 .8.4 1.4 1.2 1.4m4.9-6.4h.8l-.6 2.7c.4-.6 1.1-.9 1.8-.9 1 0 1.4.4 1.4 1.3 0 .2-.1.6-.1 1l-.6 2.9h-.8l.7-3c0-.2.1-.6.1-.8 0-.5-.4-.7-.9-.7s-1 .3-1.3.6-.5.7-.6 1.1l-.6 2.9h-.8zm6.3 2h1l-.2.7h-1l-.6 3v.3c0 .3.2.3.5.3.2 0 .3 0 .5-.1l-.2.8c-.2 0-.4.1-.6.1-.6 0-1.2-.2-1.2-.8v-.4l.7-3.2h-.9l.2-.7h.9l.3-1.5h.8zm-369.7 7.2h-.8l.2-.7c-.5.7-1 .9-1.7.9-1.3 0-2-.9-2-2.1 0-1.6 1.1-3.3 2.9-3.3.6 0 1.4.2 1.6.9l.5-2.8h.8zm-2.2-.6c1.3 0 2-1.5 2-2.6 0-.8-.5-1.3-1.3-1.3-1.3 0-2 1.4-2 2.5 0 .9.4 1.4 1.3 1.4m4.6-4.5h.8l-.2.7c.5-.7 1-.9 1.7-.9 1.3 0 2 .9 2 2.1 0 1.6-1.1 3.3-2.9 3.3-.6 0-1.4-.2-1.6-.9l-.5 2.8h-.8zm2.2.6c-1.3 0-2 1.5-2 2.6 0 .8.5 1.3 1.3 1.3 1.3 0 2-1.4 2-2.5.1-.9-.3-1.4-1.3-1.4m3.3.9c.2-1.1 1.1-1.7 2.2-1.7 1 0 1.9.3 1.9 1.3 0 .3-.1.7-.2.9l-.3 1.4c0 .2-.1.5-.1.7s.1.3.2.3.2 0 .3-.1l-.1.6c-.1.1-.4.1-.5.1-.5 0-.7-.3-.7-.7-.4.5-.9.8-1.7.8-.9 0-1.6-.4-1.6-1.5 0-1.5 1.5-1.6 2.6-1.7.9-.1 1.3-.1 1.3-.8 0-.6-.6-.7-1-.7-.6 0-1.3.3-1.4.9h-.9zm1.1 3c.7 0 1.1-.2 1.4-.7.3-.4.3-.8.4-1.3-.4.2-1 .3-1.7.3-.6.1-1.1.3-1.1.9.1.6.6.8 1 .8m8.1.6h-.8l.2-.7c-.5.7-1 .9-1.7.9-1.3 0-2-.9-2-2.1 0-1.6 1.1-3.3 2.9-3.3.6 0 1.4.2 1.6.9l.5-2.8h.8zm-2.2-.6c1.3 0 2-1.5 2-2.6 0-.8-.5-1.3-1.3-1.3-1.3 0-2 1.4-2 2.5 0 .9.4 1.4 1.3 1.4m3.6 1.4h5v.5h-5zm6.4-7.9h.8l-1.5 7.1h-.8zm1.8 4.8v.5c0 .8.6 1.2 1.3 1.2s1.2-.3 1.5-1h.8c-.3 1.1-1.2 1.7-2.3 1.7-1.7 0-2.2-1.2-2.2-2.1 0-2 1.2-3.3 2.7-3.3s2.2.8 2.2 2.3c0 .3 0 .5-.1.7zm3.1-.7c.1-.7-.3-1.5-1.2-1.5-1 0-1.5.7-1.8 1.5zm2.5-1.4h-.9l.2-.7h.9c.3-1 .3-2 1.7-2 .2 0 .5 0 .7.1l-.1.7c-.1 0-.3-.1-.4-.1-.8 0-.8.7-1 1.3h1l-.1.7h-1l-.9 4.4h-.8z"/><path d="M438.1 171.4h1l-.2.7h-1l-.6 3v.3c0 .3.2.3.5.3.2 0 .3 0 .5-.1l-.2.8c-.2 0-.4.1-.6.1-.6 0-1.2-.2-1.2-.8v-.4l.7-3.2h-.9l.2-.7h.9l.3-1.5h.8zm130-159.2h-.8l.2-.7c-.5.7-1 .9-1.7.9-1.3 0-2-.9-2-2.1 0-1.6 1.1-3.3 2.9-3.3.6 0 1.4.2 1.6.9l.5-2.8h.8zm-2.2-.6c1.3 0 2-1.5 2-2.6 0-.8-.5-1.3-1.3-1.3-1.3 0-2 1.4-2 2.5 0 .8.4 1.4 1.3 1.4m4.6-4.6h.8l-.2.7c.5-.7 1-.9 1.7-.9 1.3 0 2 .9 2 2.1 0 1.6-1.1 3.3-2.9 3.3-.6 0-1.4-.2-1.6-.9l-.5 2.8h-.8zm2.2.6c-1.3 0-2 1.5-2 2.6 0 .8.5 1.3 1.3 1.3 1.3 0 2-1.4 2-2.5 0-.8-.4-1.4-1.3-1.4m3.2 1c.2-1.1 1.1-1.7 2.2-1.7 1 0 1.9.3 1.9 1.3 0 .3-.1.7-.2.9l-.3 1.4c0 .2-.1.5-.1.7s.1.3.2.3.2 0 .3-.1l-.1.6c-.1.1-.4.1-.5.1-.5 0-.7-.3-.7-.7-.4.5-.9.8-1.7.8-.9 0-1.6-.4-1.6-1.5 0-1.5 1.5-1.6 2.6-1.7.9-.1 1.3-.1 1.3-.8 0-.6-.6-.7-1-.7-.7 0-1.3.3-1.4.9h-.9zm1.2 3c.7 0 1.1-.2 1.4-.7.3-.4.3-.8.5-1.3-.4.2-1 .3-1.7.3-.6.1-1.1.3-1.1.9 0 .5.4.8.9.8m8.1.6h-.8l.2-.7c-.5.7-1 .9-1.7.9-1.3 0-2-.9-2-2.1 0-1.6 1.1-3.3 2.9-3.3.6 0 1.4.2 1.6.9l.5-2.8h.8zm-2.2-.6c1.3 0 2-1.5 2-2.6 0-.8-.5-1.3-1.3-1.3-1.3 0-2 1.4-2 2.5-.1.8.3 1.4 1.3 1.4m3.5 1.3h5v.5h-5zm9.1-.7h-.8l.2-.8c-.4.6-1.1.9-1.8.9-1 0-1.4-.4-1.4-1.3 0-.2.1-.6.1-1l.6-2.9h.8l-.7 3c0 .2-.1.6-.1.8 0 .5.4.7.9.7.9 0 1.7-.8 1.8-1.7l.6-2.9h.8zm2.5-5.2h.8l-.2.7c.5-.7 1-.9 1.7-.9 1.3 0 2 .9 2 2.1 0 1.6-1.1 3.3-2.9 3.3-.6 0-1.4-.2-1.6-.9l-.5 2.8h-.8zm2.2.6c-1.3 0-2 1.5-2 2.6 0 .8.5 1.3 1.3 1.3 1.3 0 2-1.4 2-2.5 0-.8-.4-1.4-1.3-1.4m-39.4 325.7h-.8l.2-.7c-.5.7-1 .9-1.7.9-1.3 0-2-.9-2-2.1 0-1.6 1.1-3.3 2.9-3.3.6 0 1.4.2 1.6.9l.5-2.8h.8zm-2.2-.6c1.3 0 2-1.5 2-2.6 0-.8-.5-1.3-1.3-1.3-1.3 0-2 1.4-2 2.5 0 .9.4 1.4 1.3 1.4m4.6-4.5h.8l-.2.7c.5-.7 1-.9 1.7-.9 1.3 0 2 .9 2 2.1 0 1.6-1.1 3.3-2.9 3.3-.6 0-1.4-.2-1.6-.9l-.5 2.8h-.8zm2.2.6c-1.3 0-2 1.5-2 2.6 0 .8.5 1.3 1.3 1.3 1.3 0 2-1.4 2-2.5.1-.9-.3-1.4-1.3-1.4m3.3.9c.2-1.1 1.1-1.7 2.2-1.7 1 0 1.9.3 1.9 1.3 0 .3-.1.7-.2.9l-.3 1.4c0 .2-.1.5-.1.7s.1.3.2.3.2 0 .3-.1l-.1.6c-.1.1-.4.1-.5.1-.5 0-.7-.3-.7-.7-.4.5-.9.8-1.7.8-.9 0-1.6-.4-1.6-1.5 0-1.5 1.5-1.6 2.6-1.7.9-.1 1.3-.1 1.3-.8 0-.6-.6-.7-1-.7-.7 0-1.3.3-1.4.9h-.9zm1.1 3c.7 0 1.1-.2 1.4-.7.3-.4.3-.8.5-1.3-.4.2-1 .3-1.7.3-.6.1-1.1.3-1.1.9s.4.8.9.8m8.1.6h-.8l.2-.7c-.5.7-1 .9-1.7.9-1.3 0-2-.9-2-2.1 0-1.6 1.1-3.3 2.9-3.3.6 0 1.4.2 1.6.9l.5-2.8h.8zm-2.2-.6c1.3 0 2-1.5 2-2.6 0-.8-.5-1.3-1.3-1.3-1.3 0-2 1.4-2 2.5 0 .9.4 1.4 1.3 1.4m3.6 1.4h5v.5h-5zm9.5-.8h-.8l.2-.7c-.5.7-1 .9-1.7.9-1.3 0-2-.9-2-2.1 0-1.6 1.1-3.3 2.9-3.3.6 0 1.4.2 1.6.9l.5-2.8h.8zm-2.2-.6c1.3 0 2-1.5 2-2.6 0-.8-.5-1.3-1.3-1.3-1.3 0-2 1.4-2 2.5 0 .9.4 1.4 1.3 1.4m6.7-4.7c1.4 0 2.1.8 2.1 2.1 0 1.7-1 3.3-2.9 3.3-1.4 0-2.2-.9-2.2-2.2.1-1.6 1.1-3.2 3-3.2m-.7 4.7c1.2 0 1.9-1.4 1.9-2.4 0-.8-.4-1.5-1.4-1.5-1.3 0-2 1.4-2 2.5.1.8.6 1.4 1.5 1.4m8.3.6h-.9l-.3-4-1.8 4h-.9l-.6-5.2h.9l.3 4.1 1.9-4.1h1l.2 4.1 2-4.1h.9zm3.7-5.1h.8l-.2.8c.4-.6 1.1-.9 1.8-.9 1 0 1.4.4 1.4 1.3 0 .2-.1.6-.1 1l-.6 2.9h-.8l.7-3c0-.2.1-.6.1-.8 0-.5-.4-.7-.9-.7s-1 .3-1.3.6-.5.7-.6 1.1l-.6 2.9h-.8zm-28.1-15.9c1.2 0 1.9.8 1.9 2.7 0 1.3-.7 4.5-3 4.5-1.5 0-2-1.2-2-2.7 0-1.7.9-4.5 3.1-4.5m-1 6.4c1.6 0 2.1-2.9 2.1-3.5 0-.8.1-2.2-1.1-2.2-1.5 0-2.1 2.8-2.1 3.8-.1 1.2.2 1.9 1.1 1.9m3.6-.4h1.1c-.3 1.1-.3 2.5-1.7 2.6l.1-.5c.5-.1.6-.5.8-1h-.5zm2.8-2.1h2.9l-.2.8h-2.9zm6.3 3.2h-.9l1.1-5.4c-.6.1-1.2.2-1.8.2l.1-.7c.8 0 1.9-.4 2.3-1.2h.7zm137.8-157.6h-.9l1.1-5.4c-.6.1-1.2.2-1.8.2l.1-.7c.8 0 1.9-.4 2.3-1.2h.7zm3.2-1.1h1.1c-.3 1.1-.3 2.5-1.7 2.6l.1-.5c.5-.1.6-.5.8-1h-.6zm5.7-5.9c1.2 0 1.9.8 1.9 2.7 0 1.3-.7 4.5-3 4.5-1.5 0-2-1.2-2-2.7 0-1.7.9-4.5 3.1-4.5m-1 6.4c1.6 0 2.1-2.9 2.1-3.5 0-.8.1-2.2-1.1-2.2-1.5 0-2.1 2.8-2.1 3.8-.1 1.2.2 1.9 1.1 1.9m-312.2-2.5h2.9l-.2.8h-2.9zm6.3 3.1h-.9l1.1-5.4c-.6.1-1.2.2-1.8.2l.1-.7c.8 0 1.9-.4 2.3-1.2h.7zm3.1-1.1h1.1c-.3 1.1-.3 2.5-1.7 2.6l.1-.5c.5-.1.7-.5.8-1h-.5zm5.8-5.9c1.2 0 1.9.8 1.9 2.7 0 1.3-.7 4.5-3 4.5-1.5 0-2-1.2-2-2.7 0-1.7.9-4.5 3.1-4.5m-1.1 6.4c1.6 0 2.1-2.9 2.1-3.5 0-.8.1-2.2-1.1-2.2-1.5 0-2.1 2.8-2.1 3.8 0 1.2.3 1.9 1.1 1.9"/></g><circle cx="582.2" cy="168.6" r="138" class="st1"/><path d="M582.2 306.6v-276m-138 136.2h276" style="fill:none;stroke:#000;stroke-width:.198;stroke-linecap:round;stroke-linejoin:round;stroke-miterlimit:28.3465"/><radialGradient id="SVGID_1_" cx="582.3" cy="166.8" r="58" gradientUnits="userSpaceOnUse"><stop offset="0" stop-opacity=".5"/><stop offset=".859" stop-opacity=".071"/><stop offset="1" stop-opacity="0"/></radialGradient><circle cx="582.3" cy="166.8" r="58" style="fill:url(#SVGID_1_);stroke:#000;stroke-width:.5;stroke-linecap:round;stroke-linejoin:round;stroke-miterlimit:28.3465"/><path d="M557.7 159.8c0-.6-.4-1-1.1-1-1.3 0-2 1.3-2 2.4 0 .8.3 1.5 1.3 1.5.7 0 1.3-.4 1.5-1.1h.8c-.3 1.1-1.2 1.8-2.4 1.8-1.4 0-2.1-.8-2.1-2.2 0-1.6 1-3.2 2.9-3.2 1.2 0 1.9.6 1.9 1.8zm2.2 1.2v.5c0 .8.6 1.2 1.3 1.2s1.2-.3 1.5-1h.8c-.3 1.1-1.2 1.7-2.3 1.7-1.7 0-2.2-1.2-2.2-2.1 0-2 1.2-3.3 2.7-3.3s2.2.8 2.2 2.3c0 .3 0 .5-.1.7zm3.1-.8c.1-.7-.3-1.5-1.2-1.5-1 0-1.5.7-1.8 1.5zm2.3-2h.8l-.2.8c.4-.6 1.1-.9 1.8-.9 1 0 1.4.4 1.4 1.3 0 .2-.1.6-.2 1l-.6 2.9h-.8l.7-3c0-.2.1-.6.1-.8 0-.5-.4-.7-.9-.7s-1 .3-1.3.6-.5.7-.6 1.1l-.6 2.9h-.8zm6.7 0h1l-.2.7h-1l-.6 3v.3c0 .3.2.3.5.3.2 0 .3 0 .5-.1l-.1.8c-.2 0-.4.1-.6.1-.6 0-1.2-.2-1.2-.8v-.4l.7-3.2h-.9l.2-.7h.9l.3-1.5h.8zm2 2.8v.5c0 .8.6 1.2 1.3 1.2s1.2-.3 1.5-1h.8c-.3 1.1-1.2 1.7-2.3 1.7-1.7 0-2.2-1.2-2.2-2.1 0-2 1.2-3.3 2.7-3.3s2.2.8 2.2 2.3c0 .3 0 .5-.1.7zm3.1-.8c.1-.7-.3-1.5-1.2-1.5-1 0-1.5.7-1.8 1.5zm2.3-2h.8l-.2 1.1c.4-.7 1-1.2 1.9-1.2h.3l-.2.9h-.7c-.5.1-.8.4-1.1.8-.2.3-.4.8-.4 1.2l-.5 2.3h-.8zm3.9-2h2.7c1.2 0 2.3.4 2.3 1.8 0 1-.7 1.8-1.6 1.9.6.2.8.8.7 1.5 0 .6-.3 1.3 0 1.8h-1q-.15-.45 0-1.5c.3-1.7-.7-1.5-1.1-1.5h-2.1l-.6 3h-.9zm.2 3.3h2.1c1.5 0 1.8-.9 1.8-1.4 0-.9-.7-1.1-1.4-1.1h-2zm6 1.5v.5c0 .8.6 1.2 1.3 1.2s1.2-.3 1.5-1h.8c-.3 1.1-1.2 1.7-2.3 1.7-1.7 0-2.2-1.2-2.2-2.1 0-2 1.2-3.3 2.7-3.3s2.2.8 2.2 2.3c0 .3 0 .5-.1.7zm3.1-.8c.1-.7-.3-1.5-1.2-1.5-1 0-1.5.7-1.8 1.5zm5.9 2.4c-.1.5-.2 1-.4 1.4-.4 1-1.2 1.4-2.3 1.4-1 0-2-.4-2.1-1.6h.8c0 .7.6.8 1.3.8 1.3 0 1.6-1 1.8-2.1-.4.5-1 .8-1.6.8-1.3 0-1.9-.9-1.9-2.1 0-1.5 1-3.2 2.7-3.2.8 0 1.5.4 1.6 1l.2-.9h.8zm-2.3 0c1.3 0 1.9-1.4 1.9-2.5 0-.8-.4-1.3-1.3-1.3-1.2 0-1.8 1.5-1.8 2.4 0 .8.4 1.4 1.2 1.4m4.5-4.4h.8l-1.1 5.2h-.8zm1-1h-.9l.2-1h.9zm3.2.8c1.4 0 2.1.8 2.1 2.1 0 1.7-1 3.3-2.9 3.3-1.4 0-2.2-.9-2.2-2.2.1-1.6 1.2-3.2 3-3.2m-.6 4.7c1.2 0 1.9-1.4 1.9-2.4 0-.8-.4-1.5-1.4-1.5-1.3 0-2 1.4-2 2.5.1.8.6 1.4 1.5 1.4m4.3-4.5h.8l-.2.8c.4-.6 1.1-.9 1.8-.9 1 0 1.4.4 1.4 1.3 0 .2-.1.6-.1 1l-.6 2.9h-.7l.7-3c0-.2.1-.6.1-.8 0-.5-.4-.7-.9-.7s-1 .3-1.3.6-.5.7-.6 1.1l-.6 2.9h-.8z" class="st0"/><circle cx="87.3" cy="180.5" r="68.6" class="st1"/><circle cx="87.3" cy="180.5" r="68.6" class="st1"/><path d="m135.9 229-97.1-97m-.6 96.4 97.1-97.1" style="fill:none;stroke:#000;stroke-width:.25;stroke-linecap:round;stroke-linejoin:round;stroke-miterlimit:28.3465"/><path d="M43 91.3h-1l-.3-4.6-2.1 4.6h-1l-.7-5.9h1l.4 4.7 2.1-4.7h1.1l.3 4.7 2.2-4.7h1zm4.1-2.7v.5c0 .9.7 1.4 1.5 1.4s1.4-.4 1.7-1.1h1c-.3 1.3-1.4 2-2.7 2-1.9 0-2.5-1.3-2.5-2.4 0-2.2 1.4-3.8 3-3.8 1.7 0 2.5.9 2.5 2.6 0 .3-.1.6-.1.8zm3.6-.8c.1-.8-.3-1.7-1.4-1.7s-1.7.8-2 1.7zm6.6 3.5h-.9l.2-.8c-.6.8-1.2 1-1.9 1-1.5 0-2.3-1-2.3-2.4 0-1.8 1.2-3.7 3.3-3.7.7 0 1.6.2 1.8 1l.6-3.1h1zm-2.5-.7c1.5 0 2.3-1.7 2.3-2.9 0-.9-.5-1.5-1.5-1.5-1.5 0-2.3 1.6-2.3 2.9 0 .9.4 1.5 1.5 1.5m9.3-.2c-.1.6-.3 1.2-.5 1.6-.5 1.2-1.4 1.6-2.7 1.6-1.2 0-2.3-.5-2.3-1.8h1c.1.8.7 1 1.5 1 1.5 0 1.8-1.2 2.1-2.4-.4.6-1.1.9-1.8.9-1.5 0-2.2-1-2.2-2.4 0-1.7 1.1-3.6 3.1-3.6.9 0 1.7.5 1.9 1.2l.2-1.1h.9zm-2.6.1c1.5 0 2.1-1.6 2.1-2.8 0-.9-.5-1.5-1.5-1.5-1.4 0-2.1 1.7-2.1 2.8.1.7.5 1.5 1.5 1.5m5-1.9v.5c0 .9.7 1.4 1.5 1.4s1.4-.4 1.7-1.1h1c-.3 1.3-1.4 2-2.7 2-1.9 0-2.5-1.3-2.5-2.4 0-2.2 1.4-3.8 3-3.8 1.7 0 2.5.9 2.5 2.6 0 .3-.1.6-.1.8zm3.5-.8c.1-.8-.3-1.7-1.4-1.7s-1.7.8-2 1.7zm5.7-4.6h1.2l1.5 8.1h-1.1l-.4-2.4h-3.4L72 91.3h-1.2zM74 87.9h2.8l-.6-3.8zm6.2-2.5h.9l-.1.9c.5-.7 1.3-1 2.1-1 1.1 0 1.6.5 1.6 1.5 0 .2-.1.7-.2 1.1l-.7 3.3h-1l.7-3.4c0-.2.1-.7.1-.9 0-.6-.5-.8-1-.8s-1.1.3-1.5.7c-.3.3-.5.8-.6 1.2l-.7 3.2h-1zm10.4 5c-.1.6-.3 1.2-.5 1.6-.5 1.2-1.4 1.6-2.7 1.6-1.2 0-2.3-.5-2.3-1.8h1c.1.8.7 1 1.5 1 1.5 0 1.8-1.2 2.1-2.4-.4.6-1.1.9-1.8.9-1.5 0-2.2-1-2.2-2.4 0-1.7 1.1-3.6 3.1-3.6.9 0 1.7.5 1.9 1.2l.2-1.1h.9zm-2.6.1c1.5 0 2.1-1.6 2.1-2.8 0-.9-.5-1.5-1.5-1.5-1.4 0-2.1 1.7-2.1 2.8.1.7.5 1.5 1.5 1.5m5.5-7.3h1l-1.7 8.1h-1zm2 5.4v.5c0 .9.7 1.4 1.5 1.4s1.4-.4 1.7-1.1h1c-.3 1.3-1.4 2-2.7 2-1.9 0-2.5-1.3-2.5-2.4 0-2.2 1.4-3.8 3-3.8 1.7 0 2.5.9 2.5 2.6 0 .3-.1.6-.1.8zm3.6-.8c.1-.8-.3-1.7-1.4-1.7s-1.7.8-2 1.7zm10.8-.2h-5.7v-.8h5.7zm-5.7 1.6h5.7v.8h-5.7zm11.2-6h3.2c1.6 0 2.4.8 2.4 2.2 0 1-.7 2.6-3.1 2.6h-2.4l-.7 3.3h-1.1zm.3 3.8h2.4c1.2 0 1.8-.7 1.8-1.6 0-1-.6-1.3-1.3-1.3h-2.3zm7.1-3.8h1.1l-1.7 8.1h-1.1zm7.4-.2h.8l-3.4 8.5h-.8zm4.6 3c.2-1.7 1.2-2.7 2.9-2.7 1.3 0 2.3.8 2.3 2.1 0 2-2.2 2.8-3.6 3.7-.5.3-1.1.8-1.3 1.4h4.2l-.2.9H134c.2-2.4 2.3-3 3.9-4.1.6-.4 1-.9 1-1.7s-.5-1.4-1.4-1.4c-1.1 0-1.7.9-1.8 1.9h-.9z" class="st0"/><circle cx="279.5" cy="170.2" r="75" class="st1"/><circle cx="279.5" cy="170.2" r="75" class="st1"/><path d="M228.4 70.1h-1.1l-.3-5-2.3 5h-1.1l-.8-6.4h1.1l.4 5.1 2.3-5.1h1.2l.3 5.1 2.4-5.1h1.1zm4.5-2.9v.6c0 1 .8 1.6 1.7 1.6s1.6-.4 1.9-1.2h1.1c-.3 1.4-1.5 2.2-2.9 2.2-2.1 0-2.7-1.5-2.7-2.6 0-2.5 1.5-4.1 3.3-4.1 1.9 0 2.7 1 2.7 2.8 0 .3-.1.7-.1.8h-5zm3.9-1c.1-.9-.3-1.8-1.5-1.8s-1.9.8-2.2 1.8zm7.2 3.9h-1l.2-.9c-.6.8-1.3 1.1-2.1 1.1-1.6 0-2.5-1.1-2.5-2.6 0-2 1.3-4.1 3.6-4.1.8 0 1.8.3 2 1.1l.7-3.4h1zm-2.7-.8c1.6 0 2.5-1.9 2.5-3.2 0-1-.6-1.7-1.6-1.7-1.7 0-2.5 1.7-2.5 3.2-.1 1 .4 1.7 1.6 1.7m10.1-.2c-.1.7-.3 1.3-.5 1.8-.5 1.3-1.6 1.8-2.9 1.8s-2.5-.6-2.6-2h1.1c.1.9.8 1.1 1.6 1.1 1.6 0 2-1.3 2.3-2.6-.5.7-1.2 1-2 1-1.6 0-2.4-1.1-2.4-2.7 0-1.9 1.3-4 3.3-4 .9 0 1.9.5 2 1.3l.2-1.2h1zm-2.8.1c1.6 0 2.3-1.8 2.3-3.1 0-1-.5-1.7-1.6-1.7-1.5 0-2.3 1.9-2.3 3 0 1 .5 1.8 1.6 1.8m5.5-2v.6c0 1 .8 1.6 1.7 1.6s1.6-.4 1.9-1.2h1.1c-.3 1.4-1.5 2.2-2.9 2.2-2.1 0-2.7-1.5-2.7-2.6 0-2.5 1.5-4.1 3.3-4.1 1.9 0 2.7 1 2.7 2.8 0 .3-.1.7-.1.8h-5zm3.8-1c.1-.9-.3-1.8-1.5-1.8s-1.9.8-2.2 1.8zm6.3-5h1.3l1.6 8.9h-1.2l-.4-2.7h-3.7l-1.6 2.7h-1.3zm-2 5.2h3.1l-.7-4.2zm6.9-2.8h1l-.2 1c.5-.7 1.4-1.1 2.3-1.1 1.2 0 1.8.5 1.8 1.7 0 .3-.1.8-.2 1.3l-.8 3.7h-1l.8-3.8c0-.2.1-.8.1-1 0-.6-.5-.9-1.1-.9s-1.2.3-1.6.7c-.4.3-.6.8-.7 1.3l-.7 3.6h-1.1zm11.3 5.5c-.1.7-.3 1.3-.5 1.8-.5 1.3-1.6 1.8-2.9 1.8s-2.5-.6-2.6-2h1.1c.1.9.8 1.1 1.6 1.1 1.6 0 2-1.3 2.3-2.6-.5.7-1.2 1-2 1-1.6 0-2.4-1.1-2.4-2.7 0-1.9 1.3-4 3.3-4 .9 0 1.9.5 2 1.3l.2-1.2h1zm-2.8.1c1.6 0 2.3-1.8 2.3-3.1 0-1-.5-1.7-1.6-1.7-1.5 0-2.3 1.9-2.3 3 0 1 .5 1.8 1.6 1.8m6-8h1.1l-1.9 8.9h-1.1zm2.2 6v.6c0 1 .8 1.6 1.7 1.6s1.6-.4 1.9-1.2h1.1c-.3 1.4-1.5 2.2-2.9 2.2-2.1 0-2.7-1.5-2.7-2.6 0-2.5 1.5-4.1 3.3-4.1 1.9 0 2.7 1 2.7 2.8 0 .3-.1.7-.1.8h-5zm3.9-1c.1-.9-.3-1.8-1.5-1.8s-1.9.8-2.2 1.8zm11.8-.1h-6.3v-.8h6.3zm-6.2 1.7h6.3v.8h-6.3zm13.1-2.8c1.1 0 2.4-.1 2.4-1.6 0-1-.8-1.2-1.5-1.2q-1.5 0-1.8 1.8h-1.1c.2-1.5 1.1-2.7 3-2.7 1.6 0 2.5.7 2.5 2.2 0 1-.8 1.8-1.6 2 .9.4 1.1 1.1 1.1 1.8 0 1.2-1 2.9-3.2 2.9-1.7 0-2.8-.9-2.8-2.9h1.1c0 1 .3 1.9 1.7 1.9 1.2 0 2-.7 2-1.9 0-1.3-1.1-1.5-2.2-1.5zm7.1-2.4 1.4-.1.1.6-1.3.2.6 1.2-.6.3-.6-1.3-1 1.1-.5-.5 1-1-1.2-.6.3-.6 1.2.6.3-1.3h.7zm3.3-1.4h3.5c1.7 0 2.6.8 2.6 2.4 0 1.1-.8 2.8-3.4 2.8h-2.6l-.8 3.6h-1.2zm.3 4.2h2.7c1.3 0 2-.7 2-1.8s-.7-1.5-1.5-1.5h-2.5zm7.7-4.2h1.2l-1.9 8.9H325zm4.8-.2h.9l-3.7 9.3h-.9zm4.5 7h-3.9l.2-1 5.2-5.7h.9l-1.2 5.8h1.2l-.2.9h-1.2l-.4 2.1h-1.1zm-2.7-.9h2.8l.8-4z" class="st0"/><linearGradient id="path1072_00000031891933379741512970000012916434199046728615_" x1="210.3" x2="348.7" y1="167.8" y2="167.8" gradientTransform="matrix(1 0 0 -1 0 338)" gradientUnits="userSpaceOnUse"><stop offset="0" stop-color="#595959"/><stop offset="1"/></linearGradient><linearGradient id="SVGID_00000065047945235173139240000001473306286361232780_" x1="210.2" x2="210.2" y1="196.7" y2="196.7" gradientTransform="matrix(1 0 0 -1 0 338)" gradientUnits="userSpaceOnUse"><stop offset="0" stop-color="#595959"/><stop offset="1"/></linearGradient><path d="M38.8 132c32.3 32.4 48.5 48.5 48.5 48.5l-.6-.6c8.6-8.5 17.2-17.1 25.8-25.7 7.6-7.6 15.2-15.2 22.7-22.8 0 0-.1-.1-.2-.1-7.5-5.9-15-10.9-18.2-12.7-11.6-6.5-28.4-6.7-29.5-6.7-26 0-44 15.9-48.5 20.1" style="opacity:.5;fill:#419b74"/><path d="m135.2 131.3-48.5 48.5q12 12.3 24.6 24.9 12.3 12.3 24.6 24s.1-.1.1-.2c2.9-3.7 5.4-6.2 5.8-6.7 3.4-3.6 7.2-11.3 7.5-12 5.8-11.9 6-24.1 6-29.1 0-5.3 0-14.4-4.1-25.3-4.4-11.8-11.5-19.7-16-24.1" style="opacity:.5;fill:#875d9b"/><path d="M135.9 228.7c-7.9-7.7-15.8-15.4-23.7-23.3-8.6-8.6-17.1-17.1-25.5-25.6-8.3 8.3-16.6 16.5-24.9 24.8l-23.7 23.7s11.2 9.3 19.2 13.9c12.5 7.1 25.2 7.3 29.6 7.4 26.5.4 44.8-16.7 49-20.9" style="opacity:.5;fill:#e77474"/><path d="M38.2 228.4c8.1-8.2 16.3-16.3 24.4-24.4l24.1-24.1c-7.7-7.8-15.5-15.5-23.2-23.3-8.2-8.2-16.5-16.4-24.7-24.6-6.7 8.7-8.1 10.8-8.1 10.8s-3.3 5-5.9 10.5c-5.7 12.1-6.1 24.5-6.1 27.4-.3 25.2 16.6 44.5 19.5 47.7" style="opacity:.5;fill:#5d7fe7"/><linearGradient id="SVGID_00000065074610844876541610000001466239528879446682_" x1="279.29" x2="279.06" y1="172.46" y2="253.2" gradientTransform="matrix(1 0 0 -1 0 338)" gradientUnits="userSpaceOnUse"><stop offset="0" stop-color="#419B74" stop-opacity=".1"/><stop offset="1" stop-color="#396"/></linearGradient><path fill="url(#SVGID_00000065074610844876541610000001466239528879446682_)" d="M196.8 133.4c15.8 7.9 32.8 15.8 50.8 23.4 11.1 4.7 22 9 32.6 13 14-5.6 28.2-11.4 42.7-17.6q19.8-8.4 38.7-17.1c-3.2-7.7-10.5-22.2-25.5-34.7-3.1-2.6-25.2-20.5-55.9-20.8-33.7-.1-65.8 21-83.4 53.8"/><linearGradient id="SVGID_00000044885787479975378890000006923265183431994263_" x1="279.5" x2="363.3" y1="166.2" y2="166.2" gradientTransform="matrix(1 0 0 -1 0 338)" gradientUnits="userSpaceOnUse"><stop offset="0" stop-color="#875D9B" stop-opacity=".1"/><stop offset="1" stop-color="#875D9B"/></linearGradient><path fill="url(#SVGID_00000044885787479975378890000006923265183431994263_)" d="M310.6 94.3c-5.6 11.8-11.1 24.3-16.6 37.5-5.4 13.3-10.2 26.1-14.5 38.4 3.8 10.6 7.8 21.4 12.1 32.4 6.3 16.2 12.7 31.7 19.2 46.7 11-7.4 18.1-12.1 18.1-12.1s16.8-13.5 25.8-29.6c8.5-15.3 8.6-30.4 8.6-36.7 0-5.6-.7-19.9-8.3-35.6-13-26.8-37.1-37.9-44.4-41"/><linearGradient id="SVGID_00000034786375276380403830000012871457524184420532_" x1="279.75" x2="279.75" y1="80.545" y2="162.18" gradientTransform="matrix(1 0 0 -1 0 338)" gradientUnits="userSpaceOnUse"><stop offset="0" stop-color="#E77474"/><stop offset="1" stop-color="#E77474" stop-opacity=".1"/></linearGradient><path fill="url(#SVGID_00000034786375276380403830000012871457524184420532_)" d="M365.7 200.1c-16.1-5.9-32.7-11.8-49.6-17.6-12.2-4.2-24.4-8.2-36.3-12.1-12.3 3.9-24.6 7.8-37.1 11.9-16.6 5.4-32.9 11-48.9 16.5 2.6 8.3 9.9 27.6 29 43.3 7.2 5.9 28.1 21.1 57.8 20.4 25.1-.6 42.4-12.2 49.2-16.9 22.6-15.5 32.3-36.5 35.9-45.5"/><linearGradient id="SVGID_00000017476170274872753460000014299460684445273230_" x1="196.2" x2="280.2" y1="166.5" y2="166.5" gradientTransform="matrix(1 0 0 -1 0 338)" gradientUnits="userSpaceOnUse"><stop offset="0" stop-color="#66f"/><stop offset="1" stop-color="#5D7FE7" stop-opacity=".1"/></linearGradient><path fill="url(#SVGID_00000017476170274872753460000014299460684445273230_)" d="M249.3 249.3q8.25-19.8 16.2-40.5 7.65-19.65 14.7-38.7c-4.2-11-8.5-22.1-12.7-33.4-5.4-14.5-10.6-28.8-15.6-43-6.6 2-28 9.6-42.7 31.7-12.8 19.2-13 38.2-13 44.7 0 29.5 15.7 49.6 21.3 56.1 11.5 13.1 24.3 19.9 31.8 23.1"/></svg>
