<svg xmlns="http://www.w3.org/2000/svg" width="826.56" height="547.84"><defs><clipPath id="a"><path d="M0 0h2584v1708.9H0z" clip-rule="evenodd"/></clipPath></defs><g clip-path="url(#a)" transform="scale(.32)"><path fill="none" stroke="#000" stroke-miterlimit="10" stroke-width="2.998" d="M1275.692 355.275v220.75"/><path d="m1275.692 591.765-10.494-20.987 10.494 5.247 10.493-5.247z"/><path fill="none" stroke="#000" stroke-miterlimit="10" stroke-width="2.998" d="m1275.692 591.765-10.494-20.987 10.494 5.247 10.493-5.247z"/><path fill="#fff" d="M1046.337 455.711h458.71v38.976h-458.71z"/><text xml:space="preserve" font-family="sans-serif" font-size="11" transform="translate(1046.247 485.692)scale(2.9981)"><tspan x="0 5.5 9.1630859 15.474121 19.137207 21.581055 27.69873 33.816406 39.934082 42.37793 48.495605 57.658691 63.776367 69.276367 75.394043 82.730957 88.848633 94.966309 97.410156 103.52783 111.47168 117.58936 123.70703 129.82471 132.88086 138.99854 145.71777" y="0">xrTriangleMeshBeginUpdateFB</tspan></text><path fill="#fff" d="M1122.789 175.389h305.806a26.9 26.9 0 0 1 10.325 2.054 26.9 26.9 0 0 1 8.755 5.85 26.9 26.9 0 0 1 5.849 8.753 26.9 26.9 0 0 1 2.054 10.326v125.92q0 2.658-.519 5.264a27 27 0 0 1-1.535 5.062 27 27 0 0 1-2.494 4.665q-1.476 2.21-3.355 4.089c-1.88 1.879-2.616 2.37-4.09 3.355s-3.027 1.816-4.664 2.494q-2.455 1.017-5.062 1.535c-2.607.518-3.493.519-5.264.519h-305.806q-2.658 0-5.265-.519a27 27 0 0 1-5.061-1.535 26.9 26.9 0 0 1-8.754-5.85 26.9 26.9 0 0 1-5.85-8.753 26.9 26.9 0 0 1-2.053-10.326v-125.92a26.9 26.9 0 0 1 2.054-10.326 26.9 26.9 0 0 1 5.849-8.754 26.9 26.9 0 0 1 8.754-5.85 26.9 26.9 0 0 1 10.326-2.054z"/><path fill="none" stroke="#000" stroke-miterlimit="10" stroke-width="2.998" d="M1122.789 175.389h305.806a26.9 26.9 0 0 1 10.325 2.054 26.9 26.9 0 0 1 8.755 5.85 26.9 26.9 0 0 1 5.849 8.753 26.9 26.9 0 0 1 2.054 10.326v125.92q0 2.658-.519 5.264a27 27 0 0 1-1.535 5.062 27 27 0 0 1-2.494 4.665q-1.476 2.21-3.355 4.089c-1.88 1.879-2.616 2.37-4.09 3.355s-3.027 1.816-4.664 2.494q-2.455 1.017-5.062 1.535c-2.607.518-3.493.519-5.264.519h-305.806q-2.658 0-5.265-.519a27 27 0 0 1-5.061-1.535 26.9 26.9 0 0 1-8.754-5.85 26.9 26.9 0 0 1-5.85-8.753 26.9 26.9 0 0 1-2.053-10.326v-125.92a26.9 26.9 0 0 1 2.054-10.326 26.9 26.9 0 0 1 5.849-8.754 26.9 26.9 0 0 1 8.754-5.85 26.9 26.9 0 0 1 10.326-2.054z"/><text xml:space="preserve" font-family="sans-serif" font-size="12" transform="translate(1115.143 275.825)scale(2.9981)"><tspan x="0 6 12.673828 19.347656 26.021484 28.6875 35.361328 42.035156 48.035156 51.369141 60.035156 66.708984 73.382812 80.056641 83.390625 86.056641 92.730469 99.404297" y="0">Topology Undefined</tspan></text><path fill="none" stroke="#000" stroke-miterlimit="10" stroke-width="2.998" d="M2205.133 1344.648q-.031 59.961-419.764 59.962t-419.734-220.75"/><path d="m1365.635 1168.12 10.493 20.986-10.493-5.246-10.494 5.246z"/><path fill="none" stroke="#000" stroke-miterlimit="10" stroke-width="2.998" d="m1365.635 1168.12 10.493 20.986-10.493-5.246-10.494 5.246z"/><path fill="#fff" d="M1478.063 1385.122h434.725v38.975h-434.725z"/><text xml:space="preserve" font-family="sans-serif" font-size="11" transform="translate(1478.813 1415.103)scale(2.9981)"><tspan x="0 5.5 9.1630859 15.474121 19.137207 21.581055 27.69873 33.816406 39.934082 42.37793 48.495605 57.658691 63.776367 69.276367 75.394043 82.730957 88.848633 94.966309 102.91016 109.02783 115.14551 121.26318 124.31934 130.43701 137.15625" y="0">xrTriangleMeshEndUpdateFB</tspan></text><path fill="#fff" d="M2052.23 1164.762h305.806a26.9 26.9 0 0 1 10.325 2.054 27 27 0 0 1 4.665 2.493 26.9 26.9 0 0 1 7.445 7.445 26.93 26.93 0 0 1 4.548 14.991v125.92a26.9 26.9 0 0 1-2.054 10.326 26.9 26.9 0 0 1-5.85 8.754 27 27 0 0 1-4.089 3.356 26.9 26.9 0 0 1-9.726 4.03 27 27 0 0 1-5.264.518H2052.23a26.9 26.9 0 0 1-10.326-2.054 26.9 26.9 0 0 1-8.754-5.85 27 27 0 0 1-3.356-4.089 26.9 26.9 0 0 1-4.547-14.99v-125.92a26.9 26.9 0 0 1 2.053-10.327 26.9 26.9 0 0 1 5.85-8.754 26.9 26.9 0 0 1 8.754-5.85 26.9 26.9 0 0 1 10.326-2.054z"/><path fill="none" stroke="#000" stroke-miterlimit="10" stroke-width="2.998" d="M2052.23 1164.762h305.806a26.9 26.9 0 0 1 10.325 2.054 27 27 0 0 1 4.665 2.493 26.9 26.9 0 0 1 7.445 7.445 26.93 26.93 0 0 1 4.548 14.991v125.92a26.9 26.9 0 0 1-2.054 10.326 26.9 26.9 0 0 1-5.85 8.754 27 27 0 0 1-4.089 3.356 26.9 26.9 0 0 1-9.726 4.03 27 27 0 0 1-5.264.518H2052.23a26.9 26.9 0 0 1-10.326-2.054 26.9 26.9 0 0 1-8.754-5.85 27 27 0 0 1-3.356-4.089 26.9 26.9 0 0 1-4.547-14.99v-125.92a26.9 26.9 0 0 1 2.053-10.327 26.9 26.9 0 0 1 5.85-8.754 26.9 26.9 0 0 1 8.754-5.85 26.9 26.9 0 0 1 10.326-2.054z"/><text xml:space="preserve" font-family="sans-serif" font-size="12" transform="translate(2082.6 1265.198)scale(2.9981)"><tspan x="0 8.6660156 15.339844 22.013672 28.6875 32.021484 34.6875 41.361328 48.035156 51.369141 61.365234 68.039062 74.039062" y="0">Updating Mesh</tspan></text><path fill="none" stroke="#000" stroke-miterlimit="10" stroke-width="2.998" d="M376.262 1344.648q0 59.961 404.743 59.962c404.743 0 404.744-73.582 404.744-220.75"/><path d="m1185.749 1168.12 10.493 20.986-10.493-5.246-10.494 5.246z"/><path fill="none" stroke="#000" stroke-miterlimit="10" stroke-width="2.998" d="m1185.749 1168.12 10.493 20.986-10.493-5.246-10.494 5.246z"/><path fill="#fff" d="M563.643 1385.122h614.61v38.975h-614.61z"/><text xml:space="preserve" font-family="sans-serif" font-size="11" transform="translate(563.913 1415.103)scale(2.9981)"><tspan x="0 5.5 9.1630859 15.474121 19.137207 21.581055 27.69873 33.816406 39.934082 42.37793 48.495605 57.658691 63.776367 69.276367 75.394043 82.730957 88.848633 94.966309 101.69629 107.81396 111.47705 114.5332 120.65088 126.15088 133.48779 139.60547 142.46289 145.51904 151.63672 155.2998 163.24365 169.36133 175.479 181.59668 184.65283 190.77051 197.48975" y="0">xrTriangleMeshEndVertexBufferUpdateFB</tspan></text><path fill="#fff" d="M223.359 1164.762h305.806a26.9 26.9 0 0 1 10.325 2.054 26.9 26.9 0 0 1 8.754 5.849 27 27 0 0 1 3.356 4.089 27 27 0 0 1 2.493 4.665 26.9 26.9 0 0 1 2.054 10.326v125.92a26.9 26.9 0 0 1-2.054 10.326 26.9 26.9 0 0 1-5.849 8.754 26.9 26.9 0 0 1-8.754 5.85 26.9 26.9 0 0 1-10.326 2.054H223.358q-2.657 0-5.264-.519a26.9 26.9 0 0 1-13.816-7.385 26.9 26.9 0 0 1-5.849-8.754 26.9 26.9 0 0 1-2.054-10.326v-125.92a26.9 26.9 0 0 1 2.054-10.326 26.9 26.9 0 0 1 5.85-8.754 26.9 26.9 0 0 1 8.754-5.85 26.9 26.9 0 0 1 10.326-2.054z"/><path fill="none" stroke="#000" stroke-miterlimit="10" stroke-width="2.998" d="M223.359 1164.762h305.806a26.9 26.9 0 0 1 10.325 2.054 26.9 26.9 0 0 1 8.754 5.849 27 27 0 0 1 3.356 4.089 27 27 0 0 1 2.493 4.665 26.9 26.9 0 0 1 2.054 10.326v125.92a26.9 26.9 0 0 1-2.054 10.326 26.9 26.9 0 0 1-5.849 8.754 26.9 26.9 0 0 1-8.754 5.85 26.9 26.9 0 0 1-10.326 2.054H223.358q-2.657 0-5.264-.519a26.9 26.9 0 0 1-13.816-7.385 26.9 26.9 0 0 1-5.849-8.754 26.9 26.9 0 0 1-2.054-10.326v-125.92a26.9 26.9 0 0 1 2.054-10.326 26.9 26.9 0 0 1 5.85-8.754 26.9 26.9 0 0 1 8.754-5.85 26.9 26.9 0 0 1 10.326-2.054z"/><text xml:space="preserve" font-family="sans-serif" font-size="12" transform="translate(233.759 1265.198)scale(2.9981)"><tspan x="0 8.6660156 15.339844 22.013672 28.6875 32.021484 34.6875 41.361328 48.035156 51.369141 58.710938 65.384766 69.380859 72.714844 75.380859 81.380859 88.054688" y="0">Updating Vertices</tspan></text><path fill="none" stroke="#000" stroke-miterlimit="10" stroke-width="2.998" d="M1095.806 1074.819q-719.544 0-719.544 70.875"/><path d="m376.262 1161.434-10.494-20.987 10.494 5.247 10.493-5.247z"/><path fill="none" stroke="#000" stroke-miterlimit="10" stroke-width="2.998" d="m376.262 1161.434-10.494-20.987 10.494 5.247 10.493-5.247z"/><path fill="#fff" d="M371.764 1055.331h638.596v38.976H371.764z"/><text xml:space="preserve" font-family="sans-serif" font-size="11" transform="translate(371.195 1085.312)scale(2.9981)"><tspan x="0 5.5 9.1630859 15.474121 19.137207 21.581055 27.69873 33.816406 39.934082 42.37793 48.495605 57.658691 63.776367 69.276367 75.394043 82.730957 88.848633 94.966309 97.410156 103.52783 110.25781 116.37549 120.03857 123.09473 129.2124 134.7124 142.04932 148.16699 151.02441 154.08057 160.19824 163.86133 171.80518 177.92285 184.04053 190.1582 193.21436 199.33203 206.05127" y="0">xrTriangleMeshBeginVertexBufferUpdateFB</tspan></text><path fill="none" stroke="#000" stroke-miterlimit="10" stroke-width="2.998" d="M1455.578 1074.819c499.693 0 749.525 23.625 749.555 70.875"/><path d="m2205.133 1161.434-10.494-20.987 10.494 5.247 10.493-5.277z"/><path fill="none" stroke="#000" stroke-miterlimit="10" stroke-width="2.998" d="m2205.133 1161.434-10.494-20.987 10.494 5.247 10.493-5.277z"/><path fill="#fff" d="M1645.957 1055.331h458.71v38.976h-458.71z"/><text xml:space="preserve" font-family="sans-serif" font-size="11" transform="translate(1645.867 1085.312)scale(2.9981)"><tspan x="0 5.5 9.1630859 15.474121 19.137207 21.581055 27.69873 33.816406 39.934082 42.37793 48.495605 57.658691 63.776367 69.276367 75.394043 82.730957 88.848633 94.966309 97.410156 103.52783 111.47168 117.58936 123.70703 129.82471 132.88086 138.99854 145.71777" y="0">xrTriangleMeshBeginUpdateFB</tspan></text><path fill="#fff" d="M1122.789 984.876h305.806a26.9 26.9 0 0 1 10.325 2.054 27 27 0 0 1 4.665 2.493 26.9 26.9 0 0 1 9.938 12.11 26.9 26.9 0 0 1 2.054 10.326l.001 125.92a26.9 26.9 0 0 1-2.054 10.326 27 27 0 0 1-2.494 4.665 26.9 26.9 0 0 1-7.444 7.445 26.9 26.9 0 0 1-9.727 4.029 27 27 0 0 1-5.264.518h-305.806a26.9 26.9 0 0 1-10.326-2.054 26.9 26.9 0 0 1-8.754-5.849 27 27 0 0 1-3.356-4.09 27 27 0 0 1-2.493-4.664 26.9 26.9 0 0 1-2.054-10.326v-125.92a26.9 26.9 0 0 1 2.054-10.326 26.9 26.9 0 0 1 5.849-8.754 26.9 26.9 0 0 1 8.754-5.85 26.9 26.9 0 0 1 10.326-2.053"/><path fill="none" stroke="#000" stroke-miterlimit="10" stroke-width="2.998" d="M1122.789 984.876h305.806a26.9 26.9 0 0 1 10.325 2.054 27 27 0 0 1 4.665 2.493 26.9 26.9 0 0 1 9.938 12.11 26.9 26.9 0 0 1 2.054 10.326l.001 125.92a26.9 26.9 0 0 1-2.054 10.326 27 27 0 0 1-2.494 4.665 26.9 26.9 0 0 1-7.444 7.445 26.9 26.9 0 0 1-9.727 4.029 27 27 0 0 1-5.264.518h-305.806a26.9 26.9 0 0 1-10.326-2.054 26.9 26.9 0 0 1-8.754-5.849 27 27 0 0 1-3.356-4.09 27 27 0 0 1-2.493-4.664 26.9 26.9 0 0 1-2.054-10.326v-125.92a26.9 26.9 0 0 1 2.054-10.326 26.9 26.9 0 0 1 5.849-8.754 26.9 26.9 0 0 1 8.754-5.85 26.9 26.9 0 0 1 10.326-2.053z"/><g font-family="sans-serif" font-size="12"><text xml:space="preserve" transform="translate(1222.205 1085.312)scale(2.9981)"><tspan x="0 8.6660156 15.339844 22.013672 28.6875" y="0">Ready</tspan></text><text xml:space="preserve" transform="translate(1907.93 1603.984)scale(2.9981)"><tspan x="0 9.9960938 16.669922 22.669922 26.003906 32.003906 38.677734 45.351562 52.025391 58.699219 65.373047 68.707031 74.707031 81.380859 85.376953 88.710938 95.384766 101.38477 104.71875 111.39258 118.06641 121.18359 124.51758 131.19141 135.1875 138.52148 144.52148 147.1875 153.1875 159.86133 163.19531 169.86914 176.54297 183.2168 186.55078 193.22461" y="0">May change vertex buffer size and/or</tspan></text><text xml:space="preserve" transform="translate(1860.92 1648.955)scale(2.9981)"><tspan x="0 6 12.673828 19.347656 22.681641 29.355469 36.029297 39.363281 45.363281 48.697266 52.03125 54.697266 61.371094 68.044922 74.71875 80.71875 84.052734 90.726562 97.400391 100.51758 103.85156 110.52539 114.52148 117.85547 123.85547 126.52148 132.52148 139.19531 142.5293 149.20312 155.87695 162.55078 165.88477 172.55859 176.55469 179.88867 185.88867 192.5625 199.23633 202.57031 209.24414 215.91797 219.25195 225.25195" y="0">contents, index buffer size and/or contents.</tspan></text><text xml:space="preserve" transform="translate(34.103 1603.984)scale(2.9981)"><tspan x="0 9.9960938 16.669922 22.669922 26.003906 32.003906 38.677734 45.351562 52.025391 58.699219 65.373047 68.707031 74.707031 81.380859 85.376953 88.710938 95.384766 101.38477 104.71875 111.39258 118.06641 121.18359 124.51758 131.19141 135.1875 138.52148 144.52148 151.19531 157.86914 161.20312 167.87695 174.55078 177.88477 183.88477 187.21875 190.55273 197.22656 203.90039 207.23438 210.56836 217.24219 223.91602" y="0">May change vertex buffer contents, but not</tspan></text><text xml:space="preserve" transform="translate(337.766 1648.955)scale(2.9981)"><tspan x="0 6 8.6660156 14.666016 21.339844" y="0">size.</tspan></text></g><path fill="none" stroke="#000" stroke-miterlimit="10" stroke-width="2.998" d="M1275.692 775.009v190.799"/><path d="m1275.692 981.548-10.494-20.987 10.494 5.247 10.493-5.247z"/><path fill="none" stroke="#000" stroke-miterlimit="10" stroke-width="2.998" d="m1275.692 981.548-10.494-20.987 10.494 5.247 10.493-5.247z"/><path fill="#fff" d="M722.542 860.455h1106.299v38.975H722.542z"/><text xml:space="preserve" font-family="sans-serif" font-size="11" transform="translate(723.891 890.436)scale(2.9981)"><tspan x="0 5.5 9.1630859 15.474121 19.137207 21.581055 27.69873 33.816406 39.934082 42.37793 48.495605 57.658691 63.776367 69.276367 75.394043 82.730957 88.848633 94.966309 102.91016 109.02783 115.14551 121.26318 124.31934 130.43701 137.15625 144.49316 147.54932 153.66699 156.72314 159.7793 165.89697 169.56006 172.61621 178.11621 184.23389 187.29004 190.34619 192.79004 198.90771 205.02539 208.08154 214.19922 220.31689 223.37305 229.49072 232.54688 235.60303 241.7207 247.83838 250.89453 253.33838 259.45605 265.57373 271.69141 277.19141 280.24756 286.36523 292.48291 298.60059 301.65674 307.15674 313.27441 316.9375 319.99365 326.11133 331.61133 334.66748 340.78516 346.90283 349.76025 352.81641 358.93408 362.59717" y="0">xrTriangleMeshEndUpdateFB after setting both the index and vertex buffers</tspan></text><path fill="#fff" d="M1122.789 595.123h305.806q2.657 0 5.264.518a26.9 26.9 0 0 1 13.816 7.385 26.9 26.9 0 0 1 5.849 8.754 26.9 26.9 0 0 1 2.054 10.326v125.92a26.9 26.9 0 0 1-2.054 10.326 27 27 0 0 1-2.494 4.665 27 27 0 0 1-3.355 4.088 27 27 0 0 1-4.09 3.356 26.9 26.9 0 0 1-9.726 4.029 27 27 0 0 1-5.264.519h-305.806a26.9 26.9 0 0 1-10.326-2.055 26.9 26.9 0 0 1-8.754-5.849 27 27 0 0 1-3.356-4.089 26.93 26.93 0 0 1-4.547-14.99v-125.92a26.9 26.9 0 0 1 2.054-10.326 26.9 26.9 0 0 1 5.849-8.754 26.9 26.9 0 0 1 8.754-5.85 26.9 26.9 0 0 1 10.326-2.054z"/><path fill="none" stroke="#000" stroke-miterlimit="10" stroke-width="2.998" d="M1122.789 595.123h305.806q2.657 0 5.264.518a26.9 26.9 0 0 1 13.816 7.385 26.9 26.9 0 0 1 5.849 8.754 26.9 26.9 0 0 1 2.054 10.326v125.92a26.9 26.9 0 0 1-2.054 10.326 27 27 0 0 1-2.494 4.665 27 27 0 0 1-3.355 4.088 27 27 0 0 1-4.09 3.356 26.9 26.9 0 0 1-9.726 4.029 27 27 0 0 1-5.264.519h-305.806a26.9 26.9 0 0 1-10.326-2.055 26.9 26.9 0 0 1-8.754-5.849 27 27 0 0 1-3.356-4.089 26.93 26.93 0 0 1-4.547-14.99v-125.92a26.9 26.9 0 0 1 2.054-10.326 26.9 26.9 0 0 1 5.849-8.754 26.9 26.9 0 0 1 8.754-5.85 26.9 26.9 0 0 1 10.326-2.054z"/><text xml:space="preserve" font-family="sans-serif" font-size="12" transform="translate(1131.513 695.56)scale(2.9981)"><tspan x="0 8.6660156 15.339844 18.673828 21.339844 28.013672 30.679688 37.353516 44.027344 47.144531 53.144531 59.818359 66.492188 73.166016 75.832031 82.505859 89.179688" y="0">Defining Topology</tspan></text><path fill="none" stroke="#000" stroke-miterlimit="10" stroke-width="2.998" d="M1275.692 25.484V156.29"/><path d="m1275.692 172.031-10.494-20.987 10.494 5.247 10.493-5.247z"/><path fill="none" stroke="#000" stroke-miterlimit="10" stroke-width="2.998" d="m1275.692 172.031-10.494-20.987 10.494 5.247 10.493-5.247z"/><path fill="#fff" d="M1091.308 80.949h368.767v38.975h-368.767z"/><text xml:space="preserve" font-family="sans-serif" font-size="11" transform="translate(1092.118 110.93)scale(2.9981)"><tspan x="0 5.5 9.1630859 17.106934 20.77002 26.887695 33.005371 36.061523 42.179199 48.490234 52.15332 54.597168 60.714844 66.83252 72.950195 75.394043 81.511719 90.674805 96.79248 102.29248 108.41016 115.12939" y="0">xrCreateTriangleMeshFB</tspan></text></g></svg>
