<svg xmlns="http://www.w3.org/2000/svg" width="1326" height="939" style="background-color:#fff" viewBox="-0.5 -0.5 1326 939"><g stroke-miterlimit="10"><path fill="none" stroke="gray" stroke-width="7" d="M444 931q70-136 69-158t14.5-50.5 2-43.5-49.5 5.5-68 93-30-10T415 609t83-122 33-69.5-61.5 1T352 564t-33-5 71-157 22-55-32.5-22-64 57T222 569t-21.5 2 50-194.5-13-60.5-71 84-59 209-22 48 22-144.5 6-69.5T72 454.5 20.5 539t-7 146.5T18 922" pointer-events="stroke"/><path fill="none" stroke="red" stroke-width="7" d="m311 723 117.48 9.57" pointer-events="stroke"/><path fill="red" stroke="red" stroke-width="7" d="m438.2 733.36-13.49 5.43 3.77-6.22-2.71-6.74z" pointer-events="all"/><path fill="none" stroke="#3f3" stroke-width="7" d="m315 721-14.19-87.65" pointer-events="stroke"/><path fill="#3f3" stroke="#3f3" stroke-width="7" d="m299.25 623.73 8.49 11.79-6.93-2.17-5.9 4.25z" pointer-events="all"/><path fill="none" stroke="#00f" stroke-width="7" d="m314 724-35.58 90.64" pointer-events="stroke"/><path fill="#00f" stroke="#00f" stroke-width="7" d="m274.86 823.72-1.3-14.48 4.86 5.4 7.24-.65z" pointer-events="all"/><path fill="none" stroke="#b8b8b8" stroke-dasharray="10 10" stroke-width="10" d="M321 715.93 524 145" pointer-events="stroke"/><path fill="none" stroke="gray" stroke-width="7" d="M1304 935q-5-161 9-225t6-172-43-115.5-35 45.5 3.5 96-9.5 83-18.5 18-20-82-35-125.5-47-109.5-55-36.5 12 104.5 71 228.5-13-45.5-59.5-217.5-42.5-67T972 300t11 116 53.5 203-44.5-18.5T907.5 444t-64-48.5T788 410t24 53 75.5 130 32 167.5-19 44-35-40-28.5-44-39-40-48.5-10.5-3.5 31.5 18.5 60T858 933" pointer-events="stroke"/><path fill="none" stroke="red" stroke-width="7" d="m990 736 118.47-8.71" pointer-events="stroke"/><path fill="red" stroke="red" stroke-width="7" d="m1118.2 726.57-12.49 7.44 2.76-6.72-3.72-6.25z" pointer-events="all"/><path fill="none" stroke="#3f3" stroke-width="7" d="m994 734 10.96-93.54" pointer-events="stroke"/><path fill="#3f3" stroke="#3f3" stroke-width="7" d="m1006.1 630.77 4.94 13.67-6.07-3.98-6.84 2.47z" pointer-events="all"/><path fill="none" stroke="#00f" stroke-width="7" d="m993 737 35.08 81.85" pointer-events="stroke"/><path fill="#00f" stroke="#00f" stroke-width="7" d="m1031.9 827.81-11.1-9.39 7.26.43 4.69-5.55z" pointer-events="all"/><path fill="none" stroke="#b5b5b5" stroke-dasharray="10 10" stroke-width="10" d="M993 736 676 5" pointer-events="stroke"/><path fill="none" stroke="#4d4d4d" stroke-dasharray="10 10" stroke-width="10" d="M406 471 556 58m294 342L681 16" pointer-events="stroke"/></g></svg>
