<svg class="diagram" xmlns="http://www.w3.org/2000/svg" version="1.1" height="336" width="336" style="margin:0 auto 0 auto;display:block;font-family:Menlo,Consolas,monospace;font-size:13.432500670933932px;text-align:center;stroke-linecap:round;stroke-width:1px;page-break-inside:avoid;stroke:#000;fill:#000;"><g transform="translate(8,16 )">
<path d="M 16,240 L 16,272 " style="fill:none;"></path>
<path d="M 104,80 L 104,144 " style="fill:none;"></path>
<path d="M 144,16 L 144,32 " style="fill:none;"></path>
<path d="M 144,176 L 144,192 " style="fill:none;"></path>
<path d="M 160,176 L 160,192 " style="fill:none;"></path>
<path d="M 168,16 L 168,32 " style="fill:none;"></path>
<path d="M 216,80 L 216,144 " style="fill:none;"></path>
<path d="M 312,240 L 312,272 " style="fill:none;"></path>
<path d="M 128,16 L 144,16 " style="fill:none;"></path>
<path d="M 168,16 L 184,16 " style="fill:none;"></path>
<path d="M 104,80 L 120,80 " style="fill:none;"></path>
<path d="M 200,80 L 216,80 " style="fill:none;"></path>
<path d="M 104,144 L 120,144 " style="fill:none;"></path>
<path d="M 200,144 L 216,144 " style="fill:none;"></path>
<path d="M 144,192 L 160,192 " style="fill:none;"></path>
<path d="M 32,224 L 296,224 " style="fill:none;"></path>
<path d="M 32,288 L 296,288 " style="fill:none;"></path>
<path d="M 136,144 L 144,160 " style="fill:none;"></path>
<path d="M 136,80 L 144,96 " style="fill:none;"></path>
<path d="M 136,80 L 144,64 " style="fill:none;"></path>
<path d="M 136,144 L 144,128 " style="fill:none;"></path>
<path d="M 176,64 C 155.2,64 155.2,96 176,96 " style="fill:none;"></path>
<path d="M 168,64 C 188.8,64 188.8,96 168,96 " style="fill:none;"></path>
<path d="M 176,128 C 155.2,128 155.2,160 176,160 " style="fill:none;"></path>
<path d="M 168,128 C 188.8,128 188.8,160 168,160 " style="fill:none;"></path>
<path d="M 32,224 C 15.2,224 16,240 16,240 " style="fill:none;"></path>
<path d="M 296,224 C 312.8,224 312,240 312,240 " style="fill:none;"></path>
<path d="M 32,288 C 15.2,288 16,272 16,272 " style="fill:none;"></path>
<path d="M 296,288 C 312.8,288 312,272 312,272 " style="fill:none;"></path>
<polygon points="208,144 196,138.4 196,149.6 " style="stroke:none" transform="rotate(180,200,144 )"></polygon>
<polygon points="208,80 196,74.4 196,85.6 " style="stroke:none" transform="rotate(180,200,80 )"></polygon>
<polygon points="176,32 164,26.4 164,37.6 " style="stroke:none" transform="rotate(90,168,32 )"></polygon>
<polygon points="168,176 156,170.4 156,181.6 " style="stroke:none" transform="rotate(270,160,176 )"></polygon>
<polygon points="152,176 140,170.4 140,181.6 " style="stroke:none" transform="rotate(270,144,176 )"></polygon>
<polygon points="152,32 140,26.4 140,37.6 " style="stroke:none" transform="rotate(90,144,32 )"></polygon>
<polygon points="128,144 116,138.4 116,149.6 " style="stroke:none" transform="rotate(0,120,144 )"></polygon>
<polygon points="128,80 116,74.4 116,85.6 " style="stroke:none" transform="rotate(0,120,80 )"></polygon>
<g transform="translate(0,0)"><text text-anchor="middle" x="88" y="20">E</text><text text-anchor="middle" x="96" y="20">y</text><text text-anchor="middle" x="104" y="20">e</text><text text-anchor="middle" x="112" y="20">s</text><text text-anchor="middle" x="200" y="20">L</text><text text-anchor="middle" x="208" y="20">e</text><text text-anchor="middle" x="216" y="20">n</text><text text-anchor="middle" x="224" y="20">s</text><text text-anchor="middle" x="232" y="20">e</text><text text-anchor="middle" x="240" y="20">s</text><text text-anchor="middle" x="144" y="84">)</text><text text-anchor="middle" x="96" y="116">1</text><text text-anchor="middle" x="224" y="116">2</text><text text-anchor="middle" x="144" y="148">)</text><text text-anchor="middle" x="152" y="212">3</text><text text-anchor="middle" x="32" y="244">1</text><text text-anchor="middle" x="40" y="244">.</text><text text-anchor="middle" x="56" y="244">I</text><text text-anchor="middle" x="64" y="244">n</text><text text-anchor="middle" x="72" y="244">t</text><text text-anchor="middle" x="80" y="244">e</text><text text-anchor="middle" x="88" y="244">r</text><text text-anchor="middle" x="104" y="244">P</text><text text-anchor="middle" x="112" y="244">u</text><text text-anchor="middle" x="120" y="244">p</text><text text-anchor="middle" x="128" y="244">i</text><text text-anchor="middle" x="136" y="244">l</text><text text-anchor="middle" x="144" y="244">l</text><text text-anchor="middle" x="152" y="244">a</text><text text-anchor="middle" x="160" y="244">r</text><text text-anchor="middle" x="168" y="244">y</text><text text-anchor="middle" x="184" y="244">D</text><text text-anchor="middle" x="192" y="244">i</text><text text-anchor="middle" x="200" y="244">s</text><text text-anchor="middle" x="208" y="244">t</text><text text-anchor="middle" x="216" y="244">a</text><text text-anchor="middle" x="224" y="244">n</text><text text-anchor="middle" x="232" y="244">c</text><text text-anchor="middle" x="240" y="244">e</text><text text-anchor="middle" x="256" y="244">(</text><text text-anchor="middle" x="264" y="244">I</text><text text-anchor="middle" x="272" y="244">P</text><text text-anchor="middle" x="280" y="244">D</text><text text-anchor="middle" x="288" y="244">)</text><text text-anchor="middle" x="32" y="260">2</text><text text-anchor="middle" x="40" y="260">.</text><text text-anchor="middle" x="56" y="260">I</text><text text-anchor="middle" x="64" y="260">n</text><text text-anchor="middle" x="72" y="260">t</text><text text-anchor="middle" x="80" y="260">e</text><text text-anchor="middle" x="88" y="260">r</text><text text-anchor="middle" x="104" y="260">A</text><text text-anchor="middle" x="112" y="260">x</text><text text-anchor="middle" x="120" y="260">i</text><text text-anchor="middle" x="128" y="260">a</text><text text-anchor="middle" x="136" y="260">l</text><text text-anchor="middle" x="152" y="260">D</text><text text-anchor="middle" x="160" y="260">i</text><text text-anchor="middle" x="168" y="260">s</text><text text-anchor="middle" x="176" y="260">t</text><text text-anchor="middle" x="184" y="260">a</text><text text-anchor="middle" x="192" y="260">n</text><text text-anchor="middle" x="200" y="260">c</text><text text-anchor="middle" x="208" y="260">e</text><text text-anchor="middle" x="224" y="260">(</text><text text-anchor="middle" x="232" y="260">I</text><text text-anchor="middle" x="240" y="260">A</text><text text-anchor="middle" x="248" y="260">D</text><text text-anchor="middle" x="256" y="260">)</text><text text-anchor="middle" x="32" y="276">3</text><text text-anchor="middle" x="40" y="276">.</text><text text-anchor="middle" x="56" y="276">E</text><text text-anchor="middle" x="64" y="276">y</text><text text-anchor="middle" x="72" y="276">e</text><text text-anchor="middle" x="88" y="276">R</text><text text-anchor="middle" x="96" y="276">e</text><text text-anchor="middle" x="104" y="276">l</text><text text-anchor="middle" x="112" y="276">i</text><text text-anchor="middle" x="120" y="276">e</text><text text-anchor="middle" x="128" y="276">f</text><text text-anchor="middle" x="144" y="276">(</text><text text-anchor="middle" x="152" y="276">E</text><text text-anchor="middle" x="160" y="276">R</text><text text-anchor="middle" x="168" y="276">)</text></g></g></svg>
