<?xml version="1.0" encoding="UTF-8" standalone="no"?>
<!-- Created with Inkscape (http://www.inkscape.org/) -->

<svg
   xmlns:dc="http://purl.org/dc/elements/1.1/"
   xmlns:cc="http://creativecommons.org/ns#"
   xmlns:rdf="http://www.w3.org/1999/02/22-rdf-syntax-ns#"
   xmlns:svg="http://www.w3.org/2000/svg"
   xmlns="http://www.w3.org/2000/svg"
   xmlns:sodipodi="http://sodipodi.sourceforge.net/DTD/sodipodi-0.dtd"
   xmlns:inkscape="http://www.inkscape.org/namespaces/inkscape"
   version="1.1"
   id="svg1344"
   xml:space="preserve"
   width="796.15997"
   height="488"
   viewBox="0 0 796.15997 488"
   sodipodi:docname="lifecycle.svg"
   inkscape:version="0.92.4 (5da689c313, 2019-01-14)"><metadata
     id="metadata1350"><rdf:RDF><cc:Work
         rdf:about=""><dc:format>image/svg+xml</dc:format><dc:type
           rdf:resource="http://purl.org/dc/dcmitype/StillImage" /><dc:title></dc:title></cc:Work></rdf:RDF></metadata><defs
     id="defs1348"><clipPath
       clipPathUnits="userSpaceOnUse"
       id="clipPath1360"><path
         d="M 0,0 H 2487.5 V 1523.6312 H 0 Z"
         id="path1358"
         inkscape:connector-curvature="0"
         style="clip-rule:evenodd" /></clipPath><clipPath
       clipPathUnits="userSpaceOnUse"
       id="clipPath1372"><path
         d="M 0,0 H 2487.5 V 1523.6312 H 0 Z"
         id="path1370"
         inkscape:connector-curvature="0"
         style="clip-rule:evenodd" /></clipPath></defs><sodipodi:namedview
     pagecolor="#ffffff"
     bordercolor="#666666"
     borderopacity="1"
     objecttolerance="10"
     gridtolerance="10"
     guidetolerance="10"
     inkscape:pageopacity="0"
     inkscape:pageshadow="2"
     inkscape:window-width="2560"
     inkscape:window-height="1376"
     id="namedview1346"
     showgrid="false"
     inkscape:zoom="1.5022107"
     inkscape:cx="217.94873"
     inkscape:cy="182.71298"
     inkscape:window-x="2560"
     inkscape:window-y="27"
     inkscape:window-maximized="1"
     inkscape:current-layer="g1352" /><g
     id="g1352"
     inkscape:groupmode="layer"
     inkscape:label="lifecycle"
     transform="matrix(0.31999998,0,0,0.31999998,0,1.22e-5)"><g
       id="g1354"><g
         id="g1356"
         clip-path="url(#clipPath1360)"><g
           id="g1362"
           transform="scale(2.9933815)"><path
             d="M 0,0 H 831 V 509 H 0 Z"
             style="fill:#ffffff;fill-opacity:1;fill-rule:nonzero;stroke:none"
             id="path1364"
             inkscape:connector-curvature="0" /></g></g></g><g
       id="g1366"><g
         id="g1368"
         clip-path="url(#clipPath1372)"><g
           id="g1374"
           transform="matrix(2.9933815,0,0,2.9933815,1.4966907,1.4966907)"><path
             d="M 151,196 66.769997,235.31"
             style="fill:none;stroke:#000000;stroke-width:1;stroke-linecap:butt;stroke-linejoin:miter;stroke-miterlimit:10;stroke-dasharray:none;stroke-opacity:1"
             id="path1376"
             inkscape:connector-curvature="0" /><path
             d="m 62.009998,237.53 4.869999,-6.13001 -0.11,3.91001 3.069999,2.43001 z"
             style="fill:#000000;fill-opacity:1;fill-rule:nonzero;stroke:none"
             id="path1378"
             inkscape:connector-curvature="0" /><path
             d="m 62.009998,237.53 4.869999,-6.13001 -0.11,3.91001 3.069999,2.43001 z"
             style="fill:none;stroke:#000000;stroke-width:1;stroke-linecap:butt;stroke-linejoin:miter;stroke-miterlimit:10;stroke-dasharray:none;stroke-opacity:1"
             id="path1380"
             inkscape:connector-curvature="0" /></g><g
           id="g1382"
           transform="matrix(2.9933815,0,0,2.9933815,107.76173,637.59027)"><path
             d="M 0,0 H 109 V 13 H 0 Z"
             style="fill:#ffffff;fill-opacity:1;fill-rule:nonzero;stroke:none"
             id="path1384"
             inkscape:connector-curvature="0" /><text
             transform="translate(0,10)"
             style="font-variant:normal;font-weight:normal;font-size:11px;font-family:TimesNewRomanPSMT;-inkscape-font-specification:TimesNewRomanPSMT;writing-mode:lr-tb;fill:#000000;fill-opacity:1;fill-rule:nonzero;stroke:none"
             id="text1388"><tspan
               x="0 3.6630859 9.1630859 14.663086 17.719238 20.775391 29.331543 34.213867 37.27002 40.02002 44.300781 49.183105 53.463867 57.744629 60.800781 66.300781 71.800781 74.550781 77.606934 81.887695 84.637695 88.300781 93.183105 98.06543 103.56543"
               y="0"
               sodipodi:role="line"
               id="tspan1386">runtime:	session	is	ready</tspan></text>
</g><g
           id="g1390"
           transform="matrix(2.9933815,0,0,2.9933815,1.4966907,1.4966907)"><path
             d="M 271,183 H 438.63"
             style="fill:none;stroke:#000000;stroke-width:1;stroke-linecap:butt;stroke-linejoin:miter;stroke-miterlimit:10;stroke-dasharray:none;stroke-opacity:1"
             id="path1392"
             inkscape:connector-curvature="0" /><path
             d="m 443.88,183 -7,3.5 1.75,-3.5 -1.75,-3.5 z"
             style="fill:#000000;fill-opacity:1;fill-rule:nonzero;stroke:none"
             id="path1394"
             inkscape:connector-curvature="0" /><path
             d="m 443.88,183 -7,3.5 1.75,-3.5 -1.75,-3.5 z"
             style="fill:none;stroke:#000000;stroke-width:1;stroke-linecap:butt;stroke-linejoin:miter;stroke-miterlimit:10;stroke-dasharray:none;stroke-opacity:1"
             id="path1396"
             inkscape:connector-curvature="0" /></g><g
           id="g1398"
           transform="matrix(2.9933815,0,0,2.9933815,1020.7431,472.95428)"><path
             d="M 0,0 H 41 V 13 H 0 Z"
             style="fill:#ffffff;fill-opacity:1;fill-rule:nonzero;stroke:none"
             id="path1400"
             inkscape:connector-curvature="0" /><text
             transform="translate(0,10)"
             style="font-variant:normal;font-weight:normal;font-size:11px;font-family:TimesNewRomanPSMT;-inkscape-font-specification:TimesNewRomanPSMT;writing-mode:lr-tb;fill:#000000;fill-opacity:1;fill-rule:nonzero;stroke:none"
             id="text1404"><tspan
               x="0 5.5 9.7807617 14.663086 18.326172 21.382324 24.132324 29.632324 35.132324 38.188477"
               y="0"
               sodipodi:role="line"
               id="tspan1402">user:	quit</tspan></text>
</g><g
           id="g1406"
           transform="matrix(2.9933815,0,0,2.9933815,1.4966907,1.4966907)"><path
             d="m 158.5,158 h 105 c 0.49246,0 0.98016,0.048 1.46317,0.1441 0.48297,0.0961 0.95193,0.23833 1.40692,0.42679 0.45498,0.18846 0.88717,0.41948 1.29663,0.69307 0.40948,0.27361 0.78833,0.5845 1.13656,0.93273 0.34821,0.34822 0.65909,0.72705 0.93268,1.13652 0.27359,0.40945 0.50464,0.84167 0.69309,1.29664 0.18844,0.45497 0.33072,0.92397 0.42682,1.40695 0.0961,0.48299 0.1441,0.97072 0.14413,1.4632 v 35 c -3e-5,0.49245 -0.0481,0.98016 -0.14413,1.46315 -0.0961,0.483 -0.23838,0.95198 -0.42682,1.40695 -0.18845,0.45497 -0.4195,0.88718 -0.69309,1.29665 -0.27359,0.40945 -0.58447,0.7883 -0.93268,1.13652 -0.34823,0.34822 -0.72708,0.65912 -1.13653,0.93269 -0.40946,0.27361 -0.84168,0.50463 -1.29666,0.69309 -0.45499,0.18846 -0.92395,0.33073 -1.40692,0.42682 -0.48301,0.0961 -0.97071,0.14411 -1.46317,0.14413 h -105 c -0.49246,-2e-5 -0.98019,-0.0481 -1.46318,-0.14413 -0.48302,-0.0961 -0.952,-0.23835 -1.40697,-0.42681 -0.45497,-0.18846 -0.88717,-0.41948 -1.29664,-0.69308 -0.40946,-0.27359 -0.78829,-0.58449 -1.13651,-0.93271 -0.34822,-0.34822 -0.65913,-0.72707 -0.93274,-1.13652 -0.27359,-0.40947 -0.50461,-0.84169 -0.69307,-1.29666 -0.18846,-0.45496 -0.33072,-0.92394 -0.42679,-1.40694 C 151.04803,201.48016 151,200.99245 151,200.5 v -35 c 0,-0.49248 0.048,-0.98021 0.1441,-1.4632 0.0961,-0.48298 0.23833,-0.95198 0.42679,-1.40695 0.18846,-0.45497 0.41948,-0.88719 0.69307,-1.29664 0.27361,-0.40947 0.58452,-0.7883 0.93274,-1.13652 0.34822,-0.34823 0.72705,-0.65912 1.13649,-0.93273 0.40947,-0.27359 0.84169,-0.50461 1.29666,-0.69307 0.45497,-0.18846 0.92395,-0.33072 1.40697,-0.42679 C 157.51981,158.04803 158.00754,158 158.5,158 Z"
             style="fill:#ffffff;fill-opacity:1;fill-rule:nonzero;stroke:none"
             id="path1408"
             inkscape:connector-curvature="0" /><path
             d="m 158.5,158 h 105 c 0.49246,0 0.98016,0.048 1.46317,0.1441 0.48297,0.0961 0.95193,0.23833 1.40692,0.42679 0.45498,0.18846 0.88717,0.41948 1.29663,0.69307 0.40948,0.27361 0.78833,0.5845 1.13656,0.93273 0.34821,0.34822 0.65909,0.72705 0.93268,1.13652 0.27359,0.40945 0.50464,0.84167 0.69309,1.29664 0.18844,0.45497 0.33072,0.92397 0.42682,1.40695 0.0961,0.48299 0.1441,0.97072 0.14413,1.4632 v 35 c -3e-5,0.49245 -0.0481,0.98016 -0.14413,1.46315 -0.0961,0.483 -0.23838,0.95198 -0.42682,1.40695 -0.18845,0.45497 -0.4195,0.88718 -0.69309,1.29665 -0.27359,0.40945 -0.58447,0.7883 -0.93268,1.13652 -0.34823,0.34822 -0.72708,0.65912 -1.13653,0.93269 -0.40946,0.27361 -0.84168,0.50463 -1.29666,0.69309 -0.45499,0.18846 -0.92395,0.33073 -1.40692,0.42682 -0.48301,0.0961 -0.97071,0.14411 -1.46317,0.14413 h -105 c -0.49246,-2e-5 -0.98019,-0.0481 -1.46318,-0.14413 -0.48302,-0.0961 -0.952,-0.23835 -1.40697,-0.42681 -0.45497,-0.18846 -0.88717,-0.41948 -1.29664,-0.69308 -0.40946,-0.27359 -0.78829,-0.58449 -1.13651,-0.93271 -0.34822,-0.34822 -0.65913,-0.72707 -0.93274,-1.13652 -0.27359,-0.40947 -0.50461,-0.84169 -0.69307,-1.29666 -0.18846,-0.45496 -0.33072,-0.92394 -0.42679,-1.40694 C 151.04803,201.48016 151,200.99245 151,200.5 v -35 c 0,-0.49248 0.048,-0.98021 0.1441,-1.4632 0.0961,-0.48298 0.23833,-0.95198 0.42679,-1.40695 0.18846,-0.45497 0.41948,-0.88719 0.69307,-1.29664 0.27361,-0.40947 0.58452,-0.7883 0.93274,-1.13652 0.34822,-0.34823 0.72705,-0.65912 1.13649,-0.93273 0.40947,-0.27359 0.84169,-0.50461 1.29666,-0.69307 0.45497,-0.18846 0.92395,-0.33072 1.40697,-0.42679 C 157.51981,158.04803 158.00754,158 158.5,158 Z"
             style="fill:none;stroke:#000000;stroke-width:1;stroke-linecap:butt;stroke-linejoin:miter;stroke-miterlimit:10;stroke-dasharray:none;stroke-opacity:1"
             id="path1410"
             inkscape:connector-curvature="0" /></g><g
           id="g1412"
           transform="matrix(2.9933815,0,0,2.9933815,589.69617,529.82855)"><text
             transform="translate(0.328125,11)"
             style="font-variant:normal;font-weight:normal;font-size:12px;font-family:TimesNewRomanPSMT;-inkscape-font-specification:TimesNewRomanPSMT;writing-mode:lr-tb;fill:#000000;fill-opacity:1;fill-rule:nonzero;stroke:none"
             id="text1416"><tspan
               x="0 3.9960938 12.662109 19.992188"
               y="0"
               sodipodi:role="line"
               id="tspan1414">IDLE</tspan></text>
</g><g
           id="g1418"
           transform="matrix(2.9933815,0,0,2.9933815,1.4966907,1.4966907)"><path
             d="m 211,88 v 63.63"
             style="fill:none;stroke:#000000;stroke-width:1;stroke-linecap:butt;stroke-linejoin:miter;stroke-miterlimit:10;stroke-dasharray:none;stroke-opacity:1"
             id="path1420"
             inkscape:connector-curvature="0" /><path
             d="m 211,156.88 -3.5,-7 3.5,1.75 3.5,-1.75 z"
             style="fill:#000000;fill-opacity:1;fill-rule:nonzero;stroke:none"
             id="path1422"
             inkscape:connector-curvature="0" /><path
             d="m 211,156.88 -3.5,-7 3.5,1.75 3.5,-1.75 z"
             style="fill:none;stroke:#000000;stroke-width:1;stroke-linecap:butt;stroke-linejoin:miter;stroke-miterlimit:10;stroke-dasharray:none;stroke-opacity:1"
             id="path1424"
             inkscape:connector-curvature="0" /></g><g
           id="g1426"
           transform="matrix(2.9933815,0,0,2.9933815,526.83514,332.26535)"><path
             d="M 0,0 H 71 V 26 H 0 Z"
             style="fill:#ffffff;fill-opacity:1;fill-rule:nonzero;stroke:none"
             id="path1428"
             inkscape:connector-curvature="0" /><text
             transform="translate(7.015625,10)"
             style="font-variant:normal;font-weight:normal;font-size:11px;font-family:TimesNewRomanPSMT;-inkscape-font-specification:TimesNewRomanPSMT;writing-mode:lr-tb;fill:#000000;fill-opacity:1;fill-rule:nonzero;stroke:none"
             id="text1432"><tspan
               x="0 5.5 9.1630859 17.106934 21.989258 25.04541 31.163086 36.663086 40.943848 44 48.882324"
               y="0"
               sodipodi:role="line"
               id="tspan1430">xrGetSystem</tspan></text>
<text
             transform="translate(0,23)"
             style="font-variant:normal;font-weight:normal;font-size:11px;font-family:TimesNewRomanPSMT;-inkscape-font-specification:TimesNewRomanPSMT;writing-mode:lr-tb;fill:#000000;fill-opacity:1;fill-rule:nonzero;stroke:none"
             id="text1436"><tspan
               x="0 5.5 9.1630859 16.5 20.163086 25.04541 29.927734 32.983887 37.866211 43.983887 48.866211 53.146973 57.427734 60.483887 65.983887"
               y="0"
               sodipodi:role="line"
               id="tspan1434">xrCreateSession</tspan></text>
</g><g
           id="g1438"
           transform="matrix(2.9933815,0,0,2.9933815,1.4966907,1.4966907)"><path
             d="m 61,288 84.38,45"
             style="fill:none;stroke:#000000;stroke-width:1;stroke-linecap:butt;stroke-linejoin:miter;stroke-miterlimit:10;stroke-dasharray:none;stroke-opacity:1"
             id="path1440"
             inkscape:connector-curvature="0" /><path
             d="M 150.00999,335.47 142.19,335.26999 145.38,333 l 0.1,-3.91 z"
             style="fill:#000000;fill-opacity:1;fill-rule:nonzero;stroke:none"
             id="path1442"
             inkscape:connector-curvature="0" /><path
             d="M 150.00999,335.47 142.19,335.26999 145.38,333 l 0.1,-3.91 z"
             style="fill:none;stroke:#000000;stroke-width:1;stroke-linecap:butt;stroke-linejoin:miter;stroke-miterlimit:10;stroke-dasharray:none;stroke-opacity:1"
             id="path1444"
             inkscape:connector-curvature="0" /></g><g
           id="g1446"
           transform="matrix(2.9933815,0,0,2.9933815,104.76836,874.06738)"><path
             d="M 0,0 H 69 V 13 H 0 Z"
             style="fill:#ffffff;fill-opacity:1;fill-rule:nonzero;stroke:none"
             id="path1448"
             inkscape:connector-curvature="0" /><text
             transform="translate(0,10)"
             style="font-variant:normal;font-weight:normal;font-size:11px;font-family:TimesNewRomanPSMT;-inkscape-font-specification:TimesNewRomanPSMT;writing-mode:lr-tb;fill:#000000;fill-opacity:1;fill-rule:nonzero;stroke:none"
             id="text1452"><tspan
               x="0 5.5 9.1630859 16.5 21.382324 26.882324 29.938477 35.438477 41.556152 46.438477 50.719238 55 58.056152 63.556152"
               y="0"
               sodipodi:role="line"
               id="tspan1450">xrBeginSession</tspan></text>
</g><g
           id="g1454"
           transform="matrix(2.9933815,0,0,2.9933815,1.4966907,1.4966907)"><path
             d="m 8.5,238 h 105 c 0.49246,0 0.98018,0.048 1.46317,0.1441 0.48299,0.0961 0.95197,0.23835 1.40694,0.42679 0.45498,0.18846 0.88719,0.41948 1.29665,0.69307 0.40947,0.27359 0.78831,0.5845 1.13653,0.93273 0.34822,0.34822 0.65912,0.72705 0.93272,1.1365 0.2736,0.40947 0.50462,0.84169 0.69308,1.29666 0.18845,0.45497 0.33071,0.92397 0.42679,1.40695 0.0961,0.48299 0.14412,0.97072 0.14412,1.4632 v 35 c 0,0.49243 -0.048,0.98013 -0.14412,1.46313 -0.0961,0.48301 -0.23834,0.95197 -0.42679,1.40693 -0.18846,0.45498 -0.41948,0.8872 -0.69308,1.29666 -0.2736,0.40948 -0.5845,0.78833 -0.93272,1.13656 -0.34822,0.34821 -0.72706,0.65912 -1.13653,0.93271 -0.40946,0.27362 -0.84167,0.50464 -1.29665,0.69309 -0.45497,0.18844 -0.92395,0.33069 -1.40694,0.42679 -0.48299,0.0961 -0.97071,0.1441 -1.46317,0.14413 H 8.5 c -0.4924574,-3e-5 -0.9801836,-0.0481 -1.4631782,-0.14413 -0.4829945,-0.0961 -0.9519772,-0.23835 -1.406948,-0.42679 -0.4549709,-0.18845 -0.887188,-0.41947 -1.2966509,-0.69309 -0.4094632,-0.27359 -0.7883046,-0.5845 -1.136524,-0.93271 C 2.8484793,285.45505 2.5375719,285.0762 2.2639773,284.66672 1.990383,284.25726 1.7593584,283.82504 1.5709033,283.37006 1.3824482,282.9151 1.2401838,282.44614 1.1441102,281.96313 1.0480367,281.48013 0.99999994,280.99243 1,280.5 v -35 c -6e-8,-0.49248 0.048037,-0.98021 0.1441102,-1.4632 0.096074,-0.48298 0.238338,-0.95198 0.4267931,-1.40695 0.1884551,-0.45497 0.4194798,-0.88719 0.6930742,-1.29666 0.2735946,-0.40945 0.5845018,-0.78828 0.9327214,-1.1365 0.3482194,-0.34823 0.7270608,-0.65914 1.136524,-0.93273 0.4094629,-0.27359 0.84168,-0.50461 1.2966509,-0.69307 0.4549708,-0.18844 0.9239535,-0.3307 1.406948,-0.42679 C 7.5198164,238.04803 8.0075426,238 8.5,238 Z"
             style="fill:#ffffff;fill-opacity:1;fill-rule:nonzero;stroke:none"
             id="path1456"
             inkscape:connector-curvature="0" /><path
             d="m 8.5,238 h 105 c 0.49246,0 0.98018,0.048 1.46317,0.1441 0.48299,0.0961 0.95197,0.23835 1.40694,0.42679 0.45498,0.18846 0.88719,0.41948 1.29665,0.69307 0.40947,0.27359 0.78831,0.5845 1.13653,0.93273 0.34822,0.34822 0.65912,0.72705 0.93272,1.1365 0.2736,0.40947 0.50462,0.84169 0.69308,1.29666 0.18845,0.45497 0.33071,0.92397 0.42679,1.40695 0.0961,0.48299 0.14412,0.97072 0.14412,1.4632 v 35 c 0,0.49243 -0.048,0.98013 -0.14412,1.46313 -0.0961,0.48301 -0.23834,0.95197 -0.42679,1.40693 -0.18846,0.45498 -0.41948,0.8872 -0.69308,1.29666 -0.2736,0.40948 -0.5845,0.78833 -0.93272,1.13656 -0.34822,0.34821 -0.72706,0.65912 -1.13653,0.93271 -0.40946,0.27362 -0.84167,0.50464 -1.29665,0.69309 -0.45497,0.18844 -0.92395,0.33069 -1.40694,0.42679 -0.48299,0.0961 -0.97071,0.1441 -1.46317,0.14413 H 8.5 c -0.4924574,-3e-5 -0.9801836,-0.0481 -1.4631782,-0.14413 -0.4829945,-0.0961 -0.9519772,-0.23835 -1.406948,-0.42679 -0.4549709,-0.18845 -0.887188,-0.41947 -1.2966509,-0.69309 -0.4094632,-0.27359 -0.7883046,-0.5845 -1.136524,-0.93271 C 2.8484793,285.45505 2.5375719,285.0762 2.2639773,284.66672 1.990383,284.25726 1.7593584,283.82504 1.5709033,283.37006 1.3824482,282.9151 1.2401838,282.44614 1.1441102,281.96313 1.0480367,281.48013 0.99999994,280.99243 1,280.5 v -35 c -6e-8,-0.49248 0.048037,-0.98021 0.1441102,-1.4632 0.096074,-0.48298 0.238338,-0.95198 0.4267931,-1.40695 0.1884551,-0.45497 0.4194798,-0.88719 0.6930742,-1.29666 0.2735946,-0.40945 0.5845018,-0.78828 0.9327214,-1.1365 0.3482194,-0.34823 0.7270608,-0.65914 1.136524,-0.93273 0.4094629,-0.27359 0.84168,-0.50461 1.2966509,-0.69307 0.4549708,-0.18844 0.9239535,-0.3307 1.406948,-0.42679 C 7.5198164,238.04803 8.0075426,238 8.5,238 Z"
             style="fill:none;stroke:#000000;stroke-width:1;stroke-linecap:butt;stroke-linejoin:miter;stroke-miterlimit:10;stroke-dasharray:none;stroke-opacity:1"
             id="path1458"
             inkscape:connector-curvature="0" /></g><g
           id="g1460"
           transform="matrix(2.9933815,0,0,2.9933815,119.73526,769.29907)"><text
             transform="translate(0.328125,11)"
             style="font-variant:normal;font-weight:normal;font-size:12px;font-family:TimesNewRomanPSMT;-inkscape-font-specification:TimesNewRomanPSMT;writing-mode:lr-tb;fill:#000000;fill-opacity:1;fill-rule:nonzero;stroke:none"
             id="text1464"><tspan
               x="0 8.0039062 15.333984 24 32.666016"
               y="0"
               sodipodi:role="line"
               id="tspan1462">READY</tspan></text>
</g><g
           id="g1466"
           transform="matrix(2.9933815,0,0,2.9933815,1.4966907,1.4966907)"><path
             d="m 271,336 93.26999,-45.22"
             style="fill:none;stroke:#000000;stroke-width:1;stroke-linecap:butt;stroke-linejoin:miter;stroke-miterlimit:10;stroke-dasharray:none;stroke-opacity:1"
             id="path1468"
             inkscape:connector-curvature="0" /><path
             d="M 368.98999,288.48999 364.22,294.69 l 0.05,-3.91 -3.09998,-2.38999 7.81998,0.1 z"
             style="fill:#000000;fill-opacity:1;fill-rule:nonzero;stroke:none"
             id="path1470"
             inkscape:connector-curvature="0" /><path
             d="M 368.98999,288.48999 364.22,294.69 l 0.05,-3.91 -3.09998,-2.38999 7.81998,0.1 z"
             style="fill:none;stroke:#000000;stroke-width:1;stroke-linecap:butt;stroke-linejoin:miter;stroke-miterlimit:10;stroke-dasharray:none;stroke-opacity:1"
             id="path1472"
             inkscape:connector-curvature="0" /></g><g
           id="g1474"
           transform="matrix(2.9933815,0,0,2.9933815,880.05414,904.00122)"><path
             d="M 0,0 H 93 V 13 H 0 Z"
             style="fill:#ffffff;fill-opacity:1;fill-rule:nonzero;stroke:none"
             id="path1476"
             inkscape:connector-curvature="0" /><text
             transform="translate(0,10)"
             style="font-variant:normal;font-weight:normal;font-size:11px;font-family:TimesNewRomanPSMT;-inkscape-font-specification:TimesNewRomanPSMT;writing-mode:lr-tb;fill:#000000;fill-opacity:1;fill-rule:nonzero;stroke:none"
             id="text1480"><tspan
               x="0 3.6630859 9.1630859 14.663086 17.719238 20.775391 29.331543 34.213867 37.27002 40.02002 44.300781 47.356934 52.856934 58.356934 61.106934 65.387695 70.27002 74.550781 78.831543 81.887695 87.387695"
               y="0"
               sodipodi:role="line"
               id="tspan1478">runtime:	stop	session</tspan></text>
</g><g
           id="g1482"
           transform="matrix(2.9933815,0,0,2.9933815,1.4966907,1.4966907)"><path
             d="m 181,373 v 13.63"
             style="fill:none;stroke:#000000;stroke-width:1;stroke-linecap:butt;stroke-linejoin:miter;stroke-miterlimit:10;stroke-dasharray:none;stroke-opacity:1"
             id="path1484"
             inkscape:connector-curvature="0" /><path
             d="m 181,391.88 -3.5,-7 3.5,1.75 3.5,-1.75 z"
             style="fill:#000000;fill-opacity:1;fill-rule:nonzero;stroke:none"
             id="path1486"
             inkscape:connector-curvature="0" /><path
             d="m 181,391.88 -3.5,-7 3.5,1.75 3.5,-1.75 z"
             style="fill:none;stroke:#000000;stroke-width:1;stroke-linecap:butt;stroke-linejoin:miter;stroke-miterlimit:10;stroke-dasharray:none;stroke-opacity:1"
             id="path1488"
             inkscape:connector-curvature="0" /><path
             d="m 158.5,323 h 105 c 0.49246,0 0.98016,0.048 1.46317,0.1441 0.48297,0.096 0.95193,0.23832 1.40692,0.42676 0.45498,0.18845 0.88717,0.4195 1.29663,0.69309 0.40948,0.27359 0.78833,0.5845 1.13656,0.93274 0.34821,0.34823 0.65909,0.72705 0.93268,1.1365 0.27359,0.40946 0.50464,0.84168 0.69309,1.29666 0.18844,0.45496 0.33072,0.92395 0.42682,1.40695 0.0961,0.48301 0.1441,0.97074 0.14413,1.4632 v 35 c -3e-5,0.49246 -0.0481,0.98016 -0.14413,1.46317 -0.0961,0.483 -0.23838,0.95196 -0.42682,1.40692 -0.18845,0.45498 -0.4195,0.8872 -0.69309,1.29666 -0.27359,0.40945 -0.58447,0.7883 -0.93268,1.13653 -0.34823,0.34824 -0.72708,0.65912 -1.13653,0.93271 -0.40946,0.27359 -0.84168,0.50464 -1.29666,0.69309 -0.45499,0.18844 -0.92395,0.33072 -1.40692,0.42679 -0.48301,0.0961 -0.97071,0.1441 -1.46317,0.14413 h -105 c -0.49246,-3e-5 -0.98019,-0.0481 -1.46318,-0.14413 -0.48302,-0.0961 -0.952,-0.23835 -1.40697,-0.42682 -0.45497,-0.18845 -0.88717,-0.41947 -1.29664,-0.69306 -0.40946,-0.27359 -0.78829,-0.58447 -1.13651,-0.93271 -0.34822,-0.34823 -0.65913,-0.72708 -0.93274,-1.13653 -0.27359,-0.40946 -0.50461,-0.84168 -0.69307,-1.29666 -0.18846,-0.45496 -0.33072,-0.92392 -0.42679,-1.40692 C 151.04803,366.48016 151,365.99246 151,365.5 v -35 c 0,-0.49246 0.048,-0.98019 0.1441,-1.4632 0.0961,-0.483 0.23833,-0.95199 0.42679,-1.40695 0.18846,-0.45498 0.41948,-0.8872 0.69307,-1.29666 0.27361,-0.40945 0.58452,-0.78827 0.93274,-1.1365 0.34822,-0.34824 0.72705,-0.65915 1.13649,-0.93274 0.40947,-0.27359 0.84169,-0.50464 1.29666,-0.69309 0.45497,-0.18844 0.92395,-0.33072 1.40697,-0.42676 C 157.51981,323.04803 158.00754,323 158.5,323 Z"
             style="fill:#ffffff;fill-opacity:1;fill-rule:nonzero;stroke:none"
             id="path1490"
             inkscape:connector-curvature="0" /><path
             d="m 158.5,323 h 105 c 0.49246,0 0.98016,0.048 1.46317,0.1441 0.48297,0.096 0.95193,0.23832 1.40692,0.42676 0.45498,0.18845 0.88717,0.4195 1.29663,0.69309 0.40948,0.27359 0.78833,0.5845 1.13656,0.93274 0.34821,0.34823 0.65909,0.72705 0.93268,1.1365 0.27359,0.40946 0.50464,0.84168 0.69309,1.29666 0.18844,0.45496 0.33072,0.92395 0.42682,1.40695 0.0961,0.48301 0.1441,0.97074 0.14413,1.4632 v 35 c -3e-5,0.49246 -0.0481,0.98016 -0.14413,1.46317 -0.0961,0.483 -0.23838,0.95196 -0.42682,1.40692 -0.18845,0.45498 -0.4195,0.8872 -0.69309,1.29666 -0.27359,0.40945 -0.58447,0.7883 -0.93268,1.13653 -0.34823,0.34824 -0.72708,0.65912 -1.13653,0.93271 -0.40946,0.27359 -0.84168,0.50464 -1.29666,0.69309 -0.45499,0.18844 -0.92395,0.33072 -1.40692,0.42679 -0.48301,0.0961 -0.97071,0.1441 -1.46317,0.14413 h -105 c -0.49246,-3e-5 -0.98019,-0.0481 -1.46318,-0.14413 -0.48302,-0.0961 -0.952,-0.23835 -1.40697,-0.42682 -0.45497,-0.18845 -0.88717,-0.41947 -1.29664,-0.69306 -0.40946,-0.27359 -0.78829,-0.58447 -1.13651,-0.93271 -0.34822,-0.34823 -0.65913,-0.72708 -0.93274,-1.13653 -0.27359,-0.40946 -0.50461,-0.84168 -0.69307,-1.29666 -0.18846,-0.45496 -0.33072,-0.92392 -0.42679,-1.40692 C 151.04803,366.48016 151,365.99246 151,365.5 v -35 c 0,-0.49246 0.048,-0.98019 0.1441,-1.4632 0.0961,-0.483 0.23833,-0.95199 0.42679,-1.40695 0.18846,-0.45498 0.41948,-0.8872 0.69307,-1.29666 0.27361,-0.40945 0.58452,-0.78827 0.93274,-1.1365 0.34822,-0.34824 0.72705,-0.65915 1.13649,-0.93274 0.40947,-0.27359 0.84169,-0.50464 1.29666,-0.69309 0.45497,-0.18844 0.92395,-0.33072 1.40697,-0.42676 C 157.51981,323.04803 158.00754,323 158.5,323 Z"
             style="fill:none;stroke:#000000;stroke-width:1;stroke-linecap:butt;stroke-linejoin:miter;stroke-miterlimit:10;stroke-dasharray:none;stroke-opacity:1"
             id="path1492"
             inkscape:connector-curvature="0" /></g><g
           id="g1494"
           transform="matrix(2.9933815,0,0,2.9933815,490.91455,1023.7364)"><text
             transform="translate(0.328125,11)"
             style="font-variant:normal;font-weight:normal;font-size:12px;font-family:TimesNewRomanPSMT;-inkscape-font-specification:TimesNewRomanPSMT;writing-mode:lr-tb;fill:#000000;fill-opacity:1;fill-rule:nonzero;stroke:none"
             id="text1498"><tspan
               x="0 6.6738281 15.339844 24.005859 32.009766 40.675781 48.679688 57.345703 66.011719 70.007812 77.337891 84.667969"
               y="0"
               sodipodi:role="line"
               id="tspan1496">SYNCHRONIZED</tspan></text>
</g><g
           id="g1500"
           transform="matrix(2.9933815,0,0,2.9933815,1.4966907,1.4966907)"><path
             d="m 317.5,238 h 105 c 0.49246,0 0.98016,0.048 1.46317,0.1441 0.48294,0.0961 0.9519,0.23835 1.40689,0.42679 0.45498,0.18846 0.88717,0.41948 1.29663,0.69307 0.40951,0.27359 0.78836,0.5845 1.13659,0.93273 0.34821,0.34822 0.65912,0.72705 0.93271,1.1365 0.27359,0.40947 0.50461,0.84169 0.69306,1.29666 0.18844,0.45497 0.33072,0.92397 0.42678,1.40695 0.0961,0.48299 0.14417,0.97072 0.14417,1.4632 v 35 c 0,0.49243 -0.048,0.98013 -0.14413,1.46313 -0.0961,0.48301 -0.23838,0.95197 -0.42682,1.40693 -0.18845,0.45498 -0.4195,0.8872 -0.69309,1.29666 -0.27359,0.40948 -0.58447,0.78833 -0.93268,1.13656 -0.34823,0.34821 -0.72708,0.65912 -1.13659,0.93271 -0.40946,0.27362 -0.84165,0.50464 -1.29663,0.69309 -0.45499,0.18844 -0.92395,0.33069 -1.40693,0.42679 -0.48297,0.0961 -0.97067,0.1441 -1.46313,0.14413 h -105 c -0.49246,-3e-5 -0.98016,-0.0481 -1.46317,-0.14413 -0.483,-0.0961 -0.95199,-0.23835 -1.40698,-0.42679 -0.45498,-0.18845 -0.8872,-0.41947 -1.29669,-0.69309 -0.40945,-0.27359 -0.78827,-0.5845 -1.13647,-0.93271 -0.34824,-0.34823 -0.65912,-0.72708 -0.93271,-1.13656 -0.27359,-0.40946 -0.50464,-0.84168 -0.69309,-1.29666 -0.18844,-0.45496 -0.33069,-0.92392 -0.42676,-1.40693 C 310.04803,281.48013 310,280.99243 310,280.5 v -35 c 0,-0.49248 0.048,-0.98021 0.14413,-1.4632 0.0961,-0.48298 0.23832,-0.95198 0.42676,-1.40695 0.18845,-0.45497 0.41947,-0.88719 0.69306,-1.29666 0.27359,-0.40945 0.5845,-0.78828 0.93274,-1.1365 0.3482,-0.34823 0.72705,-0.65914 1.1365,-0.93273 0.40946,-0.27359 0.84168,-0.50461 1.29666,-0.69307 0.45499,-0.18844 0.92398,-0.3307 1.40698,-0.42679 C 316.51984,238.04803 317.00754,238 317.5,238 Z"
             style="fill:#ffffff;fill-opacity:1;fill-rule:nonzero;stroke:none"
             id="path1502"
             inkscape:connector-curvature="0" /><path
             d="m 317.5,238 h 105 c 0.49246,0 0.98016,0.048 1.46317,0.1441 0.48294,0.0961 0.9519,0.23835 1.40689,0.42679 0.45498,0.18846 0.88717,0.41948 1.29663,0.69307 0.40951,0.27359 0.78836,0.5845 1.13659,0.93273 0.34821,0.34822 0.65912,0.72705 0.93271,1.1365 0.27359,0.40947 0.50461,0.84169 0.69306,1.29666 0.18844,0.45497 0.33072,0.92397 0.42678,1.40695 0.0961,0.48299 0.14417,0.97072 0.14417,1.4632 v 35 c 0,0.49243 -0.048,0.98013 -0.14413,1.46313 -0.0961,0.48301 -0.23838,0.95197 -0.42682,1.40693 -0.18845,0.45498 -0.4195,0.8872 -0.69309,1.29666 -0.27359,0.40948 -0.58447,0.78833 -0.93268,1.13656 -0.34823,0.34821 -0.72708,0.65912 -1.13659,0.93271 -0.40946,0.27362 -0.84165,0.50464 -1.29663,0.69309 -0.45499,0.18844 -0.92395,0.33069 -1.40693,0.42679 -0.48297,0.0961 -0.97067,0.1441 -1.46313,0.14413 h -105 c -0.49246,-3e-5 -0.98016,-0.0481 -1.46317,-0.14413 -0.483,-0.0961 -0.95199,-0.23835 -1.40698,-0.42679 -0.45498,-0.18845 -0.8872,-0.41947 -1.29669,-0.69309 -0.40945,-0.27359 -0.78827,-0.5845 -1.13647,-0.93271 -0.34824,-0.34823 -0.65912,-0.72708 -0.93271,-1.13656 -0.27359,-0.40946 -0.50464,-0.84168 -0.69309,-1.29666 -0.18844,-0.45496 -0.33069,-0.92392 -0.42676,-1.40693 C 310.04803,281.48013 310,280.99243 310,280.5 v -35 c 0,-0.49248 0.048,-0.98021 0.14413,-1.4632 0.0961,-0.48298 0.23832,-0.95198 0.42676,-1.40695 0.18845,-0.45497 0.41947,-0.88719 0.69306,-1.29666 0.27359,-0.40945 0.5845,-0.78828 0.93274,-1.1365 0.3482,-0.34823 0.72705,-0.65914 1.1365,-0.93273 0.40946,-0.27359 0.84168,-0.50461 1.29666,-0.69307 0.45499,-0.18844 0.92398,-0.3307 1.40698,-0.42679 C 316.51984,238.04803 317.00754,238 317.5,238 Z"
             style="fill:none;stroke:#000000;stroke-width:1;stroke-linecap:butt;stroke-linejoin:miter;stroke-miterlimit:10;stroke-dasharray:none;stroke-opacity:1"
             id="path1504"
             inkscape:connector-curvature="0" /></g><g
           id="g1506"
           transform="matrix(2.9933815,0,0,2.9933815,1020.7431,769.29907)"><text
             transform="translate(0.421875,11)"
             style="font-variant:normal;font-weight:normal;font-size:12px;font-family:TimesNewRomanPSMT;-inkscape-font-specification:TimesNewRomanPSMT;writing-mode:lr-tb;fill:#000000;fill-opacity:1;fill-rule:nonzero;stroke:none"
             id="text1510"><tspan
               x="0 6.6738281 13.787109 22.453125 29.126953 35.800781 39.796875 48.462891"
               y="0"
               sodipodi:role="line"
               id="tspan1508">STOPPING</tspan></text>
</g><g
           id="g1512"
           transform="matrix(2.9933815,0,0,2.9933815,1.4966907,1.4966907)"><path
             d="m 505,208 74.71002,123.54999"
             style="fill:none;stroke:#000000;stroke-width:1;stroke-linecap:butt;stroke-linejoin:miter;stroke-miterlimit:10;stroke-dasharray:none;stroke-opacity:1"
             id="path1514"
             inkscape:connector-curvature="0" /><path
             d="m 582.41998,336.04001 -6.61999,-4.18002 3.91003,-0.31 2.07996,-3.31 z"
             style="fill:#000000;fill-opacity:1;fill-rule:nonzero;stroke:none"
             id="path1516"
             inkscape:connector-curvature="0" /><path
             d="m 582.41998,336.04001 -6.61999,-4.18002 3.91003,-0.31 2.07996,-3.31 z"
             style="fill:none;stroke:#000000;stroke-width:1;stroke-linecap:butt;stroke-linejoin:miter;stroke-miterlimit:10;stroke-dasharray:none;stroke-opacity:1"
             id="path1518"
             inkscape:connector-curvature="0" /></g><g
           id="g1520"
           transform="matrix(2.9933815,0,0,2.9933815,1685.2738,927.94824)"><path
             d="M 0,0 H 78 V 13 H 0 Z"
             style="fill:#ffffff;fill-opacity:1;fill-rule:nonzero;stroke:none"
             id="path1522"
             inkscape:connector-curvature="0" /><text
             transform="translate(0,10)"
             style="font-variant:normal;font-weight:normal;font-size:11px;font-family:TimesNewRomanPSMT;-inkscape-font-specification:TimesNewRomanPSMT;writing-mode:lr-tb;fill:#000000;fill-opacity:1;fill-rule:nonzero;stroke:none"
             id="text1526"><tspan
               x="0 5.5 9.1630859 17.106934 21.989258 26.27002 29.326172 32.989258 38.489258 43.989258 50.106934 54.989258 59.27002 63.550781 66.606934 72.106934"
               y="0"
               sodipodi:role="line"
               id="tspan1524">xrDestroySession</tspan></text>
</g><g
           id="g1528"
           transform="matrix(2.9933815,0,0,2.9933815,1.4966907,1.4966907)"><path
             d="m 452.5,158 h 105 c 0.49243,0 0.98016,0.048 1.46313,0.1441 0.48298,0.0961 0.95197,0.23833 1.40693,0.42679 0.45495,0.18846 0.88714,0.41948 1.29663,0.69307 0.40948,0.27361 0.78839,0.5845 1.13659,0.93273 0.34821,0.34822 0.65906,0.72705 0.93268,1.13652 0.27356,0.40945 0.50458,0.84167 0.69306,1.29664 0.18841,0.45497 0.33068,0.92397 0.42681,1.40695 0.0961,0.48299 0.14411,0.97072 0.14417,1.4632 v 35 c -6e-5,0.49245 -0.0481,0.98016 -0.14417,1.46315 -0.0961,0.483 -0.2384,0.95198 -0.42681,1.40695 -0.18848,0.45497 -0.4195,0.88718 -0.69306,1.29665 -0.27362,0.40945 -0.58447,0.7883 -0.93268,1.13652 -0.3482,0.34822 -0.72705,0.65912 -1.13653,0.93269 -0.40949,0.27361 -0.84174,0.50463 -1.29669,0.69309 -0.45496,0.18846 -0.92395,0.33073 -1.40693,0.42682 -0.48297,0.0961 -0.9707,0.14411 -1.46313,0.14413 h -105 c -0.49249,-2e-5 -0.98026,-0.0481 -1.46326,-0.14413 -0.483,-0.0961 -0.95196,-0.23835 -1.40695,-0.42681 -0.45495,-0.18846 -0.88718,-0.41948 -1.29666,-0.69308 -0.40945,-0.27359 -0.78827,-0.58449 -1.13647,-0.93271 -0.34824,-0.34822 -0.65915,-0.72707 -0.93274,-1.13652 -0.27359,-0.40947 -0.50464,-0.84169 -0.69309,-1.29666 -0.18844,-0.45496 -0.33069,-0.92394 -0.42679,-1.40694 C 445.048,201.48016 444.99997,200.99245 445,200.5 v -35 c -3e-5,-0.49248 0.048,-0.98021 0.14404,-1.4632 0.0961,-0.48298 0.23835,-0.95198 0.42679,-1.40695 0.18845,-0.45497 0.4195,-0.88719 0.69309,-1.29664 0.27359,-0.40947 0.5845,-0.7883 0.93274,-1.13652 0.3482,-0.34823 0.72705,-0.65912 1.1365,-0.93273 0.40945,-0.27359 0.84168,-0.50461 1.29666,-0.69307 0.45496,-0.18846 0.92392,-0.33072 1.40692,-0.42679 C 451.51974,158.048 452.00751,158 452.5,158 Z"
             style="fill:#ffffff;fill-opacity:1;fill-rule:nonzero;stroke:none"
             id="path1530"
             inkscape:connector-curvature="0" /><path
             d="m 452.5,158 h 105 c 0.49243,0 0.98016,0.048 1.46313,0.1441 0.48298,0.0961 0.95197,0.23833 1.40693,0.42679 0.45495,0.18846 0.88714,0.41948 1.29663,0.69307 0.40948,0.27361 0.78839,0.5845 1.13659,0.93273 0.34821,0.34822 0.65906,0.72705 0.93268,1.13652 0.27356,0.40945 0.50458,0.84167 0.69306,1.29664 0.18841,0.45497 0.33068,0.92397 0.42681,1.40695 0.0961,0.48299 0.14411,0.97072 0.14417,1.4632 v 35 c -6e-5,0.49245 -0.0481,0.98016 -0.14417,1.46315 -0.0961,0.483 -0.2384,0.95198 -0.42681,1.40695 -0.18848,0.45497 -0.4195,0.88718 -0.69306,1.29665 -0.27362,0.40945 -0.58447,0.7883 -0.93268,1.13652 -0.3482,0.34822 -0.72705,0.65912 -1.13653,0.93269 -0.40949,0.27361 -0.84174,0.50463 -1.29669,0.69309 -0.45496,0.18846 -0.92395,0.33073 -1.40693,0.42682 -0.48297,0.0961 -0.9707,0.14411 -1.46313,0.14413 h -105 c -0.49249,-2e-5 -0.98026,-0.0481 -1.46326,-0.14413 -0.483,-0.0961 -0.95196,-0.23835 -1.40695,-0.42681 -0.45495,-0.18846 -0.88718,-0.41948 -1.29666,-0.69308 -0.40945,-0.27359 -0.78827,-0.58449 -1.13647,-0.93271 -0.34824,-0.34822 -0.65915,-0.72707 -0.93274,-1.13652 -0.27359,-0.40947 -0.50464,-0.84169 -0.69309,-1.29666 -0.18844,-0.45496 -0.33069,-0.92394 -0.42679,-1.40694 C 445.048,201.48016 444.99997,200.99245 445,200.5 v -35 c -3e-5,-0.49248 0.048,-0.98021 0.14404,-1.4632 0.0961,-0.48298 0.23835,-0.95198 0.42679,-1.40695 0.18845,-0.45497 0.4195,-0.88719 0.69309,-1.29664 0.27359,-0.40947 0.5845,-0.7883 0.93274,-1.13652 0.3482,-0.34823 0.72705,-0.65912 1.1365,-0.93273 0.40945,-0.27359 0.84168,-0.50461 1.29666,-0.69307 0.45496,-0.18846 0.92392,-0.33072 1.40692,-0.42679 C 451.51974,158.048 452.00751,158 452.5,158 Z"
             style="fill:none;stroke:#000000;stroke-width:1;stroke-linecap:butt;stroke-linejoin:miter;stroke-miterlimit:10;stroke-dasharray:none;stroke-opacity:1"
             id="path1532"
             inkscape:connector-curvature="0" /></g><g
           id="g1534"
           transform="matrix(2.9933815,0,0,2.9933815,1439.8165,529.82855)"><text
             transform="translate(0.671875,11)"
             style="font-variant:normal;font-weight:normal;font-size:12px;font-family:TimesNewRomanPSMT;-inkscape-font-specification:TimesNewRomanPSMT;writing-mode:lr-tb;fill:#000000;fill-opacity:1;fill-rule:nonzero;stroke:none"
             id="text1538"><tspan
               x="0 7.3300781 15.996094 19.992188 27.322266 31.318359 39.984375"
               y="0"
               sodipodi:role="line"
               id="tspan1536">EXITING</tspan></text>
</g><g
           id="g1540"
           transform="matrix(2.9933815,0,0,2.9933815,1.4966907,1.4966907)"><path
             d="m 226,73 c 0,0.984917 -0.0961,1.960365 -0.28824,2.926353 -0.19214,0.965981 -0.47667,1.903946 -0.85358,2.813889 -0.3769,0.909943 -0.83897,1.774376 -1.38616,2.593307 -0.54718,0.818924 -1.169,1.576607 -1.86542,2.273049 -0.69644,0.696434 -1.45413,1.318252 -2.27307,1.86544 -0.81893,0.547188 -1.68335,1.009239 -2.59331,1.386154 -0.90994,0.376908 -1.8479,0.661431 -2.81387,0.853577 C 212.96036,87.903915 211.98491,87.999992 211,88 c -0.98491,-8e-6 -1.96037,-0.09609 -2.92636,-0.288231 -0.966,-0.192146 -1.90398,-0.476669 -2.81392,-0.853577 -0.90993,-0.376915 -1.77437,-0.838966 -2.59329,-1.386154 -0.81893,-0.547188 -1.5766,-1.169006 -2.27304,-1.86544 -0.69646,-0.696442 -1.31827,-1.454125 -1.86547,-2.273049 -0.54718,-0.818931 -1.00923,-1.683364 -1.38614,-2.593307 -0.3769,-0.909943 -0.66143,-1.847908 -0.85357,-2.813889 C 196.09605,74.960365 195.99998,73.984917 196,73 c -2e-5,-0.984917 0.096,-1.960373 0.28819,-2.926369 0.19216,-0.965988 0.47669,-1.903953 0.85359,-2.813896 0.37691,-0.909943 0.83896,-1.774376 1.38614,-2.5933 0.5472,-0.81892 1.16901,-1.576603 1.86547,-2.273041 0.69644,-0.696437 1.45411,-1.318252 2.27304,-1.865444 0.81892,-0.547191 1.68336,-1.009239 2.59329,-1.38615 0.90994,-0.376911 1.84792,-0.661438 2.81392,-0.853581 C 209.03963,58.096073 210.01509,58 211,58 c 0.98491,0 1.96036,0.09607 2.92635,0.288216 0.96597,0.192146 1.90393,0.476673 2.81387,0.853584 0.90996,0.376911 1.77438,0.838962 2.59331,1.386154 0.81894,0.547188 1.57663,1.169003 2.27307,1.86544 0.69642,0.696438 1.31824,1.454121 1.86542,2.273041 0.54719,0.818924 1.00926,1.683357 1.38616,2.5933 0.37691,0.909943 0.66144,1.847908 0.85358,2.813896 C 225.90392,71.039627 226,72.015083 226,73 Z"
             style="fill:none;stroke:#000000;stroke-width:1;stroke-linecap:butt;stroke-linejoin:miter;stroke-miterlimit:10;stroke-dasharray:none;stroke-opacity:1"
             id="path1542"
             inkscape:connector-curvature="0" /><path
             d="m 222,73 c -2e-5,0.722267 -0.0705,1.437592 -0.21138,2.145981 -0.14091,0.708397 -0.34956,1.39624 -0.62596,2.06353 -0.2764,0.66729 -0.61524,1.301201 -1.01651,1.901748 -0.40128,0.600548 -0.85727,1.156182 -1.36798,1.666909 -0.51073,0.510719 -1.06638,0.96672 -1.66692,1.367988 -0.60055,0.401276 -1.23448,0.740113 -1.90176,1.01651 -0.6673,0.276398 -1.35514,0.485054 -2.06352,0.625962 C 212.43758,83.929535 211.72226,83.999992 211,84 c -0.72227,-8e-6 -1.43762,-0.07046 -2.14601,-0.211372 -0.70839,-0.140908 -1.39624,-0.349564 -2.06352,-0.625962 -0.66729,-0.276397 -1.30121,-0.615234 -1.90178,-1.01651 -0.60054,-0.401268 -1.15616,-0.857269 -1.66687,-1.367988 -0.51073,-0.510727 -0.96674,-1.066361 -1.36801,-1.666909 -0.40128,-0.600547 -0.74012,-1.234458 -1.01651,-1.901748 -0.27642,-0.66729 -0.48507,-1.355133 -0.62597,-2.06353 C 200.07043,74.437592 199.99998,73.722267 200,73 c -2e-5,-0.722275 0.0704,-1.437607 0.21133,-2.145996 0.1409,-0.708389 0.34955,-1.396233 0.62595,-2.063522 0.27641,-0.667298 0.61525,-1.301217 1.01653,-1.901757 0.40127,-0.600548 0.85728,-1.156181 1.36801,-1.6669 0.51071,-0.51072 1.06634,-0.966721 1.66688,-1.367993 0.60056,-0.401272 1.23448,-0.740108 1.90177,-1.01651 0.66728,-0.276401 1.35513,-0.485054 2.06353,-0.625961 C 209.56239,62.070454 210.27773,62 211,62 c 0.72226,0 1.43758,0.07045 2.14597,0.211361 0.70838,0.140907 1.39622,0.34956 2.06352,0.625961 0.66728,0.276402 1.30121,0.615235 1.90176,1.016506 0.60054,0.401276 1.15619,0.857277 1.66692,1.367997 0.51071,0.510719 0.9667,1.066345 1.36798,1.666893 0.40127,0.600547 0.74011,1.234466 1.01651,1.901764 0.2764,0.667289 0.48506,1.355133 0.62598,2.063522 C 221.92953,71.562393 221.99998,72.277725 222,73 Z"
             style="fill:none;stroke:#000000;stroke-width:1;stroke-linecap:butt;stroke-linejoin:miter;stroke-miterlimit:10;stroke-dasharray:none;stroke-opacity:1"
             id="path1544"
             inkscape:connector-curvature="0" /><path
             d="m 594,363 v 45 28.63"
             style="fill:none;stroke:#000000;stroke-width:1;stroke-linecap:butt;stroke-linejoin:miter;stroke-miterlimit:10;stroke-dasharray:none;stroke-opacity:1"
             id="path1546"
             inkscape:connector-curvature="0" /><path
             d="m 594,441.88 -3.5,-7 3.5,1.75 3.5,-1.75 z"
             style="fill:#000000;fill-opacity:1;fill-rule:nonzero;stroke:none"
             id="path1548"
             inkscape:connector-curvature="0" /><path
             d="m 594,441.88 -3.5,-7 3.5,1.75 3.5,-1.75 z"
             style="fill:none;stroke:#000000;stroke-width:1;stroke-linecap:butt;stroke-linejoin:miter;stroke-miterlimit:10;stroke-dasharray:none;stroke-opacity:1"
             id="path1550"
             inkscape:connector-curvature="0" /></g><g
           id="g1552"
           transform="matrix(2.9933815,0,0,2.9933815,1658.3334,1176.3989)"><path
             d="M 0,0 H 81 V 13 H 0 Z"
             style="fill:#ffffff;fill-opacity:1;fill-rule:nonzero;stroke:none"
             id="path1554"
             inkscape:connector-curvature="0" /><text
             transform="translate(0,10)"
             style="font-variant:normal;font-weight:normal;font-size:11px;font-family:TimesNewRomanPSMT;-inkscape-font-specification:TimesNewRomanPSMT;writing-mode:lr-tb;fill:#000000;fill-opacity:1;fill-rule:nonzero;stroke:none"
             id="text1558"><tspan
               x="0 5.5 9.1630859 17.106934 21.989258 26.27002 29.326172 32.989258 38.489258 43.989258 47.652344 53.152344 57.433105 60.489258 65.371582 70.871582 75.753906"
               y="0"
               sodipodi:role="line"
               id="tspan1556">xrDestroyInstance</tspan></text>
</g><g
           id="g1560"
           transform="matrix(2.9933815,0,0,2.9933815,1.4966907,1.4966907)"><path
             d="m 609,348 c 0,0.98489 -0.0961,1.96036 -0.28827,2.92633 -0.19214,0.96597 -0.47668,1.90393 -0.85358,2.81387 -0.37689,0.90995 -0.83892,1.77439 -1.3861,2.59333 -0.54718,0.81891 -1.16901,1.5766 -1.86548,2.27304 -0.69641,0.69644 -1.4541,1.31823 -2.27307,1.86541 -0.81891,0.54722 -1.68335,1.00925 -2.59327,1.38614 -0.90997,0.37693 -1.8479,0.66147 -2.8139,0.85361 -0.966,0.19217 -1.94141,0.28824 -2.92633,0.28827 -0.98492,-3e-5 -1.96039,-0.0961 -2.92639,-0.28827 -0.96601,-0.19214 -1.90399,-0.47665 -2.81391,-0.85358 -0.90997,-0.37692 -1.77441,-0.83895 -2.59332,-1.38617 -0.81891,-0.54718 -1.5766,-1.16897 -2.27301,-1.86541 -0.69647,-0.69644 -1.3183,-1.45413 -1.86554,-2.27304 -0.54718,-0.81894 -1.00921,-1.68338 -1.38611,-2.59333 -0.37689,-0.90994 -0.66143,-1.84793 -0.85351,-2.8139 -0.1922,-0.96597 -0.28827,-1.94141 -0.28821,-2.9263 -6e-5,-0.98495 0.096,-1.96042 0.28821,-2.92639 0.19208,-0.96597 0.47662,-1.90396 0.85351,-2.81391 0.3769,-0.90994 0.83893,-1.77438 1.38611,-2.59326 0.54724,-0.81894 1.16907,-1.57663 1.86554,-2.27307 0.69641,-0.69644 1.4541,-1.31824 2.27307,-1.86545 0.81891,-0.54718 1.68329,-1.00921 2.59326,-1.38614 0.90992,-0.37692 1.8479,-0.66143 2.81391,-0.85357 C 592.03961,333.09607 593.01508,333 594,333 c 0.98492,0 1.96033,0.0961 2.92633,0.28821 0.966,0.19214 1.90393,0.47665 2.8139,0.85357 0.90992,0.37693 1.77436,0.83896 2.59327,1.38614 0.81897,0.54721 1.57666,1.16901 2.27307,1.86545 0.69647,0.69644 1.3183,1.45413 1.86548,2.27307 0.54718,0.81888 1.00921,1.68332 1.3861,2.59326 0.3769,0.90995 0.66144,1.84794 0.85358,2.81391 C 608.90393,346.03958 609,347.01505 609,348 Z"
             style="fill:none;stroke:#000000;stroke-width:1;stroke-linecap:butt;stroke-linejoin:miter;stroke-miterlimit:10;stroke-dasharray:none;stroke-opacity:1"
             id="path1562"
             inkscape:connector-curvature="0" /><path
             d="m 605,348 c -6e-5,0.72226 -0.0705,1.43756 -0.21143,2.14597 -0.14093,0.70837 -0.34961,1.39621 -0.62597,2.0635 -0.27643,0.66727 -0.61524,1.30121 -1.01654,1.90177 -0.40125,0.60055 -0.85724,1.15619 -1.36792,1.6669 -0.51081,0.51071 -1.06647,0.9667 -1.66699,1.36795 -0.60053,0.40127 -1.23444,0.74011 -1.90174,1.01651 -0.6673,0.27643 -1.3551,0.48511 -2.06354,0.626 C 595.43756,358.92953 594.72223,359 594,359 c -0.72229,0 -1.43762,-0.0705 -2.146,-0.2114 -0.70837,-0.14089 -1.39624,-0.34957 -2.06359,-0.626 -0.6673,-0.2764 -1.30121,-0.61527 -1.90174,-1.01654 -0.60052,-0.40122 -1.15619,-0.85721 -1.66687,-1.36792 -0.51068,-0.51071 -0.96673,-1.06635 -1.36804,-1.6669 -0.40125,-0.60056 -0.74005,-1.2345 -1.01648,-1.90177 -0.27637,-0.66729 -0.48499,-1.35513 -0.62592,-2.0635 C 583.07043,349.43756 583,348.72226 583,348 c 0,-0.72229 0.0704,-1.43762 0.21136,-2.14603 0.14093,-0.7084 0.34955,-1.39624 0.62592,-2.0635 0.27643,-0.6673 0.61523,-1.30121 1.01648,-1.90177 0.40131,-0.60055 0.85736,-1.15619 1.36804,-1.6669 0.51068,-0.51071 1.06635,-0.9667 1.66687,-1.36798 0.60053,-0.40127 1.23444,-0.74014 1.90174,-1.01654 0.66735,-0.2764 1.35522,-0.48502 2.06359,-0.62592 C 592.56238,337.07047 593.27771,337 594,337 c 0.72223,0 1.43756,0.0705 2.14587,0.21136 0.70844,0.1409 1.39624,0.34952 2.06354,0.62592 0.6673,0.2764 1.30115,0.61527 1.90167,1.01654 0.60059,0.40128 1.15625,0.85727 1.66706,1.36798 0.51068,0.51071 0.96667,1.06635 1.36792,1.6669 0.4013,0.60056 0.74011,1.23447 1.01654,1.90177 0.27636,0.66726 0.48504,1.3551 0.62597,2.0635 0.14093,0.70841 0.21137,1.42374 0.21143,2.14603 z"
             style="fill:none;stroke:#000000;stroke-width:1;stroke-linecap:butt;stroke-linejoin:miter;stroke-miterlimit:10;stroke-dasharray:none;stroke-opacity:1"
             id="path1564"
             inkscape:connector-curvature="0" /><path
             d="m 679,258 -69.65002,74.35001"
             style="fill:none;stroke:#000000;stroke-width:1;stroke-linecap:butt;stroke-linejoin:miter;stroke-miterlimit:10;stroke-dasharray:none;stroke-opacity:1"
             id="path1566"
             inkscape:connector-curvature="0" /><path
             d="m 605.76001,336.17999 2.23999,-7.5 1.34998,3.67002 3.75,1.11999 z"
             style="fill:#000000;fill-opacity:1;fill-rule:nonzero;stroke:none"
             id="path1568"
             inkscape:connector-curvature="0" /><path
             d="m 605.76001,336.17999 2.23999,-7.5 1.34998,3.67002 3.75,1.11999 z"
             style="fill:none;stroke:#000000;stroke-width:1;stroke-linecap:butt;stroke-linejoin:miter;stroke-miterlimit:10;stroke-dasharray:none;stroke-opacity:1"
             id="path1570"
             inkscape:connector-curvature="0" /><path
             d="m 627.25,203 h 103.5 c 0.54163,0 1.07806,0.0528 1.60931,0.15852 0.53132,0.10567 1.04718,0.26216 1.54767,0.46946 0.50049,0.20729 0.97589,0.46142 1.42627,0.76237 0.4505,0.30096 0.86725,0.64296 1.25031,1.026 0.38305,0.38303 0.72503,0.79974 1.026,1.25017 0.30096,0.45041 0.55505,0.92584 0.76233,1.42631 0.20733,0.50046 0.36383,1.01635 0.46954,1.54766 C 738.94714,210.17178 739,210.70828 739,211.25 v 38.5 c 0,0.5417 -0.0529,1.07819 -0.15857,1.60948 -0.10571,0.53128 -0.26221,1.04717 -0.46954,1.54764 -0.20728,0.50046 -0.46137,0.97589 -0.76233,1.4263 -0.30097,0.45041 -0.64295,0.86714 -1.026,1.25018 -0.38306,0.38304 -0.79981,0.72505 -1.25025,1.02599 -0.45038,0.30096 -0.92584,0.55508 -1.42627,0.76239 -0.50048,0.2073 -1.01635,0.3638 -1.54766,0.46948 C 731.82806,257.94714 731.29163,258 730.75,258 h -103.5 c -0.54169,0 -1.07819,-0.0529 -1.6095,-0.15854 -0.53131,-0.10568 -1.04718,-0.26218 -1.54773,-0.46948 -0.50048,-0.20731 -0.97589,-0.46143 -1.42627,-0.76239 -0.45037,-0.30094 -0.86712,-0.64295 -1.25018,-1.02599 -0.38306,-0.38304 -0.72504,-0.79977 -1.026,-1.25018 -0.30096,-0.45041 -0.55505,-0.92584 -0.76239,-1.42632 -0.20734,-0.50047 -0.36383,-1.01634 -0.46948,-1.54762 C 619.0528,250.82819 618.99994,250.2917 619,249.75 v -38.5 c -6e-5,-0.54172 0.0528,-1.07823 0.15845,-1.60953 0.10565,-0.53129 0.26214,-1.04718 0.46948,-1.54764 0.20734,-0.50047 0.46143,-0.9759 0.76239,-1.42631 0.30096,-0.45043 0.64294,-0.86714 1.026,-1.25017 0.38306,-0.38304 0.79981,-0.72504 1.25018,-1.02598 0.45038,-0.30097 0.92579,-0.5551 1.42627,-0.76239 0.50055,-0.2073 1.01642,-0.36379 1.54773,-0.46947 C 626.17181,203.05284 626.70831,203 627.25,203 Z"
             style="fill:#ffffff;fill-opacity:1;fill-rule:nonzero;stroke:none"
             id="path1572"
             inkscape:connector-curvature="0" /><path
             d="m 627.25,203 h 103.5 c 0.54163,0 1.07806,0.0528 1.60931,0.15852 0.53132,0.10567 1.04718,0.26216 1.54767,0.46946 0.50049,0.20729 0.97589,0.46142 1.42627,0.76237 0.4505,0.30096 0.86725,0.64296 1.25031,1.026 0.38305,0.38303 0.72503,0.79974 1.026,1.25017 0.30096,0.45041 0.55505,0.92584 0.76233,1.42631 0.20733,0.50046 0.36383,1.01635 0.46954,1.54766 C 738.94714,210.17178 739,210.70828 739,211.25 v 38.5 c 0,0.5417 -0.0529,1.07819 -0.15857,1.60948 -0.10571,0.53128 -0.26221,1.04717 -0.46954,1.54764 -0.20728,0.50046 -0.46137,0.97589 -0.76233,1.4263 -0.30097,0.45041 -0.64295,0.86714 -1.026,1.25018 -0.38306,0.38304 -0.79981,0.72505 -1.25025,1.02599 -0.45038,0.30096 -0.92584,0.55508 -1.42627,0.76239 -0.50048,0.2073 -1.01635,0.3638 -1.54766,0.46948 C 731.82806,257.94714 731.29163,258 730.75,258 h -103.5 c -0.54169,0 -1.07819,-0.0529 -1.6095,-0.15854 -0.53131,-0.10568 -1.04718,-0.26218 -1.54773,-0.46948 -0.50048,-0.20731 -0.97589,-0.46143 -1.42627,-0.76239 -0.45037,-0.30094 -0.86712,-0.64295 -1.25018,-1.02599 -0.38306,-0.38304 -0.72504,-0.79977 -1.026,-1.25018 -0.30096,-0.45041 -0.55505,-0.92584 -0.76239,-1.42632 -0.20734,-0.50047 -0.36383,-1.01634 -0.46948,-1.54762 C 619.0528,250.82819 618.99994,250.2917 619,249.75 v -38.5 c -6e-5,-0.54172 0.0528,-1.07823 0.15845,-1.60953 0.10565,-0.53129 0.26214,-1.04718 0.46948,-1.54764 0.20734,-0.50047 0.46143,-0.9759 0.76239,-1.42631 0.30096,-0.45043 0.64294,-0.86714 1.026,-1.25017 0.38306,-0.38304 0.79981,-0.72504 1.25018,-1.02598 0.45038,-0.30097 0.92579,-0.5551 1.42627,-0.76239 0.50055,-0.2073 1.01642,-0.36379 1.54773,-0.46947 C 626.17181,203.05284 626.70831,203 627.25,203 Z"
             style="fill:none;stroke:#000000;stroke-width:1;stroke-linecap:butt;stroke-linejoin:miter;stroke-miterlimit:10;stroke-dasharray:none;stroke-opacity:1"
             id="path1574"
             inkscape:connector-curvature="0" /></g><g
           id="g1576"
           transform="matrix(2.9933815,0,0,2.9933815,1900.7972,673.51086)"><text
             transform="translate(0.984375,11)"
             style="font-variant:normal;font-weight:normal;font-size:12px;font-family:TimesNewRomanPSMT;-inkscape-font-specification:TimesNewRomanPSMT;writing-mode:lr-tb;fill:#000000;fill-opacity:1;fill-rule:nonzero;stroke:none"
             id="text1580"><tspan
               x="0 7.3300781 15.996094 22.669922 29.34375 35.34375 42.017578 49.347656 58.013672 66.679688 70.675781 79.341797"
               y="0"
               sodipodi:role="line"
               id="tspan1578">LOSS_PENDING</tspan></text>
</g><g
           id="g1582"
           transform="matrix(2.9933815,0,0,2.9933815,1.4966907,1.4966907)"><path
             d="m 679,153 v 43.63"
             style="fill:none;stroke:#000000;stroke-width:1;stroke-linecap:butt;stroke-linejoin:miter;stroke-miterlimit:10;stroke-dasharray:none;stroke-opacity:1"
             id="path1584"
             inkscape:connector-curvature="0" /><path
             d="m 679,201.88 -3.5,-7 3.5,1.75 3.5,-1.75 z"
             style="fill:#000000;fill-opacity:1;fill-rule:nonzero;stroke:none"
             id="path1586"
             inkscape:connector-curvature="0" /><path
             d="m 679,201.88 -3.5,-7 3.5,1.75 3.5,-1.75 z"
             style="fill:none;stroke:#000000;stroke-width:1;stroke-linecap:butt;stroke-linejoin:miter;stroke-miterlimit:10;stroke-dasharray:none;stroke-opacity:1"
             id="path1588"
             inkscape:connector-curvature="0" /></g><g
           id="g1590"
           transform="matrix(2.9933815,0,0,2.9933815,1816.9825,517.85498)"><path
             d="M 0,0 H 144 V 13 H 0 Z"
             style="fill:#ffffff;fill-opacity:1;fill-rule:nonzero;stroke:none"
             id="path1592"
             inkscape:connector-curvature="0" /><text
             transform="translate(0,10)"
             style="font-variant:normal;font-weight:normal;font-size:11px;font-family:TimesNewRomanPSMT;-inkscape-font-specification:TimesNewRomanPSMT;writing-mode:lr-tb;fill:#000000;fill-opacity:1;fill-rule:nonzero;stroke:none"
             id="text1596"><tspan
               x="0 3.6630859 9.1630859 14.663086 17.719238 20.775391 29.331543 34.213867 37.27002 40.02002 43.076172 48.576172 52.856934 55.913086 61.413086 66.913086 69.663086 73.943848 79.443848 83.724609 86.780762 91.663086 100.21924 102.96924 108.46924 112.13232 114.88232 120.38232 125.26465 130.76465 133.8208 138.70312"
               y="0"
               sodipodi:role="line"
               id="tspan1594">runtime:	losing	system	or	device</tspan></text>
</g><g
           id="g1598"
           transform="matrix(2.9933815,0,0,2.9933815,1.4966907,1.4966907)"><path
             d="m 669,113 h 20 c 1.31317,0 2.61377,0.1281 3.90173,0.38429 1.28791,0.2562 2.53852,0.63557 3.75177,1.13812 1.21326,0.50254 2.36585,1.1186 3.45777,1.84819 1.09192,0.72959 2.10217,1.55868 3.03076,2.48726 0.92859,0.92859 1.75769,1.93882 2.4873,3.03073 0.72956,1.09189 1.34565,2.24447 1.84815,3.45773 0.5025,1.21325 0.8819,2.46388 1.13812,3.75187 0.25623,1.28798 0.38434,2.58859 0.3844,3.90181 -6e-5,1.31322 -0.12817,2.61381 -0.38434,3.90179 -0.25628,1.28798 -0.63568,2.53859 -1.13818,3.75187 -0.5025,1.21324 -1.11859,2.36581 -1.84815,3.45771 -0.72961,1.09191 -1.55871,2.10216 -2.4873,3.03075 -0.92859,0.92859 -1.93884,1.75768 -3.03076,2.48726 -1.09192,0.72958 -2.24451,1.34564 -3.45777,1.84819 -1.21325,0.50255 -2.46386,0.88193 -3.75183,1.13812 -1.2879,0.2562 -2.5885,0.38429 -3.90167,0.38431 h -20 c -1.31323,-2e-5 -2.61383,-0.12811 -3.90179,-0.38431 -1.28803,-0.25619 -2.53864,-0.63557 -3.7519,-1.13812 -1.21331,-0.50255 -2.3659,-1.11861 -3.45776,-1.84819 -1.09192,-0.72958 -2.10217,-1.55867 -3.0307,-2.48726 -0.92859,-0.92859 -1.75769,-1.93884 -2.48731,-3.03075 -0.72955,-1.0919 -1.34564,-2.24447 -1.8482,-3.45771 -0.5025,-1.21328 -0.8819,-2.46389 -1.13812,-3.75187 C 649.12805,135.61381 649,134.31322 649,133 c 0,-1.31322 0.12805,-2.61383 0.38422,-3.90181 0.25622,-1.28799 0.63562,-2.53862 1.13812,-3.75187 0.50256,-1.21326 1.11865,-2.36584 1.8482,-3.45773 0.72962,-1.09191 1.55872,-2.10214 2.48731,-3.03073 0.92853,-0.92858 1.93878,-1.75767 3.0307,-2.48726 1.09186,-0.72959 2.24445,-1.34565 3.45776,-1.84819 1.21326,-0.50255 2.46387,-0.88192 3.7519,-1.13811 C 666.38617,113.1281 667.68677,113 669,113 Z"
             style="fill:#ffffff;fill-opacity:1;fill-rule:nonzero;stroke:none"
             id="path1600"
             inkscape:connector-curvature="0" /><path
             d="m 669,113 h 20 c 1.31317,0 2.61377,0.1281 3.90173,0.38429 1.28791,0.2562 2.53852,0.63557 3.75177,1.13812 1.21326,0.50254 2.36585,1.1186 3.45777,1.84819 1.09192,0.72959 2.10217,1.55868 3.03076,2.48726 0.92859,0.92859 1.75769,1.93882 2.4873,3.03073 0.72956,1.09189 1.34565,2.24447 1.84815,3.45773 0.5025,1.21325 0.8819,2.46388 1.13812,3.75187 0.25623,1.28798 0.38434,2.58859 0.3844,3.90181 -6e-5,1.31322 -0.12817,2.61381 -0.38434,3.90179 -0.25628,1.28798 -0.63568,2.53859 -1.13818,3.75187 -0.5025,1.21324 -1.11859,2.36581 -1.84815,3.45771 -0.72961,1.09191 -1.55871,2.10216 -2.4873,3.03075 -0.92859,0.92859 -1.93884,1.75768 -3.03076,2.48726 -1.09192,0.72958 -2.24451,1.34564 -3.45777,1.84819 -1.21325,0.50255 -2.46386,0.88193 -3.75183,1.13812 -1.2879,0.2562 -2.5885,0.38429 -3.90167,0.38431 h -20 c -1.31323,-2e-5 -2.61383,-0.12811 -3.90179,-0.38431 -1.28803,-0.25619 -2.53864,-0.63557 -3.7519,-1.13812 -1.21331,-0.50255 -2.3659,-1.11861 -3.45776,-1.84819 -1.09192,-0.72958 -2.10217,-1.55867 -3.0307,-2.48726 -0.92859,-0.92859 -1.75769,-1.93884 -2.48731,-3.03075 -0.72955,-1.0919 -1.34564,-2.24447 -1.8482,-3.45771 -0.5025,-1.21328 -0.8819,-2.46389 -1.13812,-3.75187 C 649.12805,135.61381 649,134.31322 649,133 c 0,-1.31322 0.12805,-2.61383 0.38422,-3.90181 0.25622,-1.28799 0.63562,-2.53862 1.13812,-3.75187 0.50256,-1.21326 1.11865,-2.36584 1.8482,-3.45773 0.72962,-1.09191 1.55872,-2.10214 2.48731,-3.03073 0.92853,-0.92858 1.93878,-1.75767 3.0307,-2.48726 1.09186,-0.72959 2.24445,-1.34565 3.45776,-1.84819 1.21326,-0.50255 2.46387,-0.88192 3.7519,-1.13811 C 666.38617,113.1281 667.68677,113 669,113 Z"
             style="fill:none;stroke:#000000;stroke-width:1;stroke-linecap:butt;stroke-linejoin:miter;stroke-miterlimit:10;stroke-dasharray:none;stroke-opacity:1"
             id="path1602"
             inkscape:connector-curvature="0" /></g><g
           id="g1604"
           transform="matrix(2.9933815,0,0,2.9933815,2005.5656,380.15945)"><text
             transform="translate(0.328125,11)"
             style="font-variant:normal;font-weight:normal;font-size:12px;font-family:TimesNewRomanPSMT;-inkscape-font-specification:TimesNewRomanPSMT;writing-mode:lr-tb;fill:#000000;fill-opacity:1;fill-rule:nonzero;stroke:none"
             id="text1608"><tspan
               x="0 5.3261719 11.326172"
               y="0"
               sodipodi:role="line"
               id="tspan1606">any</tspan></text>
</g><g
           id="g1610"
           transform="matrix(2.9933815,0,0,2.9933815,1.4966907,1.4966907)"><path
             d="m 621.25922,327.57245 2.68048,1.62521 -0.51844,0.8551 -2.68048,-1.62521 z m 5.33465,3.20877 2.64032,1.54925 -0.5061,0.86249 -2.64032,-1.54925 z m 5.25391,3.05676 2.60003,1.47327 -0.49304,0.87005 -2.60003,-1.47326 z m 5.1748,2.90573 c 0.85718,0.47238 1.70929,0.9375 2.55628,1.39539 l -0.47559,0.8797 c -0.84674,-0.45776 -1.70123,-0.9242 -2.56335,-1.39929 z m 5.09229,2.75278 c 0.89752,0.47549 1.79449,0.94553 2.69092,1.41013 l -0.46009,0.88787 c -0.89624,-0.46444 -1.7959,-0.93591 -2.69897,-1.41439 z m 5.45746,2.82681 c 0.92096,0.46582 1.83477,0.92243 2.74157,1.36985 l -0.4425,0.89679 c -0.90961,-0.4487 -1.82648,-0.9068 -2.75049,-1.3743 z m 5.45831,2.69294 c 0.90106,0.4331 1.79828,0.85855 2.69171,1.27633 l -0.42358,0.90582 c -0.89954,-0.42059 -1.79999,-0.84753 -2.70136,-1.28085 z m 5.35858,2.50582 c 0.88397,0.40171 1.76459,0.79596 2.64185,1.18271 l -0.40345,0.91504 c -0.87829,-0.38721 -1.76232,-0.78299 -2.6521,-1.18735 z m 5.28925,2.33164 c 0.96875,0.4137 1.9317,0.81738 2.88885,1.21109 l -0.38037,0.9248 c -0.96301,-0.39615 -1.93005,-0.80154 -2.90118,-1.21621 z m 5.7467,2.36404 c 0.94629,0.37418 1.88855,0.73908 2.82678,1.09476 l -0.35449,0.93506 c -0.94171,-0.35703 -1.88837,-0.72363 -2.83996,-1.09989 z m 5.6225,2.13138 c 0.92694,0.33594 1.84851,0.66208 2.76471,0.97846 l -0.32642,0.94525 c -0.92047,-0.31787 -1.8468,-0.64572 -2.77899,-0.98352 z m 5.49823,1.89877 c 0.94018,0.30829 1.87738,0.60694 2.81152,0.89594 l -0.29553,0.95532 c -0.93829,-0.29025 -1.8808,-0.59061 -2.82751,-0.90106 z m 5.79449,1.78833 c 0.98651,0.28501 1.9679,0.55829 2.94409,0.8198 l -0.25878,0.96594 c -0.98182,-0.26306 -1.96943,-0.53809 -2.96289,-0.82504 z m 5.84925,1.56696 c 0.96209,0.237 1.91754,0.46185 2.86633,0.67456 l -0.21875,0.97577 c -0.95471,-0.21402 -1.91693,-0.44046 -2.88672,-0.67938 z m 5.69372,1.27661 c 0.96747,0.19489 1.92859,0.37702 2.8833,0.54636 l -0.17456,0.98462 c -0.96277,-0.17069 -1.93152,-0.35425 -2.90625,-0.55069 z m 5.94348,1.04819 c 1.01215,0.15231 2.01612,0.28958 3.01178,0.41186 l -0.12182,0.99256 c -1.00537,-0.12345 -2.01831,-0.26197 -3.03876,-0.41553 z m 5.97522,0.73373 c 0.97992,0.0923 1.95166,0.16965 2.9151,0.23194 l -0.0646,0.99792 c -0.97315,-0.0629 -1.95459,-0.14096 -2.94428,-0.23425 l 0.0937,-0.99561 z m 5.78174,0.37403 c 1.0304,0.0352 2.05139,0.0527 3.06299,0.0525 l 2.4e-4,1 c -1.02252,1.8e-4 -2.05499,-0.0175 -3.09741,-0.0531 l 0.0342,-0.99939 z m 6.10297,-0.002 c 1.00268,-0.0364 1.99652,-0.0909 2.98144,-0.16352 l 0.0736,0.99732 c -0.99664,0.0735 -2.00293,0.12866 -3.0188,0.16552 l -0.0362,-0.99932 z m 5.90448,-0.43552 c 0.9649,-0.1088 1.9198,-0.2356 2.86468,-0.38046 l 0.15149,0.98846 c -0.95825,0.14688 -1.92627,0.27545 -2.90411,0.38571 z m 5.8565,-0.90585 c 0.99073,-0.19663 1.96943,-0.4137 2.93604,-0.65125 l 0.23865,0.97113 c -0.98114,0.24112 -1.97449,0.46146 -2.98011,0.66101 z m 5.80548,-1.42661 c 0.94501,-0.27908 1.87934,-0.57892 2.80298,-0.89951 l 0.32801,0.94471 c -0.93793,0.32559 -1.88721,0.63022 -2.84778,0.91385 z m 5.56452,-1.93301 c 0.92535,-0.37207 1.83905,-0.76587 2.74097,-1.18143 l 0.41845,0.9082 c -0.91705,0.42252 -1.84588,0.82285 -2.78637,1.20102 z m 5.41235,-2.49384 c 0.87866,-0.45914 1.74597,-0.94028 2.60193,-1.44336 l 0.50672,0.86212 c -0.87031,0.51148 -1.75214,1.00064 -2.64551,1.46753 z m 5.13477,-3.01782 c 0.8172,-0.53653 1.62323,-1.09403 2.41809,-1.67246 l 0.58838,0.80854 c -0.80829,0.58819 -1.6275,1.15481 -2.45764,1.69986 z m 4.76233,-3.46536 c 0.77051,-0.61863 1.52997,-1.25818 2.27832,-1.91867 l 0.66174,0.74975 c -0.76025,0.67093 -1.53155,1.3205 -2.31396,1.9487 z m 4.4909,-3.96329 c 0.71491,-0.69129 1.4184,-1.4021 2.1106,-2.13248 l 0.72583,0.68793 c -0.70209,0.74087 -1.41583,1.462 -2.14124,2.16342 z m 4.0636,-4.27902 c 0.64142,-0.73407 1.2732,-1.48655 1.89533,-2.25739 l 0.77819,0.62799 c -0.63092,0.78177 -1.27111,1.54422 -1.92047,2.28742 z m 3.73273,-4.6258 c 0.60297,-0.80819 1.19617,-1.6347 1.77966,-2.47952 l 0.82288,0.5683 c -0.59009,0.85461 -1.19043,1.69104 -1.80103,2.50925 z m 3.44421,-4.98056 c 0.51392,-0.80124 1.02039,-1.61874 1.51947,-2.45254 l 0.85804,0.51355 c -0.50507,0.84372 -1.01697,1.67001 -1.53571,2.47885 z m 2.99091,-4.99737 c 0.48285,-0.86429 0.95733,-1.74335 1.4234,-2.63712 l 0.88672,0.4624 c -0.47052,0.90238 -0.94959,1.78986 -1.43707,2.66245 z m 2.79864,-5.36655 c 0.44916,-0.92245 0.89124,-1.86243 1.3263,-2.81988 l 0.9104,0.41369 c -0.43921,0.96662 -0.88507,1.91458 -1.33753,2.84387 z m 2.47693,-5.43234 c 0.37665,-0.88257 0.74719,-1.7782 1.1117,-2.68692 l 0.92822,0.37213 c -0.36652,0.91415 -0.73993,1.81665 -1.12024,2.70743 z m 2.18457,-5.44843 c 0.35156,-0.93411 0.69623,-1.87942 1.03394,-2.8359 l 0.94299,0.33294 c -0.33966,0.96225 -0.68671,1.914 -1.04101,2.85526 z m 2.02887,-5.7463 c 0.32355,-0.9776 0.64142,-1.97007 0.95362,-2.97742 l 0.9552,0.29602 c -0.31354,1.01178 -0.63337,2.01028 -0.95948,2.99554 z m 1.77576,-5.71039 c 0.26825,-0.9191 0.53192,-1.84995 0.79095,-2.79261 l 0.96424,0.2649 c -0.26117,0.95038 -0.52625,1.88635 -0.79523,2.80792 z m 1.5506,-5.64475 c 0.24798,-0.96011 0.49078,-1.93069 0.72839,-2.91174 l 0.97192,0.23547 c -0.2387,0.98474 -0.48272,1.96018 -0.73205,2.92627 z m 1.42547,-5.88308 c 0.22815,-1.0048 0.45014,-2.01508 0.6659,-3.03092 l 0.97815,0.20776 c -0.21747,1.02378 -0.44043,2.03864 -0.66883,3.04459 z m 1.27893,-6.01313 c 0.18451,-0.92743 0.3656,-1.86703 0.54316,-2.81884 l 0.98303,0.18347 c -0.17853,0.95709 -0.36035,1.90054 -0.54535,2.83038 z m 1.0611,-5.68557 c 0.16876,-0.96494 0.33307,-1.93644 0.4928,-2.91452 l 0.98694,0.16125 c -0.16065,0.98331 -0.3255,1.95847 -0.49463,2.92551 z m 0.96051,-5.87693 c 0.1524,-0.99984 0.29987,-2.00329 0.44251,-3.01028 l 0.99011,0.14032 c -0.14362,1.01367 -0.29157,2.02054 -0.44397,3.0206 z m 0.8598,-6.06833 c 0.13483,-1.02661 0.26557,-2.06192 0.39215,-3.10589 l 0.99268,0.12036 c -0.12714,1.04861 -0.2583,2.08719 -0.39337,3.11572 z m 0.72797,-5.98242 0.3114,-2.882 0.99426,0.10742 -0.3114,2.882 z m 0.60144,-5.79443 0.27038,-2.95937 0.99585,0.091 -0.27038,2.95936 -0.99585,-0.091 z m 0.51959,-5.94962 0.22937,-3.03677 0.99719,0.0753 -0.22937,3.03677 z m 0.43787,-6.10475 0.18841,-3.11418 0.99817,0.0604 -0.18841,3.11419 -0.99817,-0.0604 z m 0.34723,-6.0854 0.13549,-2.88832 0.99891,0.0469 -0.1355,2.88832 z m 0.25396,-5.80222 0.10187,-2.95183 0.99939,0.0345 -0.10187,2.95183 z m 0.18677,-5.92953 0.0682,-3.0154 0.99975,0.0226 -0.0682,3.0154 -0.99976,-0.0226 z m 0.11957,-6.05686 0.0346,-3.07895 0.99987,0.0112 -0.0345,3.07895 -0.99988,-0.0112 z m 0.0523,-6.18475 0.003,-1.74423 -0.005,-1.35463 1,-0.004 0.005,1.35972 -0.003,1.74423 -1,-0.001 z m -0.0499,-6.1266 c -0.0241,-1.00119 -0.0567,-2.00142 -0.0978,-3.00067 l 0.99915,-0.0412 c 0.0414,1.00705 0.0742,2.01295 0.0984,3.01773 l -0.99976,0.0241 z m -0.24609,-5.97243 c -0.058,-0.98944 -0.12421,-1.9704 -0.19855,-2.94287 l 0.99707,-0.0762 c 0.0748,0.97944 0.14142,1.96629 0.19977,2.96051 l -0.99829,0.0585 z m -0.45575,-5.94415 c -0.0956,-1.00518 -0.2002,-2.00478 -0.31385,-2.99883 l 0.99353,-0.11358 c 0.1142,0.99925 0.21949,2.00518 0.3158,3.01777 l -0.99548,0.0946 z m -0.68201,-5.96642 c -0.13202,-0.9852 -0.27295,-1.96399 -0.42267,-2.93637 l 0.9884,-0.15219 c 0.15015,0.9752 0.29194,1.96046 0.42536,2.95578 z m -0.90387,-5.86508 c -0.17432,-0.99718 -0.35785,-1.98692 -0.5506,-2.96922 l 0.98133,-0.19263 c 0.1939,0.98822 0.37866,1.98482 0.55438,2.98979 z m -1.15924,-5.90509 c -0.21161,-0.96913 -0.4339,-1.93665 -0.66681,-2.90254 l 0.97217,-0.23441 c 0.23407,0.97121 0.45788,1.94571 0.67157,2.92351 z m -1.39166,-5.77184 c -0.25684,-0.97169 -0.52387,-1.93803 -0.80109,-2.89901 l 0.96082,-0.27722 c 0.27917,0.96754 0.54821,1.94113 0.80706,2.92074 z m -1.66553,-5.77168 c -0.29804,-0.95079 -0.60651,-1.8967 -0.92548,-2.83771 l 0.94702,-0.32104 c 0.32184,0.94948 0.6327,1.90269 0.93268,2.85965 z m -1.91199,-5.64049 c -0.34198,-0.93641 -0.69476,-1.86824 -1.05841,-2.79545 l 0.93091,-0.36518 c 0.36688,0.9354 0.72253,1.87461 1.06683,2.81762 z m -2.18597,-5.57171 c -0.38715,-0.92107 -0.784,-1.83446 -1.19055,-2.74021 l 0.91223,-0.40954 c 0.41009,0.91345 0.81018,1.83424 1.20019,2.76236 z m -2.44428,-5.44438 c -0.4292,-0.89718 -0.86926,-1.78885 -1.32013,-2.67505 l 0.89124,-0.45349 c 0.4552,0.89456 0.89886,1.79355 1.33099,2.69696 z m -2.70837,-5.3227 c -0.47437,-0.87845 -0.95837,-1.74885 -1.45197,-2.61123 l 0.86792,-0.49668 c 0.49787,0.86983 0.98584,1.74739 1.46393,2.63272 z m -2.96784,-5.18614 c -0.51452,-0.85008 -1.0404,-1.69524 -1.57769,-2.53549 l 0.84253,-0.53867 c 0.54181,0.84729 1.07202,1.69939 1.59063,2.55628 z m -3.2135,-5.02653 c -0.55548,-0.82384 -1.12182,-1.64222 -1.69915,-2.45511 l 0.8153,-0.57901 c 0.58173,0.81913 1.15271,1.64416 1.71296,2.47506 z m -3.46154,-4.87428 c -0.59577,-0.79735 -1.2035,-1.59072 -1.82331,-2.38012 l 0.7865,-0.61757 c 0.62421,0.79504 1.23682,1.59475 1.83783,2.39913 z m -3.68427,-4.69353 c -0.62964,-0.76424 -1.27045,-1.52376 -1.92248,-2.27854 l 0.75671,-0.65371 c 0.65698,0.76052 1.30279,1.52597 1.9375,2.29636 z m -3.90655,-4.52222 c -0.67273,-0.74329 -1.35462,-1.47957 -2.0456,-2.20881 l 0.72595,-0.6878 c 0.69538,0.7339 1.38245,1.47576 2.0611,2.2256 z m -4.10993,-4.33958 c -0.6944,-0.70099 -1.3996,-1.39751 -2.11548,-2.08956 l 0.69495,-0.71904 c 0.72113,0.69702 1.43146,1.39865 2.13098,2.10488 z m -4.28967,-4.14592 c -0.73615,-0.68145 -1.48047,-1.35583 -2.23291,-2.02315 l 0.66357,-0.74812 c 0.75775,0.67202 1.50727,1.35116 2.24866,2.03742 z m -4.4881,-3.98209 c -0.74933,-0.63742 -1.50757,-1.26949 -2.27472,-1.8962 l 0.63257,-0.77446 c 0.77277,0.63127 1.53613,1.26761 2.2901,1.909 z m -4.60455,-3.761231 c -0.78369,-0.614861 -1.57874,-1.226151 -2.38507,-1.83387 l 0.60192,-0.7986 c 0.80951,0.61007 1.60962,1.225304 2.40033,1.845696 z m -4.82416,-3.635888 c -0.79022,-0.572341 -1.59027,-1.14077 -2.40015,-1.705276 l 0.5719,-0.820358 c 0.81391,0.567459 1.61884,1.139366 2.4148,1.715713 z m -4.85144,-3.381706 c -0.82514,-0.553734 -1.65924,-1.102913 -2.50232,-1.647552 l 0.5426,-0.839966 c 0.84967,0.548897 1.68866,1.10128 2.51697,1.657135 z m -5.05579,-3.266235 c -0.84723,-0.527062 -1.70251,-1.049271 -2.56592,-1.566643 l 0.51404,-0.857757 c 0.86829,0.520401 1.72834,1.045494 2.58008,1.575279 z m -5.10699,-3.062241 c -0.85303,-0.493065 -1.7157,-0.982765 -2.58795,-1.469108 l 0.48693,-0.873444 c 0.87751,0.489182 1.74463,0.981445 2.60151,1.476784 z m -5.22278,-2.911728 c -0.88605,-0.476478 -1.77997,-0.948524 -2.6817,-1.416137 l 0.46033,-0.887726 c 0.90802,0.470894 1.80633,0.945267 2.695,1.423111 z m -5.3504,-2.775764 c -0.87567,-0.438316 -1.75775,-0.872223 -2.64612,-1.301712 l 0.4353,-0.900299 c 0.89276,0.431625 1.77893,0.867546 2.65845,1.30777 z m -5.33503,-2.579285 c -0.90533,-0.422752 -1.81585,-0.840568 -2.73156,-1.253441 l 0.41101,-0.911605 c 0.92059,0.415107 1.83514,0.834762 2.74365,1.258964 z m -5.50573,-2.482719 c -0.91449,-0.398186 -1.83667,-0.792839 -2.7666,-1.18396 l 0.38769,-0.921784 c 0.93366,0.392701 1.85968,0.788994 2.77808,1.188874 z m -5.48706,-2.309128 c -0.91181,-0.370842 -1.83148,-0.738602 -2.75916,-1.103287 l 0.36585,-0.930664 c 0.93182,0.366333 1.85516,0.735542 2.77002,1.10762 z m -5.55701,-2.18467 c -0.94,-0.357139 -1.8855,-0.710311 -2.83649,-1.059501 l 0.34461,-0.938721 c 0.95709,0.351372 1.90613,0.705841 2.8471,1.063423 z m -5.71082,-2.096778 c -0.9201,-0.326302 -1.84313,-0.648339 -2.76922,-0.966095 l 0.32458,-0.945862 c 0.92804,0.318413 1.85431,0.641571 2.77887,0.969482 z m -5.57342,-1.912384 c -0.93793,-0.311272 -1.88434,-0.620102 -2.83917,-0.926491 l 0.30554,-0.952179 c 0.95703,0.307113 1.90655,0.616974 2.84857,0.929573 z m -5.71338,-1.833184 c -0.96246,-0.298485 -1.93213,-0.594108 -2.90906,-0.886863 l 0.28699,-0.957917 c 0.98157,0.294148 1.95435,0.590699 2.91834,0.889656 z m -5.79944,-1.738369 c -0.93707,-0.271373 -1.88012,-0.539985 -2.82916,-0.805828 l 0.26977,-0.962936 c 0.9516,0.266556 1.89747,0.535965 2.83759,0.808231 z m -5.6878,-1.593227 -2.89637,-0.771149 0.25733,-0.966339 2.89636,0.771149 z m -5.81623,-1.522274 -2.95941,-0.735252 0.24109,-0.970498 2.95941,0.735253 z m -5.87884,-1.435677 -2.87067,-0.665336 0.22583,-0.974175 2.87067,0.665337 z m -5.76251,-1.312847 -2.92755,-0.632927 0.2113,-0.977417 2.92755,0.632927 z m -5.87647,-1.248169 -2.98443,-0.600532 0.19726,-0.980347 2.98444,0.600533 z m -5.96405,-1.178474 -2.89056,-0.540634 0.18384,-0.982956 2.89056,0.540634 z m -5.80054,-1.065483 -2.94195,-0.511326 0.17126,-0.98523 2.94196,0.511326 z m -5.90356,-1.006985 -2.99341,-0.482033 0.15894,-0.987282 2.99341,0.482033 z m -6.00671,-0.948517 -2.95502,-0.439644 0.14722,-0.989113 2.95501,0.439644 z m -5.86982,-0.856445 -2.9436,-0.40432 0.13611,-0.9907 2.9436,0.40432 z m -5.90515,-0.794689 -2.99017,-0.377808 0.12537,-0.992111 2.99017,0.377807 z m -5.99835,-0.741707 -3.0368,-0.351299 0.11486,-0.993378 3.03681,0.351299 z m -5.98993,-0.677784 -2.93548,-0.31004 0.10498,-0.994468 2.93548,0.310039 z m -5.88757,-0.607586 -2.97779,-0.285984 0.0956,-0.995422 2.97778,0.285984 -0.0956,0.995422 z m -5.97211,-0.559532 -3.02008,-0.261921 0.0864,-0.996262 3.02008,0.261921 z m -6.05676,-0.511444 -2.99866,-0.233063 0.0775,-0.996994 2.99865,0.233063 -0.0775,0.996994 z m -5.93384,-0.448605 -2.95868,-0.204925 0.0691,-0.997612 2.95868,0.204925 z m -5.93249,-0.398647 -2.99708,-0.183029 0.0609,-0.998139 2.99707,0.183029 -0.0609,0.998139 z m -6.00947,-0.354904 -3.03546,-0.161148 0.053,-0.998597 3.03546,0.161148 z m -6.0863,-0.311169 -2.9566,-0.134178 0.0453,-0.99897 2.9566,0.134178 z m -5.90521,-0.257187 -2.96973,-0.11319 0.0381,-0.999275 2.96972,0.11319 -0.0381,0.999275 z m -5.95337,-0.216278 -3.0047,-0.09325 0.031,-0.99952 3.0047,0.09325 z m -6.0235,-0.176418 -3.03973,-0.07329 0.024,-0.99971 3.03974,0.07329 -0.024,0.99971 z m -6.09375,-0.136559 -2.95587,-0.05146 0.0175,-0.999847 2.95587,0.05146 z m -5.90796,-0.09346 -2.97137,-0.03292 0.0111,-0.999939 2.97137,0.03292 z m -5.95563,-0.05671 -3.00335,-0.01469 0.005,-0.999985 3.00336,0.01469 -0.005,0.999985 z m -6.01953,-0.02027 -3.0354,0.0036 -10e-4,-1 3.03534,-0.0036 10e-4,1 z m -6.08386,0.01619 -2.9956,0.02116 -0.007,-0.999977 2.9956,-0.02116 z m -5.94385,0.05031 -2.96563,0.03754 -0.0126,-0.999924 2.96564,-0.03754 0.0126,0.999924 z m -5.94314,0.08339 -2.995,0.05423 -0.0181,-0.99984 2.99499,-0.05423 0.0181,0.99984 z m -6.00202,0.116779 -3.02435,0.07095 -0.0234,-0.999725 3.02436,-0.07095 0.0234,0.999725 z m -6.06067,0.150185 -3.05368,0.08767 -0.0287,-0.999588 3.05368,-0.08767 z m -6.01193,0.180115 -2.95434,0.09959 -0.0337,-0.999436 2.95434,-0.09959 z m -5.9198,0.206775 -2.98129,0.114949 -0.0385,-0.99926 2.98129,-0.114949 z m -5.97369,0.237465 -3.00824,0.13031 -0.0433,-0.999061 3.00824,-0.13031 z m -6.02768,0.268173 -3.03519,0.145657 -0.0479,-0.998848 3.03519,-0.145656 z m -6.08157,0.298867 -2.96781,0.155948 -0.0525,-0.998619 2.96781,-0.155948 z m -5.91687,0.317341 -2.96366,0.16859 -0.0568,-0.998382 2.96365,-0.168591 0.0568,0.998383 z m -5.93754,0.344116 -2.98846,0.182735 -0.061,-0.998138 2.98846,-0.182736 z m -5.98724,0.37241 -3.0133,0.196861 -0.0652,-0.997871 3.01331,-0.196862 0.0652,0.997872 z m -6.03689,0.40065 -3.03812,0.211021 -0.0693,-0.997597 3.03812,-0.211021 z m -6.0503,0.426342 -2.94293,0.216133 -0.0732,-0.997315 2.94293,-0.216133 z m -5.89547,0.438667 -2.96586,0.229202 -0.077,-0.997024 2.96585,-0.229203 0.077,0.997025 z m -5.94129,0.46479 -2.98877,0.242264 -0.0808,-0.996735 2.98877,-0.242263 z m -5.98724,0.490906 -3.01172,0.255318 -0.0845,-0.99643 3.01171,-0.255317 0.0845,0.996429 z m -6.03305,0.516991 -3.03461,0.268394 -0.0881,-0.996109 3.0346,-0.268394 0.0881,0.996109 z m -6.02576,0.53828 -2.94128,0.270565 -0.0916,-0.995796 2.94129,-0.270565 0.0916,0.995796 z m -5.89154,0.546993 -2.96252,0.282631 -0.095,-0.995483 2.96253,-0.282631 0.095,0.995483 z m -5.93405,0.571141 -2.98374,0.294719 -0.0983,-0.995155 2.98373,-0.29472 0.0983,0.995156 z m -5.97641,0.595325 -3.00495,0.306809 -0.10156,-0.994828 3.00495,-0.306808 z m -6.01892,0.619477 -3.02619,0.318904 -0.10479,-0.994491 3.02618,-0.318905 z m -6.03586,0.640914 -2.93509,0.318661 -0.10791,-0.994156 2.93509,-0.31866 z m -5.87845,0.642735 -2.95474,0.329895 -0.11096,-0.993828 2.95474,-0.329895 z m -5.91782,0.665176 -2.97445,0.341107 -0.11396,-0.993492 2.97446,-0.341107 z m -5.95727,0.687634 -2.99408,0.35228 -0.11688,-0.993149 2.99408,-0.35228 z m -5.99661,0.710018 -3.01383,0.363514 -0.11975,-0.992805 3.01383,-0.363514 z m -6.03608,0.732464 -2.96777,0.366562 -0.12256,-0.992462 2.96778,-0.366562 z m -5.90072,0.732937 -2.94348,0.371757 -0.12531,-0.992119 2.94348,-0.371757 z m -5.89475,0.748546 -2.96179,0.382191 -0.12799,-0.991775 2.96179,-0.382191 z m -5.93136,0.769406 -2.98011,0.392624 -0.13061,-0.991433 2.9801,-0.392623 z m -5.96799,0.790279 -2.99835,0.403034 -0.13324,-0.991089 2.99835,-0.403034 z m -6.00464,0.811119 -3.01666,0.413464 -0.1358,-0.990738 3.01666,-0.413464 z m -5.97934,0.823345 -2.92947,0.409039 -0.13831,-0.990395 2.92948,-0.409038 z m -5.86621,0.822705 -2.94653,0.418758 -0.14069,-0.990051 2.94654,-0.418759 z m -5.9003,0.842144 -2.96359,0.42847 -0.14307,-0.989708 2.9636,-0.42847 z m -5.93454,0.861599 -2.98059,0.438163 -0.14545,-0.989364 2.9806,-0.438164 z m -5.96856,0.881004 -2.99765,0.447891 -0.14777,-0.989013 2.99765,-0.447892 z m -6.00275,0.900452 -2.99664,0.454857 -0.15009,-0.988678 2.99664,-0.454857 z m -5.91681,0.901458 -2.9292,0.451317 -0.15228,-0.988342 2.9292,-0.451317 z m -5.86527,0.906998 -2.94512,0.460373 -0.15445,-0.988007 2.94516,-0.460372 z m -5.89717,0.92511 -2.96107,0.469467 -0.15659,-0.987656 2.96108,-0.469482 z m -5.92904,0.943291 -2.97701,0.478538 -0.15872,-0.98732 2.97701,-0.478538 z m -5.96094,0.961441 -2.99292,0.487602 -0.1608,-0.986984 2.99292,-0.487603 z m -5.99284,0.979599 -1.89847,0.312996 -0.16266,-0.986679 1.89847,-0.312996 z"
             style="fill:#000000;fill-opacity:1;fill-rule:nonzero;stroke:none"
             id="path1612"
             inkscape:connector-curvature="0" /><path
             d="m 227.10001,72.82 6.33999,-4.599999 -1.16,3.739998 2.3,3.169998 z"
             style="fill:#000000;fill-opacity:1;fill-rule:nonzero;stroke:none"
             id="path1614"
             inkscape:connector-curvature="0" /><path
             d="m 227.10001,72.82 6.33999,-4.599999 -1.16,3.739998 2.3,3.169998 z"
             style="fill:none;stroke:#000000;stroke-width:1;stroke-linecap:butt;stroke-linejoin:miter;stroke-miterlimit:10;stroke-dasharray:none;stroke-opacity:1"
             id="path1616"
             inkscape:connector-curvature="0" /></g><g
           id="g1618"
           transform="matrix(2.9933815,0,0,2.9933815,2128.2942,987.81592)"><path
             d="M 0,0 H 119 V 26 H 0 Z"
             style="fill:#ffffff;fill-opacity:1;fill-rule:nonzero;stroke:none"
             id="path1620"
             inkscape:connector-curvature="0" /><path
             d="M 0,0 H 119 V 12 H 0 Z"
             style="fill:#ffffcc;fill-opacity:1;fill-rule:nonzero;stroke:none"
             id="path1622"
             inkscape:connector-curvature="0" /><text
             transform="translate(0,10)"
             style="font-variant:normal;font-weight:normal;font-size:11px;font-family:TimesNewRomanPSMT;-inkscape-font-specification:TimesNewRomanPSMT;writing-mode:lr-tb;fill:#000000;fill-opacity:1;fill-rule:nonzero;stroke:none"
             id="text1626"><tspan
               x="0 5.5 11 14.056152 17.112305 22.612305 28.112305 32.994629 36.050781 39.106934 41.856934 47.356934 52.856934 55.913086 58.969238 61.719238 67.219238 70.882324 78.826172 83.708496 86.764648 92.882324 98.382324 102.66309 105.71924 110.60156"
               y="0"
               sodipodi:role="line"
               id="tspan1624">optional:	poll	xrGetSystem</tspan></text>
<path
             d="m 11,13 h 98 V 25 H 11 Z"
             style="fill:#ffffcc;fill-opacity:1;fill-rule:nonzero;stroke:none"
             id="path1628"
             inkscape:connector-curvature="0" /><text
             transform="translate(10.5625,23)"
             style="font-variant:normal;font-weight:normal;font-size:11px;font-family:TimesNewRomanPSMT;-inkscape-font-specification:TimesNewRomanPSMT;writing-mode:lr-tb;fill:#000000;fill-opacity:1;fill-rule:nonzero;stroke:none"
             id="text1632"><tspan
               x="0 5.5 9.1630859 16.5 20.163086 25.04541 29.927734 32.983887 37.866211 43.983887 48.866211 53.146973 57.427734 60.483887 65.983887 71.483887 74.233887 79.116211 84.616211 89.498535 92.554688"
               y="0"
               sodipodi:role="line"
               id="tspan1630">xrCreateSession	again</tspan></text>
</g><g
           id="g1634"
           transform="matrix(2.9933815,0,0,2.9933815,1.4966907,1.4966907)"><path
             d="M 211,8 V 51.630001"
             style="fill:none;stroke:#000000;stroke-width:1;stroke-linecap:butt;stroke-linejoin:miter;stroke-miterlimit:10;stroke-dasharray:none;stroke-opacity:1"
             id="path1636"
             inkscape:connector-curvature="0" /><path
             d="m 211,56.880001 -3.5,-7 3.5,1.75 3.5,-1.75 z"
             style="fill:#000000;fill-opacity:1;fill-rule:nonzero;stroke:none"
             id="path1638"
             inkscape:connector-curvature="0" /><path
             d="m 211,56.880001 -3.5,-7 3.5,1.75 3.5,-1.75 z"
             style="fill:none;stroke:#000000;stroke-width:1;stroke-linecap:butt;stroke-linejoin:miter;stroke-miterlimit:10;stroke-dasharray:none;stroke-opacity:1"
             id="path1640"
             inkscape:connector-curvature="0" /></g><g
           id="g1642"
           transform="matrix(2.9933815,0,0,2.9933815,520.84839,83.814682)"><path
             d="M 0,0 H 75 V 13 H 0 Z"
             style="fill:#ffffff;fill-opacity:1;fill-rule:nonzero;stroke:none"
             id="path1644"
             inkscape:connector-curvature="0" /><text
             transform="translate(0,10)"
             style="font-variant:normal;font-weight:normal;font-size:11px;font-family:TimesNewRomanPSMT;-inkscape-font-specification:TimesNewRomanPSMT;writing-mode:lr-tb;fill:#000000;fill-opacity:1;fill-rule:nonzero;stroke:none"
             id="text1648"><tspan
               x="0 5.5 9.1630859 16.5 20.163086 25.04541 29.927734 32.983887 37.866211 41.529297 47.029297 51.310059 54.366211 59.248535 64.748535 69.630859"
               y="0"
               sodipodi:role="line"
               id="tspan1646">xrCreateInstance</tspan></text>
</g><g
           id="g1650"
           transform="matrix(2.9933815,0,0,2.9933815,1.4966907,1.4966907)"><path
             d="m 181,438 v 13.63"
             style="fill:none;stroke:#000000;stroke-width:1;stroke-linecap:butt;stroke-linejoin:miter;stroke-miterlimit:10;stroke-dasharray:none;stroke-opacity:1"
             id="path1652"
             inkscape:connector-curvature="0" /><path
             d="m 181,456.88 -3.5,-7 3.5,1.75 3.5,-1.75 z"
             style="fill:#000000;fill-opacity:1;fill-rule:nonzero;stroke:none"
             id="path1654"
             inkscape:connector-curvature="0" /><path
             d="m 181,456.88 -3.5,-7 3.5,1.75 3.5,-1.75 z"
             style="fill:none;stroke:#000000;stroke-width:1;stroke-linecap:butt;stroke-linejoin:miter;stroke-miterlimit:10;stroke-dasharray:none;stroke-opacity:1"
             id="path1656"
             inkscape:connector-curvature="0" /><path
             d="M 241,393 V 379.37"
             style="fill:none;stroke:#000000;stroke-width:1;stroke-linecap:butt;stroke-linejoin:miter;stroke-miterlimit:10;stroke-dasharray:none;stroke-opacity:1"
             id="path1658"
             inkscape:connector-curvature="0" /><path
             d="m 241,374.12 3.5,7 -3.5,-1.75 -3.5,1.75 z"
             style="fill:#000000;fill-opacity:1;fill-rule:nonzero;stroke:none"
             id="path1660"
             inkscape:connector-curvature="0" /><path
             d="m 241,374.12 3.5,7 -3.5,-1.75 -3.5,1.75 z"
             style="fill:none;stroke:#000000;stroke-width:1;stroke-linecap:butt;stroke-linejoin:miter;stroke-miterlimit:10;stroke-dasharray:none;stroke-opacity:1"
             id="path1662"
             inkscape:connector-curvature="0" /><path
             d="m 157.75,393 h 106.5 c 0.44321,0 0.88217,0.0432 1.31683,0.12967 0.43467,0.0865 0.85675,0.21451 1.26624,0.38409 0.40945,0.16959 0.79846,0.37751 1.16699,0.62375 0.36853,0.24625 0.7095,0.52609 1.02289,0.83948 0.31338,0.31338 0.5932,0.65436 0.83942,1.02286 0.24624,0.3685 0.45416,0.7575 0.62378,1.16699 0.16961,0.40945 0.29766,0.83154 0.38415,1.26627 0.0865,0.43469 0.12967,0.87365 0.1297,1.31689 v 31.5 c -3e-5,0.44321 -0.0432,0.88217 -0.1297,1.31683 -0.0865,0.43467 -0.21454,0.85675 -0.38415,1.26624 -0.16962,0.40945 -0.37754,0.79846 -0.62378,1.16699 -0.24622,0.36853 -0.52604,0.7095 -0.83942,1.02289 -0.31339,0.31338 -0.65436,0.59317 -1.02289,0.83939 -0.36853,0.24624 -0.75754,0.45416 -1.16699,0.62377 -0.40949,0.16962 -0.83157,0.29767 -1.26624,0.38413 -0.43466,0.0865 -0.87362,0.12973 -1.31683,0.12976 h -106.5 c -0.44322,-3e-5 -0.88219,-0.0433 -1.3169,-0.12979 -0.43469,-0.0865 -0.85676,-0.21448 -1.26623,-0.3841 -0.40947,-0.16961 -0.79848,-0.37753 -1.16699,-0.62377 -0.36852,-0.24622 -0.70946,-0.52601 -1.02286,-0.83939 -0.3134,-0.31339 -0.59322,-0.65436 -0.83945,-1.02289 -0.24624,-0.36853 -0.45418,-0.75754 -0.62378,-1.16699 -0.1696,-0.40949 -0.29763,-0.83157 -0.38411,-1.26624 C 151.04323,432.13217 151,431.69321 151,431.25 v -31.5 c 0,-0.44324 0.0432,-0.8822 0.12968,-1.31689 0.0865,-0.43473 0.21451,-0.85682 0.38411,-1.26627 0.1696,-0.40949 0.37754,-0.79846 0.62378,-1.16696 0.24623,-0.36853 0.52605,-0.70951 0.83945,-1.02289 0.3134,-0.31339 0.65434,-0.5932 1.02286,-0.83945 0.36851,-0.24624 0.75752,-0.45419 1.16699,-0.62378 0.40947,-0.16958 0.83154,-0.29763 1.26623,-0.38409 C 156.86781,393.04321 157.30678,393 157.75,393 Z"
             style="fill:#ffffff;fill-opacity:1;fill-rule:nonzero;stroke:none"
             id="path1664"
             inkscape:connector-curvature="0" /><path
             d="m 157.75,393 h 106.5 c 0.44321,0 0.88217,0.0432 1.31683,0.12967 0.43467,0.0865 0.85675,0.21451 1.26624,0.38409 0.40945,0.16959 0.79846,0.37751 1.16699,0.62375 0.36853,0.24625 0.7095,0.52609 1.02289,0.83948 0.31338,0.31338 0.5932,0.65436 0.83942,1.02286 0.24624,0.3685 0.45416,0.7575 0.62378,1.16699 0.16961,0.40945 0.29766,0.83154 0.38415,1.26627 0.0865,0.43469 0.12967,0.87365 0.1297,1.31689 v 31.5 c -3e-5,0.44321 -0.0432,0.88217 -0.1297,1.31683 -0.0865,0.43467 -0.21454,0.85675 -0.38415,1.26624 -0.16962,0.40945 -0.37754,0.79846 -0.62378,1.16699 -0.24622,0.36853 -0.52604,0.7095 -0.83942,1.02289 -0.31339,0.31338 -0.65436,0.59317 -1.02289,0.83939 -0.36853,0.24624 -0.75754,0.45416 -1.16699,0.62377 -0.40949,0.16962 -0.83157,0.29767 -1.26624,0.38413 -0.43466,0.0865 -0.87362,0.12973 -1.31683,0.12976 h -106.5 c -0.44322,-3e-5 -0.88219,-0.0433 -1.3169,-0.12979 -0.43469,-0.0865 -0.85676,-0.21448 -1.26623,-0.3841 -0.40947,-0.16961 -0.79848,-0.37753 -1.16699,-0.62377 -0.36852,-0.24622 -0.70946,-0.52601 -1.02286,-0.83939 -0.3134,-0.31339 -0.59322,-0.65436 -0.83945,-1.02289 -0.24624,-0.36853 -0.45418,-0.75754 -0.62378,-1.16699 -0.1696,-0.40949 -0.29763,-0.83157 -0.38411,-1.26624 C 151.04323,432.13217 151,431.69321 151,431.25 v -31.5 c 0,-0.44324 0.0432,-0.8822 0.12968,-1.31689 0.0865,-0.43473 0.21451,-0.85682 0.38411,-1.26627 0.1696,-0.40949 0.37754,-0.79846 0.62378,-1.16696 0.24623,-0.36853 0.52605,-0.70951 0.83945,-1.02289 0.3134,-0.31339 0.65434,-0.5932 1.02286,-0.83945 0.36851,-0.24624 0.75752,-0.45419 1.16699,-0.62378 0.40947,-0.16958 0.83154,-0.29763 1.26623,-0.38409 C 156.86781,393.04321 157.30678,393 157.75,393 Z"
             style="fill:none;stroke:#000000;stroke-width:1;stroke-linecap:butt;stroke-linejoin:miter;stroke-miterlimit:10;stroke-dasharray:none;stroke-opacity:1"
             id="path1666"
             inkscape:connector-curvature="0" /></g><g
           id="g1668"
           transform="matrix(2.9933815,0,0,2.9933815,562.75574,1227.2864)"><text
             transform="translate(0.5,11)"
             style="font-variant:normal;font-weight:normal;font-size:12px;font-family:TimesNewRomanPSMT;-inkscape-font-specification:TimesNewRomanPSMT;writing-mode:lr-tb;fill:#000000;fill-opacity:1;fill-rule:nonzero;stroke:none"
             id="text1672"><tspan
               x="0 8.6660156 12.662109 19.335938 23.332031 31.335938 38.666016"
               y="0"
               sodipodi:role="line"
               id="tspan1670">VISIBLE</tspan></text>
</g><g
           id="g1674"
           transform="matrix(2.9933815,0,0,2.9933815,1.4966907,1.4966907)"><path
             d="M 241,458 V 444.37"
             style="fill:none;stroke:#000000;stroke-width:1;stroke-linecap:butt;stroke-linejoin:miter;stroke-miterlimit:10;stroke-dasharray:none;stroke-opacity:1"
             id="path1676"
             inkscape:connector-curvature="0" /><path
             d="m 241,439.12 3.5,7 -3.5,-1.75 -3.5,1.75 z"
             style="fill:#000000;fill-opacity:1;fill-rule:nonzero;stroke:none"
             id="path1678"
             inkscape:connector-curvature="0" /><path
             d="m 241,439.12 3.5,7 -3.5,-1.75 -3.5,1.75 z"
             style="fill:none;stroke:#000000;stroke-width:1;stroke-linecap:butt;stroke-linejoin:miter;stroke-miterlimit:10;stroke-dasharray:none;stroke-opacity:1"
             id="path1680"
             inkscape:connector-curvature="0" /><path
             d="m 158.5,458 h 105 c 0.49246,3e-5 0.98016,0.0481 1.46317,0.1441 0.48297,0.096 0.95193,0.23832 1.40692,0.42676 0.45498,0.18845 0.88717,0.41947 1.29663,0.69306 0.40948,0.27359 0.78833,0.5845 1.13656,0.93274 0.34821,0.3482 0.65909,0.72705 0.93268,1.1365 0.27359,0.40945 0.50464,0.84168 0.69309,1.29663 0.18844,0.45499 0.33072,0.92398 0.42682,1.40698 0.0961,0.48301 0.1441,0.97077 0.14413,1.46323 v 35 c -3e-5,0.49246 -0.0481,0.98016 -0.14413,1.46313 -0.0961,0.48298 -0.23838,0.95194 -0.42682,1.4069 -0.18845,0.45498 -0.4195,0.8872 -0.69309,1.29666 -0.27359,0.40948 -0.58447,0.78833 -0.93268,1.13656 -0.34823,0.34821 -0.72708,0.65909 -1.13653,0.93268 -0.40946,0.27359 -0.84168,0.50461 -1.29666,0.69309 -0.45499,0.18844 -0.92395,0.33072 -1.40692,0.42681 -0.48301,0.0961 -0.97071,0.14414 -1.46317,0.14417 h -105 c -0.49246,-3e-5 -0.98019,-0.0481 -1.46318,-0.14417 -0.48302,-0.0961 -0.952,-0.23837 -1.40697,-0.42681 -0.45497,-0.18848 -0.88717,-0.4195 -1.29664,-0.69309 -0.40946,-0.27359 -0.78829,-0.58447 -1.13651,-0.93268 -0.34822,-0.34823 -0.65913,-0.72708 -0.93274,-1.13656 -0.27359,-0.40946 -0.50461,-0.84168 -0.69307,-1.29666 -0.18846,-0.45496 -0.33072,-0.92392 -0.42679,-1.4069 C 151.04803,501.48016 151,500.99246 151,500.5 v -35 c 0,-0.49246 0.048,-0.98022 0.1441,-1.46323 0.0961,-0.483 0.23833,-0.95196 0.42679,-1.40695 0.18846,-0.45498 0.41948,-0.88721 0.69307,-1.29666 0.27361,-0.40945 0.58452,-0.7883 0.93274,-1.1365 0.34822,-0.34824 0.72705,-0.65915 1.13649,-0.93274 0.40947,-0.27359 0.84169,-0.50461 1.29666,-0.69306 0.45497,-0.18844 0.92395,-0.33072 1.40697,-0.42676 0.48299,-0.096 0.97072,-0.14407 1.46318,-0.1441 z"
             style="fill:#ffffff;fill-opacity:1;fill-rule:nonzero;stroke:none"
             id="path1682"
             inkscape:connector-curvature="0" /><path
             d="m 158.5,458 h 105 c 0.49246,3e-5 0.98016,0.0481 1.46317,0.1441 0.48297,0.096 0.95193,0.23832 1.40692,0.42676 0.45498,0.18845 0.88717,0.41947 1.29663,0.69306 0.40948,0.27359 0.78833,0.5845 1.13656,0.93274 0.34821,0.3482 0.65909,0.72705 0.93268,1.1365 0.27359,0.40945 0.50464,0.84168 0.69309,1.29663 0.18844,0.45499 0.33072,0.92398 0.42682,1.40698 0.0961,0.48301 0.1441,0.97077 0.14413,1.46323 v 35 c -3e-5,0.49246 -0.0481,0.98016 -0.14413,1.46313 -0.0961,0.48298 -0.23838,0.95194 -0.42682,1.4069 -0.18845,0.45498 -0.4195,0.8872 -0.69309,1.29666 -0.27359,0.40948 -0.58447,0.78833 -0.93268,1.13656 -0.34823,0.34821 -0.72708,0.65909 -1.13653,0.93268 -0.40946,0.27359 -0.84168,0.50461 -1.29666,0.69309 -0.45499,0.18844 -0.92395,0.33072 -1.40692,0.42681 -0.48301,0.0961 -0.97071,0.14414 -1.46317,0.14417 h -105 c -0.49246,-3e-5 -0.98019,-0.0481 -1.46318,-0.14417 -0.48302,-0.0961 -0.952,-0.23837 -1.40697,-0.42681 -0.45497,-0.18848 -0.88717,-0.4195 -1.29664,-0.69309 -0.40946,-0.27359 -0.78829,-0.58447 -1.13651,-0.93268 -0.34822,-0.34823 -0.65913,-0.72708 -0.93274,-1.13656 -0.27359,-0.40946 -0.50461,-0.84168 -0.69307,-1.29666 -0.18846,-0.45496 -0.33072,-0.92392 -0.42679,-1.4069 C 151.04803,501.48016 151,500.99246 151,500.5 v -35 c 0,-0.49246 0.048,-0.98022 0.1441,-1.46323 0.0961,-0.483 0.23833,-0.95196 0.42679,-1.40695 0.18846,-0.45498 0.41948,-0.88721 0.69307,-1.29666 0.27361,-0.40945 0.58452,-0.7883 0.93274,-1.1365 0.34822,-0.34824 0.72705,-0.65915 1.13649,-0.93274 0.40947,-0.27359 0.84169,-0.50461 1.29666,-0.69306 0.45497,-0.18844 0.92395,-0.33072 1.40697,-0.42676 0.48299,-0.096 0.97072,-0.14407 1.46318,-0.1441 z"
             style="fill:none;stroke:#000000;stroke-width:1;stroke-linecap:butt;stroke-linejoin:miter;stroke-miterlimit:10;stroke-dasharray:none;stroke-opacity:1"
             id="path1684"
             inkscape:connector-curvature="0" /></g><g
           id="g1686"
           transform="matrix(2.9933815,0,0,2.9933815,550.78223,1427.843)"><text
             transform="translate(0.65625,11)"
             style="font-variant:normal;font-weight:normal;font-size:12px;font-family:TimesNewRomanPSMT;-inkscape-font-specification:TimesNewRomanPSMT;writing-mode:lr-tb;fill:#000000;fill-opacity:1;fill-rule:nonzero;stroke:none"
             id="text1690"><tspan
               x="0 6.6738281 15.339844 23.34375 32.009766 38.683594 46.013672"
               y="0"
               sodipodi:role="line"
               id="tspan1688">FOCUSED</tspan></text>
</g><g
           id="g1692"
           transform="matrix(2.9933815,0,0,2.9933815,1.4966907,1.4966907)"><path
             d="M 370,238 276.85999,198.49001"
             style="fill:none;stroke:#000000;stroke-width:1;stroke-linecap:butt;stroke-linejoin:miter;stroke-miterlimit:10;stroke-dasharray:none;stroke-opacity:1"
             id="path1694"
             inkscape:connector-curvature="0" /><path
             d="m 272.03,196.44 7.81,-0.49 -2.98001,2.54001 0.25,3.89999 z"
             style="fill:#000000;fill-opacity:1;fill-rule:nonzero;stroke:none"
             id="path1696"
             inkscape:connector-curvature="0" /><path
             d="m 272.03,196.44 7.81,-0.49 -2.98001,2.54001 0.25,3.89999 z"
             style="fill:none;stroke:#000000;stroke-width:1;stroke-linecap:butt;stroke-linejoin:miter;stroke-miterlimit:10;stroke-dasharray:none;stroke-opacity:1"
             id="path1698"
             inkscape:connector-curvature="0" /></g><g
           id="g1700"
           transform="matrix(2.9933815,0,0,2.9933815,981.8291,664.5307)"><path
             d="M 0,0 H 61 V 13 H 0 Z"
             style="fill:#ffffff;fill-opacity:1;fill-rule:nonzero;stroke:none"
             id="path1702"
             inkscape:connector-curvature="0" /><text
             transform="translate(0,10)"
             style="font-variant:normal;font-weight:normal;font-size:11px;font-family:TimesNewRomanPSMT;-inkscape-font-specification:TimesNewRomanPSMT;writing-mode:lr-tb;fill:#000000;fill-opacity:1;fill-rule:nonzero;stroke:none"
             id="text1706"><tspan
               x="0 5.5 9.1630859 15.882324 21.382324 26.882324 33 37.882324 42.163086 46.443848 49.5 55"
               y="0"
               sodipodi:role="line"
               id="tspan1704">xrEndSession</tspan></text>
</g></g></g></g></svg>