<svg xmlns="http://www.w3.org/2000/svg" width="874.56" height="492.16"><defs><clipPath id="a"><path d="M0 0h2734v1532.1H0z" clip-rule="evenodd"/></clipPath></defs><g clip-path="url(#a)" transform="scale(.32)"><path fill="none" stroke="#000" stroke-miterlimit="10" stroke-width="2.998" d="M454.227 587.647 201.27 721.157"/><path d="m187.358 728.503 13.671-19.069.24 11.723 9.534 6.836z"/><path fill="none" stroke="#000" stroke-miterlimit="10" stroke-width="2.998" d="m187.358 728.503 13.671-19.069.24 11.723 9.534 6.836z"/><path fill="#fff" d="M62.962 656.606h362.782v38.976H62.962z"/><text xml:space="preserve" font-family="sans-serif" font-size="11" transform="translate(61.979 686.588)scale(2.9982)"><tspan x="0 3.6630859 9.7807617 15.898438 18.95459 21.398438 30.561523 36.679199 39.735352 42.791504 48.291504 54.40918 59.90918 65.40918 67.853027 73.970703 80.088379 83.144531 85.588379 91.088379 94.144531 97.807617 103.92529 110.04297 116.16064" y="0">runtime: session is ready</tspan></text><path fill="none" stroke="#000" stroke-miterlimit="10" stroke-width="2.998" d="M814.011 550.17h493.624"/><path d="m1323.375 550.17-20.987 10.493 5.247-10.493-5.247-10.494z"/><path fill="none" stroke="#000" stroke-miterlimit="10" stroke-width="2.998" d="m1323.375 550.17-20.987 10.493 5.247-10.493-5.247-10.494z"/><path fill="#fff" d="M917.45 485.708h314.81v38.977H917.45z"/><text xml:space="preserve" font-family="sans-serif" font-size="11" transform="translate(916.28 515.69)scale(2.9982)"><tspan x="0 6.1176758 11.617676 17.735352 21.398438 24.45459 27.510742 31.173828 37.291504 43.40918 49.526855 55.644531 61.144531 64.200684 67.256836 73.374512 78.874512 81.318359 84.374512 87.430664 94.767578 102.71143" y="0">user: request exit XR </tspan></text><path fill="#fff" d="M476.714 475.215h314.81a22.4 22.4 0 0 1 8.606 1.711 22.4 22.4 0 0 1 7.295 4.875 22.4 22.4 0 0 1 4.875 7.295 22.4 22.4 0 0 1 1.711 8.605v104.937a22.5 22.5 0 0 1-1.711 8.606 22.4 22.4 0 0 1-4.875 7.295 22.4 22.4 0 0 1-7.295 4.874 22.4 22.4 0 0 1-8.605 1.712H476.714a22.5 22.5 0 0 1-8.606-1.712 22.4 22.4 0 0 1-7.295-4.874 22.4 22.4 0 0 1-4.874-7.296 22.4 22.4 0 0 1-1.712-8.605V497.701a22.4 22.4 0 0 1 1.712-8.605 22.4 22.4 0 0 1 4.874-7.295 22.4 22.4 0 0 1 7.296-4.875 22.4 22.4 0 0 1 8.605-1.711"/><path fill="none" stroke="#000" stroke-miterlimit="10" stroke-width="2.998" d="M476.714 475.215h314.81a22.4 22.4 0 0 1 8.606 1.711 22.4 22.4 0 0 1 7.295 4.875 22.4 22.4 0 0 1 4.875 7.295 22.4 22.4 0 0 1 1.711 8.605v104.937a22.5 22.5 0 0 1-1.711 8.606 22.4 22.4 0 0 1-4.875 7.295 22.4 22.4 0 0 1-7.295 4.874 22.4 22.4 0 0 1-8.605 1.712H476.714a22.5 22.5 0 0 1-8.606-1.712 22.4 22.4 0 0 1-7.295-4.874 22.4 22.4 0 0 1-4.874-7.296 22.4 22.4 0 0 1-1.712-8.605V497.701a22.4 22.4 0 0 1 1.712-8.605 22.4 22.4 0 0 1 4.874-7.295 22.4 22.4 0 0 1 7.296-4.875 22.4 22.4 0 0 1 8.605-1.711z"/><text xml:space="preserve" font-family="sans-serif" font-size="12" transform="translate(592.624 560.663)scale(2.9982)"><tspan x="0 3.3339844 12 18.673828" y="0">IDLE</tspan></text><path fill="none" stroke="#000" stroke-miterlimit="10" stroke-width="2.998" d="M634.12 265.34v190.776"/><path d="m634.12 471.857-10.494-20.988 10.493 5.247 10.494-5.247z"/><path fill="none" stroke="#000" stroke-miterlimit="10" stroke-width="2.998" d="m634.12 471.857-10.494-20.988 10.493 5.247 10.494-5.247z"/><path fill="#fff" d="M512.692 329.802h242.854v80.951H512.692z"/><text xml:space="preserve" font-family="sans-serif" font-size="11" transform="translate(538.837 359.784)scale(2.9982)"><tspan x="0 5.5 9.1630859 17.719238 23.836914 26.893066 34.22998 39.72998 45.22998 48.286133 54.403809" y="0">xrGetSystem</tspan></text><text xml:space="preserve" font-family="sans-serif" font-size="11" transform="translate(512.212 401.759)scale(2.9982)"><tspan x="0 5.5 9.1630859 17.106934 20.77002 26.887695 33.005371 36.061523 42.179199 49.516113 55.633789 61.133789 66.633789 69.077637 75.195312" y="0">xrCreateSession</tspan></text><path fill="none" stroke="#000" stroke-miterlimit="10" stroke-width="2.998" d="M184.39 879.972 436.957 999.24"/><path d="m451.2 1005.986-23.447.51 9.205-7.256-.24-11.723z"/><path fill="none" stroke="#000" stroke-miterlimit="10" stroke-width="2.998" d="m451.2 1005.986-23.447.51 9.205-7.256-.24-11.723z"/><path fill="#fff" d="M104.937 923.446h230.861v38.976H104.937z"/><text xml:space="preserve" font-family="sans-serif" font-size="11" transform="translate(105.78 953.428)scale(2.9982)"><tspan x="0 5.5 9.1630859 16.5 22.617676 28.735352 31.179199 37.296875 44.633789 50.751465 56.251465 61.751465 64.195312 70.312988" y="0">xrBeginSession</tspan></text><path fill="#fff" d="M26.984 730.062h314.81a22.4 22.4 0 0 1 8.606 1.711 22.43 22.43 0 0 1 10.091 8.282 22.4 22.4 0 0 1 3.358 8.106q.432 2.172.432 4.387v104.937a22.43 22.43 0 0 1-3.79 12.493 22.4 22.4 0 0 1-6.204 6.204 22.4 22.4 0 0 1-8.105 3.358q-2.172.432-4.387.432H26.984a22.4 22.4 0 0 1-8.605-1.712 22.4 22.4 0 0 1-7.296-4.874 22.4 22.4 0 0 1-4.874-7.296 22.4 22.4 0 0 1-1.712-8.605V752.548a22.4 22.4 0 0 1 1.712-8.605 22.43 22.43 0 0 1 8.282-10.091 22.4 22.4 0 0 1 8.106-3.358 22.4 22.4 0 0 1 4.387-.432"/><path fill="none" stroke="#000" stroke-miterlimit="10" stroke-width="2.998" d="M26.984 730.062h314.81a22.4 22.4 0 0 1 8.606 1.711 22.43 22.43 0 0 1 10.091 8.282 22.4 22.4 0 0 1 3.358 8.106q.432 2.172.432 4.387v104.937a22.43 22.43 0 0 1-3.79 12.493 22.4 22.4 0 0 1-6.204 6.204 22.4 22.4 0 0 1-8.105 3.358q-2.172.432-4.387.432H26.984a22.4 22.4 0 0 1-8.605-1.712 22.4 22.4 0 0 1-7.296-4.874 22.4 22.4 0 0 1-4.874-7.296 22.4 22.4 0 0 1-1.712-8.605V752.548a22.4 22.4 0 0 1 1.712-8.605 22.43 22.43 0 0 1 8.282-10.091 22.4 22.4 0 0 1 8.106-3.358 22.4 22.4 0 0 1 4.387-.432z"/><text xml:space="preserve" font-family="sans-serif" font-size="12" transform="translate(120.911 815.51)scale(2.9982)"><tspan x="0 8.6660156 16.669922 24.673828 33.339844" y="0">READY</tspan></text><path fill="none" stroke="#000" stroke-miterlimit="10" stroke-width="2.998" d="m814.011 1007.395 252.599-119.268"/><path d="m1080.821 881.41-14.481 18.44.27-11.723-9.235-7.256z"/><path fill="none" stroke="#000" stroke-miterlimit="10" stroke-width="2.998" d="m1080.821 881.41-14.481 18.44.27-11.723-9.235-7.256z"/><path fill="#fff" d="M923.446 914.451h308.814v38.977H923.446z"/><text xml:space="preserve" font-family="sans-serif" font-size="11" transform="translate(922.036 944.433)scale(2.9982)"><tspan x="0 3.6630859 9.7807617 15.898438 18.95459 21.398438 30.561523 36.679199 39.735352 42.791504 48.291504 51.347656 57.465332 63.583008 66.63916 72.13916 78.256836 83.756836 89.256836 91.700684 97.818359" y="0">runtime: stop session</tspan></text><path fill="none" stroke="#000" stroke-miterlimit="10" stroke-width="2.998" d="M544.173 1119.828v40.895"/><path d="m544.173 1176.464-10.493-20.988 10.493 5.247 10.494-5.247z"/><path fill="none" stroke="#000" stroke-miterlimit="10" stroke-width="2.998" d="m544.173 1176.464-10.493-20.988 10.493 5.247 10.494-5.247z"/><path fill="#fff" d="M476.714 969.918h314.81a22.4 22.4 0 0 1 8.606 1.711 22.44 22.44 0 0 1 10.092 8.282 22.4 22.4 0 0 1 3.357 8.107q.432 2.172.432 4.386v104.937a22.5 22.5 0 0 1-1.711 8.606 22.4 22.4 0 0 1-4.875 7.295 22.4 22.4 0 0 1-7.295 4.874 22.4 22.4 0 0 1-8.605 1.712H476.714a22.5 22.5 0 0 1-8.606-1.712 22.4 22.4 0 0 1-7.295-4.874 22.4 22.4 0 0 1-4.874-7.295 22.4 22.4 0 0 1-1.712-8.606V992.404a22.4 22.4 0 0 1 1.712-8.605 22.4 22.4 0 0 1 4.874-7.295 22.4 22.4 0 0 1 7.296-4.875 22.4 22.4 0 0 1 8.605-1.711"/><path fill="none" stroke="#000" stroke-miterlimit="10" stroke-width="2.998" d="M476.714 969.918h314.81a22.4 22.4 0 0 1 8.606 1.711 22.44 22.44 0 0 1 10.092 8.282 22.4 22.4 0 0 1 3.357 8.107q.432 2.172.432 4.386v104.937a22.5 22.5 0 0 1-1.711 8.606 22.4 22.4 0 0 1-4.875 7.295 22.4 22.4 0 0 1-7.295 4.874 22.4 22.4 0 0 1-8.605 1.712H476.714a22.5 22.5 0 0 1-8.606-1.712 22.4 22.4 0 0 1-7.295-4.874 22.4 22.4 0 0 1-4.874-7.295 22.4 22.4 0 0 1-1.712-8.606V992.404a22.4 22.4 0 0 1 1.712-8.605 22.4 22.4 0 0 1 4.874-7.295 22.4 22.4 0 0 1 7.296-4.875 22.4 22.4 0 0 1 8.605-1.711z"/><text xml:space="preserve" font-family="sans-serif" font-size="12" transform="translate(488.647 1055.366)scale(2.9982)"><tspan x="0 8.0039062 16.007812 24.673828 33.339844 42.005859 50.671875 60.005859 68.671875 72.005859 79.335938 87.339844" y="0">SYNCHRONIZED</tspan></text><path fill="#fff" d="M926.444 730.062h314.81a22.4 22.4 0 0 1 8.606 1.711 22.4 22.4 0 0 1 7.295 4.875 22.4 22.4 0 0 1 4.875 7.295 22.4 22.4 0 0 1 1.711 8.605v104.937a22.4 22.4 0 0 1-1.712 8.605 22.4 22.4 0 0 1-4.874 7.296 22.4 22.4 0 0 1-7.295 4.874 22.4 22.4 0 0 1-8.605 1.712H926.444a22.4 22.4 0 0 1-8.606-1.712 22.4 22.4 0 0 1-7.295-4.874 22.43 22.43 0 0 1-6.154-11.514 22.4 22.4 0 0 1-.432-4.387V752.548a22.4 22.4 0 0 1 1.712-8.605 22.4 22.4 0 0 1 4.874-7.295 22.4 22.4 0 0 1 7.295-4.875 22.4 22.4 0 0 1 8.606-1.711"/><path fill="none" stroke="#000" stroke-miterlimit="10" stroke-width="2.998" d="M926.444 730.062h314.81a22.4 22.4 0 0 1 8.606 1.711 22.4 22.4 0 0 1 7.295 4.875 22.4 22.4 0 0 1 4.875 7.295 22.4 22.4 0 0 1 1.711 8.605v104.937a22.4 22.4 0 0 1-1.712 8.605 22.4 22.4 0 0 1-4.874 7.296 22.4 22.4 0 0 1-7.295 4.874 22.4 22.4 0 0 1-8.605 1.712H926.444a22.4 22.4 0 0 1-8.606-1.712 22.4 22.4 0 0 1-7.295-4.874 22.43 22.43 0 0 1-6.154-11.514 22.4 22.4 0 0 1-.432-4.387V752.548a22.4 22.4 0 0 1 1.712-8.605 22.4 22.4 0 0 1 4.874-7.295 22.4 22.4 0 0 1 7.295-4.875 22.4 22.4 0 0 1 8.606-1.711z"/><text xml:space="preserve" font-family="sans-serif" font-size="12" transform="translate(989.676 815.51)scale(2.9982)"><tspan x="0 8.0039062 15.117188 24.451172 32.455078 40.458984 43.792969 52.458984" y="0">STOPPING</tspan></text><path fill="none" stroke="#000" stroke-miterlimit="10" stroke-width="2.998" d="M1506.625 625.125v397.68"/><path d="m1506.625 1038.546-10.523-20.987 10.523 5.247 10.494-5.247z"/><path fill="none" stroke="#000" stroke-miterlimit="10" stroke-width="2.998" d="m1506.625 1038.546-10.523-20.987 10.523 5.247 10.494-5.247z"/><path fill="#fff" d="M1376.174 743.554h260.843v38.976h-260.843z"/><text xml:space="preserve" font-family="sans-serif" font-size="11" transform="translate(1377.403 773.536)scale(2.9982)"><tspan x="0 5.5 9.1630859 17.106934 23.224609 28.724609 31.780762 35.443848 41.561523 47.061523 54.398438 60.516113 66.016113 71.516113 73.959961 80.077637" y="0">xrDestroySession</tspan></text><path fill="#fff" d="M1349.19 475.215h314.811a22.4 22.4 0 0 1 8.605 1.711 22.4 22.4 0 0 1 7.295 4.875 22.4 22.4 0 0 1 4.875 7.295 22.5 22.5 0 0 1 1.711 8.605v104.937q0 2.215-.432 4.387a22.5 22.5 0 0 1-3.357 8.106 22.4 22.4 0 0 1-6.204 6.204 22.4 22.4 0 0 1-8.106 3.358 22.4 22.4 0 0 1-4.387.432H1349.19a22.5 22.5 0 0 1-8.605-1.712 22.4 22.4 0 0 1-7.295-4.874 22.5 22.5 0 0 1-4.875-7.296 22.4 22.4 0 0 1-1.711-8.605V497.701a22.4 22.4 0 0 1 1.711-8.605 22.4 22.4 0 0 1 4.875-7.295 22.4 22.4 0 0 1 7.295-4.875 22.4 22.4 0 0 1 8.605-1.711"/><path fill="none" stroke="#000" stroke-miterlimit="10" stroke-width="2.998" d="M1349.19 475.215h314.811a22.4 22.4 0 0 1 8.605 1.711 22.4 22.4 0 0 1 7.295 4.875 22.4 22.4 0 0 1 4.875 7.295 22.5 22.5 0 0 1 1.711 8.605v104.937q0 2.215-.432 4.387a22.5 22.5 0 0 1-3.357 8.106 22.4 22.4 0 0 1-6.204 6.204 22.4 22.4 0 0 1-8.106 3.358 22.4 22.4 0 0 1-4.387.432H1349.19a22.5 22.5 0 0 1-8.605-1.712 22.4 22.4 0 0 1-7.295-4.874 22.5 22.5 0 0 1-4.875-7.296 22.4 22.4 0 0 1-1.711-8.605V497.701a22.4 22.4 0 0 1 1.711-8.605 22.4 22.4 0 0 1 4.875-7.295 22.4 22.4 0 0 1 7.295-4.875 22.4 22.4 0 0 1 8.605-1.711z"/><text xml:space="preserve" font-family="sans-serif" font-size="12" transform="translate(1433.08 560.663)scale(2.9982)"><tspan x="0 8.0039062 16.007812 19.341797 26.671875 30.005859 38.671875" y="0">EXITING</tspan></text><path fill="none" stroke="#000" stroke-miterlimit="10" stroke-width="2.998" d="M679.092 220.368q0 4.429-.864 8.774a45 45 0 0 1-2.56 8.436 45 45 0 0 1-4.155 7.775 45 45 0 0 1-5.593 6.816 45 45 0 0 1-6.815 5.593 45 45 0 0 1-7.776 4.156 45 45 0 0 1-8.436 2.56 45 45 0 0 1-8.774.863 45 45 0 0 1-8.774-.864 45 45 0 0 1-8.437-2.559 45 45 0 0 1-7.775-4.156 45 45 0 0 1-6.815-5.593 45 45 0 0 1-5.593-6.816 45 45 0 0 1-4.156-7.775 45 45 0 0 1-2.56-8.436 45 45 0 0 1-.863-8.774q0-4.43.864-8.774a45 45 0 0 1 2.559-8.437 45 45 0 0 1 4.156-7.775 45 45 0 0 1 5.593-6.815 45 45 0 0 1 6.815-5.593 45 45 0 0 1 7.775-4.157 45 45 0 0 1 8.437-2.559 45 45 0 0 1 8.774-.864q4.43 0 8.774.864a45 45 0 0 1 8.437 2.56 45 45 0 0 1 7.775 4.156 45 45 0 0 1 6.815 5.593 45 45 0 0 1 5.593 6.815 45 45 0 0 1 4.156 7.775 45 45 0 0 1 2.56 8.437q.863 4.344.864 8.774z"/><path fill="none" stroke="#000" stroke-miterlimit="10" stroke-width="2.998" d="M667.1 220.368q0 3.248-.634 6.434a33 33 0 0 1-1.877 6.187q-1.244 3-3.048 5.702a33 33 0 0 1-4.101 4.997 33 33 0 0 1-4.998 4.102 33 33 0 0 1-5.702 3.048q-3 1.243-6.187 1.876a33 33 0 0 1-6.434.634q-3.248 0-6.434-.634a33 33 0 0 1-6.187-1.876 33 33 0 0 1-5.702-3.048q-2.7-1.804-4.998-4.102c-2.298-2.298-2.898-3.197-4.101-4.997a33 33 0 0 1-3.048-5.702q-1.243-3.001-1.877-6.187a33 33 0 0 1-.633-6.434q0-3.249.633-6.434a32.9 32.9 0 0 1 9.026-16.887 33 33 0 0 1 4.998-4.102 33 33 0 0 1 5.702-3.047q3-1.245 6.187-1.877a33 33 0 0 1 6.434-.634q3.248 0 6.434.634c3.186.634 4.186 1.048 6.187 1.877a33 33 0 0 1 5.702 3.047 33 33 0 0 1 4.998 4.102 33 33 0 0 1 4.102 4.997 33 33 0 0 1 3.047 5.702q1.244 3.001 1.877 6.188a33 33 0 0 1 .634 6.434zm839.525 911.452v313.732"/><path d="m1506.625 1461.293-10.523-20.988 10.523 5.247 10.494-5.247z"/><path fill="none" stroke="#000" stroke-miterlimit="10" stroke-width="2.998" d="m1506.625 1461.293-10.523-20.988 10.523 5.247 10.494-5.247z"/><path fill="#fff" d="M1370.177 1295.222h272.837v38.977h-272.837z"/><text xml:space="preserve" font-family="sans-serif" font-size="11" transform="translate(1378.303 1325.204)scale(2.9982)"><tspan x="0 5.5 9.1630859 17.106934 23.224609 28.724609 31.780762 35.443848 41.561523 47.061523 50.117676 56.235352 61.735352 64.791504 70.90918 77.026855 82.526855" y="0">xrDestroyInstance</tspan></text><path fill="none" stroke="#000" stroke-miterlimit="10" stroke-width="2.998" d="M1551.598 1086.848q0 4.428-.864 8.773a45 45 0 0 1-2.56 8.437q-1.695 4.092-4.155 7.775c-2.46 3.683-3.505 4.727-5.593 6.815q-3.132 3.132-6.815 5.593c-3.683 2.461-5.047 3.026-7.776 4.156a45 45 0 0 1-8.436 2.56q-4.343.864-8.774.864-4.429 0-8.774-.864a45 45 0 0 1-8.436-2.56q-4.093-1.695-7.776-4.156c-3.683-2.46-4.727-3.505-6.815-5.593a45 45 0 0 1-5.593-6.815 45 45 0 0 1-4.155-7.775 45 45 0 0 1-2.56-8.437 45 45 0 0 1-.864-8.773q0-4.43.864-8.774a45 45 0 0 1 2.56-8.437 45 45 0 0 1 4.156-7.776 45 45 0 0 1 5.593-6.815 45 45 0 0 1 6.815-5.593 45 45 0 0 1 7.775-4.156 45 45 0 0 1 8.437-2.559 45 45 0 0 1 8.773-.864q4.43 0 8.774.864a45 45 0 0 1 8.437 2.56 45 45 0 0 1 7.775 4.155 45 45 0 0 1 6.815 5.593q3.132 3.132 5.593 6.815c2.461 3.683 3.026 5.048 4.156 7.776a45 45 0 0 1 2.56 8.436q.864 4.345.864 8.774z"/><path fill="none" stroke="#000" stroke-miterlimit="10" stroke-width="2.998" d="M1539.606 1086.848q0 3.248-.634 6.434a33 33 0 0 1-1.877 6.186q-1.244 3.002-3.048 5.702a33 33 0 0 1-4.101 4.998 33 33 0 0 1-4.998 4.102 33 33 0 0 1-5.702 3.047q-3 1.244-6.187 1.877a32.9 32.9 0 0 1-12.869 0 33 33 0 0 1-6.187-1.877q-3-1.242-5.702-3.047a33 33 0 0 1-4.997-4.102 33 33 0 0 1-4.102-4.998 33 33 0 0 1-3.048-5.702q-1.243-3-1.876-6.186a33 33 0 0 1-.634-6.434q0-3.248.634-6.435a32.9 32.9 0 0 1 9.026-16.887 33 33 0 0 1 4.997-4.101 33 33 0 0 1 5.702-3.048q3.001-1.243 6.187-1.877a33 33 0 0 1 6.435-.633q3.248 0 6.434.633a33 33 0 0 1 6.187 1.877q3 1.244 5.702 3.048a32.9 32.9 0 0 1 9.1 9.099 33 33 0 0 1 3.047 5.702q1.243 3 1.877 6.187a33 33 0 0 1 .634 6.435z"/><path fill="#fff" d="M2335.628 475.215h314.81a22.4 22.4 0 0 1 8.606 1.711 22.4 22.4 0 0 1 7.295 4.875 22.4 22.4 0 0 1 4.874 7.295q.848 2.046 1.28 4.218a22.4 22.4 0 0 1 .432 4.387v104.937a22.5 22.5 0 0 1-1.712 8.606 22.44 22.44 0 0 1-8.282 10.091 22.4 22.4 0 0 1-8.106 3.358q-2.172.432-4.386.432h-314.811a22.5 22.5 0 0 1-8.606-1.712 22.4 22.4 0 0 1-7.295-4.874 22.5 22.5 0 0 1-4.874-7.296 22.4 22.4 0 0 1-1.28-4.218 22.4 22.4 0 0 1-.432-4.387V497.701a22.4 22.4 0 0 1 1.712-8.605 22.44 22.44 0 0 1 8.282-10.091 22.4 22.4 0 0 1 8.106-3.358 22.4 22.4 0 0 1 4.387-.432"/><path fill="none" stroke="#000" stroke-miterlimit="10" stroke-width="2.998" d="M2335.628 475.215h314.81a22.4 22.4 0 0 1 8.606 1.711 22.4 22.4 0 0 1 7.295 4.875 22.4 22.4 0 0 1 4.874 7.295q.848 2.046 1.28 4.218a22.4 22.4 0 0 1 .432 4.387v104.937a22.5 22.5 0 0 1-1.712 8.606 22.44 22.44 0 0 1-8.282 10.091 22.4 22.4 0 0 1-8.106 3.358q-2.172.432-4.386.432h-314.811a22.5 22.5 0 0 1-8.606-1.712 22.4 22.4 0 0 1-7.295-4.874 22.5 22.5 0 0 1-4.874-7.296 22.4 22.4 0 0 1-1.28-4.218 22.4 22.4 0 0 1-.432-4.387V497.701a22.4 22.4 0 0 1 1.712-8.605 22.44 22.44 0 0 1 8.282-10.091 22.4 22.4 0 0 1 8.106-3.358 22.4 22.4 0 0 1 4.387-.432z"/><text xml:space="preserve" font-family="sans-serif" font-size="12" transform="translate(2351.518 560.663)scale(2.9982)"><tspan x="0 6.6738281 16.007812 24.011719 32.015625 38.689453 46.693359 54.697266 63.363281 72.029297 75.363281 84.029297" y="0">LOSS_PENDING</tspan></text><path fill="none" stroke="#000" stroke-miterlimit="10" stroke-width="2.998" d="M2493.033 233.86v222.256"/><path d="m2493.033 471.857-10.493-20.988 10.493 5.247 10.494-5.247z"/><path fill="none" stroke="#000" stroke-miterlimit="10" stroke-width="2.998" d="m2493.033 471.857-10.493-20.988 10.493 5.247 10.494-5.247z"/><path fill="#fff" d="M2257.645 320.807h470.717v38.977h-470.717z"/><text xml:space="preserve" font-family="sans-serif" font-size="11" transform="translate(2257.465 350.79)scale(2.9982)"><tspan x="0 3.6630859 9.7807617 15.898438 18.95459 21.398438 30.561523 36.679199 39.735352 42.791504 45.235352 51.353027 56.853027 59.296875 65.414551 71.532227 74.588379 80.088379 85.588379 91.088379 94.144531 100.26221 109.42529 112.48145 118.59912 122.26221 125.31836 131.43604 137.55371 143.05371 145.49756 150.99756" y="0">runtime: losing system or device</tspan></text><path fill="#fff" d="M2463.051 113.932h59.964q5.907 0 11.698 1.152a60 60 0 0 1 11.25 3.412 60 60 0 0 1 10.366 5.541 60 60 0 0 1 9.087 7.458 60 60 0 0 1 7.457 9.086 60 60 0 0 1 5.542 10.367 60 60 0 0 1 3.412 11.25 60 60 0 0 1 1.152 11.698q0 5.905-1.152 11.698c-1.152 5.793-1.906 7.611-3.413 11.249a60 60 0 0 1-5.54 10.367 60 60 0 0 1-7.458 9.086 60 60 0 0 1-9.087 7.458 60 60 0 0 1-10.367 5.541 60 60 0 0 1-11.249 3.412 60 60 0 0 1-11.698 1.153h-59.964q-5.906 0-11.699-1.153a60 60 0 0 1-11.248-3.412 60 60 0 0 1-10.367-5.541 60 60 0 0 1-9.087-7.458 60 60 0 0 1-7.457-9.086 60 60 0 0 1-5.542-10.367 60 60 0 0 1-3.412-11.25 60 60 0 0 1-1.152-11.697q0-5.906 1.152-11.699a60 60 0 0 1 3.412-11.249 60 60 0 0 1 5.542-10.367 60 60 0 0 1 7.457-9.086 60 60 0 0 1 9.086-7.458 60 60 0 0 1 10.367-5.541 60 60 0 0 1 11.249-3.412 60 60 0 0 1 11.699-1.152"/><path fill="none" stroke="#000" stroke-miterlimit="10" stroke-width="2.998" d="M2463.051 113.932h59.964q5.907 0 11.698 1.152a60 60 0 0 1 11.25 3.412 60 60 0 0 1 10.366 5.541 60 60 0 0 1 9.087 7.458 60 60 0 0 1 7.457 9.086 60 60 0 0 1 5.542 10.367 60 60 0 0 1 3.412 11.25 60 60 0 0 1 1.152 11.698q0 5.905-1.152 11.698c-1.152 5.793-1.906 7.611-3.413 11.249a60 60 0 0 1-5.54 10.367 60 60 0 0 1-7.458 9.086 60 60 0 0 1-9.087 7.458 60 60 0 0 1-10.367 5.541 60 60 0 0 1-11.249 3.412 60 60 0 0 1-11.698 1.153h-59.964q-5.906 0-11.699-1.153a60 60 0 0 1-11.248-3.412 60 60 0 0 1-10.367-5.541 60 60 0 0 1-9.087-7.458 60 60 0 0 1-7.457-9.086 60 60 0 0 1-5.542-10.367 60 60 0 0 1-3.412-11.25 60 60 0 0 1-1.152-11.697q0-5.906 1.152-11.699a60 60 0 0 1 3.412-11.249 60 60 0 0 1 5.542-10.367 60 60 0 0 1 7.457-9.086 60 60 0 0 1 9.086-7.458 60 60 0 0 1 10.367-5.541 60 60 0 0 1 11.249-3.412 60 60 0 0 1 11.699-1.152z"/><text xml:space="preserve" font-family="sans-serif" font-size="12" transform="translate(2462.452 185.888)scale(2.9982)"><tspan x="0 6.6738281 13.347656" y="0">any</tspan></text><path d="m2447.1 1087.987-6.865-5.763 1.928-2.296 6.866 5.762zm-13.72-11.571-6.821-5.837 1.95-2.278 6.821 5.836zm-13.632-11.72-6.778-5.911 1.97-2.26 6.778 5.911zm-13.545-11.868-6.735-5.985 1.992-2.241 6.734 5.985zm-13.458-12.017-6.691-6.06 2.013-2.222 6.69 6.06zm-13.326-12.124-6.587-6.078 2.033-2.203 6.587 6.077zm-13.163-12.201-6.545-6.15 2.054-2.186 6.544 6.151zm-13.078-12.347-6.501-6.224 2.073-2.165 6.502 6.223zm-12.99-12.493-6.46-6.296 2.093-2.147 6.459 6.296zm-12.907-12.638-6.389-6.343 2.112-2.128 6.39 6.343zm-12.724-12.688-6.305-6.372 2.132-2.11 6.304 6.373zm-12.598-12.79-6.262-6.442 2.15-2.09 6.262 6.443zm-12.514-12.93-6.22-6.515 2.168-2.07 6.22 6.514zm-12.429-13.075-6.179-6.586 2.187-2.051 6.178 6.586zm-12.346-13.217-6.066-6.58 2.204-2.032 6.067 6.58zm-12.115-13.199-6.02-6.644 2.221-2.013 6.02 6.644zm-12.029-13.332-5.98-6.714 2.24-1.994 5.98 6.714zm-11.946-13.472-5.938-6.783 2.255-1.975 5.939 6.784zm-11.865-13.61-5.897-6.853 2.273-1.956 5.897 6.853zm-11.753-13.715-5.775-6.826 2.289-1.937 5.775 6.826zm-11.539-13.696-5.736-6.894 2.305-1.917 5.736 6.893zm-11.46-13.83-5.696-6.962 2.32-1.899 5.697 6.962zm-11.38-13.967-5.656-7.029 2.336-1.88 5.656 7.03zm-11.3-14.101-5.617-7.097 2.352-1.86 5.616 7.096zm-11.164-14.165-5.492-7.055 2.366-1.842 5.492 7.055zm-10.973-14.152-5.453-7.12 2.38-1.824 5.454 7.12zm-10.895-14.284-5.415-7.186 2.395-1.804 5.415 7.186zm-10.818-14.414-5.376-7.252 2.408-1.785 5.377 7.251zm-10.74-14.546-5.338-7.317 2.422-1.767 5.338 7.317zm-10.593-14.58-5.213-7.26 2.436-1.749 5.212 7.261zm-10.413-14.563-5.176-7.324 2.449-1.73 5.175 7.324zm-10.34-14.69-5.137-7.388 2.462-1.712 5.137 7.388zm-10.263-14.817-5.1-7.452 2.473-1.693 5.101 7.452zm-10.19-14.944-5.063-7.515 2.487-1.675 5.063 7.514zm-10.044-14.967-4.939-7.446 2.499-1.657 4.939 7.446zm-9.865-14.93-4.903-7.507 2.51-1.64 4.903 7.507zm-9.793-15.053-4.867-7.568 2.522-1.622 4.867 7.568zm-9.72-15.176-4.832-7.629 2.534-1.604 4.83 7.63zm-9.65-15.298-4.794-7.69 2.544-1.586 4.795 7.69zm-9.629-15.472q-2.46-3.936-4.892-7.76l2.53-1.608q2.432 3.824 4.904 7.78zm-9.818-15.44a1189 1189 0 0 0-4.958-7.602l2.505-1.648q2.492 3.788 4.97 7.621zm-9.948-15.123q-2.51-3.751-5.023-7.443l2.478-1.687q2.514 3.693 5.037 7.462zm-10.079-14.806a1086 1086 0 0 0-5.088-7.284l2.451-1.727q2.534 3.595 5.102 7.304zm-10.208-14.488q-2.552-3.56-5.153-7.125l2.422-1.767q2.613 3.582 5.168 7.145zm-10.494-14.379a1025 1025 0 0 0-5.492-7.325l2.391-1.81q2.758 3.646 5.508 7.347zm-11.02-14.562a983 983 0 0 0-5.565-7.15l2.358-1.852a987 987 0 0 1 5.58 7.171zm-11.165-14.21a947 947 0 0 0-5.637-6.974l2.323-1.896a957 957 0 0 1 5.654 6.995zm-11.309-13.86a927 927 0 0 0-5.708-6.798l2.286-1.938a931 931 0 0 1 5.727 6.819zm-11.453-13.507a914 914 0 0 0-5.793-6.638l2.249-1.982a912 912 0 0 1 5.813 6.66zm-11.881-13.473a882 882 0 0 0-6.127-6.74l2.208-2.028q3.095 3.37 6.147 6.762zm-12.294-13.383a850 850 0 0 0-6.206-6.547l2.165-2.074a855 855 0 0 1 6.228 6.57zm-12.451-12.998a822 822 0 0 0-6.285-6.354l2.12-2.12a826 826 0 0 1 6.308 6.378zm-12.609-12.612a811 811 0 0 0-6.363-6.163l2.074-2.165a815 815 0 0 1 6.386 6.185zm-12.766-12.228a795 795 0 0 0-6.68-6.188l2.024-2.211q3.36 3.075 6.706 6.21zm-13.415-12.283a786 786 0 0 0-6.777-5.992l1.973-2.257a783 783 0 0 1 6.803 6.014zm-13.596-11.88a762 762 0 0 0-6.862-5.783l1.919-2.304a758 758 0 0 1 6.89 5.807zm-13.766-11.463a744 744 0 0 0-6.947-5.576l1.863-2.35a738 738 0 0 1 6.975 5.6zm-13.936-11.049a720 720 0 0 0-7.071-5.398l1.804-2.394a726 726 0 0 1 7.1 5.42zm-14.35-10.812a712 712 0 0 0-7.322-5.304l1.744-2.44a714 714 0 0 1 7.353 5.327zm-14.69-10.499a697 697 0 0 0-7.412-5.084l1.68-2.484a703 703 0 0 1 7.444 5.107zm-14.87-10.06a685 685 0 0 0-7.503-4.865l1.615-2.526a689 689 0 0 1 7.536 4.887zm-15.05-9.62a670 670 0 0 0-7.593-4.647l1.548-2.567a677 677 0 0 1 7.626 4.666zm-15.318-9.234a668 668 0 0 0-7.813-4.5l1.479-2.608a672 672 0 0 1 7.848 4.52zm-15.673-8.885a666 666 0 0 0-7.905-4.272l1.407-2.648a666 666 0 0 1 7.942 4.292zm-15.858-8.431a660 660 0 0 0-7.999-4.046l1.335-2.684q4.036 2.006 8.036 4.064zm-16.044-7.978a654 654 0 0 0-8.092-3.82l1.26-2.72a658 658 0 0 1 8.13 3.837zm-16.24-7.53a652 652 0 0 0-8.218-3.605l1.186-2.754a654 654 0 0 1 8.255 3.623zm-16.483-7.097a655 655 0 0 0-8.311-3.378l1.11-2.785a655 655 0 0 1 8.35 3.393zm-16.67-6.642a651 651 0 0 0-8.405-3.149l1.032-2.815q4.238 1.555 8.445 3.164zm-16.858-6.184a655 655 0 0 0-8.499-2.921l.955-2.842q4.286 1.44 8.539 2.934zm-17.046-5.728a662 662 0 0 0-8.518-2.67l.877-2.867a662 662 0 0 1 8.557 2.682zm-17.079-5.226a666 666 0 0 0-8.607-2.445l.8-2.89q4.337 1.201 8.646 2.456zm-17.261-4.778a672 672 0 0 0-8.7-2.22l.722-2.91q4.377 1.086 8.739 2.23zm-17.446-4.328a681 681 0 0 0-8.793-1.997l.645-2.928q4.428.975 8.831 2.005zm-17.627-3.88-4.087-.83-4.605-.91.581-2.941 4.62.913 4.088.83zm-17.27-3.374-8.684-1.577.536-2.95 8.684 1.577zm-17.425-3.089-8.85-1.454.486-2.959 8.85 1.455zm-17.759-2.843-9.016-1.332.438-2.966 9.016 1.332zm-18.092-2.598-9.182-1.209.392-2.972 9.182 1.208zm-17.959-2.297-8.704-1.016.347-2.978 8.705 1.016zm-17.46-1.977-8.85-.91.307-2.982 8.85.91zm-17.75-1.764-8.993-.802.266-2.987 8.993.803zm-18.04-1.55-9.137-.696.228-2.99 9.137.696zm-18.327-1.338-9.102-.578.19-2.992 9.102.578zm-17.805-1.08-8.784-.455.155-2.995 8.784.456zm-17.614-.864-8.91-.363.123-2.996 8.909.363zm-17.865-.68-9.035-.27.09-2.997 9.034.27zm-18.117-.493-9.16-.178.058-2.997 9.16.177zm-18.368-.308-9.19-.084.028-2.998 9.189.084zm-17.907-.122-8.787.003-.001-2.998 8.787-.003zm-17.616.047-8.896.084-.027-2.998 8.896-.084zm-17.834.209-9.007.165-.055-2.998 9.006-.165zm-18.055.37-9.115.247-.081-2.997 9.115-.246zm-18.273.534-9.226.327-.106-2.996 9.225-.328zm-18.306.687-8.739.38-.13-2.995 8.738-.38zm-17.514.796-8.834.452-.154-2.995 8.835-.451zm-17.706.938-8.93.523-.176-2.993 8.93-.523zm-17.898 1.08-9.027.595-.197-2.992 9.027-.594zm-18.091 1.223-9.123.665-.218-2.99 9.123-.665zm-18.284 1.365-9.218.736-.24-2.989 9.22-.736zm-18.054 1.471-8.74.755-.258-2.987 8.74-.755zm-17.513 1.54-8.825.819-.277-2.986 8.825-.818zm-17.683 1.667-8.909.88-.295-2.983 8.91-.88zm-17.852 1.791-8.994.943-.312-2.982 8.994-.943zm-18.02 1.917-9.08 1.005-.33-2.98 9.079-1.005zm-18.192 2.041-9.163 1.069-.347-2.978 9.163-1.069zm-18.14 2.14-8.7 1.063-.363-2.976 8.7-1.062zm-17.43 2.153-8.774 1.118-.38-2.974 8.776-1.118zm-17.579 2.263-8.85 1.174-.394-2.973 8.85-1.173zm-17.73 2.374-8.924 1.229-.41-2.97 8.925-1.23zm-17.879 2.485-9 1.284-.423-2.968 9-1.284zm-18.03 2.595-9.074 1.34-.438-2.966 9.074-1.34zm-18.18 2.707-8.995 1.372-.452-2.964 8.996-1.372zm-17.653 2.712-8.698 1.366-.465-2.962 8.698-1.366zm-17.423 2.756-8.765 1.415-.478-2.96 8.765-1.415zm-17.556 2.854-8.832 1.465-.49-2.958 8.831-1.464zm-17.69 2.954-8.898 1.514-.503-2.956 8.898-1.514zm-17.824 3.051-8.965 1.564-.515-2.954 8.965-1.563zm-17.957 3.15-9.031 1.614-.527-2.952 9.031-1.613zm-18.091 3.25-5.446.993-.537-2.95 5.445-.992z"/><path d="m682.39 219.768 18.77-14.091-3.269 11.273 7.046 9.354z"/><path fill="none" stroke="#000" stroke-miterlimit="10" stroke-width="2.998" d="m682.39 219.768 18.77-14.091-3.269 11.273 7.046 9.354z"/><path fill="#ffc" d="M2176.693 893.464h212.872v80.951h-212.872z"/><text xml:space="preserve" font-family="sans-serif" font-size="11" transform="translate(2176.783 923.446)scale(2.9982)"><tspan x="0 6.1176758 12.235352 18.353027 21.40918 24.465332 30.583008 36.700684 39.756836 42.200684 48.318359 54.436035 60.553711 62.997559 65.441406" y="0">app: optionally</tspan></text><text xml:space="preserve" font-family="sans-serif" font-size="11" transform="translate(2192.374 965.42)scale(2.9982)"><tspan x="0 3.6630859 9.7807617 12.224609 18.342285 24.459961 30.577637 36.077637 42.195312 45.251465 52.588379" y="0">relaunch XR</tspan></text><path fill="none" stroke="#000" stroke-miterlimit="10" stroke-width="2.998" d="M634.12 25.485v130.811"/><path d="m634.12 172.037-10.494-20.988 10.493 5.247 10.494-5.247z"/><path fill="none" stroke="#000" stroke-miterlimit="10" stroke-width="2.998" d="m634.12 172.037-10.494-20.988 10.493 5.247 10.494-5.247z"/><path fill="#fff" d="M509.694 80.951h248.85v38.977h-248.85z"/><text xml:space="preserve" font-family="sans-serif" font-size="11" transform="translate(508.555 110.933)scale(2.9982)"><tspan x="0 5.5 9.1630859 17.106934 20.77002 26.887695 33.005371 36.061523 42.179199 45.235352 51.353027 56.853027 59.90918 66.026855 72.144531 77.644531" y="0">xrCreateInstance</tspan></text><path fill="none" stroke="#000" stroke-miterlimit="10" stroke-width="2.998" d="M544.173 1329.702v25.904"/><path d="m544.173 1371.347-10.493-20.988 10.493 5.247 10.494-5.247z"/><path fill="none" stroke="#000" stroke-miterlimit="10" stroke-width="2.998" d="m544.173 1371.347-10.493-20.988 10.493 5.247 10.494-5.247zm179.892-191.555v-40.866"/><path d="m724.065 1123.186 10.494 20.987-10.494-5.247-10.493 5.247z"/><path fill="none" stroke="#000" stroke-miterlimit="10" stroke-width="2.998" d="m724.065 1123.186 10.494 20.987-10.494-5.247-10.493 5.247z"/><path fill="#fff" d="M476.714 1179.792h314.81a22.4 22.4 0 0 1 8.606 1.711 22.44 22.44 0 0 1 10.092 8.282 22.4 22.4 0 0 1 3.357 8.106q.432 2.173.432 4.387v104.937a22.5 22.5 0 0 1-1.711 8.605 22.4 22.4 0 0 1-4.875 7.296 22.4 22.4 0 0 1-7.295 4.874 22.5 22.5 0 0 1-8.605 1.712H476.714a22.5 22.5 0 0 1-8.606-1.712 22.4 22.4 0 0 1-7.295-4.874 22.4 22.4 0 0 1-4.874-7.295 22.4 22.4 0 0 1-1.712-8.605v-104.937a22.4 22.4 0 0 1 1.712-8.606 22.4 22.4 0 0 1 4.874-7.295 22.4 22.4 0 0 1 7.296-4.874 22.4 22.4 0 0 1 8.605-1.712"/><path fill="none" stroke="#000" stroke-miterlimit="10" stroke-width="2.998" d="M476.714 1179.792h314.81a22.4 22.4 0 0 1 8.606 1.711 22.44 22.44 0 0 1 10.092 8.282 22.4 22.4 0 0 1 3.357 8.106q.432 2.173.432 4.387v104.937a22.5 22.5 0 0 1-1.711 8.605 22.4 22.4 0 0 1-4.875 7.296 22.4 22.4 0 0 1-7.295 4.874 22.5 22.5 0 0 1-8.605 1.712H476.714a22.5 22.5 0 0 1-8.606-1.712 22.4 22.4 0 0 1-7.295-4.874 22.4 22.4 0 0 1-4.874-7.295 22.4 22.4 0 0 1-1.712-8.605v-104.937a22.4 22.4 0 0 1 1.712-8.606 22.4 22.4 0 0 1 4.874-7.295 22.4 22.4 0 0 1 7.296-4.874 22.4 22.4 0 0 1 8.605-1.712z"/><text xml:space="preserve" font-family="sans-serif" font-size="12" transform="translate(564.591 1265.24)scale(2.9982)"><tspan x="0 8.0039062 11.337891 19.341797 22.675781 30.679688 37.353516" y="0">VISIBLE</tspan></text><path fill="none" stroke="#000" stroke-miterlimit="10" stroke-width="2.998" d="M724.065 1374.675V1348.8"/><path d="m724.065 1333.06 10.494 20.987-10.494-5.247-10.493 5.247z"/><path fill="none" stroke="#000" stroke-miterlimit="10" stroke-width="2.998" d="m724.065 1333.06 10.494 20.987-10.494-5.247-10.493 5.247z"/><path fill="#fff" d="M476.714 1374.675h314.81a22.5 22.5 0 0 1 8.606 1.711 22.4 22.4 0 0 1 7.295 4.875 22.4 22.4 0 0 1 4.875 7.295 22.4 22.4 0 0 1 1.711 8.605v104.937a22.5 22.5 0 0 1-1.711 8.605 22.4 22.4 0 0 1-4.875 7.295 22.4 22.4 0 0 1-7.295 4.875 22.4 22.4 0 0 1-8.605 1.712H476.714a22.4 22.4 0 0 1-8.606-1.712 22.4 22.4 0 0 1-7.295-4.875 22.4 22.4 0 0 1-4.874-7.295 22.4 22.4 0 0 1-1.712-8.605v-104.937a22.4 22.4 0 0 1 1.712-8.605 22.4 22.4 0 0 1 4.874-7.296 22.4 22.4 0 0 1 7.296-4.874 22.4 22.4 0 0 1 8.605-1.712z"/><path fill="none" stroke="#000" stroke-miterlimit="10" stroke-width="2.998" d="M476.714 1374.675h314.81a22.5 22.5 0 0 1 8.606 1.711 22.4 22.4 0 0 1 7.295 4.875 22.4 22.4 0 0 1 4.875 7.295 22.4 22.4 0 0 1 1.711 8.605v104.937a22.5 22.5 0 0 1-1.711 8.605 22.4 22.4 0 0 1-4.875 7.295 22.4 22.4 0 0 1-7.295 4.875 22.4 22.4 0 0 1-8.605 1.712H476.714a22.4 22.4 0 0 1-8.606-1.712 22.4 22.4 0 0 1-7.295-4.875 22.4 22.4 0 0 1-4.874-7.295 22.4 22.4 0 0 1-1.712-8.605v-104.937a22.4 22.4 0 0 1 1.712-8.605 22.4 22.4 0 0 1 4.874-7.296 22.4 22.4 0 0 1 7.296-4.874 22.4 22.4 0 0 1 8.605-1.712z"/><text xml:space="preserve" font-family="sans-serif" font-size="12" transform="translate(544.653 1460.123)scale(2.9982)"><tspan x="0 7.3300781 16.664062 25.330078 33.996094 42 50.003906" y="0">FOCUSED</tspan></text><path fill="none" stroke="#000" stroke-miterlimit="10" stroke-width="2.998" d="m1083.85 730.062-252.96-133.51"/><path d="m816.98 589.206 23.475.54-9.564 6.806-.24 11.753z"/><path fill="none" stroke="#000" stroke-miterlimit="10" stroke-width="2.998" d="m816.98 589.206 23.475.54-9.564 6.806-.24 11.753z"/><path fill="#fff" d="M932.44 659.604h200.88v38.977H932.44z"/><text xml:space="preserve" font-family="sans-serif" font-size="11" transform="translate(931.121 689.586)scale(2.9982)"><tspan x="0 5.5 9.1630859 16.5 22.617676 28.735352 36.072266 42.189941 47.689941 53.189941 55.633789 61.751465" y="0">xrEndSession</tspan></text><path fill="none" stroke="#000" stroke-miterlimit="10" stroke-width="2.998" d="M2538.006 1086.848a45 45 0 0 1-.864 8.773 45 45 0 0 1-2.56 8.437q-1.695 4.092-4.155 7.775c-2.46 3.683-3.505 4.727-5.593 6.815a45 45 0 0 1-6.816 5.593 45 45 0 0 1-7.775 4.156 45 45 0 0 1-8.436 2.56q-4.345.864-8.774.864c-4.429 0-5.878-.288-8.774-.864a45 45 0 0 1-8.437-2.56q-4.092-1.695-7.775-4.156c-3.683-2.46-4.727-3.505-6.815-5.593q-3.132-3.132-5.593-6.815c-2.461-3.683-3.027-5.047-4.157-7.775a45 45 0 0 1-2.559-8.437 45 45 0 0 1-.863-8.773q0-4.43.863-8.774a45 45 0 0 1 2.56-8.437q1.695-4.093 4.156-7.776c2.46-3.683 3.505-4.727 5.593-6.815a45 45 0 0 1 6.815-5.593 45 45 0 0 1 7.775-4.156 45 45 0 0 1 8.437-2.559q4.344-.864 8.774-.864c4.43 0 5.877.288 8.773.864a45 45 0 0 1 8.437 2.56 45 45 0 0 1 7.775 4.155q3.684 2.46 6.815 5.593c3.131 3.133 3.953 4.36 5.594 6.815s3.025 5.048 4.155 7.776a45 45 0 0 1 2.56 8.436q.864 4.345.864 8.774z"/><path fill="none" stroke="#000" stroke-miterlimit="10" stroke-width="2.998" d="M2526.013 1086.848q0 3.248-.633 6.434a33 33 0 0 1-1.878 6.186q-1.242 3.002-3.047 5.702a32.9 32.9 0 0 1-9.099 9.1 33 33 0 0 1-5.702 3.047q-3 1.244-6.187 1.877a32.9 32.9 0 0 1-12.868 0 33 33 0 0 1-6.187-1.877 33 33 0 0 1-5.702-3.047 33 33 0 0 1-4.998-4.102 33 33 0 0 1-4.102-4.998 33 33 0 0 1-3.047-5.702 32.9 32.9 0 0 1-2.51-12.62q0-3.248.633-6.435a33 33 0 0 1 1.877-6.187 33 33 0 0 1 3.047-5.702 33 33 0 0 1 4.102-4.998 33 33 0 0 1 4.998-4.101 33 33 0 0 1 5.702-3.048q3-1.243 6.187-1.877a33 33 0 0 1 6.434-.633q3.248 0 6.434.633a33 33 0 0 1 6.187 1.877q3 1.244 5.702 3.048a32.9 32.9 0 0 1 9.099 9.099 32.93 32.93 0 0 1 5.559 18.323zm-32.98-461.723v397.68"/><path d="m2493.033 1038.546-10.493-20.987 10.493 5.247 10.494-5.247z"/><path fill="none" stroke="#000" stroke-miterlimit="10" stroke-width="2.998" d="m2493.033 1038.546-10.493-20.987 10.493 5.247 10.494-5.247z"/><path fill="#fff" d="M2362.582 797.521h260.843v38.977h-260.843z"/><text xml:space="preserve" font-family="sans-serif" font-size="11" transform="translate(2363.81 827.503)scale(2.9982)"><tspan x="0 5.5 9.1630859 17.106934 23.224609 28.724609 31.780762 35.443848 41.561523 47.061523 54.398438 60.516113 66.016113 71.516113 73.959961 80.077637" y="0">xrDestroySession</tspan></text><path d="M1551.029 1085.468a642 642 0 0 0 8.535-3.525l1.164 2.763a644 644 0 0 1-8.574 3.541zm16.94-7.14a608 608 0 0 0 8.274-3.703l1.245 2.727a613 613 0 0 1-8.315 3.722zm16.418-7.496a578 578 0 0 0 8.014-3.882l1.328 2.688a584 584 0 0 1-8.056 3.902zm15.898-7.853a548 548 0 0 0 7.754-4.06l1.412 2.645a558 558 0 0 1-7.797 4.082zm15.702-8.39a522 522 0 0 0 7.946-4.506l1.502 2.595a531 531 0 0 1-7.992 4.533zm15.746-9.113a495 495 0 0 0 7.654-4.708l1.594 2.54a500 500 0 0 1-7.7 4.736zm15.16-9.515a476 476 0 0 0 7.36-4.908l1.686 2.479a480 480 0 0 1-7.406 4.939zm14.573-9.917a455 455 0 0 0 7.344-5.313l1.781 2.412q-3.655 2.7-7.392 5.348zm14.59-10.78q3.58-2.76 7.085-5.58l1.88 2.337a442 442 0 0 1-7.135 5.617zm14.01-11.268a420 420 0 0 0 6.763-5.798l1.975 2.255a425 425 0 0 1-6.811 5.84zm13.365-11.708a408 408 0 0 0 6.491-6.067l2.071 2.168q-3.224 3.08-6.539 6.112zm12.961-12.387a398 398 0 0 0 6.3-6.437l2.166 2.072a400 400 0 0 1-6.347 6.486zm12.427-12.992q3.015-3.3 5.958-6.672l2.26 1.971a392 392 0 0 1-6.004 6.724zm11.745-13.46a386 386 0 0 0 5.616-6.907l2.348 1.864a389 389 0 0 1-5.66 6.96zm11.108-13.991a382 382 0 0 0 5.324-7.212l2.433 1.753a381 381 0 0 1-5.366 7.268zm10.474-14.543a381 381 0 0 0 4.976-7.45l2.513 1.636a384 384 0 0 1-5.016 7.509zm9.78-15.021a385 385 0 0 0 4.629-7.69l2.586 1.516a384 384 0 0 1-4.665 7.75zm9.053-15.445q2.167-3.9 4.233-7.832l2.653 1.395a390 390 0 0 1-4.265 7.893zm8.295-15.782a392 392 0 0 0 3.894-8.066l2.715 1.272a394 394 0 0 1-3.923 8.128zm7.618-16.25a405 405 0 0 0 3.555-8.3l2.77 1.149a408 408 0 0 1-3.582 8.362zm6.92-16.665q1.59-4.083 3.116-8.26l2.817 1.028a417 417 0 0 1-3.14 8.32zm6.075-16.63q1.44-4.216 2.799-8.481l2.857.91a430 430 0 0 1-2.82 8.54zm5.44-17.071q1.28-4.32 2.481-8.7l2.892.793a452 452 0 0 1-2.499 8.759zm4.805-17.511a464 464 0 0 0 2.103-8.66l2.92.68a470 470 0 0 1-2.117 8.716zm4.02-17.253a491 491 0 0 0 1.774-8.692l2.943.573a494 494 0 0 1-1.784 8.745zm3.404-17.484a515 515 0 0 0 1.485-8.893l2.962.468a512 512 0 0 1-1.494 8.945zm2.827-17.885q.633-4.51 1.197-9.092l2.976.366q-.565 4.591-1.204 9.143zm2.247-18.258q.483-4.56.885-9.11l2.987.263q-.404 4.57-.89 9.163zm1.604-18.152q.316-4.49.553-8.972l2.994.157a502 502 0 0 1-.556 9.026zm.939-17.875q.15-4.42.22-8.834l2.998.047q-.069 4.438-.222 8.89zm.274-17.599a444 444 0 0 0-.12-9.058l2.997-.07q.105 4.548.121 9.118zm-.426-18.15a438 438 0 0 0-.49-9.014l2.992-.194q.293 4.521.493 9.077zm-1.165-17.952a412 412 0 0 0-.859-8.861l2.981-.322q.48 4.434.865 8.926zm-1.903-17.646q-.57-4.4-1.239-8.775l2.964-.452q.675 4.418 1.248 8.84zm-2.709-17.72q-.786-4.465-1.667-8.862l2.94-.59a393 393 0 0 1 1.68 8.932zm-3.534-17.643q-.978-4.35-2.064-8.698l2.909-.727a382 382 0 0 1 2.08 8.768zm-4.327-17.314q-1.179-4.284-2.46-8.534l2.87-.865q1.294 4.293 2.48 8.603zm-5.155-17.095a363 363 0 0 0-2.903-8.49l2.824-1.005a369 369 0 0 1 2.927 8.56zm-6.01-16.897a363 363 0 0 0-3.312-8.322l2.772-1.142a367 367 0 0 1 3.339 8.39zm-6.827-16.56a365 365 0 0 0-3.72-8.154l2.713-1.278a367 367 0 0 1 3.75 8.222zm-7.62-16.178a368 368 0 0 0-4.09-7.917l2.648-1.408q2.115 3.975 4.122 7.982zm-8.38-15.751a374 374 0 0 0-4.49-7.752l2.576-1.534a375 375 0 0 1 4.527 7.814zm-9.181-15.422a382 382 0 0 0-4.893-7.588l2.5-1.655a385 385 0 0 1 4.931 7.648zm-9.928-15.01a393 393 0 0 0-5.127-7.2l2.422-1.766a395 395 0 0 1 5.167 7.254zm-10.444-14.32a407 407 0 0 0-5.505-7.045l2.342-1.872a409 409 0 0 1 5.546 7.096zm-11.199-14.013a424 424 0 0 0-5.883-6.89l2.26-1.971a427 427 0 0 1 5.924 6.939zm-11.955-13.704a442 442 0 0 0-5.993-6.452l2.177-2.062a445 445 0 0 1 6.033 6.496zm-12.12-12.796a464 464 0 0 0-6.3-6.273l2.095-2.145a465 465 0 0 1 6.34 6.314zm-12.77-12.477a485 485 0 0 0-6.643-6.134l2.014-2.221q3.379 3.064 6.683 6.172zm-13.457-12.197a514 514 0 0 0-6.958-5.971l1.932-2.293q3.54 2.984 6.998 6.006zm-13.675-11.538a545 545 0 0 0-6.868-5.505l1.856-2.354a546 546 0 0 1 6.906 5.535zm-13.888-10.948a577 577 0 0 0-7.171-5.382l1.78-2.412q3.652 2.696 7.21 5.41zm-14.494-10.701a605 605 0 0 0-7.474-5.258l1.707-2.465a609 609 0 0 1 7.51 5.284zm-15.098-10.453-1.477-.988a341 341 0 0 0-5.9-3.845l1.612-2.528q3.022 1.926 5.955 3.88l1.477.988zm-14.9-9.498a381 381 0 0 0-7.78-4.567l1.488-2.603a383 383 0 0 1 7.84 4.602zm-15.811-9.036a427 427 0 0 0-7.743-4.09l1.373-2.665q3.961 2.041 7.798 4.12zm-15.657-8.069a476 476 0 0 0-8.134-3.893l1.269-2.717a476 476 0 0 1 8.185 3.919zm-16.487-7.701a524 524 0 0 0-8.12-3.53l1.173-2.76a528 528 0 0 1 8.165 3.55zm-16.265-6.915a582 582 0 0 0-8.335-3.31l1.085-2.795a588 588 0 0 1 8.378 3.328zm-16.859-6.546a638 638 0 0 0-8.574-3.113l1.004-2.825a644 644 0 0 1 8.614 3.127zm-16.835-5.986a703 703 0 0 0-8.425-2.81l.93-2.85q4.273 1.394 8.461 2.822zm-17.014-5.555a771 771 0 0 0-8.751-2.681l.861-2.872a772 772 0 0 1 8.786 2.692zm-17.435-5.232a836 836 0 0 0-8.439-2.38l.8-2.89a840 840 0 0 1 8.468 2.388zm-17.019-4.705a909 909 0 0 0-8.721-2.27l.74-2.904q4.415 1.125 8.75 2.276zm-17.584-4.483a984 984 0 0 0-8.91-2.136l.686-2.919q4.51 1.059 8.936 2.143zm-17.428-4.098-8.66-1.919.649-2.927 8.66 1.918zm-17.418-3.783-8.905-1.822.6-2.937 8.906 1.821zm-17.91-3.59-8.813-1.663.555-2.946 8.813 1.662zm-17.457-3.23-8.771-1.528.515-2.953 8.77 1.528zm-17.63-3.01-8.986-1.444.475-2.96 8.986 1.444zm-18.061-2.842-8.862-1.31.439-2.966 8.861 1.31zm-17.566-2.545-8.816-1.2.404-2.97 8.816 1.2zm-17.71-2.36-9.005-1.126.372-2.975 9.005 1.126zm-18.088-2.212-9.076-1.038.341-2.979 9.076 1.038zm-17.79-1.991-8.814-.922.312-2.982 8.813.922zm-17.696-1.81-8.98-.856.284-2.984 8.98.856zm-18.03-1.678-9.147-.79.258-2.987 9.147.79zm-18.134-1.527-8.777-.685.233-2.99 8.777.685zm-17.616-1.34-8.925-.625.21-2.991 8.924.626zm-17.913-1.221-9.074-.568.187-2.992 9.074.567zm-18.21-1.105-9.098-.502.165-2.994 9.098.502zm-17.872-.956-8.85-.429.144-2.994 8.85.428zm-17.758-.83-8.983-.376.126-2.996 8.983.376zm-18.022-.726-9.116-.323.107-2.997 9.115.324zm-18.288-.62-8.937-.263.087-2.997 8.938.262zm-17.75-.497-8.882-.21.07-2.998 8.882.21zm-17.815-.397-9-.163.054-2.998 9 .163zm-18.052-.303-9.12-.116.038-2.998 9.12.116zm-18.291-.21-8.954-.067.024-2.998 8.954.068zm-17.774-.112-8.88-.023.008-2.999 8.881.024zm-17.809-.026-8.988.019-.006-2.998 8.988-.019zm-18.023.059-9.096.06-.02-2.997 9.095-.061zm-18.238.143-9.133.103-.033-2.998 9.132-.103zm-17.935.22-8.857.138-.047-2.998 8.858-.137zm-17.757.294-8.955.175-.059-2.997 8.955-.176zm-17.952.37-9.052.214-.07-2.997 9.051-.214zm-18.146.447-9.15.252-.082-2.997 9.149-.252zm-18.223.52-8.816.277-.094-2.997 8.816-.277zm-17.672.57-8.905.312-.104-2.996 8.904-.312zm-17.848.64-8.994.347-.115-2.996 8.993-.346zm-18.027.71-9.082.382-.125-2.995 9.082-.382zm-18.203.78-9.17.417-.136-2.995 9.17-.416zm-17.982.831-8.844.43-.146-2.994 8.844-.43zm-17.724.876-8.925.462-.155-2.994 8.925-.462zm-17.885.94-9.006.493-.164-2.993 9.006-.494zm-18.047 1.003-9.087.525-.173-2.993 9.087-.525zm-18.209 1.067-7.113.431-.181-2.993 7.112-.431z"/><path d="m682.45 220.158 20.298-11.753-4.587 10.793 5.876 10.164z"/><path fill="none" stroke="#000" stroke-miterlimit="10" stroke-width="2.998" d="m682.45 220.158 20.298-11.753-4.587 10.793 5.876 10.164z"/><path fill="#ffc" d="M1601.039 896.462h410.753v80.951H1601.04z"/><text xml:space="preserve" font-family="sans-serif" font-size="11" transform="translate(1600.2 926.444)scale(2.9982)"><tspan x="0 6.1176758 11.617676 17.735352 21.398438 24.45459 27.510742 33.628418 39.746094 42.802246 45.246094 51.36377 57.481445 63.599121 66.042969 68.486816 73.986816 77.042969 80.706055 86.82373 89.267578 95.385254 101.50293 107.62061 113.12061 119.23828 122.29443 129.63135" y="0">user: optionally relaunch XR</tspan></text><text xml:space="preserve" font-family="sans-serif" font-size="11" transform="translate(1642.354 968.419)scale(2.9982)"><tspan x="0 3.6630859 6.1069336 9.1630859 12.219238 18.336914 24.45459 30.572266 33.628418 39.746094 45.86377 51.36377 54.419922 60.537598 66.655273 72.772949 76.436035 83.772949 91.716797 94.772949 102.7168 105.77295" y="0">(if app has non-XR UI)</tspan></text><path fill="none" stroke="#000" stroke-miterlimit="10" stroke-width="2.998" d="M2493.033 1131.82v313.732"/><path d="m2493.033 1461.293-10.493-20.988 10.493 5.247 10.494-5.247z"/><path fill="none" stroke="#000" stroke-miterlimit="10" stroke-width="2.998" d="m2493.033 1461.293-10.493-20.988 10.493 5.247 10.494-5.247z"/><path fill="#fff" d="M2359.583 1304.217h266.84v38.977h-266.84z"/><text xml:space="preserve" font-family="sans-serif" font-size="11" transform="translate(2360.093 1334.199)scale(2.9982)"><tspan x="0 5.5 9.1630859 17.106934 23.224609 28.724609 31.780762 35.443848 41.561523 47.061523 50.117676 56.235352 61.735352 64.791504 70.90918 77.026855 82.526855" y="0">xrDestroyInstance</tspan></text><path fill="#fff" d="M1532.08 1199.28h125.925v38.977H1532.08z"/><text xml:space="preserve" font-family="sans-serif" font-size="11" transform="translate(1531.75 1229.262)scale(2.9982)"><tspan x="0 6.1176758 12.235352 18.353027 21.40918 24.465332 30.583008 36.700684 39.144531" y="0">app: quit</tspan></text><path fill="#fff" d="M2518.488 1205.276h125.924v38.977h-125.924z"/><text xml:space="preserve" font-family="sans-serif" font-size="11" transform="translate(2518.158 1235.258)scale(2.9982)"><tspan x="0 6.1176758 12.235352 18.353027 21.40918 24.465332 30.583008 36.700684 39.144531" y="0">app: quit</tspan></text></g></svg>
