<?xml version="1.0" encoding="UTF-8" standalone="no"?>
<!DOCTYPE svg PUBLIC "-//W3C//DTD SVG 1.1//EN"
 "http://www.w3.org/Graphics/SVG/1.1/DTD/svg11.dtd">
<!-- Generated by graphviz version 2.40.1 (20161225.0304)
 -->
<!-- Title: state transitions Pages: 1 -->
<svg width="1010pt" height="366pt"
 viewBox="0.00 0.00 1009.84 366.00" xmlns="http://www.w3.org/2000/svg" xmlns:xlink="http://www.w3.org/1999/xlink">
<g id="graph0" class="graph" transform="scale(1 1) rotate(0) translate(4 362)">
<title>state transitions</title>
<polygon fill="#ffffff" stroke="transparent" points="-4,4 -4,-362 1005.844,-362 1005.844,4 -4,4"/>
<g id="clust1" class="cluster">
<title>cluster_rendering</title>
<path fill="none" stroke="#000000" stroke-width="2" d="M20,-8C20,-8 259,-8 259,-8 265,-8 271,-14 271,-20 271,-20 271,-218 271,-218 271,-224 265,-230 259,-230 259,-230 20,-230 20,-230 14,-230 8,-224 8,-218 8,-218 8,-20 8,-20 8,-14 14,-8 20,-8"/>
<text text-anchor="start" x="114.1614" y="-211.2" font-family="Helvetica,sans-Serif" font-size="12.00" fill="#000000">rendering</text>
</g>
<!-- initial -->
<g id="node1" class="node">
<title>initial</title>
<ellipse fill="#000000" stroke="#000000" stroke-width="0" cx="538" cy="-340" rx="5.5" ry="5.5"/>
</g>
<!-- XR_SESSION_STATE_IDLE -->
<g id="node2" class="node">
<title>XR_SESSION_STATE_IDLE</title>
<polygon fill="#ffffff" stroke="transparent" stroke-width="0" points="626.5,-294 449.5,-294 449.5,-258 626.5,-258 626.5,-294"/>
<text text-anchor="start" x="460.8186" y="-272.2" font-family="Helvetica,sans-Serif" font-size="12.00" fill="#000000">XR_SESSION_STATE_IDLE</text>
<path fill="none" stroke="#000000" stroke-width="2" d="M461.8333,-259C461.8333,-259 614.1667,-259 614.1667,-259 619.8333,-259 625.5,-264.6667 625.5,-270.3333 625.5,-270.3333 625.5,-281.6667 625.5,-281.6667 625.5,-287.3333 619.8333,-293 614.1667,-293 614.1667,-293 461.8333,-293 461.8333,-293 456.1667,-293 450.5,-287.3333 450.5,-281.6667 450.5,-281.6667 450.5,-270.3333 450.5,-270.3333 450.5,-264.6667 456.1667,-259 461.8333,-259"/>
</g>
<!-- initial&#45;&gt;XR_SESSION_STATE_IDLE -->
<g id="edge2" class="edge">
<title>initial&#45;&gt;XR_SESSION_STATE_IDLE</title>
<path fill="none" stroke="#000000" d="M538,-334.0938C538,-327.2931 538,-315.6275 538,-304.5262"/>
<polygon fill="#000000" stroke="#000000" points="541.5001,-304.2328 538,-294.2328 534.5001,-304.2328 541.5001,-304.2328"/>
<text text-anchor="start" x="538" y="-305" font-family="Helvetica,sans-Serif" font-size="10.00" fill="#000000">&#45; xrCreateInstance, xrCreateSession &#160;&#160;</text>
</g>
<!-- XR_SESSION_STATE_READY -->
<g id="node3" class="node">
<title>XR_SESSION_STATE_READY</title>
<polygon fill="#ffffff" stroke="transparent" stroke-width="0" points="489,-192 297,-192 297,-156 489,-156 489,-192"/>
<text text-anchor="start" x="307.9872" y="-170.2" font-family="Helvetica,sans-Serif" font-size="12.00" fill="#000000">XR_SESSION_STATE_READY</text>
<path fill="none" stroke="#000000" stroke-width="2" d="M309.3333,-157C309.3333,-157 476.6667,-157 476.6667,-157 482.3333,-157 488,-162.6667 488,-168.3333 488,-168.3333 488,-179.6667 488,-179.6667 488,-185.3333 482.3333,-191 476.6667,-191 476.6667,-191 309.3333,-191 309.3333,-191 303.6667,-191 298,-185.3333 298,-179.6667 298,-179.6667 298,-168.3333 298,-168.3333 298,-162.6667 303.6667,-157 309.3333,-157"/>
</g>
<!-- XR_SESSION_STATE_IDLE&#45;&gt;XR_SESSION_STATE_READY -->
<g id="edge3" class="edge">
<title>XR_SESSION_STATE_IDLE&#45;&gt;XR_SESSION_STATE_READY</title>
<path fill="none" stroke="#000000" d="M449.3176,-266.0752C430.0814,-262.2338 413.4184,-257.0166 406.534,-250 394.4846,-237.7192 391.1165,-218.6437 390.7531,-202.6763"/>
<polygon fill="#000000" stroke="#000000" points="394.2592,-202.2923 390.9117,-192.2402 387.26,-202.1858 394.2592,-202.2923"/>
<text text-anchor="start" x="407" y="-241" font-family="Helvetica,sans-Serif" font-size="10.00" fill="#000000">&#45; runtime: begin session &#160;&#160;</text>
</g>
<!-- XR_SESSION_STATE_EXITING -->
<g id="node8" class="node">
<title>XR_SESSION_STATE_EXITING</title>
<polygon fill="#ffffff" stroke="transparent" stroke-width="0" points="770,-192 572,-192 572,-156 770,-156 770,-192"/>
<text text-anchor="start" x="582.6524" y="-170.2" font-family="Helvetica,sans-Serif" font-size="12.00" fill="#000000">XR_SESSION_STATE_EXITING</text>
<path fill="none" stroke="#000000" stroke-width="2" d="M584.3333,-157C584.3333,-157 757.6667,-157 757.6667,-157 763.3333,-157 769,-162.6667 769,-168.3333 769,-168.3333 769,-179.6667 769,-179.6667 769,-185.3333 763.3333,-191 757.6667,-191 757.6667,-191 584.3333,-191 584.3333,-191 578.6667,-191 573,-185.3333 573,-179.6667 573,-179.6667 573,-168.3333 573,-168.3333 573,-162.6667 578.6667,-157 584.3333,-157"/>
</g>
<!-- XR_SESSION_STATE_IDLE&#45;&gt;XR_SESSION_STATE_EXITING -->
<g id="edge4" class="edge">
<title>XR_SESSION_STATE_IDLE&#45;&gt;XR_SESSION_STATE_EXITING</title>
<path fill="none" stroke="#000000" d="M561.4716,-257.9992C583.0851,-241.4235 615.3259,-216.6974 639.2366,-198.3599"/>
<polygon fill="#000000" stroke="#000000" points="641.5105,-201.0268 647.3157,-192.1639 637.2506,-195.4722 641.5105,-201.0268"/>
<text text-anchor="start" x="584" y="-241" font-family="Helvetica,sans-Serif" font-size="10.00" fill="#000000">&#45; runtime: user quit request &#160;&#160;</text>
</g>
<!-- XR_SESSION_STATE_RUNNING -->
<g id="node4" class="node">
<title>XR_SESSION_STATE_RUNNING</title>
<polygon fill="#ffffff" stroke="transparent" stroke-width="0" points="491,-116 285,-116 285,-80 491,-80 491,-116"/>
<text text-anchor="start" x="295.6624" y="-94.2" font-family="Helvetica,sans-Serif" font-size="12.00" fill="#000000">XR_SESSION_STATE_RUNNING</text>
<path fill="none" stroke="#000000" stroke-width="2" d="M297.3333,-81C297.3333,-81 478.6667,-81 478.6667,-81 484.3333,-81 490,-86.6667 490,-92.3333 490,-92.3333 490,-103.6667 490,-103.6667 490,-109.3333 484.3333,-115 478.6667,-115 478.6667,-115 297.3333,-115 297.3333,-115 291.6667,-115 286,-109.3333 286,-103.6667 286,-103.6667 286,-92.3333 286,-92.3333 286,-86.6667 291.6667,-81 297.3333,-81"/>
</g>
<!-- XR_SESSION_STATE_READY&#45;&gt;XR_SESSION_STATE_RUNNING -->
<g id="edge10" class="edge">
<title>XR_SESSION_STATE_READY&#45;&gt;XR_SESSION_STATE_RUNNING</title>
<path fill="none" stroke="#000000" d="M391.8151,-155.9891C391.234,-147.1566 390.5204,-136.3099 389.8682,-126.3965"/>
<polygon fill="#000000" stroke="#000000" points="393.3428,-125.8937 389.1938,-116.145 386.3579,-126.3533 393.3428,-125.8937"/>
<text text-anchor="start" x="392" y="-133" font-family="Helvetica,sans-Serif" font-size="10.00" fill="#000000">&#45; xrBeginSession &#160;&#160;</text>
</g>
<!-- XR_SESSION_STATE_STOPPING -->
<g id="node5" class="node">
<title>XR_SESSION_STATE_STOPPING</title>
<polygon fill="#ffffff" stroke="transparent" stroke-width="0" points="657,-52 445,-52 445,-16 657,-16 657,-52"/>
<text text-anchor="start" x="455.651" y="-30.2" font-family="Helvetica,sans-Serif" font-size="12.00" fill="#000000">XR_SESSION_STATE_STOPPING</text>
<path fill="none" stroke="#000000" stroke-width="2" d="M457.3333,-17C457.3333,-17 644.6667,-17 644.6667,-17 650.3333,-17 656,-22.6667 656,-28.3333 656,-28.3333 656,-39.6667 656,-39.6667 656,-45.3333 650.3333,-51 644.6667,-51 644.6667,-51 457.3333,-51 457.3333,-51 451.6667,-51 446,-45.3333 446,-39.6667 446,-39.6667 446,-28.3333 446,-28.3333 446,-22.6667 451.6667,-17 457.3333,-17"/>
</g>
<!-- XR_SESSION_STATE_RUNNING&#45;&gt;XR_SESSION_STATE_STOPPING -->
<g id="edge12" class="edge">
<title>XR_SESSION_STATE_RUNNING&#45;&gt;XR_SESSION_STATE_STOPPING</title>
<path fill="none" stroke="#000000" d="M396.6923,-79.714C401.0135,-72.5046 406.9122,-64.812 414.312,-60 418.9337,-56.9946 426.2527,-54.2344 435.1602,-51.7274"/>
<polygon fill="#000000" stroke="#000000" points="436.1568,-55.0851 444.9714,-49.2069 434.415,-48.3053 436.1568,-55.0851"/>
<text text-anchor="start" x="415" y="-63" font-family="Helvetica,sans-Serif" font-size="10.00" fill="#000000">&#45; runtime: end session &#160;&#160;</text>
</g>
<!-- XR_SESSION_STATE_VISIBLE -->
<g id="node11" class="node">
<title>XR_SESSION_STATE_VISIBLE</title>
<polygon fill="#ffffff" stroke="transparent" stroke-width="0" points="241,-192 45,-192 45,-156 241,-156 241,-192"/>
<text text-anchor="start" x="55.9784" y="-170.2" font-family="Helvetica,sans-Serif" font-size="12.00" fill="#000000">XR_SESSION_STATE_VISIBLE</text>
<path fill="none" stroke="#000000" stroke-width="2" d="M57.3333,-157C57.3333,-157 228.6667,-157 228.6667,-157 234.3333,-157 240,-162.6667 240,-168.3333 240,-168.3333 240,-179.6667 240,-179.6667 240,-185.3333 234.3333,-191 228.6667,-191 228.6667,-191 57.3333,-191 57.3333,-191 51.6667,-191 46,-185.3333 46,-179.6667 46,-179.6667 46,-168.3333 46,-168.3333 46,-162.6667 51.6667,-157 57.3333,-157"/>
</g>
<!-- XR_SESSION_STATE_RUNNING&#45;&gt;XR_SESSION_STATE_VISIBLE -->
<g id="edge11" class="edge">
<title>XR_SESSION_STATE_RUNNING&#45;&gt;XR_SESSION_STATE_VISIBLE</title>
<path fill="none" stroke="#000000" d="M331.5285,-116.1042C324.245,-118.6494 316.9175,-121.3158 309.997,-124 285.5118,-133.4967 280.911,-139.6839 256,-148 250.4953,-149.8376 244.7975,-151.5911 239.0198,-153.256"/>
<polygon fill="#000000" stroke="#000000" points="237.9385,-149.9238 229.2408,-155.9737 239.8129,-156.6682 237.9385,-149.9238"/>
<text text-anchor="start" x="310" y="-133" font-family="Helvetica,sans-Serif" font-size="10.00" fill="#000000">runtime: visible &#160;&#160;</text>
</g>
<!-- note_XR_SESSION_STATE_RUNNING -->
<g id="node13" class="node">
<title>note_XR_SESSION_STATE_RUNNING</title>
<polygon fill="#ffffcc" stroke="#000000" points="416.7951,-52 279.2049,-52 279.2049,-16 422.7951,-16 422.7951,-46 416.7951,-52"/>
<polyline fill="none" stroke="#000000" points="416.7951,-52 416.7951,-46 "/>
<polyline fill="none" stroke="#000000" points="422.7951,-46 416.7951,-46 "/>
<text text-anchor="start" x="287.1025" y="-31" font-family="Helvetica,sans-Serif" font-size="10.00" fill="#000000">xrWait/Begin/EndFrame loop</text>
</g>
<!-- XR_SESSION_STATE_RUNNING&#45;&gt;note_XR_SESSION_STATE_RUNNING -->
<g id="edge1" class="edge">
<title>XR_SESSION_STATE_RUNNING&#45;&gt;note_XR_SESSION_STATE_RUNNING</title>
<path fill="none" stroke="#000000" stroke-dasharray="5,2" d="M377.4963,-79.8314C372.5396,-71.2577 366.6346,-61.0437 361.6585,-52.4363"/>
</g>
<!-- XR_SESSION_STATE_STOPPING&#45;&gt;XR_SESSION_STATE_IDLE -->
<g id="edge13" class="edge">
<title>XR_SESSION_STATE_STOPPING&#45;&gt;XR_SESSION_STATE_IDLE</title>
<path fill="none" stroke="#000000" d="M550.0293,-52.0703C547.7856,-93.8379 542.2259,-197.3325 539.5234,-247.6409"/>
<polygon fill="#000000" stroke="#000000" points="536.0187,-247.6373 538.9771,-257.8107 543.0086,-248.0128 536.0187,-247.6373"/>
<text text-anchor="start" x="546" y="-133" font-family="Helvetica,sans-Serif" font-size="10.00" fill="#000000">&#45; xrEndSession &#160;&#160;</text>
</g>
<!-- *any* -->
<g id="node6" class="node">
<title>*any*</title>
<polygon fill="#ffffff" stroke="transparent" stroke-width="0" points="905,-358 849,-358 849,-322 905,-322 905,-358"/>
<text text-anchor="start" x="862.6624" y="-336.2" font-family="Helvetica,sans-Serif" font-size="12.00" fill="#000000">*any*</text>
<path fill="none" stroke="#000000" stroke-width="2" d="M861.3333,-323C861.3333,-323 892.6667,-323 892.6667,-323 898.3333,-323 904,-328.6667 904,-334.3333 904,-334.3333 904,-345.6667 904,-345.6667 904,-351.3333 898.3333,-357 892.6667,-357 892.6667,-357 861.3333,-357 861.3333,-357 855.6667,-357 850,-351.3333 850,-345.6667 850,-345.6667 850,-334.3333 850,-334.3333 850,-328.6667 855.6667,-323 861.3333,-323"/>
</g>
<!-- XR_SESSION_STATE_LOSS_PENDING -->
<g id="node7" class="node">
<title>XR_SESSION_STATE_LOSS_PENDING</title>
<polygon fill="#ffffff" stroke="transparent" stroke-width="0" points="999,-294 755,-294 755,-258 999,-258 999,-294"/>
<text text-anchor="start" x="765.9814" y="-272.2" font-family="Helvetica,sans-Serif" font-size="12.00" fill="#000000">XR_SESSION_STATE_LOSS_PENDING</text>
<path fill="none" stroke="#000000" stroke-width="2" d="M767.3333,-259C767.3333,-259 986.6667,-259 986.6667,-259 992.3333,-259 998,-264.6667 998,-270.3333 998,-270.3333 998,-281.6667 998,-281.6667 998,-287.3333 992.3333,-293 986.6667,-293 986.6667,-293 767.3333,-293 767.3333,-293 761.6667,-293 756,-287.3333 756,-281.6667 756,-281.6667 756,-270.3333 756,-270.3333 756,-264.6667 761.6667,-259 767.3333,-259"/>
</g>
<!-- *any*&#45;&gt;XR_SESSION_STATE_LOSS_PENDING -->
<g id="edge5" class="edge">
<title>*any*&#45;&gt;XR_SESSION_STATE_LOSS_PENDING</title>
<path fill="none" stroke="#000000" d="M877,-321.8314C877,-316.4728 877,-310.4735 877,-304.6262"/>
<polygon fill="#000000" stroke="#000000" points="880.5001,-304.4363 877,-294.4363 873.5001,-304.4363 880.5001,-304.4363"/>
<text text-anchor="start" x="877" y="-305" font-family="Helvetica,sans-Serif" font-size="10.00" fill="#000000">&#45; runtime: losing session &#160;&#160;</text>
</g>
<!-- i_note_tr_XR_SESSION_STATE_LOSS_PENDING_final_5 -->
<!-- XR_SESSION_STATE_LOSS_PENDING&#45;&gt;i_note_tr_XR_SESSION_STATE_LOSS_PENDING_final_5 -->
<g id="edge6" class="edge">
<title>XR_SESSION_STATE_LOSS_PENDING&#45;&gt;i_note_tr_XR_SESSION_STATE_LOSS_PENDING_final_5</title>
<path fill="none" stroke="#000000" d="M877,-257.7644C877,-229.3425 877,-177.3771 877,-174.157"/>
</g>
<!-- final -->
<g id="node9" class="node">
<title>final</title>
<ellipse fill="#000000" stroke="#000000" stroke-width="0" cx="725" cy="-98" rx="5.5" ry="5.5"/>
<ellipse fill="none" stroke="#000000" stroke-width="0" cx="725" cy="-98" rx="9.5" ry="9.5"/>
</g>
<!-- XR_SESSION_STATE_EXITING&#45;&gt;final -->
<g id="edge9" class="edge">
<title>XR_SESSION_STATE_EXITING&#45;&gt;final</title>
<path fill="none" stroke="#000000" d="M666.5399,-155.5759C665.1524,-145.5146 665.2652,-133.2575 671.09,-124 678.6228,-112.0279 693.3875,-105.4365 705.5632,-101.8885"/>
<polygon fill="#000000" stroke="#000000" points="706.4674,-105.2706 715.3498,-99.4954 704.8046,-98.471 706.4674,-105.2706"/>
<text text-anchor="start" x="671" y="-133" font-family="Helvetica,sans-Serif" font-size="10.00" fill="#000000">&#45; xrDestroySession, xrDestroyInstance &#160;&#160;</text>
</g>
<!-- rendering -->
<!-- XR_SESSION_STATE_VISIBLE&#45;&gt;XR_SESSION_STATE_RUNNING -->
<g id="edge14" class="edge">
<title>XR_SESSION_STATE_VISIBLE&#45;&gt;XR_SESSION_STATE_RUNNING</title>
<path fill="none" stroke="#000000" d="M161.8549,-155.8515C176.071,-142.3546 193.8415,-125.9475 198.212,-124 227.3535,-111.0144 239.5063,-118.9514 274.8392,-115.9005"/>
<polygon fill="#000000" stroke="#000000" points="275.3371,-119.3669 284.8955,-114.7965 274.5732,-112.4087 275.3371,-119.3669"/>
<text text-anchor="start" x="199" y="-139" font-family="Helvetica,sans-Serif" font-size="10.00" fill="#000000">runtime: &#160;&#160;</text>
<text text-anchor="start" x="199" y="-127" font-family="Helvetica,sans-Serif" font-size="10.00" fill="#000000">not visible &#160;&#160;</text>
</g>
<!-- XR_SESSION_STATE_FOCUSED -->
<g id="node12" class="node">
<title>XR_SESSION_STATE_FOCUSED</title>
<polygon fill="#ffffff" stroke="transparent" stroke-width="0" points="241.5,-52 32.5,-52 32.5,-16 241.5,-16 241.5,-52"/>
<text text-anchor="start" x="43.8244" y="-30.2" font-family="Helvetica,sans-Serif" font-size="12.00" fill="#000000">XR_SESSION_STATE_FOCUSED</text>
<path fill="none" stroke="#000000" stroke-width="2" d="M44.8333,-17C44.8333,-17 229.1667,-17 229.1667,-17 234.8333,-17 240.5,-22.6667 240.5,-28.3333 240.5,-28.3333 240.5,-39.6667 240.5,-39.6667 240.5,-45.3333 234.8333,-51 229.1667,-51 229.1667,-51 44.8333,-51 44.8333,-51 39.1667,-51 33.5,-45.3333 33.5,-39.6667 33.5,-39.6667 33.5,-28.3333 33.5,-28.3333 33.5,-22.6667 39.1667,-17 44.8333,-17"/>
</g>
<!-- XR_SESSION_STATE_VISIBLE&#45;&gt;XR_SESSION_STATE_FOCUSED -->
<g id="edge15" class="edge">
<title>XR_SESSION_STATE_VISIBLE&#45;&gt;XR_SESSION_STATE_FOCUSED</title>
<path fill="none" stroke="#000000" d="M98.5106,-155.9876C81.6492,-146.7129 64.2435,-133.5875 54.757,-116 47.1613,-101.9179 46.6628,-93.8016 54.757,-80 60.0881,-70.9099 67.9434,-63.4819 76.715,-57.4551"/>
<polygon fill="#000000" stroke="#000000" points="78.6996,-60.3427 85.3531,-52.0977 75.0101,-54.394 78.6996,-60.3427"/>
<text text-anchor="start" x="55" y="-95" font-family="Helvetica,sans-Serif" font-size="10.00" fill="#000000">runtime: focused &#160;&#160;</text>
</g>
<!-- XR_SESSION_STATE_FOCUSED&#45;&gt;XR_SESSION_STATE_VISIBLE -->
<g id="edge16" class="edge">
<title>XR_SESSION_STATE_FOCUSED&#45;&gt;XR_SESSION_STATE_VISIBLE</title>
<path fill="none" stroke="#000000" d="M137.7882,-52.3914C138.8078,-76.1824 140.5943,-117.8677 141.7873,-145.7048"/>
<polygon fill="#000000" stroke="#000000" points="138.3028,-146.1431 142.2279,-155.9841 145.2964,-145.8433 138.3028,-146.1431"/>
<text text-anchor="start" x="141" y="-95" font-family="Helvetica,sans-Serif" font-size="10.00" fill="#000000">runtime: not focused &#160;&#160;</text>
</g>
<!-- i_note_tr_XR_SESSION_STATE_LOSS_PENDING_final_5&#45;&gt;final -->
<g id="edge7" class="edge">
<title>i_note_tr_XR_SESSION_STATE_LOSS_PENDING_final_5&#45;&gt;final</title>
<path fill="none" stroke="#000000" d="M876.9821,-173.8994C876.6101,-171.8384 870.3548,-138.6339 851,-124 834.4975,-111.5227 775.8993,-103.4886 744.7705,-100.0009"/>
<polygon fill="#000000" stroke="#000000" points="744.989,-96.5044 734.6737,-98.9218 744.2451,-103.4648 744.989,-96.5044"/>
<text text-anchor="start" x="868" y="-133" font-family="Helvetica,sans-Serif" font-size="10.00" fill="#000000">&#45; xrDestroySession &#160;&#160;</text>
</g>
<!-- note_tr_XR_SESSION_STATE_LOSS_PENDING_final_5 -->
<g id="node15" class="node">
<title>note_tr_XR_SESSION_STATE_LOSS_PENDING_final_5</title>
<polygon fill="#ffffcc" stroke="#000000" points="995.6884,-116 864.3116,-116 864.3116,-80 1001.6884,-80 1001.6884,-110 995.6884,-116"/>
<polyline fill="none" stroke="#000000" points="995.6884,-116 995.6884,-110 "/>
<polyline fill="none" stroke="#000000" points="1001.6884,-110 995.6884,-110 "/>
<text text-anchor="start" x="872.156" y="-101" font-family="Helvetica,sans-Serif" font-size="10.00" fill="#000000">optional: xrDestroySession,</text>
<text text-anchor="start" x="872.156" y="-89" font-family="Helvetica,sans-Serif" font-size="10.00" fill="#000000">poll xrCreateSession</text>
</g>
<!-- i_note_tr_XR_SESSION_STATE_LOSS_PENDING_final_5&#45;&gt;note_tr_XR_SESSION_STATE_LOSS_PENDING_final_5 -->
<g id="edge8" class="edge">
<title>i_note_tr_XR_SESSION_STATE_LOSS_PENDING_final_5&#45;&gt;note_tr_XR_SESSION_STATE_LOSS_PENDING_final_5</title>
<path fill="none" stroke="#000000" stroke-dasharray="5,2" d="M877.0587,-173.9936C879.5108,-173.7244 958.0806,-164.978 971,-148 977.4593,-139.5115 975.9764,-133.4347 971,-124 969.5083,-121.1718 967.555,-118.5927 965.3207,-116.2538"/>
</g>
</g>
</svg>
