<svg xmlns="http://www.w3.org/2000/svg" xml:space="preserve" viewBox="0 0 340 500"><style>.st0{fill:gray;stroke:gray;stroke-width:.1417;stroke-linecap:round;stroke-miterlimit:11.3386}.st1{fill:#666;fill-rule:evenodd;clip-rule:evenodd}.st3{fill:#8b8b8b;stroke:gray;stroke-width:.1417;stroke-miterlimit:11.3386}.st4,.st5{fill:none;stroke:#666;stroke-linecap:round;stroke-miterlimit:10}.st5{stroke-miterlimit:11.3386;stroke-width:.5669;stroke-dasharray:.5669,1.7008}.st9{font-family:&quot;TimesNewRomanPSMT&quot;}.st10{font-size:9px}.st12{stroke-width:.5669}.st12,.st13,.st14{fill:none;stroke:#7f7f7f;stroke-linecap:round;stroke-miterlimit:11.3386}.st13{stroke-width:.2835}.st14{stroke-width:1.1339}.st15,.st16{fill:none;stroke:#666;stroke-miterlimit:10}.st16{stroke-linecap:round;stroke-miterlimit:11.3386}</style><g transform="translate(-44.364 -54.252)"><path d="M101 102.1c.4.3 3.3 3.8 3.6 3.5.4-.2-1.3-1.5-1.5-1.7-1.8-1.7-3-3.5-5.3-4.6-2.6-1.3-4.7-4-6.9-5.9-1.3-1.1-3-1.3-4.2-2.4-3.5-2.9-5.9-6.9-8-10.9-1.9-3.7-1.8-8.9 3.3-8.9.8 0 1.4-.2 2.1.2 1.8.9 2.4 2.8 3.7 4.3 1.2 1.4 3.2 2.7 4.7 3.7 5.1 3.4 10.4 6.7 15.7 9.9 3.2 1.9 6.9 3.1 9.3 6.1 2.2 2.7 3.7 6 5.6 8.9 3.1 4.6 6.6 9 10.4 13.1 1.7 1.8 3.5 2.9 5.3 4.5.9.8 1.9 2.2 3.2 2.6-.8-1.9-4.2-3.7-5.9-4.8-1.6-1-3.8-3.5-5-5-2.6-3.4-5.5-7-7.8-10.6-1.8-2.9-3.5-6.6-5.8-9.2-2.7-2.9-6.1-4-9.3-6-2.4-1.6-5.1-3-7.6-4.6-1.5-1-2.7-2.4-4.3-3.2-2.8-1.3-5.9-3.1-8.1-5.4-1.5-1.6-2-3.7-4.1-4.6-2-.9-5.8 0-6.6 2.2-1.1 3.2.9 7.3 2.5 10 4.1 6.7 10.4 10.4 16.2 15.5 1.3 1.1 3.2 1.4 4.3 2.8.8 1 .2 3.7.4 5 .7 3.8 2 7.9 3.4 11.5 1.1 2.9 3.2 5.1 5.2 7.5.2.2 1.8 2.5 2 2.2.1-.3-1-1.2-1.1-1.5-1.1-1.8-2.8-3.1-3.9-4.9-3.6-5.2-5.5-13.2-5.5-19.3M84.8 81.3c1.4-.1 2.3-.4 3.3-1.6.1-.1 1.3-1.9.8-1.9-.1 0-1.7 2.4-2.1 2.7-.5.3-1.7.3-2 .8M68 93.8c-.3.1-.5 1.4-.6 1.7-.5 1.8-1.3 3.4-1.3 5.3 0 5.1 3.2 7 6.7 9.9 1.1.9 2 2.8 3.7 2.9 1 .1 1.7-.4 2.4-1 3.5-2.5 2.2-7.2-.1-10.2 1.3.1 3.3.2 3.9-1.3-1.8.7-2.7 1.7-4.6.4l.4-1.2c-.4.2-.5.5-.6.9h-.3c.2.9 1.3 1.7 1.8 2.5.8 1.3 1.8 4.7 1.4 6.2-.4 1.4-2.8 3.6-4.3 3.3s-2.3-1.7-3.3-2.6c-1.9-1.8-4.6-2.7-5.7-5.2-.9-1.8-1.4-4.3-.9-6.3.4-1.6 1.6-3.6 1.4-5.3 1.6 2 1.9 5 4 6.6 2 1.6 5.4.9 6.4-1.6.7-1.7.3-4 .3-5.7 2-.6 3.8 1.2 6.1.5.2-.1 2.2-1 2-1.1-.3-.2-1.8.7-2.1.8-1.4.4-3.1.3-4.3-.6.8-.8.9-2.1.9-3.3 0-.1.1-1.3-.2-1.3-.1 0-.7 3.8-.9 4.3-.6-.2-1 .1-1.5.4 0-1.9-.6-3.7-1.7-5.3-.1-.2-1.8-2.1-1.8-1.6 0 .4 1.9 2.4 2.2 3 1.2 2.5 2 8.4 0 10.8-4.1 4.8-9.1-3.7-9.5-7.3-.3-2.2.9-3.4 1.5-5.3 1.7-1.5 3.6-5.4 5.7-6.1.3-.1 3-.5 3-.5-.4-1.1-3.9.6-4.3 1.1-2.9 3.8-7.3 6.8-5.8 12.2m15.1 7.7c.7-.3 1.9-3.7 1.1-4 .4.1-1 3.6-1.1 4m-3 16.7c.6-.1.8-.7 1.2-1.1 1.5-1.3 2.1-3.3 1.5-5.2-.2-.5-.9-1.4-.9-1.8 0-.5.7-1.4.9-1.9.1-.3.2-3.2-.1-3.2s-.1.9-.1 1.1c0 1.2-1.2 3.2-1 4 .2 1.5 1.4 2.3 1.1 4.2-.1.9-.7 1.8-1.3 2.4-3.9 3.8-7.8-1.3-10.5-4.4-.8-.9-2.6-3.4-2.1-4.3-.4.8.2 2.6.7 3.2 1.8 2.2 4.1 5.2 6.6 6.6.5.3 3.7 1.5 4 .4m-1.8.8c-.7.2-1.2.9-1.9 1-2.8.4-6.4-2-8-4.3-.9-1.2-.9-2.6 0-3.8.1-.1.7-.8.4-.8-1.3-.1-1.6 3.1-1.3 3.8.9 2.3 5 5.4 7.4 5.4 1.3 0 3 0 3.4-1.3m3.6-1c-.4.2.3 1.9.5 1.8.2-.2-.5-1.9-.5-1.8m-2.9.9c.7-.5 4.2 2 4.9 2.6 4.4 3.7 8.1 8.3 12.3 12.2 1.2 1.1 2.8 1.8 4 3 .2.2.9 1.3 1.2 1.1.1-.1-.8-1.2-.9-1.3-1.1-1.2-2.8-1.9-4-3-4.2-3.9-7.9-8.3-12.3-12.1-.9-.8-4-3.3-5.2-2.5zm119.6-17.6c.4.3 2.8 4.2 3.2 3.9.4-.2-1.1-1.6-1.2-1.8-1.5-2-2.6-3.9-4.7-5.3-2.4-1.6-4.1-4.5-6.1-6.7-1.2-1.2-2.8-1.7-3.9-2.9-3.1-3.3-5-7.6-6.6-11.8-1.5-4-.7-9 4.4-8.4.8.1 1.4-.1 2.1.5 1.7 1.2 2 3.1 3.1 4.7 1 1.5 2.8 3.1 4.3 4.3 4.7 4 9.5 7.9 14.4 11.8 2.9 2.3 6.5 3.9 8.4 7.2 1.9 3 2.9 6.4 4.5 9.6 2.5 5 5.5 9.8 8.7 14.3 1.4 2 3.1 3.3 4.7 5.2.8.9 1.6 2.5 2.9 3-.5-2-3.8-4.2-5.2-5.5-1.5-1.2-3.4-3.9-4.3-5.6-2.2-3.7-4.6-7.7-6.4-11.5-1.4-3.1-2.7-7-4.7-9.9-2.3-3.2-5.5-4.7-8.5-7.1-2.1-1.9-4.7-3.6-7-5.6-1.4-1.1-2.4-2.7-3.9-3.7-2.6-1.6-5.5-3.8-7.4-6.4-1.3-1.7-1.6-4-3.5-5-1.9-1.2-5.8-.7-6.9 1.4-1.5 3-.1 7.4 1.2 10.3 3.2 7.1 9 11.6 14.2 17.4 1.2 1.2 3 1.8 3.9 3.3.7 1.1-.2 3.7-.2 5 .3 3.8 1 8 2 11.9.7 3 2.5 5.5 4.2 8.1.2.2 1.5 2.8 1.7 2.5.1-.3-.9-1.3-.9-1.6-.8-1.9-2.4-3.4-3.2-5.3-3.1-6.1-4.1-14.3-3.3-20.3M184 81.9c1.4 0 2.3-.2 3.4-1.4.1-.1 1.4-1.8.9-1.8-.1 0-1.9 2.3-2.3 2.6-.5.2-1.7.1-2 .6M165.9 98c-.3.1-.5 1.4-.6 1.7-.5 1.8-1.3 3.4-1.3 5.3 0 5.1 3.2 7 6.7 9.9 1.1.9 2 2.8 3.7 2.9 1 .1 1.7-.4 2.4-1 3.5-2.5 2.2-7.2-.1-10.2 1.3.1 3.3.2 3.9-1.3-1.8.7-2.7 1.7-4.6.4l.5-1.1c-.4.2-.5.5-.6.9h-.3c.2.9 1.3 1.7 1.8 2.5.8 1.3 1.8 4.7 1.4 6.2-.4 1.4-2.8 3.6-4.3 3.3s-2.3-1.7-3.3-2.6c-1.9-1.8-4.6-2.7-5.7-5.2-.9-1.8-1.4-4.3-.9-6.3.3-1.6 1.5-3.6 1.3-5.4 1.6 2 1.9 5 4 6.6 2 1.6 5.4.9 6.4-1.6.7-1.7.3-4 .3-5.7 2-.6 3.8 1.2 6.1.5.2-.1 2.2-1 2-1.1-.3-.2-1.8.7-2.1.8-1.4.4-3.1.3-4.3-.6.8-.8.9-2.1.9-3.3 0-.1.1-1.3-.2-1.3-.1 0-.7 3.8-.9 4.3-.6-.2-1 .1-1.5.4 0-1.9-.6-3.7-1.7-5.3-.1-.2-1.8-2.1-1.8-1.6 0 .4 1.9 2.4 2.2 3 1.2 2.5 2 8.4 0 10.8-4.1 4.8-9.1-3.7-9.5-7.3-.3-2.2.9-3.4 1.5-5.3 1.7-1.5 3.6-5.4 5.7-6.1.3-.1 3-.5 3-.5-.4-1.1-3.9.6-4.3 1.1-2.9 3.8-7.3 6.8-5.8 12.2m15.1 7.8c.7-.3 1.9-3.7 1.1-4 .4.1-1 3.5-1.1 4m-3 16.6c.6-.1.8-.7 1.2-1.1 1.5-1.3 2.1-3.3 1.5-5.2-.2-.5-.9-1.4-.9-1.8 0-.5.7-1.4.9-1.9.1-.3.2-3.2-.1-3.2s-.1.9-.1 1.1c0 1.2-1.2 3.2-1 4 .2 1.5 1.4 2.3 1.1 4.2-.1.9-.7 1.8-1.3 2.4-3.9 3.8-7.8-1.3-10.5-4.4-.8-.9-2.6-3.4-2.1-4.3-.4.8.2 2.6.7 3.2 1.8 2.2 4.1 5.2 6.6 6.6.5.3 3.6 1.5 4 .4m-1.8.8c-.7.2-1.2.9-1.9 1-2.8.4-6.4-2-8-4.3-.9-1.2-.9-2.6 0-3.8.1-.1.7-.8.4-.8-1.3-.1-1.6 3.1-1.3 3.8.9 2.3 5 5.4 7.4 5.4 1.3 0 3 0 3.4-1.3m3.6-1c-.4.2.3 1.9.5 1.8.2-.2-.5-1.9-.5-1.8m-2.9.9c.7-.5 4.2 2 4.9 2.6 4.4 3.7 8.1 8.3 12.3 12.2 1.2 1.1 2.8 1.8 4 3 .2.2.9 1.3 1.2 1.1.1-.1-.8-1.2-.9-1.3-1.1-1.2-2.8-1.9-4-3-4.2-3.9-7.9-8.3-12.3-12.1-.9-.8-4-3.3-5.2-2.5z" class="st0"/><path d="m87.3 76.2 5.6-1.6-3.2 4.8c.1-1.6-.9-2.9-2.4-3.2" class="st1"/><path d="M151.4 289.4c.2 1.1 1.4 1.8 1.7 2.9.8 2.6-1.1 7.1-4.3 6.9-3.3-.3-2.9-3-3.9-5.4s-2.3-3.2-2.1-6c.1-1.3.4-2.4 1.2-3.5.1-.1.8-.8.5-1-.2-.1-1.1 1.3-1.2 1.4-1 1.7-1.3 3.7-2 5.5-1.1 2.7-1.4 8.7.1 11.3.8 1.5 2.7 2.7 4 3.8 2.4 1.9 5.9 7.1 8.9 2.9.4-.5.7-1.1.9-1.7 2.7 2.9 1 8.1-3.5 7.5-1-.1-1.5-1.1-2.2-1.7-1.8-1.5-4.5-3.4-5.6-5.5-.2-.3-1.3-3.5-1.4-3.5-.4.1.5 2.2.6 2.5 1.1 2.4 3.3 4 5.2 5.8.7.7 1.8 2.1 2.8 2.5 1.1.5 2.2.1 3.3.9 4 2.9 7.5 6.5 11.5 9.5 1.4 1 2.8 2.1 3.9 3.4.1.2 1 1.2 1.2 1 .2-.1-1.9-2.1-2.1-2.3-2.6-2.2-5.1-4.5-7.7-6.7-2.5-2-4.9-4.1-7.7-5.8 3.4-1.4 5.1-5.5 1.7-8.1 0-2.2.1-5.6-2.2-6.8.7 2.7 2.7 4.2 1.9 7.4-.1.5-.5 1.1-.8 1.5-2.8 3.7-5.4-.7-7.5-2.4-1.6-1.2-3.8-2.5-4.8-4.3-2-3.8-.4-9.9.8-13.7 0 3 1.4 3.9 2.2 6.5.5 1.8.6 4.5 2.7 5.2 6 1.9 7-6.2 4.3-9.6 3.3 1.6 6.8 2 10 3.6 3.7 1.9 6.6 4.6 10.6 6.2.3.1 3.5 1.9 3.6 1.2 0-.2-1.8-.6-2-.8-2.1-1.2-4.4-1.9-6.6-3.1-2.7-1.4-4.9-3.6-7.7-5-1.7-.9-4.2-.8-6-1.6-4-1.6-10.3-6.8-9.9-11.7.1-1.3.9-2 1.5-3.1 1.7-.2 3-1 4.8-.4 2.1.7 3.4 2.8 5.5 3.4 7.4 2.2 14.5 4.3 21.7 6.8 2.8 1 5.1 1.7 7.6 3.3.3.2 1.9 1.9 2 1.9.3-.2-.6-1.2-.8-1.3-.9-.9-2.7-2.2-3.9-2.7 0-.8-3.5-3.8-4.3-4.3-2.9-1.6-7.3-2-10.6-2.7-2.4-.5-4.6-1.6-7-2.1-1.8-.4-3.7-1.1-5.5-1.3-.2 0-1.8-.2-1.8.1 0 .2 1.7.2 1.9.2 2 .3 3.9 1.1 5.9 1.4 2.2.4 4.2 1.4 6.3 2 5 1.3 11.9 1.6 14.8 6.6-9-2.2-17.4-5.6-26.3-8.3-2.5-.7-4-3.5-6.8-3.6s-6.2 1.6-5.4 4.9c.7 3.7 4.4 8.8 8 10m4.1-10.6c-.5.1-3.8 3.1-3.9 3 .5.5 3.7-2.5 3.9-3m30.7 10.2c-.1 0 1.4 1.7 1.6 1.9 2 2.1 3.5 4.4 5.3 6.6 3.8 4.7 8 9 12.2 13.4 1 1.1 1.6 2.6 2.7 3.6 1.5 1.4 3.6 2.1 5.2 3.7 1.8 1.8 3.9 3.3 6 4.7.2.1 1.9 1.4 1.8 1.4.6-.2-1.3-1.4-1.5-1.5-2.1-1.3-4.3-2.9-6-4.7-1.6-1.6-3.8-2.4-5.3-3.8-1-1-1.6-2.5-2.6-3.5-4.1-4.4-8.3-8.5-12.1-13.2-1.8-2.2-3.2-4.6-5.2-6.6-.4-.5-1.5-2.1-2.1-2m-28.4 4.3c-.3.2-.4 2.3-.5 2.4.7-.4.5-2.4.5-2.4m-.8 2.9c-1.2.4-1.7 1.3-3.1 1.3-.1 0-.9-.1-.9.1s1.1.2 1.3.1c1 .1 2.3-.5 2.7-1.5m27 27.3c-.7-1.3-2.4-2-3.4-3.2-3.6-4.6-7-8.9-8.4-14.6-.4-1.6-.8-3.1-1-4.6 0-.2-.2-1.5-.3-1.4-.3.1 0 1.4 0 1.6.2 1.7.8 3.4 1.2 5.1 1.2 5.1 4.3 9.4 7.7 13.3 1.1 1.2 2.6 3.3 4.2 3.8M155.4 305c.6-.3 1.9-3.8 1-4.1.4.2-.9 3.7-1 4.1m-3 9.3c-.8.2-1.2 1.1-2 1.2-2.6.4-6.5-2.4-8-4.4-1-1.3-.1-2.4.3-3.7 0-.1.4-1.3.1-1.3-.5 0-1.2 3.7-1.1 4.3.3 1.1 1.2 1.5 2 2.1 2.1 1.6 6.9 5.8 8.7 1.8zm169-33.5c-4.8-.2-9.8-2.3-14.6-2.8-1.7-.2-3.8-.7-5.5-.1-1.9.7-2.4 2.1-3.8 3.3-1 .8-3 1.9-3.5 3.1-1.7 3.7-.5 8.3 1.2 11.8 1 2.1 4.3 2.1 6 .8.7 2.1 2.8 3.6 3.2 6 .4 2.9-.8 7.9-4.9 6.4-1.1-.4-1.9-1.8-2.7-2.6-1.2-1.3-2.8-2.2-3.9-3.6-3-3.6-1.5-6.6-.7-10.6.4-.2.7-2.2.6-2.2-.8.3-1.8 4.6-1.9 5.4-1.1 5.3 2.1 7.9 5.6 11.2.9.9 1.6 2.3 2.8 2.8 4.4 1.8 5.3-3.4 5.3-6.3 0-1.6-1.2-3.4-2-4.7 1.6.3 3.9.4 5.2-.8.2-.2 2-2.8 1.5-3 0 0-2 3-2.4 3.2-2.4 1.2-3.9-.1-5.7-1.1 2-2.1 2.4-3.8 2.4-6.8.9-.1 1.3-.9 2.1-1 1-.2 2.8.6 3.9.7.3 0 1.7.2 1.9-.1.1-.2-1.2-.2-1.4-.2-1-.1-3.8-1.2-4.6-.7-.4.2-1.8 1-2 1.3-.4.7 0 2-.2 2.9-.6 2.8-2.9 4.8-5.8 4.5-2.3-.3-2.4-3-3.1-4.7-.9-2.4-1.6-6.1 0-8.4.8-1.1 2.5-1.9 3.5-2.9 1.2-1.2 1.7-2.4 3.5-3 1.4-.5 3.1-.2 4.6 0 3.4.4 6.7 1 10.1 1.8 1.2.3 4.4 1.5 5.4 1 1.7 2.1 3.6 5.6 4.5 8.2.1.3.4 3.1.5 3.1.8 0-.5-4-.7-4.3-1.4-2.3-2.3-4.8-3.9-6.9-1.4-2.1-3.3-3.4-4.1-5.9-1.3-3.9-.4-8.4.4-12.2.2-.7 3-2.8 3.4-2.2-.3-.5-1.7.2-2.1.4-1.8.9-2.1 3.4-2.4 5.2-1 5 .4 9.7 4.3 14m4.4-13.3c-2.7-.6-2.2.3.1.3.6 2.2 3.5 3.6 5 5.1 1.2 1.3 1.9 3 3.2 4.2 2.8 2.7 6.4 5.2 8.9 8.2 3.8 4.4 5.3 10.1 7.9 15.1 5.4 9.6 16.3 23.8 13.6 18.4-4.9-5.5-9.9-12-13.3-18.5-1.7-3.2-2.6-9.2-5.7-11.4-.2-3-4.2-5.5-6.2-7.3-3-2.7-5.3-5.8-8-8.8-1.5-1.6-4-2.8-5-4.9-.4-.8-.2-1.9-.3-2.7-.2-1.4-1.2-2.9-2.2-3.9-.2-.2-1.1-.9-1.4-.6.1-.1 1.4 1.2 1.6 1.4 1 1.8 1.8 3 1.8 5.4m-20 20.8c.6-.3 1.6-4.8.9-5 .2.1-.9 4.4-.9 5m-4.4-3.5c-.3.3 1.8 4.4 1.3 4.7.7-.5-.4-3.3-.7-3.8-.1-.1-.6-1.1-.6-.9m14 1.5c-.4.1-3.3 2.9-3.2 3.1.2.2 2.9-2.7 3.2-3.1m11 6.3c-.9.6-.8 4.5-.9 5.5-.6 5.8 1.7 13.4 4 18.7.7 1.6 2.1 3.4 3.5 4.5.2.1 1.2 1.1 1.4 1 .3-.2-1.1-1.1-1.2-1.2-1.4-1-2.8-2.9-3.5-4.5-2.3-5.4-4.3-12.6-3.9-18.5 0-.8.1-5.3.6-5.5m-23.9 4.6c1-.5.4-3 0 0m3.4 8.1c.6-.3 2.6-4.3 1.6-4.6.4.1-1.6 4.1-1.6 4.6m-1.1-.5c.2 1.6 1.4 2.9 1.5 4.5.1 3.1-1.9 6.6-5.5 4.7-2.2-1.2-3.9-3.7-5.5-5.6-.3-.4-2.4-3.6-2-3.9-1 .7 1.5 3.9 1.9 4.4 2.3 2.9 5.7 7.6 9.9 5.3 2.3-1.5 1.8-8.2-.3-9.4M321 330c-.4-1.4-3-3.1-4.1-4.2-4-4.1-8.1-8.9-13.9-10.4l.2-.5c-.9.2-1.4 1.2-2.5 1.3-2.9.2-7.3-1.5-7.9-4.7-.4-1.8.3-3 .9-4.6-3.8 1.6.2 7 2 8.3 1.6 1.1 3.6 1.6 5.5 1.2.6-.1 1.1-.8 1.7-.8 1.2 0 3.2 1.2 4.3 1.8 3.6 2.1 6.5 5.5 9.4 8.5 1.3 1.4 2.8 3.2 4.4 4.1m38.6-17.7.1.1-.1-.1m-53.5 2c-.3.2.3 2 .5 1.9.3-.2-.5-2-.5-1.9m57.5 3.4.1.1-.1-.1m.3.4.2.2" class="st0"/><path d="M79 261.8c-4.3.6-5.2 4.4-5.2 8 0 6.7 4.1 13.6 8.7 18.1 1.5 1.5 3.5 3.8 4.4 5.8 1 2.2 2.9 6.2 5.1 7.4.5.3 1.9 1.3 2.4 1-.1 0-2.7-1.6-3-2-2.4-2.6-3.2-6.7-5.7-9.2-2.9-2.8-6.6-6.5-8.5-10.2-.9-1.8-1.1-3.9-1.8-5.7-1.1-2.7-2.3-7.5-.5-10.2 1-1.5 3.3-2.9 5-2.9.4 0 2.6 1.1 2.5 1.2.3-1-2.8-1.4-3.4-1.3m3.5 1.5c2.2 4.8 5.4 8.9 8.5 13.2 1.5 2.1 2.7 4.5 4.5 6.3 1.2 1.2 3 1.8 4.3 2.9 2.4 1.9 4.3 4.2 6.6 6.1s4.7 4.1 6.8 6.2c.2.2 2 2 2.4 1.4 0 0-1.9-1.3-2.1-1.5-2-2.1-4.3-3.9-6.4-5.9-2.3-2.2-4.5-4.5-7.1-6.5-1.3-1.1-3.2-1.7-4.4-2.9-2.8-2.8-4.8-6.7-7.2-9.9-1.4-1.9-2.7-3.6-3.6-5.9-.4-1.1-1-3-2.3-3.5m3.1 7.6c-1.1.6-2.5 3.9-3.7 3.8 1.1.1 2.9-1.7 3.4-2.6 0 0 .5-1.3.3-1.2m-4.9 15.6c-1.9.5-.8 2.5-.6 3.7.3 2.5-.1 6.8-3.2 7.4-2 .4-3.4-2.1-4.4-3.4-1-1.4-2.4-2.8-3-4.4-.9-2.8.5-6.5 1.4-9.1.6-1.9 1.4-2.9 2.9-4.1.1-.1 1.2-.9 1-1-2-.5-3.9 4.1-4.3 5.4-1.2 3.9-2.4 7.6.1 11.1 2 2.8 5.7 8.7 8.8 3.7.4-.6.6-1.2.8-1.9.4-2.1-.5-4-.4-5.9 0-.5.7-.9.9-1.5m12.3-8.1c.2-.1 2.7.7 3.2.8 3.6 1 7.1 2.3 9.7 5.1 6.8 7.1 12.3 15.2 19.1 22.3 3.9 4.1 9.1 6.9 12.8 11.2 3 3.4 6.9 5.8 10 9.2.4.4 2.1 3.7 2.9 3.1-.4.3-2.4-2.9-2.7-3.3-3.1-3.4-6.9-5.9-10-9.3-3.7-4.2-8.8-7.1-12.7-11.1-6.9-7.2-12.6-15.3-19.4-22.6-2.5-2.7-6-3.9-9.4-4.9-.8-.2-2.7-1-3.5-.5m-15.6 4.8c.4-.1 1.6 4.1 2.1 3.9.1 0-1.2-4.2-2.1-3.9m2.8 25.4c4.1-1.6 3.2-10.3-.9-11.4.7 1.8 2.6 2.7 3.1 4.9.8 3.3-1.5 8.1-5.5 6.4-.9-.4-1.3-1.5-2.2-2-1.2-.8-2.6-1.3-3.8-2.3-4-3.5-3.8-7.9-3.4-12.8.1-1.6.8-5.5 1.1-5.9-1.2 1.6-1.3 4-1.4 5.8-.5 5.2-.6 9.8 3.9 13.4 1.2.9 2.7 1.4 3.8 2.3.8.6 1.2 1.7 2.3 1.9.8.3 2.3.5 3-.3m.3-20.1s1.8 1.8 2.5 1.5c-.2 0-2-1.7-2.5-1.5m3.1 3c-.6.4-.9 2.8-1.2 3.5-.4.7-3.8 2.8-1.6 1.9 1.7-.7 2.1-2.4 2.7-4 0 0 .3-1.5.1-1.4M68 302.1c.3 1.1 1.2 2.1 1.8 3.1 1.9 3.1 6.9 9.8 11.3 8.3 2.1-.7 4.7-6 1.8-7.2.5 1.7 1.1 3 .4 4.8-.8 2.4-4.1 2.7-6 1.5-2.7-1.6-5-4.7-6.9-7.2-.7-.9-1.3-2.8-2.4-3.3m39.6 21.6c-.5-1.7-3.3-3.2-4.5-4.5-3.4-3.5-6.4-6.9-8.9-11-.8-1.4-1.6-2.8-2.1-4.3 0-.1-.4-1.4-.6-1.3-.3.2.2 1.3.3 1.5.6 1.5 1.3 3 2.2 4.4 2.9 4.4 6 8.4 10 11.9 1.2 1 2.3 2.6 3.6 3.3m-28.7-10.1c-.8.3-1.1 1.3-1.9 1.4-2.4.3-8.3-2.6-9.3-4.7-.7-1.5 0-3.7.6-5.1.1-.1.6-1.4.2-1.4-.6 0-1.3 4.3-1.3 4.9 0 3.7 4.9 5 7.7 6.3 1.4.7 3.6.3 4-1.4m1.4.7c-.1 0-1.4-.3-1.3 0 .1.2 1.5.5 1.8.7 1.4.6 2.8 1.5 3.8 2.7 4.2 4.9 8 9.5 13 13.6 1.3 1 4.3 3.6 5.9 3.7-1.8-1.9-4.5-2.9-6.5-4.6-4.3-3.7-7.6-7.6-11.3-11.8-1.2-1.4-2.4-2.6-4-3.5-.3-.2-1.3-1.1-1.4-.8z" class="st3"/><path d="M226.8 199c.2 1.1 1.4 1.8 1.7 2.9.8 2.6-1.1 7.1-4.3 6.9-3.3-.3-2.9-3-3.9-5.4s-2.3-3.2-2.1-6c.1-1.3.4-2.4 1.2-3.5.1-.1.8-.8.5-1-.2-.1-1.1 1.3-1.2 1.4-1 1.7-1.3 3.7-2 5.5-1.1 2.7-1.4 8.7.1 11.3.8 1.5 2.7 2.7 4 3.8 2.4 1.9 5.9 7.1 8.9 2.9.4-.5.7-1.1.9-1.7 2.7 2.9 1 8.1-3.5 7.5-1-.1-1.5-1.1-2.2-1.7-1.8-1.5-4.5-3.4-5.6-5.5-.2-.3-1.3-3.5-1.4-3.5-.4.1.5 2.2.6 2.5 1.1 2.4 3.3 4 5.2 5.8.7.7 1.8 2.1 2.8 2.5 1.1.5 2.2.1 3.3.9 4 2.9 7.5 6.5 11.5 9.5 1.4 1 2.8 2.1 3.9 3.4.1.2 1 1.2 1.2 1 .2-.1-1.9-2.1-2.1-2.3-2.6-2.2-5.1-4.5-7.7-6.7-2.5-2-4.9-4.1-7.7-5.8 3.4-1.4 5.1-5.5 1.7-8 0-2.2.1-5.6-2.2-6.8.7 2.7 2.7 4.2 1.9 7.4-.1.5-.5 1.1-.8 1.5-2.8 3.7-5.4-.7-7.5-2.4-1.6-1.2-3.8-2.5-4.8-4.3-2-3.8-.4-9.9.8-13.7 0 3 1.4 3.9 2.2 6.5.5 1.8.6 4.5 2.7 5.2 6 1.9 7-6.2 4.3-9.6 3.3 1.6 6.8 2 10 3.6 3.7 1.9 6.6 4.6 10.5 6.2.3.1 3.5 1.9 3.6 1.2 0-.2-1.8-.6-2-.8-2.1-1.2-4.4-1.9-6.6-3.1-2.7-1.4-4.9-3.6-7.7-5-1.7-.9-4.2-.8-6-1.6-4-1.6-10.3-6.8-9.9-11.7.1-1.3.9-2 1.5-3 1.7-.2 3-1 4.8-.4 2.1.7 3.4 2.8 5.5 3.4 7.4 2.2 14.5 4.3 21.7 6.8 2.8 1 5.1 1.7 7.6 3.3.3.2 1.9 1.9 2 1.9.3-.2-.7-1.2-.8-1.3-.9-.9-2.7-2.2-3.9-2.7 0-.8-3.5-3.8-4.4-4.3-2.9-1.6-7.3-2-10.5-2.7-2.4-.5-4.6-1.6-7-2.1-1.8-.4-3.7-1.1-5.5-1.3-.2 0-1.8-.2-1.8.1 0 .2 1.7.2 1.9.2 2 .3 3.9 1.1 5.9 1.4 2.2.4 4.2 1.4 6.3 2 5 1.3 11.9 1.6 14.8 6.6-9-2.2-17.4-5.6-26.3-8.3-2.5-.7-4-3.5-6.8-3.6s-6.2 1.6-5.4 4.9c.7 3.6 4.4 8.7 8.1 9.8m4-10.6c-.5.1-3.8 3.1-3.9 3 .5.6 3.7-2.4 3.9-3m30.7 10.3c-.1 0 1.4 1.7 1.6 1.9 2 2.1 3.5 4.4 5.3 6.6 3.8 4.7 8 9 12.2 13.4 1 1.1 1.6 2.6 2.7 3.6 1.5 1.4 3.6 2.1 5.2 3.7 1.8 1.8 3.9 3.3 6 4.7.2.1 1.9 1.4 1.8 1.4.6-.2-1.3-1.4-1.5-1.5-2.1-1.3-4.3-2.9-6-4.7-1.6-1.6-3.8-2.4-5.3-3.8-1-1-1.6-2.5-2.6-3.5-4.1-4.4-8.3-8.5-12.1-13.2-1.8-2.2-3.2-4.6-5.2-6.6-.4-.5-1.5-2.1-2.1-2m-28.4 4.2c-.3.2-.4 2.3-.5 2.4.7-.3.5-2.4.5-2.4m-.8 2.9c-1.2.4-1.7 1.3-3.1 1.3-.1 0-.9-.1-.9.1s1.1.2 1.3.1c.9.1 2.3-.4 2.7-1.5m27.1 27.4c-.7-1.3-2.4-2-3.4-3.2-3.6-4.6-7-8.9-8.4-14.6-.4-1.6-.8-3.1-1-4.6 0-.2-.2-1.5-.3-1.4-.3.1 0 1.4 0 1.6.2 1.7.8 3.4 1.2 5.1 1.2 5.1 4.3 9.4 7.7 13.3 1 1.2 2.6 3.3 4.2 3.8m-28.6-18.5c.6-.3 1.9-3.8 1-4.1.3.2-1 3.7-1 4.1m-3 9.3c-.8.2-1.2 1.1-2 1.2-2.6.4-6.5-2.4-8-4.4-1-1.3-.1-2.4.3-3.7 0-.1.4-1.3.1-1.3-.5 0-1.2 3.7-1.1 4.3.3 1.1 1.2 1.5 2 2.1 1.9 1.6 6.8 5.8 8.7 1.8zm-64-40.4c-1.6.4-.8 1 .1.1.7.9 4.8 1.2 6.1 1.7 5.3 2 10.3 5 15.6 7 1.6.6 3.6 1.1 5 2.1.6.4.9 1.6 1.5 1.8.2.1.1-.3.1-.3-1-2.5-4.5-2.9-6.7-4-3.6-1.8-7.2-2.8-10.9-4.3-1.6-.7-2.9-1.9-4.6-2.5s-4-.6-5.5-1.3c-1.8-.8-3.7-2.9-5.5-4-.2-.1-2-.9-2-.6 0 .2 1.6.7 1.9.9 1.6.8 3.6 1.8 4.9 3.4m-9.4.9c-3.5 0-6.2 3.2-8.2 5.7-.6.8-1.8 2-1.9 3.1-.4 3.3.8 6 1.9 8.9s4 4.8 6.6 2.1c2.3-2.4 1.5-5.6 3-7.9 1.6 1 3.1 1.2 4.9 1.2.2 0 1.8-.1 1.7-.6 0-.1-1.3.3-1.6.3-1.2 0-2.4 0-3.5-.5-.4-.2-1.2-.8-1.7-.6-1.4.7-.6 2.1-.8 3.3-.4 2.4-2.9 6.7-6 5.7-1.9-.6-2.2-3.3-2.9-4.9-1-2.4-1.8-4.4-1.4-7 .2-1 1.1-2.1 1.7-2.8 1.7-2.1 4.5-5.8 7.5-5.8.9 0 1.4 1.2 1.9 1.8 1.3 1.8 2.5 3.9 4.1 5.5 2.1 2 3.6 2.5 5.9 3.6 1.8.9 3.2 1.7 5.2 2.4 1 .4 1.9.2 2.8.7 1.3.7 2.1 3.2 3.3 3.6-.5-1.2-1.9-3.3-3.1-3.9-1.4-.7-2.9-.5-4.4-1.3-1.3-.6-2.4-1.4-3.7-2-1.5-.6-2.9-.9-4.2-2.1-2.7-2.3-7.2-7.1-7.4-10.9-.1-1 .2-1.8 1.1-2.3.1-.1 1.3-.6 1.2-.7-.2-.5-2 .9-2.2 1.1-.6 1.4-.3 3.2.2 4.3m-1.6 7.2c-.4.3 2 4.6 1.7 4.8.7-.6-1.7-4.8-1.7-4.8m3.8 4.1.3-.3c.3-.3 1.4-3.2.6-3.2.3 0-.7 3.3-.9 3.5m-3.2 8.9h-.3c.5 2.1 1.8 4.1 2.5 6.1 1.2 3.3-2.1 6.3-5.2 5.5-1.3-.3-2.1-2.1-3.1-2.9-4.2-3.4-6.9-6.1-5.1-11.9.4-1.4 1.1-2.6 1.5-4 0-.1.4-1.3.1-1.3-.1 0-.5 1.6-.6 1.8-.8 1.9-1.7 3.9-1.8 5.9-.1 5.3 1.9 6.6 5.6 9.8 1.6 1.4 2.2 2.9 4.5 3.1 7.3.5 3.4-8.9 1.9-12.1m39.2-8.1c1 2.1 3.5 3.5 4.7 5.6 5.6 9.7 11.1 19.9 20.5 26.3 2.6 1.8 4.3 4.8 6.7 6.8.2.2 2.5 1.6 2.5 1.6.3-.4-1.9-1.6-2.2-1.8-2.3-1.9-4.1-4.6-6.4-6.6-2.4-2.1-5.2-3.7-7.4-6-1.1-1.1-1.5-2.6-2.5-3.8-2.2-2.9-4.7-5.5-6.5-8.8-2.1-3.7-3.9-7.9-6.9-10.9-.7-.7-1.5-2.1-2.5-2.4m-34.1 8.3c1-.2 2.5-4.1.6-1-.2.4-.3.7-.6 1m-.2-.2c-.4.1-4 1.3-4.1 1 .3.8 3.8-.4 4.1-1m-1.9 7.9v.3c1.4-.2 1.6-1.3 1.8-2.5 0-.2.2-1.5-.1-1.5-.2 0-.2 1.1-.2 1.3-.1 1.1-.3 2.1-1.5 2.4m18.5-3.4c-.6.4.2 3 .3 3.6.7 3.6 1.6 7.8 3.1 11.1.2.4 1.9 4 2 3.9.4-.3-1.5-3.6-1.7-4-1.5-3.3-2.5-7.6-3.1-11.2-.1-.4-.7-3.3-.6-3.4m-30.4 5.3c-.4.1-.6.7-.8 1-1.5 2.7 0 4.8 2.2 6.3 1.7 1.2 3.9 2.5 6.1 2.2.6-.1 1.5-1.1 2-1 1.4.1 4.1 1.8 5.3 2.6 3.3 2.3 6.5 6 9.3 8.8 1 1 2.8 3.5 4.2 3.7-1-2.1-4.4-4-6.1-5.5-2.3-1.9-3.9-4.5-6.2-6.5-1.8-1.5-4.4-2.7-6.3-3.8-.1-.1-.7.7-.8.8-.8.6-1.6.7-2.6.7-2.3-.1-7.2-3.1-7.4-5.5-.2-1.5.7-2.2 1.3-3.5 1.6 3.9 7.7 9.7 11.9 6.1 1.7-1.4 1.9-6.6-.5-7.6.4 1.3 1.3 2.2 1.4 3.6.3 3.4-2.8 5.8-6.1 4.5-2.1-.9-4.2-3.8-5.6-5.5-.2-.3-2.5-3.8-2.1-4.2-.6.1.7 2.5.8 2.8m12.3 7.4c-.4.2.1 1.7.4 1.5.3-.1-.3-1.5-.4-1.5zm-60-32.8c-4.8-.2-8.5-2.1-13.3-2.6-1.7-.2-3.8-.7-5.5-.1-1.9.7-2.4 2.1-3.8 3.3-1 .8-3 1.9-3.5 3.1-1.7 3.7-.5 8.3 1.2 11.8 1 2.1 4.3 2.1 6 .8.7 2.1 2.8 3.6 3.2 5.9.4 2.9-.8 7.9-4.9 6.4-1.1-.4-1.9-1.8-2.7-2.6-1.2-1.3-2.8-2.2-3.9-3.6-3-3.6-1.5-6.6-.7-10.6.4-.2.7-2.2.6-2.2-.8.3-1.8 4.6-1.9 5.4-1.1 5.3 2.1 7.9 5.6 11.2.9.9 1.6 2.3 2.8 2.8 4.4 1.8 5.3-3.4 5.3-6.3 0-1.6-1.2-3.4-2-4.7 1.6.3 3.9.4 5.2-.8.2-.2 2-2.8 1.5-3 0 0-2 3-2.4 3.2-2.4 1.2-3.9-.1-5.7-1.1 2-2.1 2.5-3.8 2.5-6.7.9-.1 1.3-.9 2.1-1 1-.2 2.8.6 3.9.7.3 0 1.7.2 1.9-.1.1-.2-1.2-.2-1.4-.2-1-.1-3.8-1.2-4.6-.7-.4.2-1.8 1-2 1.3-.4.7 0 2-.2 2.9-.6 2.8-2.9 4.8-5.8 4.5-2.3-.3-2.4-3-3.1-4.7-.9-2.4-1.6-6.1 0-8.4.8-1.1 2.5-1.9 3.5-2.9 1.2-1.2 1.7-2.4 3.5-3 1.4-.5 3.1-.2 4.6 0 3.4.4 5.6.9 9 1.7 1.2.3 4.1 1.4 5.2.9 1.7 2.1 3.6 5.6 4.5 8.2.1.3.4 3.1.5 3.1.8 0-.5-4-.7-4.3-1.4-2.3-2.3-4.8-3.9-6.9-1.4-2.1-2.4-3.3-3.6-5.6-1.5-3.6-1.3-8.7-.5-12.5.2-.7 3-2.8 3.4-2.2-.3-.5-1.7.2-2.1.4-1.8.9-2.1 3.4-2.4 5.2-1.1 5.1.8 9.8 4.6 14m4.3-13.3c-2.5.1-1.9.7.1.3.6 2.2 3.8 3.8 5.3 5.3 1.2 1.3 1.9 3 3.2 4.2 2.8 2.7 6.4 5.2 8.9 8.2 3.8 4.4 5.3 10.1 7.9 15.1 4.3 8.2 10.8 16.7 17.9 22.7 1.8 1.5 3.7 3.9 5.7 4.9-.4-1.2-1.7-1.7-2.5-2.6-2.4-2.3-5.2-4.1-7.4-6.6-4.9-5.5-9.9-12-13.3-18.5-1.7-3.2-3-8.2-5.4-11.5-1.7-3.4-4.5-5.4-6.5-7.2-3-2.7-5.3-5.8-8-8.8-1.5-1.6-4.3-3-5.3-5.1-.4-.8-.6-1.9-.7-2.7-.4-1.4-1.2-2.9-2.2-3.9-.2-.2-1.2-.8-1.5-.5.1-.1 1.5 1.1 1.7 1.3 1.1 1.9 2.1 3.1 2.1 5.4m-18.7 21c.6-.3 1.6-4.8.9-5 .3.1-.9 4.5-.9 5m-4.4-3.5c-.3.3 1.8 4.4 1.3 4.7.7-.5-.4-3.3-.7-3.8 0-.1-.4-1-.6-.9m14 1.5c-.4.1-3.3 2.9-3.2 3.1.4.3 3.1-2.7 3.2-3.1m9.7 6.1c-.9.6.1 3.8.2 5.7.2 6 1.9 13.4 4.2 18.7.7 1.6 2.1 3.4 3.5 4.5.2.1 1.2 1.1 1.4 1 .3-.2-1.1-1.1-1.2-1.2-1.4-1-2.8-2.9-3.5-4.5-2.3-5.4-4.2-12.6-4.1-18.5-.1-2.4-.8-5.5-.5-5.7m-22.4 4.8c1-.5.4-2.9 0 0m3.3 8.1c.6-.3 2.6-4.3 1.6-4.6.5.2-1.5 4.2-1.6 4.6m-1.2-.5c.2 1.6 1.4 2.9 1.5 4.5.1 3.1-1.9 6.6-5.5 4.7-2.2-1.2-3.9-3.7-5.5-5.6-.3-.4-2.4-3.6-2-3.9-1 .7 1.5 3.9 1.9 4.4 2.3 2.9 5.7 7.6 9.9 5.3 2.5-1.4 1.8-8.1-.3-9.4m16.4 25.2c-.4-1.4-3-3.1-4.1-4.2-4-4.1-8.1-8.9-13.9-10.4l.2-.5c-.9.2-1.4 1.2-2.5 1.3-2.9.2-7.3-1.5-7.9-4.7-.4-1.8.3-3 .9-4.5-3.8 1.6.2 7 2 8.3 1.6 1.1 3.6 1.6 5.5 1.2.6-.1 1.1-.8 1.7-.8 1.2 0 3.2 1.2 4.3 1.8 3.6 2.1 6.5 5.5 9.4 8.5 1.3 1.3 2.6 3.2 4.4 4m-15-15.7c-.3.2.3 2 .5 1.9.3-.2-.4-1.9-.5-1.9" class="st0"/><path d="m77.4 196.3-9.3.8 6.6-6.6c-.7 2.4.4 4.7 2.7 5.8M70.9 369l-2.3-9 7.6 5.4c-2.5-.3-4.7 1.3-5.3 3.6" class="st1"/><path d="M77.7 282.3c-1.5.6-2.5.7-3.4.6-3.5-.9-2.8-8.2-.7-14.7" class="st4"/><path d="M91.5 275.3c-3.7 2.3-9.3 5.1-12.7 6.4" class="st5"/><path d="m89.2 273.1 9-2.2-5.4 7.5c.2-2.5-1.2-4.7-3.6-5.3m221.7-1.8 4.3-8.2 2 9.1c-1.6-1.9-4.2-2.2-6.3-.9m-7-196 6-7.1v9.3c-1.3-2.2-3.7-3.1-6-2.2m-122.5 7.3-6.3 6.9.4-9.3c1.1 2.2 3.6 3.1 5.9 2.4M288.8 183l4.6-8 1.7 9.2c-1.7-2.1-4.2-2.5-6.3-1.2" class="st1"/><path d="M299.2 171c-4.2 1.1-4.8 4.9-4.5 8.5.7 6.7 5.4 13.1 10.4 17.1 1.7 1.3 3.9 3.4 5 5.3 1.2 2.1 3.5 5.9 5.8 6.9.5.2 2 1.1 2.5.8-.1.1-2.9-1.4-3.2-1.7-2.6-2.4-3.9-6.4-6.5-8.5-3.2-2.6-7.2-5.8-9.5-9.3-1.1-1.7-1.4-3.7-2.4-5.5-1.4-2.5-3-7.3-1.5-10 .8-1.5 3-3.2 4.7-3.4.4 0 2.6.8 2.6.9.3-1-2.8-1.2-3.4-1.1m3.7 1.2c2.7 4.6 6.2 8.4 9.8 12.3 1.7 1.9 3.1 4.2 5 5.8 1.2 1.1 3.2 1.6 4.6 2.4 2.6 1.6 4.7 3.8 7.2 5.4 2.6 1.7 5.1 3.6 7.4 5.5.2.2 2.2 1.8 2.5 1.1 0 0-2-1-2.2-1.2-2.3-1.8-4.6-3.5-7-5.2-2.6-1.9-5-4-7.6-5.8-1.4-.9-3.4-1.5-4.7-2.5-3-2.5-5.4-6.2-8.2-9.1-1.6-1.7-3-3.4-4.1-5.4-.7-1.1-1.5-3-2.7-3.3m3.7 7.3c-1 .6-2 4.1-3.3 4.1 1.1 0 2.7-2 3.1-2.9 0-.1.5-1.4.2-1.2m5.8 4.2c.2-.1 2.7.7 3.2.8 3.8 1.1 12.3 5.6 14.9 8.4 6.8 7.1 12.3 15.2 19.1 22.3 3.9 4.1 9.1 6.9 12.8 11.2 2.8 3.5-2.1-1.1-12.5-11.3-6.9-7.2-12.6-15.3-19.4-22.6-2.5-2.7-11.3-7.1-14.6-8.2-.9-.3-2.8-1.1-3.5-.6m-22.2 25.7c.1.9 0 2.4 1.2 3.3 1.9 3.1 6.9 9.8 11.3 8.3 2.1-.7 5.3-4.5-.3-8.3 1.2 2.1 3.7 2.8 2.6 5.5-.8 2.4-4.1 3.1-6 1.9-2.7-1.6-5-4.7-6.9-7.2-.7-.8-1.3-2.3-1.9-3.5m43.2 22.2c-.6-1.7-3.4-3.1-4.7-4.3-3.5-3.4-6.7-6.6-9.3-10.6-.9-1.4-1.7-2.7-2.3-4.2 0-.1-.5-1.4-.7-1.3-.3.2.3 1.3.4 1.5.7 1.5 1.4 2.9 2.4 4.3 3.1 4.3 6.3 8.2 10.5 11.5 1.2 1 2.3 2.6 3.7 3.1m-30.5-10.1c-.8.4-1 1.4-1.7 1.6-2.4.6-8.5-1.7-9.7-3.7-.9-1.4-.4-3.7.1-5.1.1-.1.4-1.5.1-1.4-.6.1-.8 4.4-.8 5 .4 3.7 5.4 4.5 8.3 5.5 1.3.5 3.4-.1 3.7-1.9m.6 1.4c.1.2 1.5.5 1.8.7 1.4.6 2.8 1.5 3.8 2.7 4.2 4.9 8 9.5 13 13.6 1.3 1 4.3 3.6 5.9 3.7-1.8-1.9-4.5-2.9-6.5-4.6-4.3-3.7-7.6-7.6-11.3-11.8-1.2-1.4-2.4-2.6-4-3.5-.3-.3-.9-.8-1.4-.8.1 0-1.4-.3-1.3 0zm-6.6-37.4c-1.4.7-.9.7-2 1.4-1 .8-3.4 2.2-3.9 3.4-1.7 3.7-.5 8.3 1.2 11.8 1 2.1 4.7 1.8 6.4.5.7 2.1 2.8 3.6 3.2 5.9.4 2.9-.8 7.9-4.9 6.4-1.1-.4-1.9-1.8-2.7-2.6-1.2-1.3-2.8-2.2-3.9-3.6-3-3.6-1.5-6.6-.7-10.6.4-.2.7-2.2.6-2.2-.8.3-1.8 4.6-1.9 5.4-1.1 5.3 2.1 7.9 5.6 11.2.9.9 1.6 2.3 2.8 2.8 4.4 1.8 5.3-3.4 5.3-6.3 0-1.6-1.2-3.4-2-4.7 1.6.3 3.9.4 5.2-.8.2-.2 2-2.8 1.5-3 0 0-2 3-2.4 3.2-2.4 1.2-3.9-.1-5.7-1.1 2-2.1 2-3.9 2-6.8 1-.3 1.8-.8 2.6-.9.1-.1-.1-.3-.2-.3-.4.2-2.3.9-2.5 1.2-.4.7 0 2-.2 2.9-.6 2.8-2.8 5.2-5.7 4.9-2.3-.3-2.4-3-3.1-4.7-.9-2.4-1.6-6.1 0-8.4.8-1.1 2.9-2.2 3.9-3.2 1-.7.4-.5 1.7-1.1m5.3 25c.6-.3 2.6-4.3 1.6-4.6.4.2-1.6 4.2-1.6 4.6m-3.9-21.2c-.3.3 1.8 4.4 1.3 4.7.7-.5-.4-3.3-.7-3.8 0-.1-.3-1-.6-.9m1.4 13.1c1-.5.3-2.9 0 0" class="st3"/><path d="M95.2 370.4c.6 1 2.1 2.4 2.7 3.4-2.7-.9-6-1.4-8.7-2.2-2.8-.9-5.8-2.2-8.8-1.7-7.7 1.3-13.7 10.2-8.6 17.3 2.4 3.4 5.1 1.9 7.1-.5 1.1-1.4 2.3-2.5 1.6-4.4 2.2 0 3.9 1.5 6 2.1.2.1 2.1.4 2 .1s-1.6-.3-1.9-.4c-1.3-.4-4.1-1.2-4.6-2.6-.7.2-1.1.5-2 .4.5-.8.5-2.6.2-3.5-.1-.1-.5-1.4-.8-1.2-.2.1.4 1 .4 1.2.3.7-.3 3.9.2 4 .2 2.8-2.8 8.2-6.5 6-3.9-2.3-4.1-9.6-1.5-12.9.6-.8 1.8-1.7 2.6-2.3 1.4-1 2.6-1.8 4.2-2.5 3.7-1.4 7.8.4 11.3 1.6 1.9.6 3.9 1 5.8 1.5.3.1 2.1.6 2.2.3 1.8 1.6 4.5 2.5 6.9 2.5.2 3.5 3 6.3 5 8.9.7.9 1.2 2.5 2.3 3.1-.9-3-4-4.7-5.3-7.4-.5-1.1-.9-4-1.9-4.7-.5-.4-1.4 0-2-.2-1.6-.4-3.3-1.5-4.6-2.5-1.5-1.6-2-2.8-3.7-4.5-.5-.7-2.6-3-3-3.8-.8-1.5-.9-2.9-.4-4.7.1-.4 1.1-1.1 2.1-1.3-.8-.6-2.2.6-2.4 1-.9 2.5.3 5.8 2.6 8 .2.3 1.4 1.7 1.5 1.9zm-1.3-10.9c.4-.3 3.3.7 4 1.1 1.3.8 2.9 2.5 4.3 3 2.7.8 5.6.3 8.2 1.3 1.2.5 2.3 1.1 3.2 2 .1.1.6 1 .8.9.3-.2-.4-1-.5-1.1-.8-1-1.9-1.6-3.1-2-2.7-1.1-5.7-.5-8.4-1.4-1.6-.5-2.9-2.2-4.4-3-.9-.5-3.1-1.4-4.1-.8m7.8 4.2c-.2 0-3.8.7-3.8.6-.2.3 2.4.3 2.7.2.3 0 1.4-.8 1.1-.8m12.7 4.3c.7 1.4 4.2 4.1 6.1 5.3.5.8 2 2.1 2.8 2.6 2 2.5 5.1 3.2 6.3 5.7 3.6 7.8 3.9 16.5 7.4 24.2 1.1 2.4.7 1.4 1.9 3.8.1.3.8 2.3 1.3 2.1.2-.1-1.2-2.7-1.4-3-1.4-3.3-1.7-2.8-2.9-6.2-.7-2-.6-4-1.1-6-1.2-5.1-2.7-10.8-5-15.5-.9-1.7-3.6-3.2-5.2-4.4-3.3-2.5-6.2-6.7-10.2-8.6m-7.6 5c-.5.3-.5 3-1.1 3.1 1.4-.3.9-2.9 1.1-3.1M84 375.3c-.2.1-.2 1.3-.3 1.5-.1.8-.9 4.7-1.4 4.9 1.2-.5 1.6-4 1.8-5.1.1-.1.1-1.5-.1-1.3m8.6 5.9c.1 0 .7-.6.3-.6-.6 0-2.6 2.7-3.2 3.2-.1.1-1.1.7-1 .9.1.3 1-.5 1.2-.6.9-.8 2.3-1.8 2.7-2.9m-19.5 20.1c1.6 3.1 6.3.7 7.6-1.3 1.4-2.1.9-5.3-.1-7.5-.1-.3-1.6-3.1-2.2-2.5.3-.3 2.1 3.1 2.2 3.5 1.4 4.3-1.1 10.9-6.6 8.1-1.4-.7-2-2.5-3.3-3.2-.8-1.7-2.7-3-3.3-4.9-.6-1.8.4-4.7.8-6.4.1-.5 1.7-4.3 1.8-4.2-.3-.2-.9 1.3-1.1 1.4-.9 1.7-1.2 3.5-1.6 5.4-.8 4 .8 6.3 3.5 9.2.7.7 1.3 1.9 2.3 2.4m7-14.8c-.4.3-.1 3.8-.2 3.9.8-.3.1-3.8.2-3.9m8 1.1c-.4.2-.6 1.6-.8 2-.9 1.7-2.1 2.4-4 2.5-.3 0-2.4.1-2.5.3s1.3.2 1.5.2c1.4-.1 2.8-.1 3.9-1 .9-.8 1.4-1.7 1.8-2.8 0-.2.3-1.4.1-1.2m-3 6.5c-.4.3-.1 2.5-.1 3-.1 1.1-2.4 3.5-1.2 3 1.4-.7 1.5-3 1.5-4.3 0-.2-.1-1.8-.2-1.7m37.9 31c-.9-1.7-3.5-2.8-4.7-4.4-4.2-5.5-7-11.1-7.6-18.1-.2-2-.3-3.9-.3-5.9 0-.2.1-1.8-.1-1.8-.3 0-.1 1.9-.1 2.2 0 2.4 0 4.7.5 7 1.2 6.2 2.9 10.9 6.9 15.8 1.3 1.9 3.3 4.3 5.4 5.2m26.3-5.6c.8.7 2.1 2 3 2.5.7 1.2 2.5 2.1 3.5 3.1 2.1 2.2 4.1 4.4 6.3 6.5.7.7 1.4 2 2.3 2.5-.6-1.9-2.9-3.3-4.2-4.7-3.1-3.6-6.7-6.5-10.2-9.6-1.3-1.1-6.4-7.3-7.4-9.3-.4-.7-4.6-7.7-5.9-10.3-.1-.3-1.4-2.4-1.3-2.5-.6.7 2.1 4.7 2.5 5.4 2.1 4.2 4.6 8.7 7.6 12.3.9 1.3 2.5 2.9 3.8 4.1zm-79.5-21c-.5.3 1.2 4 1.5 4.4 1.9 3.1 5.1 8.1 9.3 5.4 2.1-1.3 1.9-3.8 1.9-5.9 0-.3.1-2.7-.6-2.4.2-.1.3 2.8.3 3.1 0 2.8-1.1 5.9-4.5 5.6-3-.2-5.6-4.9-6.6-7.3-.3-.3-1.2-3-1.3-2.9m.2 3.4c-1.2.7-1 2.1-1 3.2 0 3.1 3.7 6 6.6 6 .8 0 4-.3 3.9-1.7.1 1.2-4.8 1.7-5.8 1.2-2.6-1.4-4.6-3.9-4.4-6.8 0-.6 1.3-2 1.2-2.4-.2-.2-.5.4-.5.5m13.2 3.1c0 2 .2 3.8.7 5.7.1.2.8 1.8 1 1.6.2-.3-.6-1.5-.7-1.8-.5-1.8-.7-3.6-.7-5.5h-.3m14.3 18.8c3 3.1 6.2 6 9.9 8.3 1.2.7 2.7 1.9 4.1 2-.3-.5-1.3-.7-1.8-1-1.5-.8-6.3-4.1-7.1-4.7-1.5-1.3-2.9-3.4-4.6-4.5-.2-.2-.5-.4-.7-.6-1-1.1-4-3.7-4.9-4.4-2.6-2.6-5.5-4.7-8.5-6.7-.6-.4-3.4-2.6-4-2 0 0 1.8 1 2.1 1.2 2 1.2 6.2 4.3 6.4 4.5 1.1.9 8.1 6.8 9.1 7.9zm59.5-52.7c2-.8 3.2-1.6 5.5-1.4 1.8.1 3.2 1.1 5 .9 2.5-.3 4.8-2 7.5-1.4 3.8.9 7.3 3.7 10.8 5.2 3.1 1.3 8 2.6 10.5 4.9 3.7 3.6 5.6 9.5 8.1 13.9 1.5 2.5 3.2 5 4.6 7.6 1.2 2.5 2.5 5.8 4.4 7.7 1 1 1.7 2.1 2.4 3.3.1.1.7 1 .9.8.1-.1-1.9-3.1-2.2-3.4-2.9-3.3-4.8-7.6-7.2-11.4-3.6-5.8-5.8-12.9-10.2-18.1-2.4-2.7-7.8-4.4-11.2-5.7-3.6-1.4-7.4-4.9-11.2-5.3-2.6-.3-4.6.8-7 1.4-2.5.7-9-3-10.7 1m.1 20.7c.8 1.4 2.1 3 2.5 4.6.8 3.4-1.9 7.6-5.6 6.4-1.1-.4-1.8-1.7-2.6-2.5-1.5-1.6-3.5-2.7-4.7-4.5-1.8-2.7-.9-6.5-.7-9.5.1-1.8 1-7.5 3-7.9-2.7.5-3 5.9-3.3 8-.4 3-1 6.9.7 9.6 1.1 1.6 2.8 2.7 4.2 4 2.1 1.9 2.8 3.5 6 3.2 1.4-.1 1.7-1.4 2.3-2.4 1.4-2.7 1.2-7.1-1.6-9 3.4-1.2 4.6-6.7 3.4-9.8-.1-.3-2.1-2.9-2.1-2.9-.6 0 1.3 2.4 1.6 2.9.9 2.6.7 5.2-.8 7.6-.7 1.1-2 2.5-3.4 1.6-3.7-2.5-6.8-7.7-6.4-12.2.1-1.3.9-2.1 1.2-3.3.3-1 .3-2.4.9-3.3.9-1.6 5.2-3.7 6.2-3.4-3.5-.7-6.5 2.8-7.2 5.7-.3 1.2-1.1 2.3-1.3 3.6-.7 3.5.9 7.1 3 9.8 1.2 1.4 2.7 3.7 4.7 3.7m6.2-17.8c1-.1 1.9-.7 2.4-1.6.1-.2.8-1.5.6-1.5-.6.1-1 1.7-1.5 2.1-.4.3-1.2.5-1.5 1m-6.8-2.9c-1.9 5.3 4.6 7.9 8.4 9.6 1.1.5 2 1.2 3.3 1.5 1.4.3 3.2 0 4.6.5 1.8.7 3.1 2.8 5 3.4 2.6.9 3.3 3.9 5.5 5.4.2.1 2 1.3 2.2.8 0 0-1.9-.9-2.2-1.1-2.2-1.5-3.2-4.2-5.6-5.4-1.7-.8-3.1-2.7-4.9-3.4-1.4-.5-3.3-.2-4.7-.5-1.3-.3-2.4-1.1-3.6-1.7-4.1-1.9-8.8-3.9-7.8-9.1h-.2m16.7 6.7c.2 1.7.3 2.8-.1 4.4 1.2-.4 1.1-3.7.1-4.4m-9.8 9.9c-.5.3-1 2.1-1.5 2.6-.9 1-2.5.8-3.3 1.4-.1.1 1.6.1 2-.1 1-.5 1.9-1.3 2.5-2.3 0-.1.5-1.7.3-1.6m72 40.5c-2.3-4.3-6.6-6.3-9.9-9.6-4-4-8.3-7.7-11.9-12.1-1.8-2.2-3-5-4.7-7.2-1.9-2.5-3.1-5.2-4.8-7.9-.2-.3-.7-1.3-.9-1.1-.3.2.5 1.1.7 1.3 1.6 2.7 3.1 5.3 4.9 7.9 1.6 2.3 2.9 5 4.6 7.1 4.6 5.7 10.3 10.5 15.9 15.1 1.3 1.1 2.9 2.4 3.9 3.7.8 1.1 1 2.4 2.2 2.8m-40.4-6.9c-.6-1.7-4.2-3.1-5.4-4.7-3.9-5.1-7.1-11.1-8.4-17.4-.4-1.9-.9-3.4-1.7-5.1-.1-.2-.4-1.6-.5-1.6-.5.2.2 1.6.3 1.8 1 2.1 1.2 4 1.8 6.2 2 6.9 6.5 18 13.9 20.8m-33.2-28c-.6.4-.1 4.6-1.2 4.9.9-.2 1.4-2.9 1.4-3.7 0 0 0-1.3-.2-1.2m-5.6 15c-2.9 4.3-9.2-.9-10.4-4.4-.6-1.7 1.5-2.8 1.3-4.3 0 .1-1.5 2.4-1.7 3.1-.7 3 4.4 6.8 6.8 7.5 1 .3 2.1.1 3-.6.3-.3 1.1-1.3 1.5-1.2 2.1.7 4.3 2.7 6 4.1 4.4 3.6 8.5 7.9 12.7 11.9 1.5 1.5 3.4 2.9 5.2 4 .2.1 1.6 1.1 1.8.9 0 0-3.3-2.4-3.7-2.7-3.9-3-7.8-6.3-11.1-9.9-3.1-3.4-6.5-5.6-10.2-8.3 3.2-.1 6.5-7.1 2.8-8.7.2.9 1 1.4 1 2.3.3 3.2-2.1 7.1-5.7 5.6-2.5-1-4.5-4.1-6.2-6.1-.9-1-1.9-2.4-2.1-3.8 0-.1-.1-1.2-.4-1.2-.7.2 1 3.4 1.2 3.8 1.5 2.7 5.3 7.6 8.2 8zm5.3-29.4c-.2.3-1.5 2.3-1.7 2 .5.6 1.8-1.3 1.7-2m6.2 3.9c-.4 0-.5.4-.7.6-1.2 1-2.3 1.1-3.8.6-.2-.1-1.9-.7-2-.6s.9.5 1.1.6c1.1.4 2 .8 3.3.5 1.1-.2 2.3-1.8 2.1-1.7zm58.4 89.9c2-.8 3.2-1.6 5.5-1.4 1.8.1 3.2 1.1 5 .9 2.5-.3 4.8-2 7.5-1.4 3.8.9 7.3 3.7 10.8 5.2 3.1 1.3 8 2.6 10.5 4.9 3.7 3.6 5.6 9.5 8.1 13.9 1.5 2.5 3.2 5 4.6 7.6 1.2 2.5 2.5 5.8 4.4 7.7 1 1 1.7 2.1 2.4 3.3.1.1.7 1 .9.8.1-.1-1.9-3.1-2.2-3.4-2.9-3.3-4.8-7.6-7.2-11.4-3.6-5.8-5.8-12.9-10.2-18.1-2.4-2.7-7.8-4.4-11.2-5.7-3.6-1.4-7.4-4.9-11.2-5.3-2.6-.3-4.6.8-7 1.4-2.5.7-9-3-10.7 1m.2 20.7c.8 1.4 2.1 3 2.5 4.6.8 3.4-1.9 7.6-5.6 6.4-1.1-.4-1.8-1.7-2.6-2.5-1.5-1.6-3.5-2.7-4.7-4.5-1.8-2.7-.9-6.5-.7-9.5.1-1.8 1-7.5 3-7.9-2.7.5-3 5.9-3.3 8-.4 3-1 6.9.7 9.6 1.1 1.6 2.8 2.7 4.2 4 2.1 1.9 2.8 3.5 6 3.2 1.4-.1 1.7-1.4 2.3-2.4 1.4-2.7 1.2-7.1-1.6-9 3.4-1.2 4.6-6.7 3.4-9.8-.1-.3-2.1-2.9-2.1-2.9-.6 0 1.3 2.4 1.6 2.9.9 2.6.7 5.2-.8 7.6-.7 1.1-2 2.5-3.4 1.6-3.7-2.5-6.8-7.7-6.4-12.2.1-1.3.9-2.1 1.2-3.3.3-1 .3-2.4.9-3.3.9-1.6 5.2-3.7 6.2-3.4-3.5-.7-6.5 2.8-7.2 5.7-.3 1.2-1.1 2.3-1.3 3.6-.7 3.5.9 7.1 3 9.8 1.2 1.4 2.7 3.7 4.7 3.7m6.1-17.8c1-.1 1.9-.7 2.4-1.6.1-.2.8-1.5.6-1.5-.6.1-1 1.7-1.5 2.1-.4.3-1.2.5-1.5 1m-6.8-2.9c-1.9 5.3 4.6 7.9 8.4 9.6 1.1.5 2 1.2 3.3 1.5 1.4.3 3.2 0 4.6.5 1.8.7 3.1 2.8 5 3.4 2.6.9 3.3 3.9 5.5 5.4.2.1 2 1.3 2.2.8 0 0-1.9-.9-2.2-1.1-2.2-1.5-3.2-4.2-5.6-5.4-1.7-.8-3.1-2.7-4.9-3.4-1.4-.5-3.3-.2-4.7-.5-1.3-.3-2.4-1.1-3.6-1.7-4.1-1.9-8.8-3.9-7.8-9.1h-.2m16.7 6.7c.2 1.7.3 2.8-.1 4.4 1.2-.4 1.1-3.7.1-4.4m-9.7 9.9c-.5.3-1 2.1-1.5 2.6-.9 1-2.5.8-3.3 1.4-.1.1 1.6.1 2-.1 1-.5 1.9-1.3 2.5-2.3 0-.1.5-1.7.3-1.6m72 40.5c-2.3-4.3-6.6-6.3-9.9-9.6-4-4-8.3-7.7-11.9-12.1-1.8-2.2-3-5-4.7-7.2-1.9-2.5-3.1-5.2-4.8-7.9-.2-.3-.7-1.3-.9-1.1-.3.2.5 1.1.7 1.3 1.6 2.7 3.1 5.3 4.9 7.9 1.6 2.3 2.9 5 4.6 7.1 4.6 5.7 10.3 10.5 15.9 15.1 1.3 1.1 2.9 2.4 3.9 3.7.8 1.1 1 2.4 2.2 2.8m-40.4-6.9c-.6-1.7-4.2-3.1-5.4-4.7-3.9-5.1-7.1-11.1-8.4-17.4-.4-1.9-.9-3.4-1.7-5.1-.1-.2-.4-1.6-.5-1.6-.5.2.2 1.6.3 1.8 1 2.1 1.2 4 1.8 6.2 2 6.9 6.5 18 13.9 20.8m-33.2-28c-.6.4-.1 4.6-1.2 4.9.9-.2 1.4-2.9 1.4-3.7 0 0 0-1.3-.2-1.2m-5.6 15c-2.9 4.3-9.2-.9-10.4-4.4-.6-1.7 1.5-2.8 1.3-4.3 0 .1-1.5 2.4-1.7 3.1-.7 3 4.4 6.8 6.8 7.5 1 .3 2.1.1 3-.6.3-.3 1.1-1.3 1.5-1.2 2.1.7 4.3 2.7 6 4.1 4.4 3.6 8.5 7.9 12.7 11.9 1.5 1.5 3.4 2.9 5.2 4 .2.1 1.6 1.1 1.8.9 0 0-3.3-2.4-3.7-2.7-3.9-3-7.8-6.3-11.1-9.9-3.1-3.4-6.5-5.6-10.2-8.3 3.2-.1 6.5-7.1 2.8-8.7.2.9 1 1.4 1 2.3.3 3.2-2.1 7.1-5.7 5.6-2.5-1-4.5-4.1-6.2-6.1-.9-1-1.9-2.4-2.1-3.8 0-.1-.1-1.2-.4-1.2-.7.2 1 3.4 1.2 3.8 1.5 2.7 5.3 7.6 8.2 8zm5.3-29.4c-.2.3-1.5 2.3-1.7 2 .5.6 1.8-1.3 1.7-2m6.1 3.9c-.4 0-.5.4-.7.6-1.2 1-2.3 1.1-3.8.6-.2-.1-1.9-.7-2-.6s.9.5 1.1.6c1.1.4 2 .8 3.3.5 1.2-.2 2.3-1.8 2.1-1.7zm-11.2-119.8c1.4.2 2.8-.1 4.1.4 2.6 1.1 4.3 3.3 7.1 4.4 1.4.5 2.8.4 4.2 1.1 2 .9 3.7 2.4 5.8 3.2 5.2 2 10.5 3.6 15.1 7 2.4 1.8 4.8 4.6 6.7 6.8 4.3 5 6.7 11.2 11 16.2 4 4.7 9.4 7.9 13.5 12.4 3.3 3.7 6.4 7.3 10.3 10.5.9.8 1.9 2.3 3 2.8-.7-2.4-4.7-4.5-6.5-6.1-2.5-2.3-4.4-5.2-6.7-7.7-2.2-2.3-4.9-4-7.3-6.1-9.7-8.4-13.8-20.9-23.6-29.1-4.2-3.6-10.2-5.1-15.2-7.1-2.2-.9-3.9-2.5-6.1-3.4s-4.5-.9-6.6-2c-1.6-.9-2.6-2.4-4.3-3.3-1.5-.7-5-1-6.2.6-3.7 5 4.2 12.4 8.3 14.4 1.5.7 3.7 1 5 2 2.3 1.8 3.9 4.4 6.3 6.2 1.8 1.3 3.7 2.5 5.6 3.6.2.1 1.9.9 2 .7.1-.3-1.6-.8-1.8-.9-1.9-1.1-3.8-2.2-5.6-3.5-2.5-1.8-4.1-4.3-6.3-6.2-1.2-1-3.6-1.3-5-2-4.3-2.1-13.5-10.9-6.8-14.9m8.7 8.5c.3.7 2.9-1.5 3.2-1.9-1.3.1-2 1.5-3.2 1.9m1.5 23.8c.5 1 1.4 1.6 1.6 2.8.5 2.5-1.6 7.9-4.8 7.1-1.4-.3-2-1.4-3-2.3-2-1.9-4.3-3.7-5.9-6-2.1-2.9-1.9-10-.8-13.3.4-1.2 1-2.3 1.9-3.2.1-.1 1-.8.9-1-.1-.3-1.1.6-1.2.7-.9 1-1.7 2.2-2 3.5-1 3.7-.7 8.8.3 12.5-1.1.4.9 4.1 1.1 4.7 1.3 3 6.2 8.8 9.7 8.9 3.2.2 3.7-1.5 4.5-4.2.2-.6.2-3.4-.6-3.5.1 1.1.4 2 .3 3.2-.3 3-3 5.8-6.1 3.5-3.7-2.7-8.8-7.5-8.8-12.5 1.3 2.8 5.6 6.7 8.1 8.4.9.7 2.9 1.4 3.8.2 3.6-1.3 3.7-7.7 1.2-9.8 4.2-1.8 2-8.4.7-11.3-.4-.8-1.6-1.7-1.7-2.6-.8.4 1.3 2.3 1.5 3 1.1 2.7 1.9 5 1.2 7.9-.3 1.1-.9 2.7-2.3 2.7-1.5.1-2.8-1.9-3.8-2.7-4.6-3.8-6.4-7.4-5-13.2.3-1.3.5-2.6.7-4 0-.1.2-.7-.1-.7-.2.1-.2.6-.2.8-.3 1.3-.4 2.7-.8 4.1-1.5 5.8.7 9.6 5.3 13.4 1.4 1.3 2.4 2.9 4.3 2.9m5.1-10.9c-.6.2-1.7 3.1-2 3.1 1.1 0 1.7-2.9 2-3.1m23.5 35.3c-1-2-3.9-3.4-5.2-5.3-3.1-4.2-5.4-9.3-7.3-14.2-.7-1.7-1.2-3.6-1.3-5.5 0-.2 0-1.7-.2-1.6-.3.1-.1 1.5-.1 1.8 0 1.9.6 4 1.4 5.7 2.7 6.3 5.9 15.9 12.7 19.1m-27.2-23.5c1.1-.4.6-2.4 0 0m-5.1 14.7c.2-.1 1.1-.7.7-1 .3.2-2.4 1.3-2.9 1.3-2.2-.1-5.8-2.5-7-4.1-1.4-1.8-1.7-4.2-.7-6.2.1-.1.8-1.5.5-1.4-1.2.2-1.4 3.6-1.4 4.5 0 3.7 3.6 5.4 6.5 6.9 1 .4 3.3 1.2 4.3 0m25.9 20.4c-7.5-4.1-13.5-10.4-19.2-16.7-1.2-1.4-2.6-2.6-4-3.8-.1-.1-1.6-1.2-1.6-.8 0 .3 1 .7 1.2.9 1.1.8 2.2 1.7 3.1 2.8 4.1 4.7 8.7 10.3 13.9 13.6 1.6 1 3.4 2.1 4.9 3.3.5.2 1.6 1.3 1.7.7zM147.3 464c1.4.2 2.8-.1 4.1.4 2.6 1.1 4.3 3.3 7.1 4.4 1.4.5 2.8.4 4.2 1.1 2 .9 3.7 2.4 5.8 3.2 5.2 2 10.5 3.6 15.1 7 2.4 1.8 4.8 4.6 6.7 6.8 4.3 5 6.7 11.2 11 16.2 4 4.7 9.4 7.9 13.5 12.4 3.3 3.7 6.4 7.3 10.3 10.5.9.8 1.9 2.3 3 2.8-.7-2.4-4.7-4.5-6.5-6.1-2.5-2.3-4.4-5.2-6.7-7.7-2.2-2.3-4.9-4-7.3-6.1-9.7-8.4-13.8-20.9-23.6-29.1-4.2-3.6-10.2-5.1-15.2-7.1-2.2-.9-3.9-2.5-6.1-3.4s-4.5-.9-6.6-2c-1.6-.9-2.6-2.4-4.3-3.3-1.5-.7-5-1-6.2.6-3.7 5 4.2 12.4 8.3 14.4 1.5.7 3.7 1 5 2 2.3 1.8 3.9 4.4 6.3 6.2 1.8 1.3 3.7 2.5 5.6 3.6.2.1 1.9.9 2 .7.1-.3-1.6-.8-1.8-.9-1.9-1.1-3.8-2.2-5.6-3.5-2.5-1.8-4.1-4.3-6.3-6.2-1.2-1-3.6-1.3-5-2-4.3-2.1-13.5-10.9-6.8-14.9m8.7 8.5c.3.7 2.9-1.5 3.2-1.9-1.2.1-2 1.5-3.2 1.9m1.5 23.8c.5 1 1.4 1.6 1.6 2.8.5 2.5-1.6 7.9-4.8 7.1-1.4-.3-2-1.4-3-2.3-2-1.9-4.3-3.7-5.9-6-2.1-2.9-1.9-10-.8-13.3.4-1.2 1-2.3 1.9-3.2.1-.1 1-.8.9-1-.1-.3-1.1.6-1.2.7-.9 1-1.7 2.2-2 3.5-1 3.7-.7 8.8.3 12.5-1.1.4.9 4.1 1.1 4.7 1.3 3 6.2 8.8 9.7 8.9 3.2.2 3.7-1.5 4.5-4.2.2-.6.2-3.4-.6-3.5.1 1.1.4 2 .3 3.1-.3 3-3 5.8-6.1 3.5-3.7-2.7-8.8-7.5-8.8-12.5 1.3 2.8 5.6 6.7 8.1 8.4.9.7 2.9 1.4 3.8.2 3.6-1.3 3.7-7.7 1.2-9.8 4.2-1.8 2-8.4.7-11.3-.4-.8-1.6-1.7-1.7-2.5-.8.4 1.3 2.3 1.5 3 1.1 2.7 1.9 5 1.2 7.9-.3 1.1-.9 2.7-2.3 2.7-1.5.1-2.8-1.9-3.8-2.7-4.6-3.8-6.4-7.4-5-13.2.3-1.3.5-2.6.7-4 0-.1.2-.7-.1-.7-.2.1-.2.6-.2.8-.3 1.3-.4 2.7-.8 4.1-1.5 5.8.7 9.6 5.3 13.4 1.4 1.3 2.4 2.9 4.3 2.9m5.1-10.9c-.6.2-1.7 3.1-2 3.1 1.1 0 1.7-2.9 2-3.1m23.4 35.4c-1-2-3.9-3.4-5.2-5.3-3.1-4.2-5.4-9.3-7.3-14.2-.7-1.7-1.2-3.6-1.3-5.4 0-.2 0-1.7-.2-1.6-.3.1-.1 1.5-.1 1.8 0 1.9.6 4 1.4 5.7 2.9 6.1 6 15.7 12.7 19m-27.1-23.6c1.1-.4.6-2.4 0 0m-5.1 14.7c.2-.1 1.1-.7.7-1 .3.2-2.4 1.3-2.9 1.3-2.2-.1-5.8-2.5-7-4.1-1.4-1.8-1.7-4.2-.7-6.2.1-.1.8-1.5.5-1.4-1.2.2-1.4 3.6-1.4 4.5 0 3.7 3.6 5.4 6.5 6.9 1 .6 3.3 1.3 4.3 0m26 20.5c-7.5-4.1-13.5-10.4-19.2-16.7-1.2-1.4-2.6-2.6-4-3.8-.1-.1-1.6-1.2-1.6-.8 0 .3 1 .7 1.2.9 1.1.8 2.2 1.7 3.1 2.8 4.1 4.7 8.7 10.3 13.9 13.6 1.6 1 3.4 2.1 4.9 3.3.3.2 1.4 1.3 1.7.7zm151.1-110.5c.1.3 1.6 1.5 1.7 1.4.1-.6-2.5-2.6-3.2-3.1l-.2-.2c-2.9-2.8-5.8-6.5-8-9.9-1.7-2.6-3.5-5.2-4.2-8.2-.8-3.1-.7-6.9-1.8-9.7-2.9-7.4-7.8-13.9-10.6-21.2-1.7-4.4-2-12.9 1.7-16.3 1-.9 2.5-1.2 3.7-.9.2 0 1.4.8 1.5.6.2-.6-1.9-1-2.3-1-2.2-.3-4.5 2-5 3.9-1.1 4.1-1.4 9.2-.1 13.3.9 2.9 2.8 5.5 4.3 8.1 1.9 3.4 3.5 6.9 5.1 10.4 2.1 4.8 2 10 3.8 14.9 1.7 4.7 5.4 9 8.7 12.7 1.5 1.5 2.9 4.3 4.9 5.2m-9.7-46.8c.2.3 4.8 6.6 5 6.9 1.1 1.8 5.2 5.9 7.5 7.9.3.3 2.8 2.1 3 2 .4-.2-1.9-1.7-2.6-2.1-.1-.1-.3-.2-.4-.3l-2.5-2.2-.3-.3c-1.1-1.5-5.9-7.1-8.2-10.2-1-1.3-1.3-2.9-2.7-4.5-2.2-2.6-3-5.3-4.6-8.1-1.2-2-1.6-6.7-2.7-8.3-.3-.6-.3-.7-.8-.9-.1-.3 1.3 2 1.5 2.8.4 1.5.2 3.6.8 5.1.9 2 4.2 8.1 6.1 10.5.6.8.5.9.9 1.7m-7-11.8c-.1.1-3.3 1.8-3.2 1.6-.1.3 2.2-.3 2.5-.5.3 0 .9-1.2.7-1.1m-6.2 35.4c.7 1.1 1.6 1.6 2.1 2.9.8 3.3 0 7.7-4 7.1-2-.3-3-2.7-4.4-3.9-1.8-1.5-4.2-2.7-5.7-4.6-2.4-3-2.1-7.9-2.1-11.5 0-2.1.2-3.8 1.5-5.4l.4-.4c.5-.4 1.5-1 1.5-1-.6-.5-1.9.7-2.2 1.1-1.7 1.8-1.6 4.1-1.6 6.4 0 3.5-.2 8.2 2.2 11.1 1.7 2.1 4.6 3.2 6.3 5.3 1.8 2.2 7.1 5.8 8.2.8.5-2 .4-3.9-.2-5.7-.1-.3-1.1-1.7-1.8-2.1 6.8 0 1.6-9.4 1.2-12.5-.1-.4.4-.8.8-1.1.4 0 1.5.3 1.5-.1 0-.3-.2-.2-.4-.3-1 0-2-.2-2.2 1.3-.1.7.7 1.8.9 2.5.9 2.6 3.1 8.8-.9 9.9-2.4.4-4.6-1.6-5.9-2.4-.3-.2-1.1-.9-1.3-1.2-.8-1.2-2-2.3-2.6-3.7-1.9-4.2-2.2-11-.3-15.2.9-2 2.9-1.8 4.7-2.2 0 0 2.1-.2 2-.4-.1-.3-2.3 0-2.4 0-1.9.4-3.5.4-4.7 2.2s-1.3 4.9-1.3 6.9c.4 6.4 2.8 14.9 10.5 16.2zm-1-21.8c-.3.2.3 1.3.4 1.5.3.7 2.2 4.9 1.6 5.3 1.1-.7-.9-4.6-1.3-5.4.1 0-.5-1.5-.7-1.4m48.4 33.4-2-3.2h.2c1.1 1.9 3.7 5.1 5.9 6.4.3.1.5.3.7.6.7 1 2.1 1.8 3.1 2.5l.3.3c2.5 2.6 2.3 2.1-5.2-4.8-1.6-1.4-2.4-4-4.4-5 0-.1-1-.6-1.2-.9-3.1-4.1-6.5-8-9.6-12.2-1.3-1.7-2.9-4.8-4.7-6.1-.3-.2-.5-.4-.7-.6-.9-1.2-2.7-2.2-3.7-3.2-1.8-1.7-2.8-3.9-5.1-5.2-.4-.3-5.5-2.1-5.5-2s3 1.3 3.2 1.4c2.1.9 4.1 1.8 5.5 3.8 1.7 2.6 4.2 4 6.2 6.2 3.9 4.4 7.6 9.3 11.2 14 1.4 1.8 2.8 3.5 4 5.4.5 1.1.8 2.3 1.8 2.6m-51.8-28.9c.3-.2 3 2.1 3.4 2.5.1.1.7 1 .9.9.3-.2-.5-1-.6-1.1-.5-.4-2.9-2.8-3.7-2.3m7.2 5c-.3.2-.4 2.7-.3 2.7.5-.2.3-2.7.3-2.7m-8.9 24.2c.9.9 1.5 1.2 2.5 1.5.3.1.6.3.9.5.3.4 1.5.9 1.8 1.2 1.9 1.5 2.9 4.3 4.9 5.5.3.2.5.4.7.6.4.6 5.1 5.2 7 6.2.3.1.5.4.7.6 1.5 2 5.2 3 7 4.3.9.6 1.9 1.6 3 1.6-2.5-2.1-5.8-3.5-8.5-5.3-1.6-.9-2.9-2.4-4.5-3.4-.2-.1-.4-.3-.6-.5-.5-.6-1.2-1.3-2-1.7-.5-.4-1.1-1.2-1.6-1.6-.2-.2-1.9-1.9-2.4-2.5-1.6-2-2.7-4.1-5.2-5.2 1.1 0 2.2 0 3.3-.8 1.6-1.2 1.3-4.5 1.2-4.6 0 3.4-2.4 6.4-6.1 4.7-1.3-.6-2.5-2-3.5-3-1.9-1.9-4-3.6-5.4-6-.7-1.1-1.3-2.4-1.6-3.7 0-.1-.1-.3-.1-.4 0-.4-.1-1.2-.3-1.2-.8 0 1 4 1.1 4.3 1.2 3 5.4 7.6 7.7 8.9zm-7.6-9.2c-.4.3-.7 1.5-.8 2-1.5 5.1 1.6 7.3 5.9 8.9 1 .4 4 1.6 4.9.5-.4.5-3.5-.3-4.5-.7-.1 0-.1 0-.2-.1-4.3-1.8-7-3.6-5.7-8.8-.1-.1.6-2 .4-1.8zM109.5 522.3c.1.3 1.6 1.5 1.7 1.4.1-.6-2.8-2.8-3.3-3.2-2.9-2.8-5.9-6.6-8.1-10-1.7-2.6-3.5-5.2-4.2-8.2-.8-3.1-.7-6.9-1.8-9.7-2.9-7.4-7.8-13.9-10.6-21.2-1.7-4.4-2-12.9 1.7-16.3 1-.9 2.5-1.2 3.7-.9.2 0 1.4.8 1.5.6.2-.6-1.9-1-2.3-1-2.2-.3-4.5 2-5 3.9-1.1 4.1-1.4 9.2-.1 13.3.9 2.9 2.8 5.5 4.3 8.1 1.9 3.4 3.5 6.9 5.1 10.4 2.1 4.8 2 10 3.8 14.9 1.7 4.7 5.4 9 8.7 12.7 1.5 1.4 3 4.4 4.9 5.2m-6-42.5c.2.5.7 1.1 1.2 1.4 1.1 3.2 5.1 6.8 7.7 8.9.3.3 2.8 2.1 3 2 .4-.2-2.5-2.1-2.8-2.2l-.3-.3c-.6-1.1-2.1-2.5-3.3-3-1.7-3.7-5.2-6.4-7.6-9.6-2.9-3.9-4.8-8.4-7.3-12.6-1.2-2-.6-7.1-2.7-8.2-.1-.5-.3-.8-.7-1-.1-.3 1.4 2.3 1.6 3.1.4 1.5.1 3.3.7 4.8 1.1 2.5 3.3 4.7 4.3 7.1 1.1 2.9 3 8.1 6.2 9.6m-10.7-16.1c-.1.1-3.3 1.8-3.2 1.6-.1.3 2.2-.3 2.5-.5.2-.1 1-1.2.7-1.1m-8.3 35.2c.7 1.1 1.6 1.8 2.1 3.1 1.1 3.1 0 7.7-4 7.1-1.8-.7-3-2.7-4.4-3.9-1.8-1.5-4.2-2.7-5.7-4.6-2.4-3-2.1-7.9-2.1-11.5 0-2.2.2-3.9 1.7-5.6.2-.2 1.7-1.2 1.8-1.2-.6-.5-1.9.7-2.2 1.1-1.7 1.8-1.6 4.1-1.6 6.4 0 3.5-.2 8.2 2.2 11.1 1.7 2.1 4.6 3.2 6.3 5.3 1.8 2.2 6.7 5.7 8.2.8.9-2.2.1-4.2-.5-6.3 0-.2.7-1.3.3-1.2-.1 0-.4.7-.5.9 0 0-.6-.9-1.3-1.4 6.8 0 1.6-9.4 1.2-12.5-.1-.4.6-.9.8-1.4.2.1 2.5.5 2.5.1 0-.3-1.2-.1-1.4-.2-1 0-2-.2-2.2 1.3-.1.7.7 1.8.9 2.5.9 2.6 3.1 8.8-.9 9.9-2.4.6-4.5-1.6-6.4-2.8-.3-.2-.6-.5-.8-.8-.8-1.2-2-2.3-2.6-3.7-1.9-4.2-2.2-11-.3-15.2.9-2 4.2-2 6-2.4.2-.1 2.3-.1 2.2-.3-.1-.3-2-.1-2.3-.1-1.9.4-4.9.6-6.2 2.4-1.2 1.8-1.3 4.9-1.3 6.9.2 6.6 2.9 14.8 10.5 16.2m.2-21.6c-.3.2.3 1.3.4 1.5.3.7 2.2 4.9 1.6 5.3 1.1-.7-.9-4.6-1.3-5.4-.1-.1-.6-1.5-.7-1.4m48.3 33.4-2-3.2h.3c1.2 2 4.1 5.6 6.3 6.6.6 1.2 2.4 2.2 3.5 3 2.2 1.8 4.4 3.7 6.5 5.5.8.7 1.3 1.7 2.3 2.1.8 1.8 3.8 3.9 5.3 5.2.3.2 1.8 1.8 1.8 1.8.1-.6-.9-1.4-1.2-1.7-1.5-1.5-2.9-3-4.5-4.4-5.1-4.3-10.3-8.8-15.3-13.2-1.6-1.4-2.4-4-4.4-5-.1-.3-.4-.4-.6 0-3.3-4.4-6.9-8.6-10.2-13-1.4-1.8-3.1-5.2-5.1-6.3-.8-1.4-2.8-2.5-4-3.6-1.8-1.7-2.8-3.9-5.1-5.2-.4-.3-4.4-1.8-4.4-1.7s1.9 1 2.1 1.1c2.1.9 4.1 1.8 5.5 3.8 1.7 2.6 4.2 4 6.2 6.2 3.9 4.4 7.6 9.3 11.2 14 1.4 1.8 2.8 3.5 4 5.4.6 1 .8 2.3 1.8 2.6m-51.8-29c.3-.2 3 2.1 3.4 2.5.1.1.7 1 .9.9.3-.2-.5-1-.6-1.1-.6-.4-2.8-2.8-3.7-2.3m7.4 5.1c-.3.2-.4 2.7-.3 2.7.5-.3.3-2.7.3-2.7m-9 24.4c1.1 1.2 2.1 1.1 3.3 1.6-.4.2 1.4 1.1 1.8 1.4 2 1.6 5.8 6.7 6.9 7.6 1.4 1.9 4.2 3.9 6 4.9 2.1 1.9 5.3 3.3 7.3 4.7.9.6 1.9 1.6 3 1.6-2.5-2.1-5.8-3.5-8.6-5.3-1.7-1-6.5-5.2-7.3-5.7-.3-.5-3-3.3-3.6-4.1-1.6-2-2.9-3.9-5.4-5 1.1 0 2.2 0 3.3-.9 1.8-1.4 1.3-4.4 1.1-4.5 0 3.4-2.4 6.4-6.1 4.7-1.3-.6-2.6-2.1-3.6-3.1-1.9-1.9-3.9-3.5-5.3-5.9-.7-1.2-1.4-2.6-1.7-3.9 0-.2-.1-1.4-.3-1.4-.8 0 1 4 1.1 4.3 1.4 2.8 5.6 7.4 8.1 9zM70.9 501c-.4.3-.8 2.2-.9 2.7-1.5 5.1 1.6 7.3 5.9 8.9 1 .4 4 1.6 4.9.5-.4.5-3.7-.4-4.6-.7-4.4-1.8-7.1-3.6-5.8-8.8 0-.1.8-2.7.5-2.6zm253.5-25.5s5 5.8 6 9.6c1.7 6.8 0 14.2 1.9 20.9.4 1.6.9 3.4 1.7 4.9.1.2.6 1.3.8 1.3.3 0-.1-.5-.1-.6-.8-2.8-2.3-5.4-2.7-8.4-.3-3 .1-6.1 0-9.1-.5-8.4-3-17.2-10.8-21.2-1.8-1.2-3.8-3.3-4.5-4.5s-1.1-3.1-1.5-4.4c-.7-2-1.5-3.6-1.8-5.6-.6-3.3 1.6-5.5 5.2-4.3 1.2.4 2 1.4 2.9 2.1 1 1.6 2.1 3.5 2.5 4.4-.3 0-2.1.6-1.9.9 0 0 2.8-.6 3.4-.4 2.3.9 4.9 2.3 6.9 3.7.7.5 1.2 1.3 1.6 1.8 1.6 2 3.6 3.4 5.3 5 .6.6 2.7 2.1 2.7 2.1 1.3 1.2 5.1 4.2 5.9 4.9 1.1 1 1.8 2.5 2.4 3.8 1 2.1 1 4.4 1.7 6.5 2 5.6 3 8.2 4.5 10.7 1.2 2.4 2 4.6.3.3-1.8-3.3-3.6-7.7-4.7-11.2-.7-2.4-.9-5-2.1-7.3-2.1-4.2-6.7-6.7-10.2-9.7-1.2-1-4.3-3.9-5.3-4.9-2.1-3.4-6.8-5.2-10.3-6.3-1.4-3.3-3.1-5.8-6.1-6.7-1.2-.4-3.4-.5-4.2.6-2.1 2.9-.7 6 .5 8.8.6 1.6 1 3.5 1.8 5.1 1.7 3.2 5.6 5.6 8.2 7.2zm-33.6 7.1c-.2-.2-.7 1.1-.8 1.4-.7 1.5-1.5 2.8-1.7 4.5-.2 1.3-.5 3.3-.1 4.6.7 2.5 3.3 4 5 5.7.7.7.8 1.8 1.6 2.3 5.4 3.9 10.6-6.7 6.2-9.6 1.7 0 4.7.5 6-.7.3-.3 2.4-3.7 2-3.8-.2-.1-1.9 3.2-2.2 3.6-1.5 1.3-4.1.5-5.9.7-.1-.4-2-2.1-2-2.1-.2.3.6.9.8 1.1.9.9 1.8 2.1 2.3 3.3.9 2.2-.8 7-3.1 7.9-1.5.6-3-.2-4.3-.8-.4-1.1-3.3-4.3-4-4.8-.5-.3-.6-.7-1-1.2-1.2-1.5-1.6-5.2-.4-8.2.4-1.4 1.4-2.5 1.6-3.9.5 1.7.9 2.9 1.8 4.1 1.9 2.5 4.3 3.2 7-.2.8-1 1.8-3.5 1.9-4.5 3.4 0 6.9 2.1 10.1.4.6-.3 3.2-1.9 2.5-2.1-.7.9-2.1 1.5-2.5 1.7-3.7 2-6.8-1.6-10.2-.3-.4.2-.4 1.8-.5 2.2-.5 1.5-1.6 2.7-2.8 3.8-3.7 3.5-7.2-3.5-7.3-6.4-.2-4.2 2.1-6.2 5-8.7 1-.9 2.8-2.5 4.2-2.7 5.4-.6 9.8 1.4 14.7 3 2.2.7 4.5 1.2 6.8 1.7.2 0 2.4.6 2.3.3s-1.9-.6-2.3-.6c-2.2-.5-4.6-.9-6.8-1.7-4.9-1.8-9.5-3.7-14.9-3-1.5.2-3.3 1.9-4.4 2.8-3.5 3-5.5 5.5-4.6 10.2m9.1-6.2c-.4.3 1.9 4.6 1.4 4.9.7-.5-.6-3.4-.8-3.9-.1-.1-.5-1.2-.6-1m5.5 0c-.8.5-.9 4.1-1.8 4.3 1.4-.3 1.3-4 1.8-4.3M301 486c-.6.4.2 3.6-.3 3.8 1.2-.6-.1-3.6.3-3.8m5.8 9.2c-.3.2-.3 2.2-.6 2.6-.5.9-1.9 1-2.3 1.7-.1.2 1.6-.3 1.8-.5.7-.5 1.1-1.7 1.3-2.5-.1-.5-.1-1.5-.2-1.3m-15.6 5.5c-1.9 1.3-2 5 0 6.3 1.1 2.4 4.4 3.6 6.7 2.7.5-.2 3.5-1.8 3.2-2.5-.1-.2-.9.6-1 .7-.9.8-2.4 1.9-3.6 1.9-2.7.1-6.4-3.2-6.4-6 0-1.3 1-1.9 1.2-3 2.2 2.9 3.5 6.3 7.7 6.1 4-.1 5.8-4 4.3-7.4-.2-.4-.3-1.5-.6-1.8-.3-.2.1 1.5.2 1.7 1.9 4.6-1.5 7.8-6.2 7-2.1-.4-4.8-4.6-5.4-6.5-.2-.5-.3-2.8-.6-3-.2-.1.3 3.4.5 3.8m72.8 13c-.2-.4-.6-.7-1-1.1-.6-.5-1-1-1.3-1.7-1.3-2.4-2.8-4.5-3.8-7.2l-1-3c-.2.8.9 3.6 1 4.1 1 2.7 2.5 5.6 4.4 7.6.3.3 1.8 2 2.2 1.7.4 0-.4-.4-.5-.4m-58.9-9.9c-.7.2-.1 4.9.1 5.5 0 .2.3 1.5.5 1.5.3-.1-.1-1.3-.2-1.5-.3-1.4-.3-2.8-.3-4.2 0-.2.2-1.4-.1-1.3m6.9 12.6c1.6 1.2 2.9 3.2 4.5 4.2.3.2.5.4.8.6.1.2.3.4.5.5.2.2.5.6.7.9 2 3.4 6.3 6.1 9.5 8 .4.3 4 1.7 4 1.9.7-.3-3.6-2-4.1-2.3-2-1-4.3-2.4-5.8-4.1-1.8-2-3.3-4.7-5.7-6-.2-.3-.5-.6-.8-.9-.6-.4-1.1-1-1.5-1.6-2.1-2.9-6.9-5.2-9.6-7-.4-.2-3.5-2-3.8-1.6-.1.1 1.4.9 1.5.9 1.5.8 3.1 1.8 4.6 2.5.6.3 1.1.6 1.7 1.1.9.8 2.9 2.4 3.5 2.9z" style="stroke-miterlimit:11.3386;fill:gray;stroke:gray;stroke-width:.1417"/><path d="M233.9 83.6h-.3c-1.9 4.8-5.1 9.8-2.7 15.1 1 2.2 3.2 5.9 5.2 7.4 2.1 1.5 4.7.3 5.6-2 1.9.3 3-1.6 3.6-3.1.1-.2.8-1.9.5-1.9s-.7 1.6-.8 1.9c-.6 1.4-1.6 2.9-3.2 2.9.7-3.4-.5-6.1-1.6-9.2-.3-.8-1.6-3.2-1.4-3.6-.5 1.1.8 2.8 1.1 3.8 1.3 3.3 3.6 8.8-.4 11.3-2.7 1.6-5-2.2-6.1-4.1-2.7-4.7-3.8-8.2-1.9-13.6.7-1.7 2.1-3.2 2.4-4.9 1.5 4.5 5 7 8.7 9.6 1 .7 3.4 2.4 4.7 1.7-.9.4-4-1.7-4.9-2.3-2.8-1.8-5.9-4-7.3-7.2-1.8-3.9-1.4-6.6 3.1-7.4 3-.5 5.8 3.1 8.5 4.1 6 2.1 12.2 4.2 18.2 6.3 2.9 1 5.6 1 8.3 2.7 2.6 1.7 4.5 4.9 6.1 7.3.2.3 1.7 2.3 2.1 2 .2-.1-1.1-1.2-1.2-1.4-1.3-1.4-2.4-3.1-3.5-4.6-1.6-2.1-3.4-4.2-6-5.1-1.9-.7-4-.6-5.9-1.3-3-1.1-6.1-2.9-9.2-3.4 3.1 0 7 1.4 9.8 2.8.3.2 2.7 1.2 2.7 1.1 0-.5-1.9-1.1-2.3-1.3-2.5-1-5-1.7-7.6-2.5-.5-.1-2.7-.8-2.9-.2-1.8-.5-3.4-1.5-5.2-2-1.3-.4-2.7-.3-3.9-.9-2.3-1.2-4.4-3.4-7-3.9-4.1-.7-5.9 2.4-5.3 5.9m11.6-1.4c-.5.1-4 1.6-3.7 2.1 0 0 3.5-1.8 3.7-2.1m-9.6 7.6c.2-.1 2.3 1.6 2.4 1.5.5-.2-1.7-1.9-2.4-1.5m55.2 20.1c.5 0-.2-1.3-6.8-9.2-1.7-2.7-4.3-5.4-6.8-7.3-.3-.2-2.3-2-2.6-1.6-.1.1 2.2 1.8 2.5 2 2.5 1.9 12.4 13.4 13.7 16.1m-61.3-16.1c.1-.1.8-1 .5-1-.4 0-1 1.3-1.1 1.6-1.2 2.1-1.1 4.2-1.3 6.5-.3 3.4-.4 7.6 2 10.4.8.9 2.2 1.4 3.1 2.4 1.2 1.3 3.4 3.9 5.2 4.1 4.2.4 5.8-3.4 5.3-7-.1-.8-1.1-4.1-2.2-4.1-.2 0 1.1 2 1.3 2.2 1.5 2.4.9 7.1-1.9 8.3-3.1 1.3-5.6-1.8-7.4-3.7-.9-.9-2.5-1.5-3.1-2.4-3.8-5.6-2.1-12-.4-17.3m16.8 1.8c-1.3.2-2.7.9-4 .3-.4-.2-.7-2.4-1.3-2.2-.1 0 .6 1.5.6 1.7s-.5.6-.4.7c.5.7 4.7.3 5.1-.5m1.2-.6c.2-.1 3.2 1.9 3.7 2.2 3.4 1.9 6.3 4.6 10.2 5.4.9.2 3.2.5 4-.2-.2.2-3 .1-3.7-.1-3.9-.8-6.8-3.4-10.2-5.3-.7-.4-3.2-2.4-4-2m-4 17.1c1.8-.8 1.4-3.7 1.2-5.2-.1-.4-.2-1.9-.7-1.9-.1 0 .3 1.4.3 1.6.3 2.4-.5 3.4-.8 5.5m27 14c-.6-1.9-3-3.5-4.1-5.1-2.4-3.4-4.1-7.1-6.2-10.6-.8-1.3-1.6-2.6-2.1-4 0-.1-.4-1.3-.5-1.2-.9.6 2 4.7 2.3 5.3 2.1 4 4.4 8.1 7.1 11.8.8 1 2.1 3.1 3.5 3.8m-27.3-12.6c.2 1.5 1.4 2.8 1.5 4.4.2 2.7-2.4 5.8-5.3 4.7-1.1-.4-2.1-2.6-2.9-3.5-1.2-1.3-2.9-1.9-4.1-3.3-.3-.3-2.4-3.7-2.4-3.7-.5.4 1.8 3.5 2.1 3.9 1.1 1.4 2.6 1.9 3.9 3.1 1.9 1.7 2.9 5.2 6.1 3.8 3.2-1.5 4.2-7.5 1.1-9.4m-12.4 1.3c-.4.3-.6 1.6-.7 2.1-.9 3.9 2.9 5.2 5.9 6 .6.1 2.6.7 3.1.2 0 0-2.4-.4-2.7-.5-3.1-.7-6.9-2-5.8-6 0-.3.3-1.8.2-1.8m14.3 8c-.2-.1-1.4-.9-1.5-.6 0 .1 1.1.6 1.2.7 1.3.8 2.6 1.4 3.9 2.3 4 2.8 7.5 6.4 11.5 9.3 1.2.8 2 2.5 3.5 2.8-1.3-2.3-4.8-4.1-6.8-5.7-2.9-2.1-5.3-4.9-8.3-6.9-.8-.5-2.6-1.2-3-2-.1-.2-.3-1.8-.6-1.8-.4-.1.1 1.5.1 1.9zm71.5-37.3c-1.4 0-2.6-.8-3.9-1.1-3.3-.9-9.3-2.2-12.6-.9-2.5.9-4.1 4.4-5 6.6-2.5 6-6.9 16.2-1.1 21.5-.4.9 1 3.8 1.5 4.7.8 1.3 2.3 2.8 3.6 3.8 1.8 1.6 4 3.1 6.5 3.1.3-.2 3.3 1.1 3.9 1.4 3 1.4 5.7 4.1 8.3 6.2 1 .8 3.3 3.2 3.5 3.4.2.3.5.6.8.9.5.5 4.6 4.6 5.4 4.3 0 0-3.3-2.6-5.4-4.9-1.2-1.4-4-3.7-5.2-4.6-3.2-2.5-6.8-6.7-11.2-6.7 2.3-1.8 3-3.7 2.8-6.6 0-.4-1.3-3.2-1.8-3.1-.2.1.7 1.4.8 1.6.8 1.7 1.1 3.9.3 5.7-.2.5-.8.8-1.2 1.2-2.5 2.2-5.3-.5-7.5-2.1-1.2-.9-1.8-1.4-2.3-2.2-1.3-1.9-2-3.4-2.6-5.8 2.7 2.1 7.9 8.2 11.4 4 1.5-1.8 1.7-9.6-1.6-9.8.6 0 1.7 2.2 1.9 2.9.7 2.6.6 6.7-2.4 7.8-2.8 1-4.6-1.2-6.3-2.5-1-.8-3.1-3-3.8-3.7-1.2-1.2-1.7-3-1.9-4.6-.5-4 1.7-7.3 2.3-11.1 0 2 .8 4.3 1.8 6 .1.2 1.3 2.1 1.4 1.8.2-.3-.9-1.5-1-1.8-.8-1.7-1.8-3.6-1.9-5.6-.1-2.5 1-5.8 2.4-7.9.6-.9 1.7-1.6 2.1-2.6.2-.1.4-.2.5-.5l.3-.3c4.7-1.7 13.1-.4 17.5 1.7 1.1.5 2.1 1.8 2.7 2.7.7 1.2 2.8 3 3.8 4.1 1.1 1.1 4 8 6.4 8.2.8.1-1.2-.8-2.9-2.8-1.5-1.8-2.4-4.9-4.8-6.8-.8-.9-1.2-1.3-2-2.2l-.3-.3c-.5-1.2-2.8-3.2-4.2-4.5-.7-.6-1.3-1.4-1.7-2.3-2.2-4.9-4.1-9.7-2.7-15.3.6-2.4 3.8-3.4 5.6-2 2.2 1.7 3.1 5.3 4 7.8-.2.1-3.6 1.1-3.5.6-.3.9 3.4.1 3.8-.5.3-.5-.4-1.5-.6-1.9-.6-1.5-1.6-4.3-2.8-5.4-.5-.5-1.1-1.3-2.2-1.5-4.3-.1-5 3.2-5 5.7.1 5.4 1.6 12.9 6.1 16.2m5-13.1c.1.3 4.3 3.1 5.7 4.7.6.6.8 1.7 1.5 2 .8.9 2.9 2.6 3.9 3.2 1.3 1 3.2 2.8 4.7 3.6 2.5 2.6 3.6 2.3 4.8 3.7 2.3 2.7 4.1 5.9 6 8.8.6 1 5.9 10.2 7.6 13.1.6 1 1.4 2.3 2.4 3.2.8 1.7 2.3 2.8 3.7 4.2 2 2.7 2 1.7-.2-.5-1.9-1.9-3.7-4.2-5.2-6.5-4.6-7.3-8-15.7-13.8-22.3-1-1.1-2.4-1.6-3.5-2.5-3.3-2.7-6.6-5.3-9.9-8-.7-.6-.9-1.5-1.5-2.1-1.2-1.3-4.3-3.7-5.8-4.5-.4-.5-.9-.4-.4-.1M306 89c-.3.2.1 1.1.2 1.4.1.7.4 4.5-.1 4.7 1.1-.5.5-4 .4-4.8-.1-.2-.3-1.4-.5-1.3m-3.6 2.3s2.6 3.3 2 3.7c1-.6-1.6-4-2-3.7m3 4c-1 1.2.6 4.7.1 6.7-.7 2.6-3 5.3-5.8 3.7-.3-.2-2.5-2.5-2.3-2.6-.2.2.3 1.1.4 1.3.6 1.1 2 2.2 3.3 2.2 3.8.2 4.7-4.3 4.7-7.1 0-1.1.1-2.6-.8-3.4 1.5-.7 4.2 1.2 6 .7.5-.1 1.1-1.2 1.5-1.6.2-.2 1.8-1.8 1.7-1.9-.7-.4-2.7 2.8-3.4 3.1-1.4.7-3.8-.6-5.4-1.1m32.1 33.8c-1.7-1.3-3.8-4.4-4.8-6.3-1.1-2.1-1.5-4.4-2.3-6.6-1.1-3-2.6-6-3.4-9.1-.4-1.8-.8-3.6-.8-5.4 0-.2.1-1.7-.1-1.7-.3 0-.1 1.7-.1 2 0 2 .5 4.2 1.1 6.1 1.8 5.5 3.6 11.7 6.5 16.7.8 1.3 2.3 4.4 4.1 4.6.3-.1-.1-.3-.2-.3M310 100.6c-.7.3-1.3 3.1-2 3.8-.9 1.1-2.5.3-3.2 1 0 0 2.1.2 2.6-.1 1.1-.5 1.9-1.9 2.2-3 0-.3.5-1.8.4-1.7m-1.2 7.7c-.3.2-.1 1.1-.1 1.4-.1.7-1.2 3.4-1.1 3.4.8-.3 1.4-2.8 1.4-3.5-.1-.1-.1-1.4-.2-1.3m-13.7 13.5c-.6-1.7-.5-2.8-.1-4.6 0-.2.4-1.4 0-1.5-.1 0-.4 1.7-.4 1.9-.3 1.7-.7 3.4.7 4.7 2 1.7 4.4 2.2 7 2.2.3 0 3.2-.3 2.7-1.1.1.2-2.3.8-2.7.8-2.9 0-4.5-1.2-7.2-2.4m13.3 0c-.5.4.7 2.1.8 2 .3-.3-.8-2-.8-2z" style="stroke-miterlimit:11.3386;fill:gray;stroke:gray;stroke-width:.1134;stroke-linecap:round"/><radialGradient id="path32807_00000034051806715200525300000008379442121961385860_" cx="-148.78" cy="109.89" r="1.728" gradientTransform="matrix(2.5475 0 0 -2.8257 457.23 394.83)" gradientUnits="userSpaceOnUse"><stop offset=".016" stop-opacity=".818"/><stop offset=".617" stop-color="#6C6C6C" stop-opacity=".467"/><stop offset="1" stop-color="#fff" stop-opacity="0"/></radialGradient><path fill="url(#path32807_00000034051806715200525300000008379442121961385860_)" d="M77.8 79.4c1.9 3.6 3.3 5.7 4.8 7.4-.6 1.2-1.1 2.3-2.6 2.3-1.4 0-5.3-1.9-5.9-4.8s-.4-4.7 1-4.9c1.3-.1 2.7 0 2.7 0"/><path d="m69.4 94.2-5.6 1.6 3.3-4.8c-.1 1.5.9 2.8 2.3 3.2m18.7-2.8 2.5 5.2-5.3-2.4c1.6-.1 2.8-1.3 2.8-2.8M68.6 77.8l-2.5-5.2 5.3 2.4c-1.5.1-2.7 1.2-2.8 2.8" class="st1"/><text class="st9 st10" transform="translate(66.155 149.58)">Thumb tap location and</text><text class="st9 st10" transform="translate(66.108 159.83)">thumb swipe directions</text><text class="st9 st10" transform="translate(173.95 149.58)">Thumb tap</text><text class="st9 st10" transform="translate(66.155 341.71)">Right swipe</text><text class="st9 st10" transform="translate(66.155 247.58)">Left swipe</text><text class="st9 st10" transform="translate(66.155 441.86)">Forward swipe</text><text class="st9 st10" transform="translate(66.155 540.38)">Backward swipe</text><path d="m87.3 480.6 4.5 8.1-8.7-3.2c2.5-.4 4.1-2.4 4.2-4.9m222.5-13.3 2.6-8.9 3.8 8.5c-2.1-1.5-4.8-1.3-6.4.4" class="st1"/><path d="M311.6 381.5c1.7 1 3.3 1.6 5.4 2.8" class="st5"/><path d="m296.5 362.7 4.1-8.3 2.3 8.9c-1.8-1.7-4.3-2-6.4-.6" class="st1"/><path d="M113 340.6h252v.8H113zm105.3-191.8h146.8v.8H218.3zm-109.9 97.7h256.7v.8H108.4zm15.3 194.2h241.4v.8H123.7zm6.4 98.6H365v.8H130.1z" style="fill:#676767"/><path d="M236.8 86c1.9 3.2 3.6 3.4 3.6 3.5" class="st12"/><path d="M238.1 85.9c1.2 2 1.7 2.3 2.6 2.9" class="st13"/><path d="M235.3 86c1.9 3.6 4.2 4.4 4.2 4.5" class="st14"/><path d="M147.364 283.935c1.957 3.165 3.66 3.334 3.662 3.434" class="st12"/><path d="M148.662 283.811c1.236 1.978 1.74 2.27 2.652 2.853" class="st13"/><path d="M145.864 283.962c1.965 3.565 4.279 4.323 4.28 4.423" class="st14"/><path d="M222.11 192.896c1.958 3.165 3.661 3.334 3.663 3.434" class="st12"/><path d="M223.408 192.772c1.236 1.978 1.741 2.269 2.652 2.853" class="st13"/><path d="M220.61 192.923c1.965 3.565 4.28 4.323 4.281 4.423" class="st14"/><path d="M229.587 376.915c2.747 2.55 4.44 2.22 4.443 2.32" class="st12"/><path d="M230.978 376.39c1.728 1.569 2.33 1.658 3.337 2.04" class="st13"/><path d="M228.196 377.44c2.852 2.85 5.355 3.004 5.357 3.104" class="st14"/><path d="M151.638 476.578c2.947 2.317 4.608 1.849 4.618 1.948" class="st12"/><path d="M152.792 476.06c1.852 1.422 2.459 1.462 3.494 1.76" class="st13"/><path d="M150.295 477.216c3.076 2.605 5.584 2.554 5.594 2.654" class="st14"/><path d="M157.172 186.05c1.736 3.293 3.423 3.578 3.418 3.678" class="st12"/><path d="M158.48 185.917c1.098 2.058 1.582 2.383 2.45 3.028" class="st13"/><path d="M155.674 185.975c1.715 3.691 3.972 4.607 3.967 4.707" class="st14"/><path d="M157.982 375.296c2.294 2.93 4.006 2.911 4.018 3.01" class="st12"/><path d="M159.246 374.931c1.446 1.83 1.98 2.064 2.95 2.544" class="st13"/><path d="M156.494 375.488c2.345 3.327 4.729 3.826 4.742 3.925" class="st14"/><path d="M227.167 476.843c2.294 2.93 4.005 2.911 4.018 3.01" class="st12"/><path d="M228.43 476.478c1.447 1.83 1.98 2.064 2.95 2.543" class="st13"/><path d="M225.68 477.034c2.344 3.328 4.728 3.827 4.74 3.926" class="st14"/><path d="m69.2 75.6 18.4 18.1m-20-.5 12.7-9.7" class="st15"/><path d="m80.5 83.2 8.6-6.3" class="st5"/><path d="M92.4 176.8c-1.1 10-8.7 12.6-19.3 18m226.3-4c-1.8 1.7-3.5 3.4-6 3.2-4.1-.2-1.5-9.7-.9-13.5" class="st4"/><path d="M308.1 184c-3.1 2.8-6.1 4.9-8.5 6.6" class="st5"/><path d="M297.9 287.1c4.2-1.6 10.5-5.8 13.5-9.2 1.3-1.5 2.7-5.1 2.9-7.6" class="st4"/><path d="m302.6 87.9 4.9-13.5" class="st16"/><path d="m179.1 80 3.3-7.1" class="st5"/><path d="m176.9 84.9 1.7-3.9" class="st16"/><path d="M93.5 368.2c-1.1 3.1-4.5 7.4-7.9 7.6-2.2.2-4.7-1.5-6.5-2.8-3.3-2.4-5.2-5.1-7.5-8.5" class="st15"/><path d="M82.2 459.4c-2.2 1.2-5.9 5.4-6.6 8.6-1.3 7.1 9.8 14.7 12.3 16.9" class="st4"/><path d="M293.9 463.3c1.9 2.5 14 17.4 17.7 16.8 2.7-.4 1.9-12.6 1.4-15.1" class="st15"/><path d="M310.4 380.8c-1.5-.6-8.6-5.1-9.5-6.4-2.6-4.2-1.4-7.5-1.1-13.8" class="st4"/><path d="M234.8 274.7c-1.6.4-.8 1 .1.1.7.9 4.8 1.2 6.1 1.7 5.3 2 10.3 5 15.6 7 1.6.6 3.6 1.1 5 2.1.6.4.9 1.6 1.5 1.8.2.1.1-.3.1-.3-1-2.5-4.5-2.9-6.7-4-3.6-1.8-7.2-2.8-10.9-4.3-1.6-.7-2.9-1.9-4.6-2.5s-4-.6-5.5-1.3c-1.8-.8-3.7-2.9-5.5-4-.2-.1-2-.9-2-.6 0 .2 1.6.7 1.9.9 1.6.8 3.6 1.8 4.9 3.4m-9.4.9c-3.5 0-6.2 3.2-8.2 5.7-.6.8-1.8 2-1.9 3.1-.4 3.3.8 6 1.9 8.9s4 4.8 6.6 2.1c2.3-2.4 1.5-5.6 3-7.9 1.6 1 3.1 1.2 4.9 1.2.2 0 1.8-.1 1.7-.6 0-.1-1.3.3-1.6.3-1.2 0-2.4 0-3.5-.5-.4-.2-1.2-.8-1.7-.6-1.4.7-.6 2.1-.8 3.3-.4 2.4-2.9 6.7-6 5.7-1.9-.6-2.2-3.3-2.9-4.9-1-2.4-1.8-4.4-1.4-7 .2-1 1.1-2.1 1.7-2.8 1.7-2.1 4.5-5.8 7.5-5.8.9 0 1.4 1.2 1.9 1.8 1.3 1.8 2.5 3.9 4.1 5.5 2.1 2 3.6 2.5 5.9 3.6 1.8.9 3.2 1.7 5.2 2.4 1 .4 1.9.2 2.8.7 1.3.7 2.1 3.2 3.3 3.6-.5-1.2-1.9-3.3-3.1-3.9-1.4-.7-2.9-.5-4.4-1.3-1.3-.6-2.4-1.4-3.7-2-1.5-.6-2.9-.9-4.2-2.1-2.7-2.3-7.2-7.1-7.4-10.9-.1-1 .2-1.8 1.1-2.3.1-.1 1.3-.6 1.2-.7-.2-.5-2 .9-2.2 1.1-.6 1.4-.3 3.2.2 4.3m-1.6 7.2c-.4.3 2 4.6 1.7 4.8.7-.6-1.7-4.8-1.7-4.8m3.8 4.1.3-.3c.3-.3 1.4-3.2.6-3.2.3 0-.7 3.3-.9 3.5m-3.2 8.9h-.3c.5 2.1 1.8 4.1 2.5 6.1 1.2 3.3-2.1 6.3-5.2 5.5-1.3-.3-2.1-2.1-3.1-2.9-4.2-3.4-6.9-6.1-5.1-11.9.4-1.4 1.1-2.6 1.5-4 0-.1.4-1.3.1-1.3-.1 0-.5 1.6-.6 1.8-.8 1.9-1.7 3.9-1.8 5.9-.1 5.3 1.9 6.6 5.6 9.8 1.6 1.4 2.2 2.9 4.5 3.1 7.3.5 3.4-8.9 1.9-12.1m39.2-8.1c1 2.1 3.5 3.5 4.7 5.6 5.6 9.7 11.1 19.9 20.5 26.3 2.6 1.8 4.3 4.8 6.7 6.8.2.2 2.5 1.6 2.5 1.6.3-.4-1.9-1.6-2.2-1.8-2.3-1.9-4.1-4.6-6.4-6.6-2.4-2.1-5.2-3.7-7.4-6-1.1-1.1-1.5-2.6-2.5-3.8-2.2-2.9-4.7-5.5-6.5-8.8-2.1-3.7-3.9-7.9-6.9-10.9-.7-.7-1.5-2.1-2.5-2.4m-34.1 8.3c1-.2 2.5-4.1.6-1-.2.4-.3.7-.6 1m-.2-.2c-.4.1-4 1.3-4.1 1 .3.8 3.8-.4 4.1-1m-1.9 7.9v.3c1.4-.2 1.6-1.3 1.8-2.5 0-.2.2-1.5-.1-1.5-.2 0-.2 1.1-.2 1.3-.1 1.1-.3 2.1-1.5 2.4m18.5-3.4c-.6.4.2 3 .3 3.6.7 3.6 1.6 7.8 3.1 11.1.2.4 1.9 4 2 3.9.4-.3-1.5-3.6-1.7-4-1.5-3.3-2.5-7.6-3.1-11.2-.1-.4-.7-3.3-.6-3.4m-30.4 5.3c-.4.1-.4.8-.6 1.1-2 2.4-.2 4.7 2 6.2 1.7 1.2 3.9 2.5 6.1 2.2.6-.1 1.5-1.1 2-1 1.4.1 4.1 1.8 5.3 2.6 3.3 2.3 6.5 6 9.3 8.8 1 1 2.8 3.5 4.2 3.7-1-2.1-4.4-4-6.1-5.5-2.3-1.9-3.9-4.5-6.2-6.5-1.8-1.5-4.4-2.7-6.3-3.8-.1-.1-.7.7-.8.8-.8.6-1.6.7-2.6.7-2.3-.1-7.2-3.1-7.4-5.5-.2-1.5 1-2.1 1.3-3.5 1.6 3.9 7.7 9.7 11.9 6.1 1.7-1.4 1.9-6.6-.5-7.6.4 1.3 1.3 2.2 1.4 3.6.3 3.4-2.8 5.8-6.1 4.5-2.1-.9-4.2-3.8-5.6-5.5-.2-.3-2.4-3.7-2-3.9-.6.1.6 2.2.7 2.5m12.3 7.4c-.4.2.1 1.7.4 1.5.3-.1-.3-1.5-.4-1.5z" class="st0"/><path d="M228.257 277.16c1.736 3.293 3.423 3.578 3.418 3.678" class="st12"/><path d="M229.565 277.027c1.098 2.058 1.582 2.383 2.45 3.028" class="st13"/><path d="M226.759 277.085c1.715 3.691 3.972 4.607 3.967 4.707" class="st14"/></g></svg>
