<svg xmlns="http://www.w3.org/2000/svg" width="230mm" height="450.595" viewBox="0 0 230 119.22"><path fill="#0ff" fill-opacity=".692" fill-rule="evenodd" stroke="#000" stroke-linejoin="bevel" stroke-width="1.965" d="M148.81 51.309h37.984v35.58H148.81z" opacity=".95" style="paint-order:stroke fill markers" transform="translate(39.077 -29.297)"/><path fill="none" stroke="#000" stroke-linejoin="bevel" stroke-width="1.965" d="M12.261 19.766h37.984v35.58H12.261z" opacity=".95" style="paint-order:stroke fill markers" transform="translate(37.863 2.246)"/><path fill="navy" fill-rule="evenodd" d="M19.232 23.132h22.117v12.261H19.232z" opacity=".95" style="paint-order:stroke fill markers" transform="translate(37.863 2.246)"/><path fill="none" stroke="#000" stroke-linejoin="bevel" stroke-width="1.965" d="M58.182 19.766h37.984v35.58H58.182z" opacity=".95" style="paint-order:stroke fill markers" transform="translate(37.863 2.246)"/><path fill="#f0f" fill-rule="evenodd" d="M75.25 25.656h12.02v18.751H75.25z" opacity=".95" style="paint-order:stroke fill markers" transform="translate(37.863 2.246)"/><path fill="none" stroke="#000" stroke-linejoin="bevel" stroke-width="1.965" d="M104.1 19.766h37.984v35.58H104.1z" opacity=".95" style="paint-order:stroke fill markers" transform="translate(37.863 2.246)"/><path fill="#0b0" fill-rule="evenodd" d="M127.9 29.623h12.02v18.751H127.9z" opacity=".95" style="paint-order:stroke fill markers" transform="translate(37.863 2.246)"/><path fill="#0ff" fill-opacity=".692" fill-rule="evenodd" stroke="#000" stroke-linejoin="bevel" stroke-width="1.965" d="M148.81 51.309h37.984v35.58H148.81z" opacity=".95" style="paint-order:stroke fill markers" transform="translate(-40.897 26.62)"/><path fill="none" stroke="#000" stroke-linejoin="bevel" stroke-width="1.965" d="M104.1 19.766h37.984v35.58H104.1z" opacity=".95" style="paint-order:stroke fill markers" transform="translate(3.809 58.161)"/><path fill="#0b0" fill-rule="evenodd" d="M127.9 29.623h12.02v18.751H127.9z" opacity=".95" style="paint-order:stroke fill markers" transform="translate(3.809 58.161)"/><path fill="none" stroke="#000" stroke-linejoin="bevel" stroke-width="1.965" d="M58.182 19.766h37.984v35.58H58.182z" opacity=".95" style="paint-order:stroke fill markers" transform="translate(49.73 58.161)"/><path fill="#f0f" fill-rule="evenodd" d="M75.25 25.656h12.02v18.751H75.25z" opacity=".95" style="paint-order:stroke fill markers" transform="translate(49.73 58.161)"/><path fill="none" stroke="#000" stroke-linejoin="bevel" stroke-width="1.965" d="M12.261 19.766h37.984v35.58H12.261z" opacity=".95" style="paint-order:stroke fill markers" transform="translate(95.652 58.04)"/><path fill="navy" fill-rule="evenodd" d="M19.232 23.132h22.117v12.261H19.232z" opacity=".95" style="paint-order:stroke fill markers" transform="translate(95.652 58.04)"/><text xml:space="preserve" x="64.987" y="72.601" stroke-width=".265" font-family="sans-serif" font-size="7.056" letter-spacing="0" style="line-height:6.61458302px" transform="translate(33.1 -.4)" word-spacing="0"><tspan x="64.987" y="72.601">Resulting Image</tspan></text><text xml:space="preserve" x="174.841" y="8.437" stroke-width=".265" font-family="sans-serif" font-size="7.056" letter-spacing="0" style="line-height:6.61458349px" text-anchor="middle" transform="translate(33.1 -.4)" word-spacing="0"><tspan x="174.841" y="8.437">Main</tspan><tspan x="174.841" y="15.052">Session</tspan></text><text xml:space="preserve" x="-30.79" y="16.587" stroke-width=".265" font-family="sans-serif" font-size="7.056" letter-spacing="0" style="line-height:6.61458302px" transform="translate(33.1 -.4)" word-spacing="0"><tspan x="-30.79" y="16.587" font-size="4.233">sessionLayerPlacement</tspan></text><text xml:space="preserve" x="23.157" y="16.587" stroke-width=".265" font-family="sans-serif" font-size="7.056" letter-spacing="0" style="line-height:6.61458302px" transform="translate(33.1 -.4)" word-spacing="0"><tspan x="23.157" y="16.587" font-size="4.233">MAX_UINT32</tspan></text><text xml:space="preserve" x="126.041" y="16.457" stroke-width=".265" font-family="sans-serif" font-size="7.056" letter-spacing="0" style="line-height:6.61458349px" transform="translate(33.1 -.4)" word-spacing="0"><tspan x="126.041" y="16.457" font-size="4.233">0</tspan></text><text xml:space="preserve" x="68.81" y="16.157" stroke-width=".265" font-family="sans-serif" font-size="7.056" letter-spacing="0" style="line-height:6.61458349px" transform="translate(33.1 -.4)" word-spacing="0"><tspan x="68.81" y="16.157" font-size="4.233">Positive Value</tspan></text><text xml:space="preserve" x="52.156" y="9.158" stroke-width=".265" font-family="sans-serif" font-size="7.056" letter-spacing="0" style="line-height:6.61458349px" transform="translate(33.1 -.4)" word-spacing="0"><tspan x="52.156" y="9.158">Overlay Sessions</tspan></text></svg>
